<svg width="15" height="14" viewBox="0 0 15 14" fill="none" xmlns="http://www.w3.org/2000/svg">
<path fill-rule="evenodd" clip-rule="evenodd" d="M11.2608 0C11.2453 0.693644 10.9728 1.35678 10.4962 1.86065C10.0196 2.36453 9.37294 2.67318 8.68172 2.72669V2.77457C8.68151 3.24761 8.56147 3.71288 8.33282 4.12689C8.10417 4.5409 7.77438 4.89015 7.37426 5.14199C6.97414 5.39383 6.51676 5.54004 6.04485 5.56697C5.57294 5.5939 5.10191 5.50066 4.67578 5.29596C4.41873 5.66511 4.07648 5.96675 3.67808 6.17527C3.27967 6.3838 2.83688 6.49305 2.38728 6.49376C1.93769 6.49447 1.49455 6.38661 1.0955 6.17934C0.696442 5.97207 0.353242 5.67152 0.0950305 5.30317C-0.121835 6.65356 0.0341181 8.03757 0.546037 9.30571C1.05796 10.5738 1.90638 11.6779 2.99966 12.4986C4.09294 13.3193 5.38951 13.8254 6.74931 13.9623C8.1091 14.0992 9.48043 13.8617 10.7151 13.2753C11.9499 12.689 13.001 11.7762 13.7551 10.6355C14.5091 9.49485 14.9374 8.16965 14.9936 6.80309C15.0499 5.43654 14.732 4.08058 14.0742 2.8817C13.4164 1.68283 12.4438 0.686602 11.2615 0.000655943L11.2608 0ZM7.50065 12.4915C4.48571 12.4915 2.36214 10.7821 2.04229 8.17024C2.04229 8.09021 3.09097 8.09021 3.09097 8.17024C3.54976 10.0724 5.06707 11.4302 7.50131 11.4302C9.93555 11.4302 11.9116 9.42962 11.9116 6.96464C11.9116 6.88462 12.9603 6.88462 12.9603 6.96464C12.959 10.0147 10.513 12.4915 7.50065 12.4915Z" fill="white" fill-opacity="0.75"/>
</svg>
