<svg width="64" height="52" viewBox="0 0 64 52" fill="none" xmlns="http://www.w3.org/2000/svg">
<g opacity="0.57" filter="url(#filter0_d_1215_235)">
<path d="M33.6079 15.6338C33.3919 14.8618 31.1199 7.30584 23.6959 4.74184C22.4159 4.30184 17.7319 2.88584 12.8079 5.22984C7.34787 7.82984 5.61187 13.1418 5.18387 14.4938C2.15587 23.7378 8.83587 32.0098 9.40787 32.6978C13.1919 37.2338 16.6079 40.2378 21.9239 43.7498C25.9545 46.421 30.2426 48.6816 34.7239 50.4978C38.5892 48.5909 42.3016 46.3883 45.8279 43.9098C50.5239 40.6138 53.3199 37.9498 56.8759 34.3098C57.9759 33.1938 64.0079 26.8378 63.2159 17.9098C63.0399 15.9098 62.5599 10.5178 58.0159 6.70984C52.4679 2.05384 45.5839 3.62584 44.9839 3.76984C39.3959 5.14184 35.0079 9.75384 33.6079 15.6338Z" fill="url(#paint0_linear_1215_235)"/>
</g>
<defs>
<filter id="filter0_d_1215_235" x="0.399902" y="0.399902" width="62.8875" height="51.0979" filterUnits="userSpaceOnUse" color-interpolation-filters="sRGB">
<feFlood flood-opacity="0" result="BackgroundImageFix"/>
<feColorMatrix in="SourceAlpha" type="matrix" values="0 0 0 0 0 0 0 0 0 0 0 0 0 0 0 0 0 0 127 0" result="hardAlpha"/>
<feOffset dx="-2" dy="-1"/>
<feGaussianBlur stdDeviation="1"/>
<feComposite in2="hardAlpha" operator="out"/>
<feColorMatrix type="matrix" values="0 0 0 0 0.901961 0 0 0 0 0.694118 0 0 0 0 0.431373 0 0 0 1 0"/>
<feBlend mode="normal" in2="BackgroundImageFix" result="effect1_dropShadow_1215_235"/>
<feBlend mode="normal" in="SourceGraphic" in2="effect1_dropShadow_1215_235" result="shape"/>
</filter>
<linearGradient id="paint0_linear_1215_235" x1="10.3999" y1="9.90205" x2="38.5999" y2="43.102" gradientUnits="userSpaceOnUse">
<stop offset="0.0366425" stop-color="#FDD792"/>
<stop offset="0.526042" stop-color="#FEF9EB"/>
<stop offset="0.526142" stop-color="#F9C475"/>
<stop offset="0.927083" stop-color="#D68E43"/>
</linearGradient>
</defs>
</svg>
