<svg width="163" height="143" viewBox="0 0 163 143" fill="none" xmlns="http://www.w3.org/2000/svg">
<path opacity="0.5" d="M79.9308 83.8865C53.2172 60.7132 24.8831 53.2066 10.7925 63.594C5.26578 67.6677 -0.480619 76.2784 0.0319405 85.9075C0.652743 97.5354 10.1494 105.93 16.6121 109.211C32.9758 117.52 59.0814 107.888 79.9308 83.8865Z" fill="#5FC8D4"/>
<path d="M79.931 83.8866C73.9713 84.7401 67.152 85.3429 59.6228 85.3619C49.2633 85.3905 40.1391 84.3086 32.5908 82.9062C38.0443 84.5909 45.3698 86.2598 54.1215 86.6532C64.8312 87.1323 73.7325 85.5205 79.931 83.8866Z" fill="#60C8D4"/>
<path d="M79.9306 83.8867C78.272 82.5669 76.0021 81.0218 73.1018 79.7051C69.3834 78.0172 66.0024 77.3224 63.5605 77.021C64.99 77.0876 66.5977 77.278 68.3296 77.6936C73.834 79.0103 77.718 81.8974 79.9306 83.8899V83.8867Z" fill="#60C8D4"/>
<path d="M60.6955 86.5799C57.6774 83.3089 51.3261 77.4013 41.1004 74.2413C33.8927 72.0141 27.4523 71.9824 23.2627 72.2996C27.4014 72.2235 32.7466 72.5725 38.6459 74.1747C49.5815 77.1475 56.8338 82.9154 60.6923 86.5767L60.6955 86.5799Z" fill="#60C8D4"/>
<path d="M54.975 84.9463C51.0496 87.053 43.1066 90.562 32.4097 90.2098C24.8677 89.9623 18.7743 87.8905 14.9189 86.2249C18.8029 87.6462 23.9699 89.0613 30.0697 89.4737C41.3779 90.2352 50.1264 87.1481 54.975 84.9463Z" fill="#60C8D4"/>
<path d="M18.5479 95.7968C20.6618 95.6128 23.3742 95.1686 26.3859 94.1312C30.2476 92.7986 33.1765 90.9775 35.1503 89.5181C34.0711 90.454 32.7722 91.4217 31.2345 92.31C26.3381 95.1401 21.5277 95.7175 18.5479 95.7968Z" fill="#60C8D4"/>
<path d="M39.9452 60.9637C38.1305 60.307 25.5744 55.9857 13.5308 63.0862C5.72782 67.6866 2.33092 74.6094 1.18164 77.2967C2.13672 74.2953 4.44165 68.6448 9.9461 64.2538C22.4226 54.3042 39.0665 60.6147 39.9452 60.9637Z" fill="#60C8D4"/>
<path d="M67.4354 96.1045C63.093 99.3026 57.5439 102.84 50.7724 106.016C45.2107 108.624 40.0182 110.429 35.5166 111.695C39.9832 110.775 45.7519 109.144 52.0522 106.118C58.7378 102.907 63.8443 99.1693 67.4354 96.1045Z" fill="#60C8D4"/>
<path opacity="0.5" d="M94.75 77.8742C101.175 43.165 118.656 19.7061 136.172 19.0938C143.042 18.8527 152.918 22.0222 158.533 29.8778C165.315 39.3609 163.124 51.8233 160.119 58.4002C152.507 75.0569 126.061 83.7183 94.75 77.8742Z" fill="#5FC8D4"/>
<path d="M94.75 77.8742C99.9456 74.8443 105.657 71.0846 111.563 66.4271C119.684 60.0215 126.15 53.5111 131.183 47.7305C127.968 52.4324 123.278 58.286 116.675 64.0222C108.595 71.0434 100.624 75.3043 94.75 77.871V77.8742Z" fill="#60C8D4"/>
<path d="M94.75 77.8741C95.2244 75.8118 96.0362 73.1944 97.4815 70.3643C99.3344 66.7348 101.55 64.0919 103.269 62.3438C102.193 63.2829 101.054 64.4314 99.9584 65.8274C96.4755 70.2723 95.2403 74.9425 94.7532 77.8741H94.75Z" fill="#60C8D4"/>
<path d="M111.487 68.0453C111.805 63.613 113.082 55.0499 119.108 46.233C123.355 40.0177 128.376 35.9979 131.852 33.647C128.567 36.1566 124.6 39.7449 120.986 44.6594C114.288 53.7714 112.216 62.785 111.483 68.0453H111.487Z" fill="#60C8D4"/>
<path d="M114.943 63.2197C119.33 62.4329 127.738 60.2501 135.891 53.3368C141.638 48.4635 145.111 43.0604 147.088 39.3643C144.936 42.8859 141.778 47.2008 137.26 51.3094C128.888 58.9207 120.114 61.9348 114.943 63.2229V63.2197Z" fill="#60C8D4"/>
<path d="M150.224 49.1045C148.454 50.272 146.057 51.6077 143.048 52.6643C139.193 54.019 135.764 54.4092 133.307 54.4949C134.736 54.5552 136.357 54.5076 138.114 54.2474C143.714 53.4225 147.84 50.8907 150.221 49.1045H150.224Z" fill="#60C8D4"/>
<path d="M111.716 35.1286C112.725 33.4883 119.85 22.3173 133.711 20.3978C142.689 19.1541 149.674 22.4664 152.253 23.8561C149.633 22.0984 144.297 19.1065 137.245 19.0875C121.267 19.0431 112.187 34.3101 111.716 35.1286Z" fill="#60C8D4"/>
<path d="M112.164 79.6794C117.561 79.4859 124.112 78.8101 131.393 77.0937C137.375 75.685 142.565 73.8734 146.878 72.0713C142.81 74.124 137.277 76.4274 130.454 77.9693C123.215 79.6064 116.886 79.8476 112.161 79.6794H112.164Z" fill="#60C8D4"/>
<path d="M65.1809 29.1511C65.1809 29.1733 65.1236 29.6905 64.6779 29.8999C64.3214 30.068 63.8757 29.9697 63.5955 29.6492C63.5382 28.6339 63.1594 23.7004 58.992 19.871C55.1876 16.3747 50.7529 16.124 49.6195 16.0923C47.5533 19.2618 43.975 19.9884 42.2686 18.7669C40.0782 17.2027 40.5685 12.1582 43.0485 10.9176C45.0701 9.90555 48.709 11.2762 50.1894 14.9533C51.7239 15.0421 55.4964 15.4768 59.0652 18.2243C64.2163 22.1902 65.044 27.974 65.1841 29.1543L65.1809 29.1511Z" fill="#818285"/>
<path d="M70.4089 24.0526C70.4185 24.0717 70.6254 24.5476 71.1157 24.6174C71.5073 24.6713 71.902 24.4429 72.0739 24.0526C71.8224 23.0659 70.6954 18.2466 73.5193 13.348C76.0948 8.8745 80.2494 7.30719 81.3191 6.93916C84.2449 9.34406 87.8773 8.96333 89.1381 7.29132C90.7553 5.14341 88.7688 0.476385 86.0277 0.0353815C83.796 -0.323133 80.7365 2.06908 80.4309 6.02225C78.9919 6.56795 75.5282 8.10671 72.9526 11.7965C69.2342 17.1235 70.1893 22.8851 70.4089 24.0526Z" fill="#818285"/>
<path d="M93.8245 134.402C91.8474 129.919 93.4456 124.881 96.9699 122.733C101.182 120.166 107.683 122 110.128 127.476C109.478 132.651 108.832 137.826 108.182 143L93.8245 134.402Z" fill="#818285"/>
<path d="M59.534 78.4835C61.3741 75.5741 66.0031 69.1558 74.5925 65.1868C87.2377 59.3395 99.0712 63.1435 101.714 64.0636C121.035 73.6198 130.06 93.76 124.814 109.795C119.851 124.957 103.98 130.773 101.714 131.563C99.2144 132.74 84.3852 139.472 71.5362 132.86C56.4682 125.103 48.9931 101.498 59.5372 78.4835H59.534Z" fill="#464646"/>
<path d="M55.8311 89.4324C62.453 90.2668 74.4456 90.8918 88.3452 86.4151C100.319 82.5603 108.765 76.51 113.633 72.4204C114.514 72.6837 117.51 73.699 119.513 76.7543C120.933 78.9212 121.165 81.0596 121.206 82.0686C115.021 86.6087 105.209 92.6812 91.9649 96.6725C76.3112 101.387 62.7968 101.108 54.6022 100.302C54.2552 99.8356 52.7175 97.6496 53.0804 94.5817C53.437 91.5708 55.379 89.8163 55.8311 89.4292V89.4324Z" fill="#818285"/>
<path d="M57.5757 116.527C65.834 117.076 80.4149 116.952 96.9314 110.635C110.312 105.518 119.793 98.3158 125.507 93.2109C125.918 93.6266 127.478 95.2954 127.666 97.97C127.854 100.657 126.523 102.532 126.173 102.999C120.716 107.697 112.451 113.71 101.261 118.326C85.2444 124.932 70.8927 125.522 62.4817 125.208C59.8424 125.081 57.6171 123.453 56.9103 121.2C56.1813 118.881 57.3656 116.867 57.5725 116.527H57.5757Z" fill="#818285"/>
<path d="M102.901 63.486C99.5483 66.6968 93.7064 71.478 85.2157 74.803C74.6271 78.9497 65.2609 78.7435 60.3231 78.2834C57.4038 77.5537 46.5254 74.473 41.5462 64.7931C34.606 51.2997 43.7366 33.9292 54.946 26.2798C72.9175 14.0174 103.512 21.7715 109.013 38.6819C112.416 49.1391 105.263 60.1325 102.901 63.4892V63.486Z" fill="#464646"/>
<path d="M70.928 78.2455C70.9121 78.1598 76.0409 77.5919 82.9875 75.1712C90.1983 72.6584 94.9164 69.6983 94.961 69.7871C95.0056 69.8728 90.7173 72.7409 84.5952 75.0411C77.2029 77.8204 70.9439 78.3375 70.9248 78.2455H70.928Z" fill="#818285"/>
<path d="M60.7373 56.5571C60.7373 56.5571 61.6478 56.1954 62.7111 56.1478L62.033 55.7925C62.033 55.7925 60.8392 56.1859 60.7373 56.5571Z" fill="#60C8D4"/>
<path d="M53.5899 46.7566C53.5899 46.7566 54.1152 47.9178 57.3338 48.4127C57.3338 48.4127 59.3426 48.8791 59.3044 44.9704C59.3044 44.9704 56.5984 45.7445 53.0264 43.3809C53.0264 43.3809 53.3957 45.5795 57.8177 46.4076C57.8177 46.4076 58.0978 46.5599 57.875 46.7661C57.875 46.7661 55.6019 47.572 53.5899 46.7566Z" fill="#60C8D4"/>
<path d="M62.8115 56.1323C64.8909 55.7009 66.0275 52.7228 65.3502 49.4806C64.6729 46.2384 62.4382 43.9598 60.3588 44.3912C58.2794 44.8226 57.1428 47.8007 57.8201 51.0429C58.4974 54.2851 60.7321 56.5637 62.8115 56.1323Z" fill="white"/>
<path d="M62.8924 56.1138C64.5243 55.7752 65.4079 53.3981 64.8661 50.8044C64.3242 48.2106 62.5621 46.3824 60.9303 46.721C59.2985 47.0595 58.4148 49.4366 58.9567 52.0304C59.4985 54.6242 61.2606 56.4524 62.8924 56.1138Z" fill="#231F20"/>
<path d="M59.6409 49.4219C60.054 49.3362 60.28 48.7453 60.1456 48.102C60.0112 47.4587 59.5674 47.0067 59.1543 47.0924C58.7412 47.1781 58.5152 47.7691 58.6496 48.4123C58.784 49.0556 59.2278 49.5076 59.6409 49.4219Z" fill="white"/>
<path opacity="0.57" d="M60.3037 61.52C62.2265 61.1211 63.6995 60.3874 63.5937 59.8814C63.488 59.3753 61.8436 59.2885 59.9209 59.6874C57.9981 60.0863 56.5252 60.8199 56.6309 61.326C56.7366 61.832 58.381 61.9189 60.3037 61.52Z" fill="#F7B1C4"/>
<path d="M88.8067 37.6128C88.8067 37.6128 88.7366 38.8851 85.9128 40.5C85.9128 40.5 84.2064 41.6548 82.8311 37.9935C82.8311 37.9935 85.6358 37.7461 88.1158 34.2593C88.1158 34.2593 88.5647 36.4421 84.738 38.8026C84.738 38.8026 84.5311 39.0469 84.8144 39.1579C84.8144 39.1579 87.2276 39.0945 88.8099 37.6128H88.8067Z" fill="#60C8D4"/>
<path d="M85.8355 49.2947C85.8355 49.2947 84.8581 49.2851 83.8457 49.6214L84.3519 49.0472C84.3519 49.0472 85.6062 48.9869 85.8355 49.2978V49.2947Z" fill="#60C8D4"/>
<path d="M83.5808 49.6684C85.6768 49.3256 86.9396 46.3984 86.4014 43.1304C85.8632 39.8625 83.7279 37.4911 81.6319 37.8339C79.536 38.1767 78.2732 41.1038 78.8114 44.3718C79.3495 47.6398 81.4849 50.0112 83.5808 49.6684Z" fill="white"/>
<path d="M83.5579 49.6754C85.227 49.4024 86.2311 47.0618 85.8005 44.4474C85.37 41.833 83.6679 39.9349 81.9988 40.2079C80.3296 40.4808 79.3256 42.8215 79.7561 45.4359C80.1867 48.0503 81.8888 49.9484 83.5579 49.6754Z" fill="#231F20"/>
<path d="M80.8018 42.8166C81.2182 42.7485 81.4692 42.1676 81.3624 41.5192C81.2557 40.8708 80.8315 40.4004 80.4151 40.4685C79.9987 40.5366 79.7477 41.1174 79.8545 41.7659C79.9613 42.4143 80.3854 42.8847 80.8018 42.8166Z" fill="white"/>
<path opacity="0.57" d="M88.742 53.6541C90.6801 53.3371 92.1831 52.6667 92.0991 52.1566C92.0151 51.6465 90.3759 51.49 88.4379 51.8069C86.4998 52.1239 84.9968 52.7944 85.0808 53.3044C85.1648 53.8145 86.804 53.9711 88.742 53.6541Z" fill="#F7B1C4"/>
<path d="M70.8098 62.4994L71.6821 62.2266C72.5608 64.3142 76.015 64.752 78.0557 64.0667C80.0709 63.3909 82.1976 61.1161 81.3189 59.0951L82.3122 58.7842C83.4965 60.9543 80.6599 63.6321 78.1162 64.4665C75.5566 65.3072 71.4052 64.8948 70.8066 62.5026L70.8098 62.4994Z" fill="#818285"/>
</svg>
