<svg width="157" height="101" viewBox="0 0 157 101" fill="none" xmlns="http://www.w3.org/2000/svg">
<path d="M33.0653 86.3824C24.6932 89.1832 17.2926 85.7854 13.9622 84.2547C5.4345 80.3361 -1.13429 72.6734 0.164228 70.3839C1.07541 68.7802 5.08209 71.1809 10.4127 69.0374C14.2162 67.51 15.1432 65.0902 18.4864 61.7209C20.3627 59.8283 29.3031 50.8129 37.4689 52.6452C43.3709 53.9694 47.8856 60.7397 48.3364 67.0844C49.019 76.7096 40.2564 83.9721 33.0685 86.3792L33.0653 86.3824Z" fill="#464646"/>
<path d="M118.215 50.3048C116.158 52.1816 112.78 54.6935 109.297 54.0393C100.902 52.4642 102.274 34.4905 92.9113 20.8419C82.9993 6.40582 60.2959 -4.32441 38.8783 1.71869C15.9303 8.19684 2.08476 31.7818 2.94832 51.8291C3.08167 54.9189 3.4563 61.8575 7.53283 69.047C23.223 96.7284 80.996 105.639 113.126 80.098C123.044 72.2131 128.765 62.4387 132.137 54.6585C139.563 56.5067 147.309 54.2394 152.176 48.7488C158.085 42.0801 156.983 33.7728 156.802 32.5598C154.7 33.541 151.608 34.5731 148.068 34.1031C143.096 33.4394 141.068 30.321 137.277 30.7624C135.493 30.972 133.026 32.0041 130.34 35.8528C130.371 33.5283 130.029 30.2035 127.755 27.9044C125.543 25.6625 123.076 25.9959 119.786 24.2874C117.577 23.1379 114.615 20.8673 112.1 15.8595C106.592 22.2265 104.754 30.7973 107.43 38.279C110.163 45.9226 116.542 49.4506 118.215 50.3112V50.3048Z" fill="#464646"/>
<path d="M7.53613 69.047C14.5558 66.8526 25.1757 64.3948 37.9672 65.0045C66.3727 66.3636 78.6594 81.5841 100.029 78.1418C107.211 76.9859 117.259 73.4229 128.359 62.1973C126.638 65.2172 123.984 69.2978 120.072 73.5213C103.166 91.7808 79.8595 94.1403 71.4906 94.9882C60.7056 96.0837 36.1321 98.5797 18.1275 82.4891C12.8096 77.7385 9.50772 72.6544 7.53931 69.0406L7.53613 69.047Z" fill="#818285"/>
<path d="M13.2607 36.4051C13.2607 36.4051 14.518 36.2749 15.861 36.5861L15.1434 35.9033C15.1434 35.9033 13.5211 35.9764 13.2639 36.4051H13.2607Z" fill="#60C8D4"/>
<path d="M7.82227 21.6548C7.82227 21.6548 8.06673 23.2902 11.8956 25.0399C11.8956 25.0399 14.2291 26.326 15.5594 21.4325C15.5594 21.4325 11.921 21.4483 8.30802 17.2407C8.30802 17.2407 7.99371 20.1146 13.2037 22.7027C13.2037 22.7027 13.4989 22.9917 13.1497 23.1695C13.1497 23.1695 10.0351 23.3791 7.82227 21.6516V21.6548Z" fill="#60C8D4"/>
<path d="M21.4982 29.1816C21.7978 24.8952 19.8202 21.2651 17.081 21.0736C14.3419 20.882 11.8784 24.2015 11.5787 28.4878C11.2791 32.7742 13.2567 36.4043 15.9959 36.5959C18.735 36.7875 21.1985 33.468 21.4982 29.1816Z" fill="white"/>
<path d="M20.4298 30.6676C20.6696 27.2385 19.1212 24.3367 16.9715 24.1864C14.8218 24.036 12.8847 26.694 12.645 30.1231C12.4053 33.5522 13.9536 36.4539 16.1033 36.6043C18.2531 36.7546 20.1901 34.0967 20.4298 30.6676Z" fill="#231F20"/>
<path d="M15.5075 25.6351C15.5671 24.7831 15.1744 24.0615 14.6304 24.0235C14.0864 23.9854 13.5971 24.6453 13.5375 25.4973C13.478 26.3493 13.8707 27.0709 14.4147 27.1089C14.9587 27.147 15.4479 26.4871 15.5075 25.6351Z" fill="white"/>
<path opacity="0.57" d="M15.6482 41.5535C15.6949 40.8851 13.6796 40.1998 11.1468 40.0226C8.61403 39.8455 6.52293 40.2436 6.4762 40.912C6.42948 41.5803 8.44482 42.2657 10.9776 42.4428C13.5104 42.62 15.6015 42.2218 15.6482 41.5535Z" fill="#F7B1C4"/>
<path d="M67.7281 26.323C67.7281 26.323 67.2582 27.9076 63.2229 29.108C63.2229 29.108 60.7307 30.0574 60.0957 25.0274C60.0957 25.0274 63.696 25.5481 67.8582 21.8867C67.8582 21.8867 67.7694 24.7765 62.2514 26.6151C62.2514 26.6151 61.9213 26.8628 62.2419 27.0851C62.2419 27.0851 65.2961 27.7266 67.7281 26.323Z" fill="#60C8D4"/>
<path d="M60.4987 40.1874C60.4987 40.1874 59.27 39.8826 57.8984 40.0064L58.7049 39.4316C58.7049 39.4316 60.3018 39.7301 60.4987 40.1906V40.1874Z" fill="#60C8D4"/>
<path d="M63.0577 32.5649C63.3574 28.2785 61.3798 24.6484 58.6406 24.4569C55.9014 24.2653 53.438 27.5848 53.1383 31.8711C52.8386 36.1575 54.8162 39.7876 57.5554 39.9792C60.2946 40.1708 62.7581 36.8513 63.0577 32.5649Z" fill="white"/>
<path d="M61.9071 34.0466C62.1468 30.6175 60.573 27.714 58.3918 27.5615C56.2106 27.4089 54.248 30.0651 54.0083 33.4942C53.7686 36.9233 55.3424 39.8268 57.5236 39.9794C59.7048 40.1319 61.6674 37.4757 61.9071 34.0466Z" fill="#231F20"/>
<path d="M57.2009 29.0282C57.2604 28.1761 56.8677 27.4546 56.3237 27.4165C55.7797 27.3785 55.2905 28.0383 55.2309 28.8904C55.1713 29.7424 55.564 30.4639 56.108 30.502C56.652 30.54 57.1413 29.8802 57.2009 29.0282Z" fill="white"/>
<path opacity="0.57" d="M67.5242 45.6599C67.5709 44.9916 65.5556 44.3062 63.0228 44.129C60.49 43.9519 58.3989 44.3501 58.3522 45.0184C58.3055 45.6867 60.3208 46.3721 62.8536 46.5493C65.3864 46.7264 67.4775 46.3282 67.5242 45.6599Z" fill="#F7B1C4"/>
<path d="M19.4456 46.5988C19.5408 46.4114 25.227 51.0541 33.5293 51.4288C42.076 51.8162 48.2987 47.453 48.3718 47.6308C48.448 47.8182 41.8093 52.8546 33.1991 52.3656C25.0968 51.9051 19.3472 46.7861 19.4456 46.5956V46.5988Z" fill="#818285"/>
<path d="M71.4871 94.9915C77.9384 101.022 86.0819 101.006 89.7457 101C99.1306 100.984 108.29 96.7444 108.061 94.1245C107.9 92.2859 103.258 92.8035 99.302 88.6403C96.4796 85.668 96.6383 83.0831 95.0001 78.6278C94.0794 76.1254 89.6981 64.2075 81.5069 62.48C75.589 61.2288 68.6678 65.5095 65.6199 71.0953C60.9973 79.5646 65.9469 89.8153 71.4871 94.9915Z" fill="#464646"/>
<path d="M53.1402 1.64239C54.457 1.64239 55.5245 1.41918 55.5245 1.14383C55.5245 0.868478 54.457 0.645264 53.1402 0.645264C51.8234 0.645264 50.7559 0.868478 50.7559 1.14383C50.7559 1.41918 51.8234 1.64239 53.1402 1.64239Z" fill="#818285"/>
</svg>
