<svg width="119" height="151" viewBox="0 0 119 151" fill="none" xmlns="http://www.w3.org/2000/svg">
<path d="M61.4415 125.214C59.4372 133 66.9437 144.559 80.9641 146.993C81.1385 147.158 85.442 151.081 90.8205 149.455C94.8639 148.232 96.6018 144.749 96.8872 144.154C98.53 140.744 100.173 137.335 101.815 133.928C102.77 133.703 106.931 132.619 108.599 128.991C109.002 128.113 110.026 125.892 108.849 124.292C107.746 122.79 105.497 122.923 105.225 122.942C106.002 121.298 105.957 119.431 105.009 118.192C103.623 116.386 100.366 115.993 97.9211 117.996C96.8111 116.091 94.5722 115.213 92.6028 115.831C90.9283 116.357 89.7011 117.891 89.4949 119.723C88.423 117.419 87.0657 116.129 85.8923 115.366C78.6712 110.669 63.7153 116.38 61.4415 125.214Z" fill="#464646"/>
<path opacity="0.57" d="M92.9202 143.403C92.232 144.506 91.0015 145.434 89.8852 145.162C88.2393 144.762 87.5606 141.971 87.4274 141.426C85.9464 135.326 90.6558 125.373 94.6136 125.531C96.4752 125.604 98.4636 127.924 98.6476 130.446C98.822 132.841 97.3441 134.984 97.0556 135.402C95.8568 137.138 95.1559 136.653 94.3029 138.194C93.1961 140.193 94.0428 141.603 92.917 143.4L92.9202 143.403Z" fill="#F7B1C4"/>
<path d="M81.0594 142.072C81.0911 139.86 81.3638 136.913 82.3565 133.589C83.7011 129.086 85.8037 125.768 87.3671 123.693C85.9749 125.201 83.8438 127.895 82.4231 131.805C80.8406 136.152 80.8818 139.955 81.0594 142.068V142.072Z" fill="#818285"/>
<path d="M97.918 117.992C100.319 116.161 103.436 116.547 104.835 118.325C105.789 119.535 105.891 121.329 105.225 122.939C106.052 121.19 105.884 119.193 104.79 117.935C103.281 116.199 100.116 115.99 97.918 117.992Z" fill="#818285"/>
<path d="M89.4922 119.72C89.822 118.034 90.989 116.646 92.5557 116.123C94.468 115.483 96.672 116.228 97.9184 117.996C96.8084 116.091 94.5695 115.214 92.6001 115.832C90.9256 116.358 89.6983 117.891 89.4922 119.723V119.72Z" fill="#818285"/>
<path d="M106.62 123.024C107.787 123.37 108.333 123.981 108.564 124.298C109.725 125.892 109.278 128.7 107.194 131.026C109.5 128.735 109.998 125.845 108.846 124.289C108.643 124.013 108.038 123.306 106.62 123.024Z" fill="#818285"/>
<path d="M50.1384 126.333C52.1426 134.118 44.6361 145.678 30.6158 148.112C30.4413 148.276 26.1379 152.199 20.7593 150.574C16.7159 149.351 14.978 145.868 14.6926 145.272C13.0499 141.863 11.4071 138.453 9.76437 135.047C8.8098 134.822 4.64904 133.738 2.98093 130.11C2.57817 129.232 1.55384 127.011 2.73039 125.411C3.83401 123.909 6.08247 124.042 6.35521 124.061C5.57823 122.416 5.62263 120.55 6.57086 119.311C7.95672 117.505 11.2137 117.112 13.6587 119.114C14.7687 117.21 17.0076 116.332 18.977 116.95C20.6515 117.476 21.8788 119.01 22.0849 120.841C23.1568 118.538 24.5142 117.248 25.6875 116.484C32.9086 111.788 47.8645 117.498 50.1384 126.333Z" fill="#464646"/>
<path opacity="0.57" d="M18.6606 144.522C19.3488 145.624 20.5792 146.553 21.6955 146.28C23.3415 145.881 24.0201 143.089 24.1533 142.544C25.6343 136.444 20.9249 126.491 16.9671 126.65C15.1056 126.723 13.1171 129.042 12.9332 131.565C12.7588 133.96 14.2366 136.102 14.5252 136.52C15.724 138.257 16.4248 137.772 17.2779 139.312C18.3847 141.312 17.538 142.722 18.6638 144.518L18.6606 144.522Z" fill="#F7B1C4"/>
<path d="M30.5206 143.19C30.4889 140.979 30.2162 138.032 29.2236 134.708C27.8789 130.205 25.7763 126.887 24.2129 124.812C25.6051 126.32 27.7362 129.013 29.157 132.924C30.7395 137.271 30.6982 141.074 30.5206 143.187V143.19Z" fill="#818285"/>
<path d="M13.6618 119.114C11.2611 117.283 8.14373 117.669 6.74518 119.447C5.79061 120.658 5.68913 122.451 6.35511 124.061C5.5274 122.312 5.69547 120.315 6.78958 119.057C8.29912 117.321 11.4641 117.112 13.6618 119.114Z" fill="#818285"/>
<path d="M22.0883 120.841C21.7585 119.155 20.5914 117.768 19.0248 117.245C17.1125 116.605 14.9084 117.349 13.6621 119.117C14.7721 117.213 17.011 116.335 18.9804 116.953C20.6549 117.479 21.8822 119.013 22.0883 120.844V120.841Z" fill="#818285"/>
<path d="M4.96009 124.143C3.79305 124.488 3.24758 125.1 3.01608 125.417C1.85538 127.011 2.30253 129.818 4.38608 132.144C2.08054 129.853 1.58264 126.963 2.73383 125.407C2.93679 125.132 3.54252 124.425 4.96009 124.143Z" fill="#818285"/>
<path d="M72.9147 98.026C81.6389 103.689 82.2795 112.799 82.5999 117.39C82.9138 121.868 83.713 133.237 73.625 140.094C63.0328 147.294 45.375 146.172 35.6866 138.348C27.2668 131.551 27.7044 121.982 27.863 118.572C28.0184 115.159 28.4465 105.808 37.3642 99.4361C46.8845 92.6328 62.8806 91.5079 72.9147 98.0197V98.026Z" fill="#464646"/>
<path d="M73.6418 31.5741C70.61 30.5791 54.8866 29.47 50.8432 38.52C48.7311 43.2446 50.7734 48.6663 50.9415 49.091C55.4923 60.7171 73.6798 62.7483 82.7466 63.7623C87.5987 64.3042 92.5745 64.3073 102.523 64.3073C108.33 64.3073 113.15 64.1742 116.502 64.0538C116.803 64.0792 117.774 64.1204 118.411 63.4169C119.271 62.4663 119.236 60.47 118.002 58.8476C112.513 53.4797 104.981 47.1137 95.2987 41.4067C87.2626 36.6694 79.8036 33.6021 73.6418 31.5772V31.5741Z" fill="#464646"/>
<path opacity="0.57" d="M57.7123 42.6995C59.983 38.2188 68.4282 38.7924 72.7888 39.0871C75.4527 39.2677 80.9327 39.499 86.5998 42.9118C91.8547 46.0742 93.0947 48.999 100.535 54.2559C103.706 56.4962 106.395 58.0236 108.19 58.9742C107.797 59.383 107.185 59.9343 106.367 60.3558C102.729 62.2349 98.968 59.5034 96.0408 57.713C89.9202 53.9739 85.8165 52.2913 81.1293 51.8825C76.8829 51.5118 75.7349 52.8236 65.7992 52.887C63.4429 52.9029 61.5338 52.8395 59.8942 51.5371C57.4174 49.5725 56.3423 45.4088 57.7123 42.7026V42.6995Z" fill="#F7B1C4"/>
<path d="M34.7674 39.8699C36.0708 42.6901 39.2453 57.9413 31.8085 63.3187C27.9268 66.1231 22.8496 64.9633 22.45 64.8682C11.5375 62.2097 7.20548 44.6864 5.04265 35.947C3.88512 31.2699 3.18743 26.39 1.80156 16.6303C0.996051 10.9328 0.4379 6.18286 0.0795411 2.87468C0.0129435 2.58316 -0.158307 1.6357 0.377645 0.903716C1.09753 -0.0881045 2.86395 -0.366955 4.47181 0.593178C9.98355 5.14351 16.6623 11.5412 23.0557 20.1539C28.3645 27.3026 32.1162 34.1408 34.7674 39.8731V39.8699Z" fill="#464646"/>
<path opacity="0.57" d="M8.47434 10.4354C7.13287 10.6477 6.53666 16.0631 6.89185 21.2376C7.27558 26.8305 8.66779 30.6996 11.1541 37.3223C17.8551 55.175 18.7938 56.5471 20.7029 57.0383C25.758 58.3438 33.0457 52.2915 32.57 48.2798C32.3448 46.3912 30.5372 46.087 27.2675 43.0419C25.8373 41.711 20.7854 36.6948 18.7494 29.9391C17.1003 24.4666 18.6828 20.9303 15.6415 17.3939C15.1722 16.8458 14.7028 16.4306 13.6467 15.3755C12.5558 14.2822 12.0452 13.6897 11.1287 12.7707C9.55258 11.1832 8.75658 10.391 8.47117 10.4354H8.47434Z" fill="#F7B1C4"/>
<path d="M5.26416 90.5573C6.9069 91.6727 9.0507 92.8673 10.0592 92.129C10.9154 91.4984 10.4334 89.8539 10.3097 87.6864C10.0972 83.8839 11.2009 81.0162 12.6121 77.1345C14.1121 73.0087 14.9303 73.0911 16.0593 69.8178C17.4135 65.9012 17.4293 62.3617 17.2422 60.0264C17.4927 58.3406 18.2602 54.7155 21.0383 51.138C23.8512 47.5193 27.2255 45.8747 28.8016 45.2219C32.2933 43.1337 38.5566 40.0157 46.9669 39.0809C53.1637 38.3933 58.352 39.1316 61.8563 39.9269C63.4134 40.1678 66.9716 40.9346 70.3617 43.7801C73.4569 46.3785 74.8364 49.3888 75.4009 50.856C76.6314 55.8785 78.7562 58.8 80.5131 60.5524C82.3715 62.4061 84.176 63.3124 84.8261 65.7555C85.4508 68.1035 84.2108 68.8925 84.861 71.4022C85.6506 74.441 87.7342 74.3174 88.2796 76.8841C88.898 79.7962 86.4625 81.1303 86.4213 84.6793C86.3895 87.2777 87.6612 89.4229 88.7807 90.8615C86.2437 91.2196 85.3208 90.7506 84.9688 90.2119C84.2965 89.1789 85.5079 87.585 84.6104 85.6014C84.3409 85.0088 83.973 84.5747 83.9001 84.4923C83.2785 83.7762 82.5649 83.4118 82.1305 83.2312C82.6315 84.0329 83.7066 85.9943 83.7161 88.7099C83.7256 91.1847 82.844 93.0163 82.381 93.8402C81.9021 92.3762 81.0554 90.3767 79.5173 88.3265C78.5818 87.078 77.6082 86.1052 76.7583 85.3701C79.3841 87.8449 80.3196 91.4034 79.1494 94.2901C78.2044 96.6223 76.1938 97.7441 75.4866 98.0958C76.9993 95.1647 77.4528 92.7628 76.568 92.0752C75.8608 91.527 74.2054 92.0118 73.3776 93.0163C72.699 93.837 72.7434 94.7971 72.8036 96.0773C72.8639 97.3733 72.9083 98.3303 73.5394 98.8246C74.8935 99.883 77.7414 97.8708 78.0522 98.3715C78.2615 98.7074 77.1452 99.921 75.8608 100.675C75.1789 101.078 73.5616 102.028 71.9696 101.591C69.9082 101.024 70.0953 98.8436 68.516 98.1845C65.8902 97.0881 63.3309 102.339 56.6743 105.032C52.688 106.645 49.1107 106.579 46.8686 106.537C41.7755 106.442 37.8082 105.029 35.5153 104.012C35.0555 104.354 34.3546 104.95 33.733 105.862C33.0702 106.832 32.3884 107.833 32.7119 108.863C33.1051 110.112 34.7035 110.536 34.9223 110.59C34.5227 110.609 32.9466 110.631 31.6368 109.478C31.4814 109.342 29.9148 107.925 30.1717 106.262C30.308 105.371 30.8503 105.165 31.2911 104.278C31.7002 103.448 31.9825 102.092 31.2118 99.8735C30.955 99.9907 30.5839 100.203 30.2858 100.586C29.6325 101.426 29.9528 102.282 29.5659 103.524C29.2932 104.402 28.8238 104.966 28.4433 105.422C27.3365 106.756 25.9253 107.349 25.0754 107.612C26.8164 105.923 27.5458 103.489 26.9464 101.258C26.2836 98.7739 24.2572 97.5856 23.8417 97.3511C24.2825 97.8676 25.7952 99.7721 25.5193 102.183C25.1737 105.235 22.1038 107.932 18.0065 108.195C19.1101 107.117 20.4674 105.454 20.1788 103.717C19.8681 101.838 17.8955 101.496 17.6037 99.601C17.1978 96.9646 20.0932 94.1951 20.1313 94.2204C20.1693 94.2458 18.8215 97.5539 16.2972 98.5267C14.1311 99.3633 11.6544 98.2669 9.79279 97.104C10.186 97.104 11.8954 97.066 13.2527 95.7446C15.2379 93.8116 14.5656 90.9851 14.5339 90.8615C13.9948 93.6437 11.3816 95.377 8.98728 94.9144C7.04326 94.5405 5.47663 92.7659 5.25781 90.5573H5.26416Z" fill="#464646"/>
<path d="M32.4082 77.0137C32.4082 77.0137 33.3659 76.6842 34.4664 76.6842L33.7814 76.2817C33.7814 76.2817 32.5287 76.6335 32.4082 77.0137Z" fill="#60C8D4"/>
<path d="M25.4948 66.519C25.4948 66.519 25.9832 67.7453 29.2845 68.4139C29.2845 68.4139 31.3363 68.9906 31.4854 64.941C31.4854 64.941 28.6534 65.6127 25.0762 62.9922C25.0762 62.9922 25.3521 65.2864 29.8807 66.3574C29.8807 66.3574 30.163 66.5285 29.9219 66.7313C29.9219 66.7313 27.5339 67.457 25.4948 66.5158V66.519Z" fill="#60C8D4"/>
<path d="M34.5808 76.6667C36.7512 76.3189 38.0693 73.2872 37.5249 69.8952C36.9806 66.5032 34.7798 64.0353 32.6095 64.383C30.4391 64.7308 29.121 67.7625 29.6653 71.1545C30.2097 74.5465 32.4104 77.0144 34.5808 76.6667Z" fill="white"/>
<path d="M66.2397 60.0516C66.2397 60.0516 66.1604 61.3698 63.2333 63.0365C63.2333 63.0365 61.4637 64.228 60.0557 60.4255C60.0557 60.4255 62.9574 60.1783 65.5357 56.5723C65.5357 56.5723 65.9892 58.8379 62.0251 61.2684C62.0251 61.2684 61.8126 61.5187 62.1012 61.6359C62.1012 61.6359 64.597 61.5821 66.2397 60.0484V60.0516Z" fill="#60C8D4"/>
<path d="M63.1226 72.1529C63.1226 72.1529 62.111 72.137 61.0645 72.4824L61.5877 71.8867C61.5877 71.8867 62.888 71.8297 63.1226 72.1529Z" fill="#60C8D4"/>
<path d="M60.7947 72.5246C62.965 72.1768 64.2832 69.1451 63.7388 65.7531C63.1944 62.3611 60.9937 59.8932 58.8234 60.241C56.653 60.5887 55.3348 63.6204 55.8792 67.0124C56.4236 70.4044 58.6243 72.8723 60.7947 72.5246Z" fill="white"/>
<path d="M34.6618 76.6549C36.3635 76.3823 37.39 73.962 36.9546 71.249C36.5193 68.5361 34.7868 66.5579 33.0851 66.8305C31.3834 67.1032 30.3568 69.5235 30.7922 72.2364C31.2276 74.9493 32.9601 76.9276 34.6618 76.6549Z" fill="#231F20"/>
<path d="M31.6245 69.5675C32.0551 69.4985 32.3165 68.8962 32.2083 68.2223C32.1002 67.5484 31.6634 67.058 31.2328 67.127C30.8022 67.196 30.5408 67.7983 30.6489 68.4722C30.7571 69.1461 31.1939 69.6365 31.6245 69.5675Z" fill="white"/>
<path d="M60.772 72.5288C62.4979 72.2522 63.5441 69.8288 63.1087 67.1159C62.6734 64.4029 60.9213 62.4278 59.1954 62.7044C57.4694 62.9809 56.4233 65.4043 56.8586 68.1173C57.294 70.8302 59.0461 72.8053 60.772 72.5288Z" fill="#231F20"/>
<path d="M57.9506 65.4049C58.3813 65.3359 58.6427 64.7336 58.5345 64.0597C58.4264 63.3858 57.9896 62.8954 57.559 62.9644C57.1284 63.0334 56.867 63.6357 56.9751 64.3096C57.0833 64.9835 57.52 65.4739 57.9506 65.4049Z" fill="white"/>
<path opacity="0.57" d="M31.7287 82.1248C33.7348 81.8034 35.2922 81.1142 35.2074 80.5854C35.1225 80.0567 33.4275 79.8886 31.4214 80.21C29.4153 80.5314 27.8579 81.2206 27.9427 81.7494C28.0276 82.2782 29.7226 82.4462 31.7287 82.1248Z" fill="#F7B1C4"/>
<path opacity="0.57" d="M66.1183 76.6737C68.1244 76.3522 69.6819 75.663 69.597 75.1343C69.5121 74.6055 67.8171 74.4374 65.811 74.7588C63.805 75.0803 62.2475 75.7695 62.3324 76.2982C62.4172 76.827 64.1123 76.9951 66.1183 76.6737Z" fill="#F7B1C4"/>
<path d="M49.4251 81.1713C49.7676 81.1174 51.9145 80.7878 52.5964 81.9603C53.1387 82.8887 52.4156 84.1721 52.1904 84.5682C51.6228 85.5727 50.776 86.0765 50.3669 86.2825C49.812 86.2254 48.6703 86.0258 47.6174 85.1766C47.0878 84.7488 46.2601 84.0802 46.3108 83.2658C46.3838 82.087 48.239 81.3519 49.4187 81.1713H49.4251Z" fill="#818285"/>
<path d="M42.7561 92.0558C42.8861 92.059 45.7498 92.1065 47.9824 90.9848C49.6696 90.1387 49.7837 89.2324 49.7964 89.0772C49.6252 88.0156 49.4571 86.9541 49.2858 85.8957C49.3049 85.8799 49.5554 85.6549 50.0755 85.5725C50.5988 85.487 50.9096 85.6232 50.9318 85.6327C51.0459 86.6911 51.1601 87.7495 51.2711 88.8078C51.4455 89.5842 52.6157 90.1197 54.2902 90.1862C56.6369 90.275 58.6602 89.3909 58.8029 89.3243C58.5397 89.4828 57.2649 90.2243 55.305 90.4936C53.3578 90.763 51.5121 90.4619 50.6241 89.7268C50.5449 89.825 49.3556 91.2414 46.4095 91.8625C44.6335 92.2364 43.2159 92.1097 42.7529 92.059L42.7561 92.0558Z" fill="#818285"/>
<path d="M44.6584 106.414C46.9894 106.465 49.9355 106.306 53.2527 105.59C55.6217 105.08 57.6735 104.389 59.3765 103.698C57.9114 104.605 55.406 105.901 52.0381 106.48C48.9112 107.019 46.298 106.728 44.6553 106.414H44.6584Z" fill="#818285"/>
<path d="M34.923 110.593C34.6947 110.502 34.368 110.353 34.0065 110.118C33.3754 109.709 32.9029 109.405 32.7126 108.866C32.4462 108.119 32.8616 107.317 33.1439 106.772C33.2898 106.493 33.4388 106.274 33.5561 106.122C32.6333 106.556 32.091 107.507 32.2052 108.455C32.3479 109.649 33.4578 110.194 33.5244 110.226C33.147 110.099 32.0307 109.674 31.2062 108.512C30.3468 107.301 30.3436 106.059 30.3595 105.666C30.2453 105.91 30.1058 106.3 30.0962 106.781C30.0614 108.486 31.72 109.624 32.1259 109.877C33.2327 110.574 34.3617 110.616 34.923 110.593Z" fill="#818285"/>
<path d="M25.0757 107.612C25.6275 107.45 26.4425 107.136 27.2829 106.512C27.9743 105.999 28.45 105.451 28.7576 105.032C28.3802 105.457 27.8411 105.977 27.1021 106.442C26.6835 106.705 26.2871 106.899 25.9319 107.045C26.1983 106.816 27.1814 105.929 27.321 104.491C27.3844 103.857 27.2607 103.331 27.1465 102.985C27.1465 103.413 27.099 103.917 26.9594 104.468C26.5567 106.062 25.6085 107.108 25.0693 107.615L25.0757 107.612Z" fill="#818285"/>
<path d="M18.0068 108.194C18.4445 107.849 19.8208 106.683 20.0872 104.769C20.1697 104.176 20.1284 103.647 20.0523 103.229C20.2046 103.492 20.6168 104.297 20.4773 105.355C20.3029 106.689 19.38 107.447 19.1834 107.599C19.9255 107.45 20.9815 107.146 22.1073 106.48C23.7501 105.507 24.711 104.253 25.1899 103.514C24.8727 104.208 24.1941 105.438 22.8621 106.483C20.8896 108.033 18.7584 108.179 18.0068 108.191V108.194Z" fill="#818285"/>
<path d="M78.0523 98.3746C78.2299 98.6218 77.4086 99.5693 76.6792 100.171C76.0639 100.678 74.9762 101.382 73.2383 101.686C74.2626 101.322 75.6041 100.678 76.8694 99.5186C77.2215 99.1953 77.5291 98.869 77.7986 98.5521C77.621 98.6313 77.3515 98.7549 77.0185 98.8943C76.1147 99.2777 75.6548 99.471 75.344 99.4995C75.0491 99.5281 74.399 99.5154 73.5427 98.8278C74.1802 99.1193 74.6781 99.1415 75.0047 99.113C75.5724 99.0654 75.8261 98.8468 76.9043 98.5457C77.6115 98.3461 77.9667 98.2511 78.0523 98.3746Z" fill="#818285"/>
<path d="M75.4873 98.0991C75.7664 97.5034 76.0486 96.8475 76.3118 96.1282C76.5687 95.4279 76.778 94.7656 76.9461 94.1445C76.9937 94.5058 77.0222 95.073 76.8668 95.7384C76.6765 96.5465 76.296 97.12 76.0581 97.4274C76.6353 97.0154 77.3552 96.4134 78.0592 95.5768C78.6776 94.8385 79.1089 94.1255 79.407 93.5425C79.2548 94.078 78.9948 94.7498 78.5445 95.4501C77.5487 96.9964 76.1945 97.7633 75.4905 98.0991H75.4873Z" fill="#818285"/>
<path d="M82.3817 93.8402C82.0487 93.0037 81.6554 92.1132 81.1924 91.1848C80.8023 90.4053 80.4059 89.6828 80.0127 89.0174C80.482 89.5561 81.0212 90.2722 81.5096 91.1753C81.8996 91.8946 82.1692 92.5695 82.3595 93.1494C82.6956 92.5062 83.0667 91.6474 83.3172 90.5954C83.6597 89.16 83.6534 87.9178 83.5773 87.0527C83.7168 87.9178 83.831 89.2804 83.4916 90.8869C83.2252 92.1576 82.7654 93.1558 82.3817 93.837V93.8402Z" fill="#818285"/>
<path d="M88.7782 90.8645C88.3152 90.9976 87.6587 91.1148 86.8849 91.0325C86.6249 91.0039 86.3902 90.9596 86.1777 90.9025C86.6788 90.9342 87.2655 90.9121 87.8998 90.7695C88.0234 90.7409 88.1439 90.7092 88.2581 90.6776C88.1788 90.6078 88.0742 90.4938 87.9917 90.3353C87.8902 90.1357 87.8807 89.9741 87.8458 89.7998C87.811 89.6129 87.738 89.353 87.5731 89.0425C87.9727 89.6509 88.3755 90.2561 88.775 90.8645H88.7782Z" fill="#818285"/>
<path d="M9.79638 97.1042C10.345 97.082 11.3725 96.9584 12.4317 96.312C13.0184 95.9539 13.437 95.5451 13.7161 95.2188C13.6686 95.5166 13.5449 96.0046 13.177 96.4672C12.3176 97.5573 10.8937 97.5224 10.7097 97.5161C11.1918 97.8425 11.9814 98.2925 13.047 98.5523C14.1665 98.828 15.1178 98.7773 15.7077 98.7044C15.3557 98.8153 14.9625 98.9008 14.5343 98.9357C12.1876 99.1195 10.3894 97.6429 9.79004 97.1042H9.79638Z" fill="#818285"/>
<path d="M5.26465 90.5571C5.26465 90.9405 5.32173 91.9545 6.00991 92.9717C6.69174 93.9857 7.60508 94.4198 7.96027 94.5656C7.49408 94.217 6.80591 93.6055 6.26361 92.6548C5.97185 92.1415 5.79426 91.6599 5.68326 91.2638C5.95599 91.4824 6.32704 91.7327 6.79639 91.9387C7.7129 92.338 8.54696 92.3665 9.03851 92.3443C8.65795 92.2397 8.25203 92.1067 7.83024 91.9387C6.79005 91.5299 5.93697 91.0261 5.26782 90.5571H5.26465Z" fill="#818285"/>
<path d="M76.959 55.3843C77.3935 56.411 78.088 57.7513 79.1884 59.1393C80.1493 60.3529 81.142 61.2433 81.9538 61.8739C81.0246 61.3352 79.4072 60.223 78.1768 58.2267C77.5266 57.1715 77.1651 56.167 76.959 55.3843Z" fill="#818285"/>
<path d="M81.144 128.462C80.4939 130.718 79.2539 132.708 79.2539 132.708C77.6556 135.278 75.756 136.79 74.8204 137.461C76.0826 139.702 77.0752 142.316 76.33 144.376C74.1989 150.273 58.3042 150.336 55.2407 143.606C54.4352 141.838 54.0674 138.656 55.542 136.565C56.9215 134.61 59.0368 134.432 59.541 134.404C59.2112 130.753 59.3222 125.62 61.4153 120.16C63.1912 115.524 65.4714 113.072 66.0359 112.482C68.2051 110.22 70.2474 108.087 72.6259 108.195C78.3469 108.455 83.1356 121.542 81.1409 128.459L81.144 128.462Z" fill="#464646"/>
<path d="M66.6639 140.05C66.4672 140.158 64.5676 141.258 64.2188 143.846C63.8985 146.21 65.1194 147.947 65.297 148.191C63.9746 146.984 63.3784 145.009 63.7875 143.225C64.149 141.638 65.2558 140.424 66.667 140.053L66.6639 140.05Z" fill="#818285"/>
<path d="M63.5117 138.152C63.2802 138.285 61.0349 139.622 60.5941 142.712C60.1914 145.532 61.609 147.582 61.8151 147.868C60.2738 146.448 59.592 144.106 60.0931 141.974C60.537 140.076 61.8531 138.615 63.5149 138.149L63.5117 138.152Z" fill="#818285"/>
<path d="M59.6707 138.231C59.4741 138.339 57.5745 139.439 57.2256 142.028C56.9053 144.392 58.1263 146.128 58.3039 146.372C56.9814 145.165 56.3852 143.191 56.7943 141.407C57.1558 139.819 58.2626 138.605 59.6739 138.235L59.6707 138.231Z" fill="#818285"/>
<path d="M59.5408 134.407C59.2236 131.159 59.4424 128.475 59.7088 126.625C60.3082 122.467 61.5641 119.628 62.3823 117.822C62.3823 117.822 63.9172 114.777 66.0388 112.482C66.5367 111.944 67.1741 111.313 67.1741 111.313C67.5991 110.892 67.9638 110.546 68.227 110.302C67.7418 110.914 67.0536 111.801 66.2735 112.901C64.2438 115.759 62.766 117.838 61.6751 120.518C61.6751 120.518 59.8262 125.062 59.5756 133.773C59.5756 133.811 59.5471 134.426 59.5439 134.404L59.5408 134.407Z" fill="#818285"/>
<path d="M24.6 127.686C26.1191 134.442 30.5145 138.643 32.468 140.301C31.2598 142.744 30.4289 145.539 31.6118 147.563C34.9924 153.353 54.1154 151.54 56.8618 144.284C57.5848 142.376 57.588 139.074 55.5235 137.106C53.5921 135.269 51.0266 135.332 50.4177 135.364C50.3289 132.236 49.7136 126.593 46.1871 120.993C42.4925 115.131 34.4406 107.475 28.9986 109.757C24.0292 111.842 23.1888 121.396 24.6 127.683V127.686Z" fill="#464646"/>
<path d="M42.3528 141.014C42.6033 141.102 45.0389 142.002 45.819 144.613C46.5326 146.996 45.3053 148.92 45.1245 149.189C46.5453 147.795 46.9892 145.703 46.2535 143.923C45.597 142.338 44.097 141.226 42.3496 141.014H42.3528Z" fill="#818285"/>
<path d="M45.8799 138.7C46.178 138.808 49.0639 139.914 50.0216 143.026C50.8969 145.865 49.4762 148.134 49.27 148.451C50.9254 146.816 51.4202 144.338 50.5227 142.211C49.7267 140.32 47.9412 138.976 45.8799 138.697V138.7Z" fill="#818285"/>
<path d="M50.5061 138.33C50.7566 138.418 53.1922 139.318 53.9723 141.929C54.6859 144.312 53.4586 146.236 53.2778 146.505C54.6986 145.111 55.1426 143.019 54.4068 141.239C53.7504 139.654 52.2503 138.542 50.5029 138.33H50.5061Z" fill="#818285"/>
<path d="M50.418 135.364C50.7288 135.326 50.8366 131.485 49.6855 127.569C49.2764 126.171 48.8102 125.116 48.5026 124.428C47.3894 121.938 46.1431 120.138 45.2488 118.87C43.7773 116.776 42.1536 115.556 40.1113 113.835C39.8132 113.585 38.1292 112.105 38.0531 112.184C37.9231 112.32 43.3523 116.047 46.7298 122.058C50.529 128.82 50.0121 135.418 50.418 135.367V135.364Z" fill="#818285"/>
<path d="M27.8062 120.841C27.6825 122.388 27.673 124.818 28.4722 127.641C29.3062 130.598 30.6763 132.74 31.6276 134.004C30.7143 133.051 29.0684 131.076 28.1551 128.076C27.1783 124.869 27.543 122.15 27.8062 120.841Z" fill="#818285"/>
<path d="M81.2843 121.922C81.408 123.468 81.4175 125.899 80.6184 128.722C79.7843 131.678 78.4143 133.821 77.4629 135.085C78.3762 134.131 80.0221 132.157 80.9355 129.156C81.9122 125.949 81.5475 123.231 81.2843 121.922Z" fill="#818285"/>
</svg>
