<svg width="161" height="154" viewBox="0 0 161 154" fill="none" xmlns="http://www.w3.org/2000/svg">
<path d="M55.2881 108.422C58.9967 111.624 61.4386 115.472 62.2979 119.465C64.3607 130.196 52.3155 136.185 51.4783 136.588C54.4636 141.896 53.0989 143.548 52.3313 144.127C48.3352 147.068 31.3999 141.788 30.607 136.648C30.1047 133.373 36.3121 131.073 37.8758 130.523C36.3279 128.976 32.496 124.767 32.3318 119.385C32.0317 109.753 43.7673 105.477 44.5349 105.204" fill="#464646"/>
<path d="M55.2881 108.422C58.9967 111.624 61.4386 115.472 62.2979 119.465C64.3607 130.196 52.3155 136.185 51.4783 136.588C54.4636 141.896 53.0989 143.548 52.3313 144.127C48.3352 147.068 31.3999 141.788 30.607 136.648C30.1047 133.373 36.3121 131.073 37.8758 130.523C36.3279 128.976 32.496 124.767 32.3318 119.385C32.0317 109.753 43.7673 105.477 44.5349 105.204" stroke="#818285" stroke-miterlimit="10"/>
<path d="M68.1895 85.5808C65.7761 89.6503 62.0611 92.7382 57.6133 94.3711C44.9931 99.1045 31.4158 91.0894 30.4934 90.5335C25.2337 94.4569 22.4506 93.8278 21.3576 93.3672C15.6399 90.9877 13.9498 75.8247 20.0909 73.7185C24.0049 72.3842 29.9911 76.7428 31.4759 77.8325C34.2115 73.9885 38.2234 71.2819 42.8482 70.1605C54.9376 67.1742 66.1899 75.4118 66.9165 75.9613" fill="#464646"/>
<path d="M68.1895 85.5808C65.7761 89.6503 62.0611 92.7382 57.6133 94.3711C44.9931 99.1045 31.4158 91.0894 30.4934 90.5335C25.2337 94.4569 22.4506 93.8278 21.3576 93.3672C15.6399 90.9877 13.9498 75.8247 20.0909 73.7185C24.0049 72.3842 29.9911 76.7428 31.4759 77.8325C34.2115 73.9885 38.2234 71.2819 42.8482 70.1605C54.9376 67.1742 66.1899 75.4118 66.9165 75.9613" stroke="#818285" stroke-miterlimit="10"/>
<path d="M46.146 61.4178C43.5746 65.5699 45.2426 67.8636 41.2338 76.1043C37.1872 84.4244 33.7628 85.6347 30.9197 92.0424C27.8113 99.0441 27.5681 107.136 29.0149 111.802C36.1352 134.764 91.768 137.925 122.281 130.333C125.828 129.45 133.58 127.248 141.702 121.511C154.316 112.596 163.218 98.4056 160.514 95.1494C156.9 90.8003 136.885 111.186 118.575 104.143C108.82 100.391 103.393 90.1998 101.305 86.3114C93.7077 72.1427 99.3844 65.0711 92.9969 57.8438C82.6133 46.0959 53.7465 49.1457 46.146 61.4209V61.4178Z" fill="#464646"/>
<path d="M87.6179 79.8431C87.4157 83.2328 85.8552 86.4795 83.1385 89.1544C75.677 96.28 62.8736 94.9458 61.9986 94.8441C59.5978 99.1582 57.3423 99.5808 56.3851 99.5966C51.3307 99.7078 44.6116 89.8025 48.2981 86.4668C50.6578 84.3479 56.6157 85.4883 58.0878 85.7997C58.3436 84.2716 59.2882 80.2593 63.6002 77.0348C71.3176 71.2688 82.5099 73.4767 83.2396 73.6292" fill="#464646"/>
<path d="M87.6179 79.8431C87.4157 83.2328 85.8552 86.4795 83.1385 89.1544C75.677 96.28 62.8736 94.9458 61.9986 94.8441C59.5978 99.1582 57.3423 99.5808 56.3851 99.5966C51.3307 99.7078 44.6116 89.8025 48.2981 86.4668C50.6578 84.3479 56.6157 85.4883 58.0878 85.7997C58.3436 84.2716 59.2882 80.2593 63.6002 77.0348C71.3176 71.2688 82.5099 73.4767 83.2396 73.6292" stroke="#818285" stroke-miterlimit="10"/>
<path d="M88.3506 113.708C92.0592 116.911 94.5011 120.758 95.3603 124.751C97.4232 135.482 85.378 141.471 84.5408 141.874C87.5261 147.183 86.1614 148.835 85.3938 149.413C81.3977 152.354 64.4624 147.075 63.6695 141.934C63.1672 138.659 69.3746 136.359 70.9383 135.81C69.3904 134.262 65.5585 130.053 65.3943 124.672C65.0941 115.039 76.8298 110.763 77.5974 110.49" fill="#464646"/>
<path d="M88.3506 113.708C92.0592 116.911 94.5011 120.758 95.3603 124.751C97.4232 135.482 85.378 141.471 84.5408 141.874C87.5261 147.183 86.1614 148.835 85.3938 149.413C81.3977 152.355 64.4624 147.075 63.6695 141.934C63.1672 138.659 69.3746 136.359 70.9383 135.81C69.3904 134.262 65.5585 130.053 65.3943 124.672C65.0941 115.039 76.8298 110.763 77.5974 110.49" stroke="#818285" stroke-miterlimit="10"/>
<path d="M0.123254 38.6175C-0.726512 46.045 3.05163 51.6457 4.29943 53.4978C6.36856 56.5666 12.5159 64.1751 35.447 67.8984C46.3739 69.6742 63.9441 71.0244 85.8927 66.0654C102.259 61.8338 112.766 50.286 112.299 39.8152C112.277 39.3164 111.727 29.8781 105.137 25.0525C100.958 21.9932 98.6203 23.9184 94.839 20.5986C90.309 16.6244 92.1191 12.504 86.8626 7.24953C85.6211 6.00739 83.1286 3.51676 79.48 2.7289C71.5636 1.02294 64.6454 8.73946 63.9599 9.52414C59.272 3.3738 52.5118 -0.155659 46.3297 1.03883C41.0131 2.06494 37.4782 6.31872 36.0124 8.08504C31.2708 13.7938 33.3241 16.7228 29.8366 20.1379C23.8156 26.0341 15.419 19.5248 7.28151 25.4178C1.24785 29.7891 0.25909 37.4326 0.123254 38.6175Z" fill="#464646"/>
<path d="M54.7988 69.5123C60.6587 69.1121 66.8061 68.5307 73.2094 67.7174C78.3111 67.0694 83.217 66.3196 87.9113 65.5C83.4887 66.5801 78.5702 67.5522 73.2062 68.2702C66.4744 69.1724 60.2828 69.5028 54.7988 69.5155V69.5123Z" fill="#818285"/>
<path d="M42.229 73.9121C41.2876 76.2217 40.3083 77.9912 39.5818 79.1952C38.4035 81.1426 37.1904 82.7373 34.9286 85.7108C34.2431 86.6131 33.6713 87.3469 33.2891 87.833C34.8149 86.2255 35.9995 84.8118 36.8303 83.7698C38.5456 81.6223 39.6481 80.2276 40.6653 78.1595C41.5119 76.4409 41.9699 74.9255 42.2258 73.9121H42.229Z" fill="#818285"/>
<path d="M35.8323 121.32C38.3784 122.988 41.4268 124.754 44.9775 126.396C48.4082 127.985 51.6145 129.141 54.4481 129.993C51.1375 129.278 46.9045 127.988 42.3714 125.567C39.7999 124.192 37.6266 122.718 35.8291 121.323L35.8323 121.32Z" fill="#818285"/>
<path d="M31.9781 35.9363C33.068 35.8092 34.7391 36.2317 35.1939 37.5628C35.4751 38.6144 35.1055 39.7326 34.2526 40.4061C33.507 41.0097 32.6446 40.9525 30.9293 40.8382C29.214 40.7238 27.9504 40.6475 27.6977 39.9741C27.4481 39.3006 28.7781 37.9917 29.6025 37.2865C30.2343 36.5971 31.0652 36.1237 31.9781 35.9363Z" fill="#818285"/>
<path d="M11.2272 29.9162C10.2795 29.3571 8.58311 29.0648 7.63225 30.0973C6.95307 30.9455 6.84251 32.1209 7.3511 33.0803C7.7902 33.9349 8.60206 34.2303 10.2195 34.8276C11.8369 35.4217 13.0215 35.8632 13.5238 35.3486C14.026 34.8339 13.3311 33.0962 12.8604 32.1146C12.5603 31.2282 11.9885 30.4594 11.2303 29.9162H11.2272Z" fill="#818285"/>
<path d="M40.2676 19.8933C40.2676 19.8933 41.5501 19.8678 42.8801 20.2999L42.2103 19.5438C42.2103 19.5438 40.5645 19.4803 40.2676 19.8933Z" fill="#60C8D4"/>
<path d="M36.0254 4.44121C36.0254 4.44121 36.1328 6.12175 39.8572 8.22799C39.8572 8.22799 42.1064 9.73381 43.866 4.87643C43.866 4.87643 40.1889 4.58099 36.8941 0C36.8941 0 36.335 2.89409 41.3767 5.96926C41.3767 5.96926 41.6484 6.29012 41.2819 6.43943C41.2819 6.43943 38.1166 6.38543 36.0254 4.44121Z" fill="#60C8D4"/>
<path d="M49.21 13.2544C49.8765 8.92496 48.1846 5.06775 45.4312 4.63909C42.6778 4.21043 39.9054 7.37264 39.239 11.7021C38.5725 16.0315 40.2643 19.8888 43.0177 20.3174C45.7712 20.7461 48.5435 17.5839 49.21 13.2544Z" fill="white"/>
<path d="M85.6593 9.09531C85.6593 9.09531 85.0496 10.6647 80.8703 11.5383C80.8703 11.5383 78.2736 12.288 78.0557 7.12568C78.0557 7.12568 81.6506 7.96436 86.1679 4.59692C86.1679 4.59692 85.8331 7.52596 80.0995 8.92377C80.0995 8.92377 79.7426 9.14614 80.049 9.40029C80.049 9.40029 83.0816 10.312 85.6593 9.09531Z" fill="#60C8D4"/>
<path d="M77.1779 22.5651C77.1779 22.5651 75.9617 22.1489 74.5654 22.1584L75.431 21.6406C75.431 21.6406 77.02 22.079 77.1779 22.5651Z" fill="#60C8D4"/>
<path d="M80.4092 15.0401C81.0757 10.7106 79.3839 6.8534 76.6304 6.42474C73.877 5.99608 71.1047 9.15829 70.4382 13.4877C69.7717 17.8172 71.4635 21.6744 74.217 22.1031C76.9704 22.5317 79.7427 19.3695 80.4092 15.0401Z" fill="white"/>
<path d="M47.9983 14.6782C48.5313 11.2157 47.2121 8.13613 45.0518 7.79981C42.8915 7.46348 40.7081 9.99777 40.1751 13.4603C39.6421 16.9228 40.9612 20.0024 43.1216 20.3387C45.2819 20.675 47.4653 18.1407 47.9983 14.6782Z" fill="#231F20"/>
<path d="M43.4504 9.14135C43.5828 8.28136 43.247 7.51522 42.7005 7.43013C42.1539 7.34504 41.6035 7.97323 41.4712 8.83322C41.3388 9.69322 41.6745 10.4594 42.2211 10.5444C42.7676 10.6295 43.318 10.0013 43.4504 9.14135Z" fill="white"/>
<path d="M79.1201 16.4455C79.6531 12.983 78.3101 9.89969 76.1205 9.5588C73.9309 9.21792 71.7237 11.7485 71.1907 15.211C70.6577 18.6735 72.0006 21.7568 74.1903 22.0977C76.3799 22.4386 78.587 19.908 79.1201 16.4455Z" fill="#231F20"/>
<path d="M74.7912 10.9448C74.9236 10.0848 74.5878 9.31868 74.0413 9.2336C73.4947 9.14851 72.9444 9.77669 72.812 10.6367C72.6796 11.4967 73.0153 12.2628 73.5619 12.3479C74.1084 12.433 74.6588 11.8048 74.7912 10.9448Z" fill="white"/>
<path opacity="0.57" d="M97.6285 43.2469C98.0398 40.5751 94.8706 37.8638 90.55 37.1911C86.2293 36.5185 82.3933 38.1392 81.982 40.8111C81.5707 43.4829 84.7399 46.1942 89.0605 46.8669C93.3812 47.5395 97.2172 45.9188 97.6285 43.2469Z" fill="#F7B1C4"/>
<path d="M12.7588 73.6582C14.0824 74.9861 15.406 76.3172 16.7328 77.6451C17.7215 77.9215 18.6503 77.6578 19.0073 77.0066C19.3832 76.3204 19.042 75.361 18.1796 74.7066C16.3727 74.3571 14.5657 74.0108 12.7588 73.6614V73.6582Z" fill="#818285"/>
<path d="M10.8857 80.4054C12.5537 81.2537 14.2248 82.105 15.8927 82.9533C16.9194 82.9088 17.7186 82.3656 17.8576 81.6349C18.0029 80.8661 17.3806 80.0592 16.3603 79.7065C14.5344 79.9385 12.7116 80.1735 10.8857 80.4054Z" fill="#818285"/>
<path d="M11.6406 87.1625C13.4981 87.3754 15.3587 87.5882 17.2162 87.8011C18.1608 87.4008 18.7262 86.6129 18.603 85.8791C18.4735 85.1071 17.6111 84.5702 16.5339 84.5925C14.9039 85.4502 13.2738 86.3048 11.6438 87.1625H11.6406Z" fill="#818285"/>
<path d="M13.9189 93.7418C15.7354 93.2971 17.5549 92.8555 19.3713 92.4107C20.1232 91.7055 20.3822 90.7715 20.0158 90.1266C19.6304 89.4468 18.6385 89.2403 17.6307 89.6374C16.3924 91.0066 15.1541 92.3758 13.9189 93.745V93.7418Z" fill="#818285"/>
<path d="M37.7598 64.5944L40.7798 63.6699V67.3423L37.7598 64.5944Z" fill="white"/>
<path d="M41.7803 63.457L44.7624 62.4087L44.9077 66.0811L41.7803 63.457Z" fill="white"/>
<path d="M33.9082 65.2903L36.8903 64.2451L37.0356 67.9175L33.9082 65.2903Z" fill="white"/>
<path d="M45.9375 61.6209L48.9196 60.5757L49.0649 64.2449L45.9375 61.6209Z" fill="white"/>
<path d="M49.6592 60.4647L52.3475 58.7969L53.2731 62.3517L49.6592 60.4647Z" fill="white"/>
<path d="M53.6836 58.1549L56.3719 56.4902L57.3006 60.0419L53.6836 58.1549Z" fill="white"/>
<path d="M57.3008 55.642L59.9891 53.9741L60.9147 57.529L57.3008 55.642Z" fill="white"/>
<path d="M14.3828 61.7162C22.9816 64.0639 35.2605 65.8302 47.3626 60.7727C58.5991 56.0741 66.8156 46.6961 67.1694 47.0964C67.4126 47.3728 63.5997 51.7854 58.7444 55.569C54.3882 58.9619 44.7691 65.2901 29.0847 66.7705C26.1784 66.1383 22.9373 65.2297 19.4909 63.9145C17.6555 63.2156 15.9528 62.4723 14.3828 61.7162Z" fill="#818285"/>
<path d="M43.3447 88.2237C44.9906 88.6907 46.6364 89.1577 48.2822 89.6247C49.1952 89.4023 49.8175 88.7764 49.8143 88.0966C49.8112 87.3818 49.113 86.7687 48.1337 86.6289C46.5385 87.1594 44.94 87.6931 43.3447 88.2237Z" fill="#818285"/>
<path d="M44.835 94.4474C46.544 94.3775 48.253 94.3076 49.962 94.2377C50.7612 93.7421 51.1592 92.9511 50.9476 92.3062C50.7233 91.6295 49.8704 91.261 48.8974 91.4358C47.5454 92.4396 46.1902 93.4435 44.8381 94.4474H44.835Z" fill="#818285"/>
<path d="M48.4336 99.5047C50.0099 98.8407 51.5894 98.1767 53.1657 97.516C53.7438 96.7726 53.8449 95.8894 53.4216 95.3589C52.9762 94.8029 52.0506 94.7585 51.2009 95.2604C50.2784 96.6741 49.356 98.091 48.4368 99.5047H48.4336Z" fill="#818285"/>
<path d="M53.166 103.736C54.4201 102.567 55.6742 101.398 56.9284 100.229C57.2158 99.3297 57.0073 98.4688 56.4292 98.1162C55.8196 97.7477 54.935 98.0272 54.3096 98.7928C53.9273 100.442 53.5483 102.087 53.166 103.736Z" fill="#818285"/>
<path d="M28.1623 140.333C29.8208 139.914 31.4793 139.498 33.1377 139.078C33.8201 138.43 34.0507 137.573 33.7095 136.985C33.3525 136.369 32.4428 136.184 31.5267 136.553C30.4052 137.814 29.2838 139.072 28.1592 140.333H28.1623Z" fill="#818285"/>
<path d="M33.5068 144.009C34.9536 143.094 36.4005 142.176 37.8504 141.261C38.299 140.432 38.2516 139.545 37.7493 139.091C37.2186 138.615 36.2994 138.726 35.5412 139.361C34.8652 140.908 34.186 142.458 33.51 144.006L33.5068 144.009Z" fill="#818285"/>
<path d="M40.6272 147.573C41.6665 146.207 42.709 144.845 43.7483 143.479C43.8809 142.545 43.5334 141.728 42.9016 141.48C42.2414 141.22 41.4138 141.645 40.9241 142.506C40.823 144.193 40.7251 145.883 40.624 147.57L40.6272 147.573Z" fill="#818285"/>
<path d="M47.3086 148.876C47.8172 147.233 48.329 145.594 48.8375 143.951C48.6417 143.027 48.0352 142.382 47.3591 142.369C46.6484 142.354 46.0197 143.04 45.8555 144.018C46.3388 145.638 46.8253 147.259 47.3086 148.879V148.876Z" fill="#818285"/>
<path d="M62.4914 146.589C64.1499 146.169 65.8084 145.753 67.4668 145.334C68.1492 144.686 68.3798 143.828 68.0386 143.24C67.6816 142.624 66.7719 142.44 65.8558 142.808C64.7343 144.069 63.6129 145.327 62.4883 146.589H62.4914Z" fill="#818285"/>
<path d="M68.1895 150.175C69.6363 149.26 71.0831 148.342 72.5331 147.427C72.9816 146.598 72.9342 145.712 72.432 145.258C71.9013 144.781 70.982 144.892 70.2238 145.528C69.5478 147.075 68.8686 148.625 68.1926 150.172L68.1895 150.175Z" fill="#818285"/>
<path d="M74.0627 153.339C75.102 151.973 76.1445 150.61 77.1838 149.244C77.3165 148.31 76.969 147.494 76.3372 147.246C75.677 146.985 74.8493 147.411 74.3597 148.272C74.2586 149.959 74.1607 151.649 74.0596 153.336L74.0627 153.339Z" fill="#818285"/>
<path d="M82.7119 153.997C83.2205 152.354 83.7323 150.715 84.2409 149.073C84.045 148.148 83.4385 147.503 82.7625 147.491C82.0517 147.475 81.4231 148.161 81.2588 149.139C81.7421 150.759 82.2286 152.38 82.7119 154V153.997Z" fill="#818285"/>
</svg>
