<svg width="167" height="148" viewBox="0 0 167 148" fill="none" xmlns="http://www.w3.org/2000/svg">
<path d="M121.408 17.7234C125.764 14.9697 138.511 6.90778 150.494 11.944C166.806 18.7984 171.231 45.5156 162.862 55.4554C157.733 61.55 150.341 58.3186 144.564 65.8763C138.723 73.5169 143.62 80.2883 137.73 86.426C132.341 92.0428 122.581 92.2651 115.883 90.0854C107.694 87.4213 103.545 80.9949 102.356 79.0939C94.4322 66.427 99.6646 51.1258 101.954 44.4308C103.827 38.9566 108.239 26.0508 121.411 17.7201L121.408 17.7234Z" fill="#464646"/>
<path opacity="0.57" d="M157.125 30.6623C162.414 35.2474 164.616 42.7122 163.742 48.8333C163.497 50.5651 163.287 52.0083 162.301 53.6207C159.261 58.5707 153.982 56.6829 147.876 61.0788C147.118 61.623 139.856 66.9976 139.477 74.3728C139.351 76.808 140.022 78.5796 138.949 81.4162C137.833 84.3623 135.723 86.1008 134.577 87.0264C127.694 92.5703 118.77 90.8318 117.91 90.6527C114.142 89.8597 111.455 88.1478 110.305 87.398C110.305 87.398 106.953 85.2183 104.774 82.4447C98.1362 73.9879 115.435 27.9319 141.354 26.0607C143.118 25.9346 151.015 25.364 157.128 30.6623H157.125Z" fill="#F7B1C4"/>
<path d="M50.4533 12.329C46.8089 8.68947 36.1414 -1.97024 23.3444 0.318957C5.92626 3.43426 -4.25951 28.5292 1.7204 40.0648C5.38807 47.1348 13.3081 45.602 17.2848 54.2412C21.3046 62.9734 15.039 68.5106 19.4375 75.7863C23.4607 82.4482 32.9355 84.8004 39.9486 84.1435C48.5231 83.3373 53.9848 77.9793 55.5628 76.3835C66.0741 65.7602 64.33 49.6861 63.5692 42.6526C62.9447 36.8997 61.4729 23.3437 50.45 12.329H50.4533Z" fill="#464646"/>
<path opacity="0.57" d="M12.7637 17.1297C6.59442 20.444 2.80715 27.2453 2.31547 33.4095C2.17594 35.1546 2.05966 36.6078 2.67094 38.396C4.55129 43.8934 10.1159 43.2033 15.1058 48.8334C15.7237 49.5301 21.6306 56.3646 20.3781 63.6436C19.9662 66.0456 18.923 67.6281 19.3482 70.6339C19.7901 73.7525 21.4644 75.9123 22.3814 77.0669C27.8796 83.9843 36.969 84.243 37.8461 84.253C41.6965 84.3028 44.6931 83.2212 45.9787 82.7435C45.9787 82.7435 49.7295 81.3533 52.4636 79.1205C60.7956 72.3259 54.035 23.5991 29.1553 16.0979C27.4643 15.5869 19.8831 13.3011 12.757 17.133L12.7637 17.1297Z" fill="#F7B1C4"/>
<path d="M78.0968 79.2831C88.9537 79.0907 106.767 82.9956 112.378 96.4023C114.362 101.143 114.262 105.738 113.847 108.893C115.073 111.027 117.843 116.527 117.298 123.859C116.571 133.65 110.451 139.701 108.917 141.135C102.249 139.22 93.8971 137.479 84.203 136.908C68.313 135.972 55.1141 138.557 46.0678 141.135C44.3502 138.938 39.5264 132.177 39.5696 122.503C39.5962 116.375 41.5629 111.674 42.8652 109.139C42.935 105.635 43.5728 99.8726 47.0379 94.1994C55.9081 79.6779 74.9939 79.3395 78.0935 79.2864L78.0968 79.2831Z" fill="#464646"/>
<path d="M109.445 141.911C106.029 138.689 107.096 132.104 109.229 118.933C110.355 111.975 111.348 109.816 113.322 108.359C116.773 105.808 121.567 106.919 124.527 107.606C127.547 108.306 132.285 109.404 134.331 113.233C134.886 114.268 135.869 116.653 133.145 125.322C129.846 135.82 128.198 141.068 123.149 143.364C119.019 145.242 112.896 145.169 109.445 141.914V141.911Z" fill="#464646"/>
<path d="M129.185 136.553C129.146 136.539 130.455 133.112 132.102 128C133.73 122.957 134.528 119.871 134.564 119.881C134.607 119.895 133.501 124.529 131.584 130.166C130.388 133.676 129.222 136.566 129.185 136.553Z" fill="#818285"/>
<path d="M107.617 129.148C108.082 125.216 108.763 121.039 109.733 116.667C110.076 115.124 110.438 113.621 110.82 112.161C110.69 112.519 110.494 113.083 110.278 113.78C109.368 116.703 109.036 118.946 108.199 124.971C107.939 126.832 107.733 128.315 107.621 129.148H107.617Z" fill="#818285"/>
<path d="M126.896 108.343C126.551 107.991 125.88 107.41 124.883 107.128C123.71 106.8 122.707 107.059 122.232 107.218C121.448 109.53 122.471 111.64 123.674 111.899C124.853 112.151 126.607 110.705 126.896 108.343Z" fill="#818285"/>
<path d="M133.019 111.531C132.797 111.103 132.335 110.366 131.478 109.782C130.474 109.096 129.461 108.983 128.966 108.963C127.571 110.728 127.926 112.931 128.983 113.565C130.016 114.185 132.072 113.511 133.016 111.531H133.019Z" fill="#818285"/>
<path d="M119.969 106.883C119.527 106.684 118.703 106.392 117.667 106.471C116.454 106.564 115.594 107.122 115.198 107.42C115.228 109.716 116.893 111.246 118.115 111.076C119.311 110.91 120.48 109.063 119.969 106.883Z" fill="#818285"/>
<path d="M47.0642 141.911C50.4794 138.689 49.413 132.104 47.2802 118.933C46.1539 111.975 45.1606 109.816 43.1872 108.359C39.7355 105.808 34.9416 106.919 31.9816 107.606C28.9617 108.306 24.2243 109.404 22.1778 113.233C21.623 114.268 20.6397 116.653 23.3639 125.322C26.6628 135.82 28.3106 141.068 33.3603 143.364C37.4897 145.242 43.6125 145.169 47.0642 141.914V141.911Z" fill="#464646"/>
<path d="M27.3241 136.553C27.364 136.539 26.0551 133.112 24.4073 128C22.7794 122.957 21.9821 119.871 21.9456 119.881C21.9024 119.895 23.0086 124.529 24.9255 130.166C26.1215 133.676 27.2876 136.566 27.3241 136.553Z" fill="#818285"/>
<path d="M48.891 129.148C48.4259 125.216 47.7449 121.039 46.7748 116.667C46.4326 115.124 46.0705 113.621 45.6885 112.161C45.818 112.519 46.0141 113.083 46.23 113.78C47.1403 116.703 47.4725 118.946 48.3097 124.971C48.5688 126.832 48.7748 128.315 48.8877 129.148H48.891Z" fill="#818285"/>
<path d="M29.6162 108.343C29.9617 107.991 30.6328 107.41 31.6294 107.128C32.8022 106.8 33.8055 107.059 34.2805 107.218C35.0646 109.53 34.0413 111.64 32.8387 111.899C31.6593 112.151 29.9052 110.705 29.6162 108.343Z" fill="#818285"/>
<path d="M23.4932 111.531C23.7157 111.103 24.1775 110.366 25.0347 109.782C26.0379 109.096 27.0512 108.983 27.5462 108.963C28.9415 110.728 28.5861 112.931 27.5296 113.565C26.4964 114.185 24.44 113.511 23.4965 111.531H23.4932Z" fill="#818285"/>
<path d="M36.5433 106.883C36.9852 106.684 37.8091 106.392 38.8456 106.471C40.0582 106.564 40.9186 107.122 41.3139 107.42C41.284 109.716 39.6196 111.246 38.3971 111.076C37.2011 110.91 36.0317 109.063 36.5433 106.883Z" fill="#818285"/>
<path d="M55.855 114.192C56.2703 113.611 58.9746 109.975 63.7286 109.564C68.0042 109.195 72.2234 111.584 74.426 115.635C75.2333 122.536 75.5223 128.299 75.622 132.525C75.7914 139.721 75.4093 141.921 73.8147 143.719C70.9676 146.931 66.0475 146.834 63.0077 146.778C59.9081 146.718 55.0478 146.625 52.2505 143.304C49.8519 140.458 50.2406 136.742 50.8984 131.231C51.3734 127.247 52.5561 121.212 55.8517 114.192H55.855Z" fill="#464646"/>
<path d="M53.6487 119.563C52.7484 122.42 51.9012 125.707 51.2767 129.377C50.8315 132.004 50.5591 134.473 50.4062 136.742C50.4627 133.729 50.7916 130.11 51.7019 126.102C52.2567 123.67 52.9377 121.484 53.6487 119.563Z" fill="#818285"/>
<path d="M75.0775 122.197C75.4397 126.142 75.639 130.369 75.5991 134.848C75.5858 136.427 75.5426 137.973 75.4729 139.479C75.5227 139.101 75.5991 138.51 75.6656 137.784C75.9479 134.735 75.8084 132.472 75.3765 126.404C75.2437 124.53 75.134 123.037 75.0742 122.197H75.0775Z" fill="#818285"/>
<path d="M60.5422 146.688C60.9542 146.911 61.7282 147.262 62.7648 147.319C63.9807 147.385 64.9076 147.007 65.3394 146.798C65.6251 144.814 64.1866 143.298 62.9541 143.294C61.7482 143.294 60.3329 144.748 60.5422 146.688Z" fill="#818285"/>
<path d="M53.8652 144.771C54.1808 145.116 54.8021 145.7 55.7622 146.088C56.8917 146.546 57.8884 146.489 58.3668 146.43C59.2837 144.648 58.4166 142.744 57.2538 142.342C56.111 141.947 54.3038 142.863 53.8686 144.768L53.8652 144.771Z" fill="#818285"/>
<path d="M67.6518 146.629C68.1136 146.699 68.964 146.768 69.9574 146.466C71.1234 146.115 71.8643 145.444 72.1998 145.099C71.7945 143.135 69.9241 142.196 68.7647 142.614C67.6285 143.023 66.7947 144.87 67.6518 146.626V146.629Z" fill="#818285"/>
<path d="M100.093 114.869C99.6776 114.288 96.9734 110.652 92.2194 110.24C87.9437 109.872 83.7246 112.261 81.522 116.312C80.7147 123.212 80.4257 128.975 80.326 133.202C80.1566 140.398 80.5386 142.598 82.1332 144.396C84.9803 147.607 89.9005 147.511 92.9403 147.455C96.0399 147.395 100.9 147.302 103.697 143.981C106.096 141.135 105.707 137.419 105.05 131.908C104.574 127.924 103.392 121.889 100.096 114.869H100.093Z" fill="#464646"/>
<path d="M102.299 120.236C103.199 123.093 104.046 126.381 104.671 130.05C105.116 132.678 105.388 135.146 105.541 137.415C105.485 134.403 105.156 130.783 104.246 126.775C103.691 124.344 103.01 122.157 102.299 120.236Z" fill="#818285"/>
<path d="M80.8708 122.874C80.5087 126.819 80.3093 131.045 80.3492 135.524C80.3625 137.104 80.4057 138.65 80.4755 140.156C80.4256 139.778 80.3492 139.187 80.2828 138.46C80.0004 135.412 80.1399 133.149 80.5718 127.081C80.7047 125.206 80.8143 123.713 80.8741 122.874H80.8708Z" fill="#818285"/>
<path d="M95.4052 147.362C94.9932 147.584 94.2192 147.936 93.1827 147.992C91.9667 148.058 91.0399 147.68 90.608 147.471C90.3223 145.487 91.7608 143.971 92.9933 143.968C94.1993 143.968 95.6145 145.421 95.4052 147.362Z" fill="#818285"/>
<path d="M102.083 145.444C101.767 145.789 101.146 146.373 100.186 146.761C99.0563 147.219 98.0596 147.163 97.5812 147.103C96.6643 145.321 97.5314 143.417 98.6941 143.016C99.837 142.621 101.644 143.537 102.079 145.441L102.083 145.444Z" fill="#818285"/>
<path d="M88.2922 147.302C87.8304 147.372 86.9799 147.442 85.9866 147.14C84.8205 146.788 84.0797 146.118 83.7441 145.773C84.1494 143.809 86.0198 142.87 87.1793 143.288C88.3154 143.696 89.1493 145.544 88.2922 147.299V147.302Z" fill="#818285"/>
<path d="M77.6051 15.0163C73.6916 15.3979 58.0375 17.3387 46.5793 29.4018C45.5362 30.5 29.1878 48.3292 37.9982 69.2737C47.2737 91.323 75.1135 94.6639 77.0237 94.863C80.7678 95.2545 102.089 97.0759 116.116 82.6672C128.84 69.5922 125.883 53.0967 125.371 50.2567C122.514 34.3385 109.292 21.9569 103.498 19.681C102.571 19.316 99.465 18.2809 97.156 15.5604C95.475 13.5798 95.568 12.2958 94.4153 10.7465C93.0665 8.93502 90.1994 7.00413 83.4986 6.54297C83.771 6.61264 88.1895 7.80369 88.9935 11.065C89.5217 13.2049 88.3888 15.8126 87.1497 15.9221C86.1098 16.0116 84.8142 14.3528 84.4454 12.8233C84.0368 11.128 84.8707 10.0166 84.482 9.7578C84.0534 9.47248 82.4322 10.3915 77.6051 15.0163Z" fill="#464646"/>
<path d="M65.416 92.2119C69.3727 93.2172 74.15 94.1163 79.6017 94.5144C84.0102 94.8362 88.0034 94.7665 91.4718 94.5144C87.8108 95.1049 82.8375 95.5196 77.027 94.8627C72.3826 94.3385 68.4591 93.2769 65.4193 92.2119H65.416Z" fill="#818285"/>
<path d="M113.006 26.9766C114.175 28.3169 115.375 29.7833 116.584 31.3791C117.909 33.1309 119.089 34.8328 120.135 36.4585C119.361 34.8859 118.281 33.0247 116.783 31.0805C115.488 29.3985 114.175 28.0449 113.006 26.9799V26.9766Z" fill="#818285"/>
<path d="M46.9883 28.9804C48.0547 27.9918 49.2141 26.9799 50.4666 25.9614C52.1011 24.6343 53.6957 23.4598 55.2173 22.4214C53.8452 23.1745 52.2539 24.1798 50.6028 25.5201C49.1344 26.7111 47.9417 27.9055 46.9883 28.9771V28.9804Z" fill="#818285"/>
<path d="M63.3135 56.1624C63.3135 56.1624 64.7453 56.0762 66.2503 56.4975L65.4696 55.688C65.4696 55.688 63.6258 55.688 63.3135 56.1624Z" fill="#60C8D4"/>
<path d="M57.8887 39.199C57.8887 39.199 58.0847 41.0602 62.3371 43.2333C62.3371 43.2333 64.9184 44.8059 66.6725 39.335C66.6725 39.335 62.5464 39.1691 58.6627 34.2324C58.6627 34.2324 58.1644 37.4705 63.9383 40.6588C63.9383 40.6588 64.2573 41.0005 63.852 41.1863C63.852 41.1863 60.3139 41.2659 57.8887 39.2023V39.199Z" fill="#60C8D4"/>
<path d="M73.0109 48.3947C73.5642 43.5596 71.5035 39.3535 68.4082 39.0003C65.3129 38.647 62.3551 42.2802 61.8017 47.1153C61.2484 51.9505 63.3091 56.1565 66.4044 56.5098C69.4997 56.8631 72.4575 53.2298 73.0109 48.3947Z" fill="white"/>
<path d="M105.974 44.6932C105.974 44.6932 105.362 46.4615 100.728 47.6194C100.728 47.6194 97.8575 48.5682 97.3857 42.8452C97.3857 42.8452 101.442 43.6149 106.342 39.6802C106.342 39.6802 106.096 42.9481 99.7511 44.7496C99.7511 44.7496 99.3624 45.0117 99.7146 45.2804C99.7146 45.2804 103.143 46.1563 105.97 44.6932H105.974Z" fill="#60C8D4"/>
<path d="M97.0862 60.0207C97.0862 60.0207 95.7108 59.6127 94.1494 59.6856L95.0929 59.0752C95.0929 59.0752 96.8902 59.4932 97.0862 60.0207Z" fill="#60C8D4"/>
<path d="M100.358 51.5202C100.911 46.6851 98.8502 42.479 95.7549 42.1257C92.6596 41.7725 89.7018 45.4057 89.1484 50.2408C88.5951 55.076 90.6557 59.282 93.751 59.6353C96.8464 59.9886 99.8042 56.3553 100.358 51.5202Z" fill="white"/>
<path d="M71.7187 50.0226C72.1614 46.1541 70.5519 42.7934 68.1238 42.5163C65.6956 42.2391 63.3684 45.1505 62.9256 49.019C62.4829 52.8874 64.0924 56.2481 66.5205 56.5252C68.9487 56.8024 71.2759 53.891 71.7187 50.0226Z" fill="#231F20"/>
<path d="M66.3916 44.0824C66.5016 43.1212 66.0928 42.2851 65.4785 42.215C64.8641 42.1449 64.277 42.8672 64.167 43.8284C64.0569 44.7896 64.4658 45.6257 65.0801 45.6958C65.6944 45.7659 66.2816 45.0436 66.3916 44.0824Z" fill="white"/>
<path d="M98.9818 53.1394C99.4245 49.2709 97.7869 45.9071 95.3242 45.626C92.8614 45.3449 90.5061 48.253 90.0633 52.1215C89.6206 55.99 91.2582 59.3538 93.7209 59.6349C96.1837 59.916 98.5391 57.0079 98.9818 53.1394Z" fill="#231F20"/>
<path d="M93.9024 47.2283C94.0124 46.2671 93.6035 45.4311 92.9892 45.361C92.3749 45.2909 91.7877 46.0132 91.6777 46.9744C91.5677 47.9356 91.9765 48.7717 92.5908 48.8418C93.2052 48.9119 93.7924 48.1895 93.9024 47.2283Z" fill="white"/>
<path opacity="0.57" d="M65.7605 62.1029C65.8468 61.3493 63.5966 60.4735 60.7347 60.1468C57.8727 59.8202 55.4827 60.1664 55.3964 60.92C55.3102 61.6737 57.5603 62.5495 60.4223 62.8761C63.2843 63.2028 65.6743 62.8566 65.7605 62.1029Z" fill="#F7B1C4"/>
<path opacity="0.57" d="M104.772 66.557C104.859 65.8034 102.608 64.9276 99.7464 64.601C96.8844 64.2743 94.4944 64.6205 94.4081 65.3741C94.3219 66.1278 96.572 67.0036 99.434 67.3302C102.296 67.6569 104.686 67.3107 104.772 66.557Z" fill="#F7B1C4"/>
<path d="M67.0835 65.6444C67.9938 65.0173 73.7212 61.2086 81.0665 62.967C89.7208 65.0406 92.9765 73.0163 93.2622 73.7462C89.2689 81.2242 89.0929 87.1562 89.2822 90.172C89.5447 94.3357 90.6643 95.5599 91.3785 96.0974C93.4815 97.6766 95.5678 95.9381 99.5245 97.0098C100.146 97.179 104.122 98.3202 106.498 102.069C107.066 102.965 109.727 107.165 107.654 111.425C106.162 114.487 102.77 116.458 99.4813 116.189C99.076 116.156 95.7339 115.838 94.1359 113.233C93.0197 111.415 92.92 108.761 93.7705 108.283C94.0695 108.114 94.5446 108.184 94.8602 108.336C95.5711 108.681 95.5312 109.501 95.9963 109.544C96.4814 109.59 96.6475 108.788 97.4215 108.688C97.9232 108.625 98.3285 108.904 98.4049 108.953C99.1325 109.451 99.0361 110.42 99.2653 110.43C99.5477 110.443 100.235 109.023 99.757 107.878C99.3285 106.853 98.0361 106.223 96.5179 106.293C85.2192 109.073 73.4122 104.498 67.1765 95.0059C61.4059 86.224 61.366 74.6983 67.0868 65.6378L67.0835 65.6444Z" fill="#464646"/>
<path d="M69.6123 73.942C72.0142 74.005 75.0175 74.297 78.3762 75.1496C80.9642 75.8065 83.1867 76.6492 85.0072 77.4753C83.9608 76.4767 81.9641 74.8444 78.9974 73.9088C74.6919 72.5519 71.0143 73.5008 69.6123 73.9453V73.942Z" fill="#818285"/>
<path d="M69.4727 80.6832C71.5623 80.4012 74.2001 80.2652 77.21 80.6301C79.5322 80.9122 81.5554 81.4297 83.2331 81.9871C82.2099 81.1477 80.2863 79.8173 77.602 79.313C73.7117 78.5831 70.6354 80.0462 69.4727 80.6832Z" fill="#818285"/>
<path d="M70.7318 87.7501C72.4992 87.1695 74.765 86.6519 77.4327 86.5789C79.4891 86.5192 81.3262 86.7382 82.8677 87.0467C81.8478 86.3666 79.9708 85.3315 77.5622 85.222C74.0739 85.066 71.6388 86.9571 70.7285 87.7534L70.7318 87.7501Z" fill="#818285"/>
<path d="M69.0674 97.5474C70.569 99.0071 72.5025 100.659 74.9044 102.258C77.2233 103.801 79.4193 104.923 81.2963 105.735C79.509 105.181 77.0373 104.203 74.426 102.428C71.9676 100.756 70.2235 98.9441 69.0674 97.5474Z" fill="#818285"/>
<path d="M89.9404 93.9443C90.0966 94.3823 90.3989 95.0458 90.9969 95.6795C91.3058 96.0079 91.6181 96.2468 91.8872 96.4193C91.6015 96.3032 90.369 95.7657 90.0301 94.5647C89.9803 94.3922 89.9437 94.1865 89.9437 93.9443H89.9404Z" fill="#818285"/>
<path d="M92.1565 75.9888C91.4356 77.5215 90.6781 79.469 90.11 81.7881C89.5087 84.2531 89.2895 86.4561 89.2396 88.2211C89.0104 86.8276 88.7945 84.3891 89.5386 81.5127C90.2031 78.9481 91.3559 77.0869 92.1565 75.9921V75.9888Z" fill="#818285"/>
<path d="M93.2959 109.08C93.3258 109.003 93.5052 108.559 93.9869 108.376C94.4088 108.217 94.9005 108.32 95.2527 108.642C94.844 108.154 94.2029 108.031 93.7743 108.29C93.379 108.529 93.3092 109.003 93.2992 109.08H93.2959Z" fill="#818285"/>
<path d="M96.6377 109.139C96.7108 109.083 97.1991 108.704 97.8569 108.827C98.6476 108.973 98.9566 109.706 98.9798 109.756C98.8037 109.159 98.3021 108.738 97.7373 108.694C97.1227 108.648 96.7041 109.073 96.641 109.136L96.6377 109.139Z" fill="#818285"/>
<path d="M94.5654 113.837C95.1468 114.371 96.1102 115.121 97.4757 115.645C98.4291 116.01 99.2896 116.159 99.9407 116.216C99.1932 116.212 97.7547 116.096 96.2664 115.224C95.5023 114.776 94.9442 114.258 94.5654 113.833V113.837Z" fill="#818285"/>
<path d="M102.033 98.0249C102.744 98.5491 103.502 99.1529 104.279 99.8529C105.126 100.616 105.864 101.366 106.498 102.072C106.053 101.412 105.409 100.586 104.498 99.7667C103.601 98.9572 102.728 98.3998 102.033 98.0249Z" fill="#818285"/>
<path d="M64.5724 70.707C63.8847 73.3346 63.217 77.0538 63.3831 81.5194C63.5226 85.275 64.2136 88.4268 64.9146 90.779C64.0342 88.868 62.898 85.766 62.6655 81.8014C62.3731 76.7585 63.692 72.8104 64.5691 70.707H64.5724Z" fill="#818285"/>
<path d="M108.398 107.271C108.462 108.021 108.498 109.647 107.654 111.428C106.631 113.592 104.94 114.663 104.299 115.025C104.93 114.723 106.335 113.943 107.365 112.308C108.744 110.111 108.491 107.888 108.398 107.268V107.271Z" fill="#818285"/>
<path d="M87.25 106.979C88.7782 106.963 90.3994 106.9 92.1037 106.77C93.6551 106.651 95.1269 106.492 96.5155 106.299C95.2963 106.614 93.8246 106.896 92.1502 107.036C90.2732 107.192 88.6121 107.122 87.25 106.979Z" fill="#818285"/>
</svg>
