<svg width="71" height="131" viewBox="0 0 71 131" fill="none" xmlns="http://www.w3.org/2000/svg">
<path d="M24.6809 72.0415L10.9667 86.8025C10.8721 86.9102 10.4939 87.3539 10.4913 88.0366C10.486 88.735 10.8748 89.1918 10.9667 89.2968C19.3145 93.4505 27.6596 97.6042 36.0074 101.758C35.9733 102.609 36.0258 103.942 36.5459 105.463C37.1842 107.327 38.2218 108.576 38.8574 109.235C38.9783 108.981 39.1332 108.569 39.1648 108.041C39.2094 107.306 38.9888 106.736 38.8574 106.455C38.9441 106.804 39.1569 107.45 39.6954 108.078C40.31 108.797 41.0245 109.109 41.366 109.233C41.3975 108.81 41.3975 108.188 41.211 107.471C40.9851 106.597 40.5858 105.961 40.31 105.591C40.4755 105.783 40.8275 106.143 41.4001 106.371C42.0121 106.615 42.5506 106.581 42.8028 106.55C42.7555 105.996 42.5112 103.945 40.7933 102.278C39.4353 100.96 37.896 100.6 37.284 100.492C29.1831 96.2179 21.0823 91.9434 12.9814 87.669L27.4626 72.0442C27.3287 71.8945 27.0056 71.5847 26.5012 71.4692C25.5136 71.246 24.744 71.9838 24.6809 72.0442V72.0415Z" fill="#818285"/>
<path d="M31.9701 72.9419C31.8493 72.0991 32.4771 71.4296 33.0629 71.4243C33.6539 71.4191 34.3027 72.0886 34.1819 72.9419V125.803C34.962 125.556 36.0757 125.296 37.4285 125.275C38.9547 125.251 40.1997 125.54 41.0324 125.803C40.8906 125.979 40.6384 126.246 40.2496 126.467C39.8924 126.669 39.5641 126.751 39.346 126.787C39.6928 126.997 40.1183 127.297 40.5491 127.714C41.035 128.187 41.3686 128.659 41.5945 129.035C41.1848 129.137 40.6436 129.229 40.0053 129.234C39.3355 129.237 38.7682 129.14 38.3452 129.035C38.5239 129.085 39.0072 129.245 39.3802 129.72C39.6429 130.054 39.7322 130.395 39.7663 130.579C39.4091 130.72 37.3418 131.508 35.0697 130.479C32.9158 129.505 32.1199 127.599 31.9675 127.207V72.9419H31.9701Z" fill="#818285"/>
<path d="M31.9517 99.6859C31.8991 99.4023 31.8545 99.0557 31.8545 98.6593C31.8545 98.2707 31.8886 97.9294 31.9385 97.6484C31.9438 98.3285 31.9491 99.0059 31.9543 99.6859H31.9517Z" fill="#464646"/>
<path d="M34.1657 100.831C34.2183 100.547 34.2629 100.201 34.2629 99.8043C34.2629 99.4157 34.2288 99.0744 34.1788 98.7935C34.1736 99.4735 34.1683 100.151 34.1631 100.831H34.1657Z" fill="#464646"/>
<path d="M44.3793 30.129C51.9706 29.7614 57.7126 24.7361 58.3063 19.2749C58.7502 15.1973 56.4229 10.004 52.8873 8.04265C51.7447 7.40726 50.5705 7.16308 49.0575 5.78465C47.0638 3.96775 47.3107 2.75473 45.7111 1.4682C43.0134 -0.697901 39.0812 0.139658 39.0707 0.255184C39.0628 0.349705 41.7526 0.0346351 43.1395 1.6835C44.3241 3.09343 44.0483 5.33043 43.7699 5.39081C43.5361 5.44333 43.4915 3.89686 42.2832 2.96741C40.6152 1.68612 37.9254 2.50793 37.928 2.61033C37.928 2.67334 38.9052 2.42916 39.5461 2.98841C40.2632 3.6133 40.2474 4.95497 39.9979 5.82141C39.3044 8.23169 36.4571 8.1503 33.9012 10.5238C31.4374 12.8107 30.849 15.8879 30.6441 16.9539C29.4358 23.271 34.0799 28.4513 34.7576 29.1838C40.0609 37.2837 45.3643 45.3836 50.6703 53.4862C41.3717 41.7446 27.14 37.0789 16.1208 41.4531C8.4061 44.5146 -0.495922 53.1054 0.0215457 62.954C0.189657 66.1677 1.32441 68.788 2.36985 70.6102C1.44524 67.5277 2.19649 64.532 4.16129 63.1378C4.58945 62.8358 5.49042 62.3107 6.94038 62.274C4.54217 63.2507 3.01078 65.5953 3.11059 68.0791C3.22092 70.8596 5.35645 73.2699 8.23799 73.7609C6.56738 71.4661 6.89047 68.5018 8.60836 67.0315C10.4602 65.4483 13.1001 66.3095 13.2183 66.3515C10.0688 66.2018 7.91753 68.704 8.17495 70.7362C8.37195 72.2984 10.0189 73.7714 12.1912 74.0077C12.0441 73.9132 10.8358 73.1018 10.8332 71.8468C10.828 70.5288 12.1545 69.5206 13.1815 69.3158C15.472 68.8563 17.7836 72.0884 18.8027 73.2069C26.218 81.3225 56 76.8433 62.559 61.7515C63.0922 60.5227 64.5001 57.2854 63.8566 53.3759C63.037 48.382 59.4752 45.9455 49.3622 35.4222C47.2136 33.1878 45.4878 31.3342 44.3819 30.1343L44.3793 30.129Z" fill="#464646"/>
<path d="M68.3667 40.1928C68.33 39.6887 67.6496 32.2924 61.2746 28.9606C57.211 26.8365 53.242 27.6241 52.0652 27.9025C48.7713 25.8598 47.5236 21.6772 49.1022 18.2745C50.589 15.0686 54.2349 13.3042 57.781 14.147C58.4061 14.3072 67.2609 16.7542 70.1661 25.5736C72.6247 33.0407 68.9184 39.2975 68.3667 40.1928Z" fill="#464646"/>
<path d="M63.1785 16.652C62.7083 16.9015 61.9991 17.3609 61.4816 18.1591C59.9896 20.467 61.8047 22.9771 60.6069 25.2534C60.1998 26.0254 59.3198 27.0152 57.1422 27.6532C55.4506 27.7346 53.759 27.8186 52.0674 27.9C53.2573 26.7789 55.4322 24.429 56.6747 20.7506C57.6282 17.9359 57.6545 15.4705 57.5494 13.9556C58.5791 14.2995 59.7296 14.759 60.9458 15.3734C61.7706 15.7908 62.5139 16.2241 63.1785 16.6494V16.652Z" fill="#818285"/>
<path d="M44.7578 21.1862C44.7578 21.1862 45.5458 21.047 46.4048 21.1862L45.9215 20.7871C45.9215 20.7871 44.9023 20.9053 44.7578 21.1862Z" fill="#60C8D4"/>
<path d="M40.6807 12.1333C40.6807 12.1333 40.9066 13.152 43.3993 14.0867C43.3993 14.0867 44.9281 14.793 45.5506 11.6528C45.5506 11.6528 43.2575 11.8235 40.7962 9.33179C40.7962 9.33179 40.7253 11.1566 44.1217 12.5586C44.1217 12.5586 44.3187 12.7293 44.1086 12.8553C44.1086 12.8553 42.1543 13.1231 40.6833 12.1333H40.6807Z" fill="#60C8D4"/>
<path d="M46.4912 21.1836C48.2262 21.1836 49.6328 18.9842 49.6328 16.2711C49.6328 13.558 48.2262 11.3586 46.4912 11.3586C44.7561 11.3586 43.3496 13.558 43.3496 16.2711C43.3496 18.9842 44.7561 21.1836 46.4912 21.1836Z" fill="white"/>
<path d="M46.5564 21.1862C47.9186 21.1862 49.0229 19.4264 49.0229 17.2557C49.0229 15.0849 47.9186 13.3252 46.5564 13.3252C45.1941 13.3252 44.0898 15.0849 44.0898 17.2557C44.0898 19.4264 45.1941 21.1862 46.5564 21.1862Z" fill="#231F20"/>
<path d="M45.0754 15.2786C45.4206 15.2786 45.7005 14.8413 45.7005 14.3019C45.7005 13.7625 45.4206 13.3252 45.0754 13.3252C44.7301 13.3252 44.4502 13.7625 44.4502 14.3019C44.4502 14.8413 44.7301 15.2786 45.0754 15.2786Z" fill="white"/>
<path opacity="0.57" d="M43.5858 25.0905C45.1903 25.0905 46.491 24.7472 46.491 24.3238C46.491 23.9004 45.1903 23.5571 43.5858 23.5571C41.9814 23.5571 40.6807 23.9004 40.6807 24.3238C40.6807 24.7472 41.9814 25.0905 43.5858 25.0905Z" fill="#F7B1C4"/>
<path d="M45.8584 63.9859C45.6562 63.2954 41.3431 49.3247 29.2548 46.665C27.8285 46.3525 18.6533 44.2179 13.4602 50.0598C10.7652 53.0924 10.4079 56.8469 10.3633 58.5641C11.0856 55.5053 13.011 53.4678 14.9391 53.4389C15.3383 53.4337 15.995 53.5098 16.7883 54.0245C16.192 54.1137 14.6239 54.4314 13.3052 55.7547C11.2117 57.8604 11.5401 60.7171 11.5873 61.0873C11.7949 60.5149 12.4279 59.0341 13.933 58.2753C15.2937 57.59 16.7594 57.8079 17.8731 57.9628C18.4641 58.0442 18.9501 58.1729 19.2916 58.2805C17.072 58.1519 15.0205 59.0918 13.9672 60.7853C13.2212 61.9878 13.1949 63.2219 13.2264 63.8257C15.4933 62.9777 18.8371 62.1454 22.4778 63.0092C27.5579 64.2143 28.9816 67.7694 33.1266 68.6594C35.8111 69.2371 39.9141 68.8301 45.8584 63.9833V63.9859Z" fill="#F7B1C4" fill-opacity="0.5"/>
</svg>
