<svg width="110" height="129" viewBox="0 0 110 129" fill="none" xmlns="http://www.w3.org/2000/svg">
<path d="M65.3873 15.7434C66.0443 14.7384 66.7666 13.9763 67.215 13.5064C71.598 8.89675 75.5142 9.25435 81.2348 6.1299C87.5133 2.70267 87.6671 -0.390448 90.1676 0.0402397C94.5819 0.802427 96.6625 10.8727 96.7694 17.3695C96.8398 21.6399 96.9571 28.8389 91.792 34.8581C87.3412 40.0446 78.2363 45.2103 70.7689 41.569C61.6666 37.1316 60.96 22.5143 65.3847 15.7434H65.3873Z" fill="#464646"/>
<path opacity="0.57" d="M79.3077 13.7701C75.8087 15.8035 72.2314 16.2968 69.6475 16.3751C70.0203 16.8893 70.5991 17.5575 71.4544 18.124C73.376 19.3925 75.4906 19.3377 75.4775 19.523C75.4619 19.7736 71.6317 19.0976 71.0815 20.2409C70.5157 21.4155 74.0565 23.1695 77.8137 28.5936C79.618 31.1986 80.7053 32.7673 81.2424 35.2523C81.5918 36.8758 81.4692 37.7816 82.0246 38.0322C83.3622 38.6351 86.8299 34.6076 88.9184 30.7888C91.9482 25.2473 92.1646 19.9746 92.3028 15.4145C92.3914 12.4598 92.6756 3.06033 90.2456 2.50435C88.0215 1.99535 86.5171 9.58329 79.3051 13.7701H79.3077Z" fill="#F7B1C4"/>
<path d="M31.4003 15.7434C30.7433 14.7384 30.021 13.9763 29.5726 13.5064C25.1896 8.89675 21.2734 9.25435 15.5528 6.1299C9.27431 2.70267 9.12047 -0.390448 6.62002 0.0402397C2.20576 0.802427 0.125094 10.8727 0.018192 17.3695C-0.0522067 21.6399 -0.169538 28.8389 4.99564 34.8581C9.44639 40.0446 18.5513 45.2103 26.0188 41.569C35.121 37.1316 35.8276 22.5143 31.4029 15.7434H31.4003Z" fill="#464646"/>
<path opacity="0.57" d="M17.4795 13.7701C20.9786 15.8035 24.5559 16.2968 27.1398 16.3751C26.7669 16.8893 26.1881 17.5575 25.3329 18.124C23.4113 19.3925 21.2967 19.3377 21.3097 19.523C21.3254 19.7736 25.1556 19.0976 25.7058 20.2409C26.2715 21.4155 22.7308 23.1695 18.9736 28.5936C17.1693 31.1986 16.082 32.7673 15.5449 35.2523C15.1955 36.8758 15.318 37.7816 14.7627 38.0322C13.4251 38.6351 9.95732 34.6076 7.86882 30.7888C4.83908 25.2473 4.62266 19.9746 4.48447 15.4145C4.39582 12.4598 4.11162 3.06033 6.54168 2.50435C8.76575 1.99535 10.2702 9.58329 17.4822 13.7701H17.4795Z" fill="#F7B1C4"/>
<path d="M84.8905 110.617C83.3131 115.671 78.7085 119.484 73.0244 120.536C73.1809 120.604 74.2708 121.087 74.3803 121.987C74.4741 122.757 73.7936 123.381 73.4729 123.676C71.8511 125.164 67.0823 126.062 63.3955 124.368C57.8262 121.812 55.1536 113.546 56.5121 106.942C58.1521 98.9677 66.3444 90.1451 74.9904 92.4186C82.0068 94.264 87.3049 102.883 84.8905 110.617Z" fill="#464646"/>
<path d="M76.6696 119.419C75.9422 119.73 74.735 120.142 73.1888 120.194C71.6791 120.246 70.4719 119.931 69.7314 119.677C70.2946 119.978 71.202 120.364 72.3701 120.466C74.4847 120.648 76.0777 119.782 76.6696 119.419Z" fill="#818285"/>
<path d="M73.371 123.566C73.3892 123.504 73.5509 122.943 73.3501 122.334C73.0711 121.494 72.3046 121.102 72.1377 121.021C72.2941 121.155 73.2901 122.024 73.2015 123.251C73.178 123.566 73.0894 123.835 72.9877 124.049C73.019 124.044 73.0685 124.036 73.1207 124.005C73.2093 123.955 73.251 123.882 73.2667 123.851C73.298 123.783 73.3397 123.684 73.3736 123.564L73.371 123.566Z" fill="#818285"/>
<path d="M72.0835 124.506C72.1409 124.368 72.4068 123.7 72.1096 122.935C71.7758 122.079 70.9988 121.781 70.8789 121.737C70.9415 121.794 72.3208 123.092 71.9114 124.243C71.8645 124.376 71.7863 124.525 71.6585 124.676C71.7054 124.676 71.7863 124.676 71.8749 124.642C71.9792 124.603 72.0496 124.54 72.0835 124.504V124.506Z" fill="#818285"/>
<path d="M70.7506 124.947C70.7871 124.874 71.1678 124.104 70.7584 123.326C70.4403 122.723 69.8667 122.527 69.7441 122.488C70.3908 122.942 70.7506 123.637 70.6515 124.295C70.602 124.629 70.4429 124.884 70.3126 125.046C70.3621 125.054 70.4533 125.065 70.5629 125.036C70.6489 125.012 70.7115 124.973 70.7506 124.947Z" fill="#818285"/>
<path d="M15.6128 110.617C17.1902 115.671 21.7948 119.484 27.4788 120.536C27.3224 120.604 26.2325 121.087 26.123 121.987C26.0292 122.757 26.7097 123.381 27.0304 123.676C28.6522 125.164 33.421 126.062 37.1078 124.368C42.6771 121.812 45.3497 113.546 43.9912 106.942C42.3512 98.9677 34.1589 90.1451 25.5129 92.4186C18.4965 94.264 13.1984 102.883 15.6128 110.617Z" fill="#464646"/>
<path d="M23.834 119.419C24.5614 119.73 25.7686 120.142 27.3148 120.194C28.8245 120.246 30.0317 119.931 30.7722 119.677C30.209 119.978 29.3016 120.364 28.1335 120.466C26.0189 120.648 24.4259 119.782 23.834 119.419Z" fill="#818285"/>
<path d="M27.1344 123.566C27.1162 123.504 26.9545 122.943 27.1553 122.334C27.4343 121.494 28.2009 121.102 28.3677 121.021C28.2113 121.155 27.2153 122.024 27.3039 123.251C27.3274 123.566 27.416 123.835 27.5177 124.049C27.4864 124.044 27.4369 124.036 27.3848 124.005C27.2961 123.955 27.2544 123.882 27.2387 123.851C27.2075 123.783 27.1657 123.684 27.1318 123.564L27.1344 123.566Z" fill="#818285"/>
<path d="M28.4202 124.506C28.3628 124.368 28.0969 123.7 28.3941 122.935C28.7278 122.079 29.5048 121.781 29.6248 121.737C29.5622 121.794 28.1829 123.092 28.5923 124.243C28.6392 124.376 28.7174 124.525 28.8452 124.676C28.7982 124.676 28.7174 124.676 28.6288 124.642C28.5245 124.603 28.4541 124.54 28.4202 124.504V124.506Z" fill="#818285"/>
<path d="M29.7526 124.947C29.7161 124.874 29.3354 124.104 29.7448 123.326C30.0629 122.723 30.6365 122.527 30.7591 122.488C30.1124 122.942 29.7526 123.637 29.8517 124.295C29.9012 124.629 30.0603 124.884 30.1907 125.046C30.1411 125.054 30.0499 125.065 29.9404 125.036C29.8543 125.012 29.7917 124.973 29.7526 124.947Z" fill="#818285"/>
<path d="M47.0289 62.7639C60.4802 61.699 71.4259 73.8705 74.5938 85.4051C78.0799 98.096 72.7687 112.264 61.166 120.784C62.6756 120.844 64.0002 121.682 64.5868 122.951C65.4916 124.911 64.1175 126.78 63.9715 126.973C62.733 128.599 60.6523 128.724 58.5091 128.852C54.6241 129.087 50.0247 127.952 49.5293 125.916C49.5059 125.819 49.4694 125.48 49.4016 124.804C49.2816 123.587 49.2138 122.588 49.1747 121.907C49.0965 122.489 48.9948 123.371 48.9218 124.457C48.841 125.644 48.8775 125.702 48.8279 125.929C48.4212 127.761 44.7735 128.625 42.7163 128.852C41.0085 129.04 37.6346 129.411 35.1185 127.229C34.4536 126.652 32.9361 125.334 33.1551 123.556C33.3324 122.128 34.5709 120.883 36.2866 120.351C25.2757 110.964 20.5355 96.8875 24.1311 84.4132C26.715 75.447 34.6335 63.7454 47.0315 62.7613L47.0289 62.7639Z" fill="#464646"/>
<path d="M48.8069 126.046C49.3883 121.682 50.1497 111.032 43.6313 101.784C42.3459 99.9595 40.9457 98.4299 39.5508 97.1509C42.0721 100.14 46.223 105.913 48.0534 114.245C49.0807 118.918 49.0702 123.016 48.8069 126.046Z" fill="#818285"/>
<path d="M49.5473 126.046C48.9659 121.682 48.2045 111.032 54.7229 101.784C56.0084 99.9595 57.4085 98.4299 58.8035 97.1509C56.2821 100.14 52.1312 105.913 50.3009 114.245C49.2736 118.918 49.284 123.016 49.5473 126.046Z" fill="#818285"/>
<path d="M34.2368 126.391C34.1455 126.133 33.8978 125.323 34.2237 124.397C34.693 123.063 35.9576 122.603 36.1271 122.543C35.7829 122.896 34.6018 124.191 34.693 125.965C34.7139 126.38 34.8025 126.746 34.9121 127.057C34.8078 127.02 34.5966 126.929 34.4219 126.717C34.3228 126.597 34.268 126.477 34.2368 126.391Z" fill="#818285"/>
<path d="M36.0524 127.91C35.9611 127.678 35.6195 126.728 36.0289 125.644C36.5295 124.318 37.7498 123.856 37.9323 123.791C37.5933 124.136 36.3887 125.441 36.4982 127.213C36.5243 127.61 36.6103 127.962 36.7172 128.262C36.5947 128.223 36.4487 128.166 36.2922 128.074C36.1984 128.02 36.1202 127.965 36.0498 127.91H36.0524Z" fill="#818285"/>
<path d="M38.3672 128.795C38.2812 128.599 37.8144 127.497 38.3151 126.242C38.8417 124.924 40.0281 124.459 40.2184 124.389C39.8743 124.741 38.6931 126.036 38.7844 127.811C38.8052 128.226 38.8939 128.591 39.0034 128.902C38.9095 128.902 38.7948 128.897 38.667 128.873C38.5497 128.852 38.4506 128.823 38.3672 128.795Z" fill="#818285"/>
<path d="M64.1879 126.649C64.2557 126.443 64.4486 125.634 64.154 124.746C63.7238 123.447 62.5374 122.844 62.2793 122.718C62.7069 123.204 63.656 124.425 63.7133 126.14C63.729 126.615 63.6742 127.041 63.5934 127.398C63.7003 127.336 63.862 127.221 64.0002 127.03C64.0002 127.03 64.1201 126.866 64.1905 126.647L64.1879 126.649Z" fill="#818285"/>
<path d="M61.9512 128.362C62.0398 128.15 62.4492 127.114 61.9903 125.934C61.474 124.614 60.2746 124.149 60.0869 124.081C60.4311 124.431 61.6305 125.736 61.521 127.503C61.4975 127.889 61.4141 128.234 61.3098 128.531C61.4036 128.534 61.5418 128.529 61.6983 128.479C61.8026 128.445 61.8886 128.401 61.9512 128.362Z" fill="#818285"/>
<path d="M59.4479 128.79C59.5339 128.602 60.0319 127.466 59.5079 126.174C58.976 124.856 57.7974 124.394 57.6045 124.321C57.9487 124.673 59.1298 125.968 59.0385 127.743C59.0177 128.158 58.929 128.523 58.8195 128.834C58.8899 128.855 59.0099 128.883 59.1585 128.87C59.2862 128.857 59.3853 128.821 59.4479 128.79Z" fill="#818285"/>
<path d="M75.1987 98.5659C74.4739 101.408 73.2745 104.979 71.2225 108.827C69.619 111.834 67.8825 114.285 66.3154 116.208C67.9581 114.522 70.0466 112.016 71.843 108.605C73.9107 104.679 74.7919 101.067 75.1987 98.5685V98.5659Z" fill="#818285"/>
<path d="M23.1979 96.9033C24.0583 100.291 25.4194 104.389 27.6356 108.788C29.1114 111.716 30.6915 114.23 32.1933 116.336C30.4568 114.452 28.2014 111.594 26.3398 107.689C24.3087 103.432 23.5238 99.5631 23.1953 96.9033H23.1979Z" fill="#818285"/>
<path d="M5.72559 55.8626C6.55733 55.2962 7.75411 54.6959 8.99 54.9778C10.0851 55.2284 10.4449 56.001 11.3236 56.0297C11.9989 56.0506 12.974 55.6303 14.2099 53.5448C13.8319 53.7301 11.9546 54.5993 9.75395 53.8475C7.05534 52.9261 6.17666 50.3498 6.08019 50.0549C6.34614 50.2533 8.27037 51.6341 10.6717 51.0128C12.2257 50.6082 13.1409 49.5824 13.4616 49.1831C12.5021 49.2614 11.115 49.2562 9.52451 48.8281C8.54675 48.5644 7.73586 48.2094 7.10227 47.8727C7.95488 47.7605 9.03432 47.4629 9.75395 46.6068C10.5309 45.6801 10.5362 44.5134 10.5466 44.1375C10.6118 41.7022 11.9181 32.1983 16.4444 27.1397C19.3073 23.9422 22.809 23.2478 22.8116 20.5384C22.8116 20.1991 22.7568 18.9905 21.9329 18.2858C20.5797 17.1321 18.2044 18.2257 18.134 17.9778C18.0532 17.7011 20.8326 15.8583 23.4687 16.6335C24.6341 16.9754 24.7828 17.5393 25.8048 17.7298C27.9116 18.1213 29.8854 16.2185 30.386 15.7774C35.6607 11.1494 57.6016 11.0528 67.3765 15.0909C70.7114 16.4691 74.466 16.443 77.9833 17.2391C78.3379 17.32 79.2374 17.5288 80.0666 17.0981C80.7731 16.7301 80.9843 16.1271 81.1043 16.1872C81.3442 16.3046 81.0156 18.9175 79.3886 19.818C78.0459 20.5593 76.4163 19.8075 76.2676 20.2095C76.1294 20.588 77.5087 21.4102 77.6078 21.4703C81.0469 23.5271 87.2081 29.9326 87.5575 36.5652C87.654 38.3898 87.2185 38.4942 87.4636 40.3396C87.9304 43.8373 89.8989 46.4736 91.5155 48.1677C91.1217 48.5253 90.3708 49.1048 89.2705 49.4102C87.5627 49.8852 86.1339 49.3814 85.6463 49.1857C86.2277 49.9426 87.3359 51.1799 89.1115 52.1352C90.6029 52.9366 91.9796 53.2237 92.8713 53.3359C92.3759 53.8606 91.2026 54.9569 89.3514 55.4189C86.4129 56.1524 84.0454 54.7194 83.5891 54.4296C84.5251 55.1553 85.7506 55.9749 87.2707 56.7005C88.4388 57.2565 89.5287 57.6376 90.4699 57.9012C87.6331 61.305 82.8616 66.1704 75.7514 69.9918C58.2508 79.4017 40.8389 74.8207 32.7404 72.6908C14.5072 67.8932 8.20258 58.3685 8.29123 56.9041C8.29644 56.7997 8.37727 56.0793 7.95227 55.7113C7.4308 55.2571 6.42436 55.5729 5.72559 55.8653V55.8626Z" fill="#464646"/>
<path d="M39.8037 74.3694C43.3784 74.847 47.4876 75.1785 52.04 75.1707C56.7255 75.1603 60.9468 74.7922 64.5997 74.2754C61.3639 74.9984 57.2469 75.6275 52.4598 75.6666C47.4485 75.7084 43.1463 75.0898 39.8063 74.372L39.8037 74.3694Z" fill="#818285"/>
<path d="M75.1543 99.2057C77.9885 94.1914 92.4516 101.902 98.704 95.5983C101.317 92.9646 101.979 88.4019 100.858 85.1939C98.7588 79.1878 91.1896 80.1666 89.5235 74.9018C87.8131 69.4986 90.8506 60.5325 97.1865 59.0734C103.173 57.6952 110.283 63.4873 109.991 67.2982C109.884 68.6947 108.753 70.1903 107.707 70.2008C105.752 70.2191 105.627 65.0143 102.172 63.7796C100.294 63.1088 98.1695 63.871 96.8997 64.9229C94.6026 66.8284 94.394 70.2739 95.1684 72.5657C96.4408 76.3296 100.232 76.032 102.964 79.3992C106.774 84.0924 107.061 92.0641 104.117 97.462C98.0574 108.574 78.5074 108.422 75.3212 103.1C74.7111 102.082 74.453 100.461 75.1596 99.2057H75.1543Z" fill="#464646"/>
<path d="M82.8691 98.3262C83.3489 99.4903 83.826 100.738 84.2797 102.064C84.7334 103.39 85.1245 104.669 85.4583 105.883C85.3618 104.755 85.1167 103.26 84.5066 101.594C84.0112 100.247 83.4089 99.1562 82.8718 98.3262H82.8691Z" fill="#818285"/>
<path d="M35.3555 42.4148C35.3555 42.4148 36.2707 42.253 37.2693 42.4148L36.7087 41.9502C36.7087 41.9502 35.5223 42.0859 35.3581 42.4148H35.3555Z" fill="#60C8D4"/>
<path d="M30.6211 31.8798C30.6211 31.8798 30.8844 33.0648 33.7786 34.1507C33.7786 34.1507 35.5542 34.9729 36.2791 31.3186C36.2791 31.3186 33.6143 31.517 30.7541 28.6196C30.7541 28.6196 30.6706 30.7444 34.6182 32.3731C34.6182 32.3731 34.8476 32.5715 34.6025 32.7177C34.6025 32.7177 32.3341 33.0309 30.6237 31.8772L30.6211 31.8798Z" fill="#60C8D4"/>
<path d="M37.371 42.4123C39.387 42.4123 41.0213 39.853 41.0213 36.6959C41.0213 33.5388 39.387 30.9795 37.371 30.9795C35.355 30.9795 33.7207 33.5388 33.7207 36.6959C33.7207 39.853 35.355 42.4123 37.371 42.4123Z" fill="white"/>
<path d="M37.4495 42.4148C39.032 42.4148 40.315 40.3673 40.315 37.8417C40.315 35.316 39.032 33.2686 37.4495 33.2686C35.8669 33.2686 34.584 35.316 34.584 37.8417C34.584 40.3673 35.8669 42.4148 37.4495 42.4148Z" fill="#231F20"/>
<path d="M35.7258 35.5395C36.1261 35.5395 36.4507 35.0311 36.4507 34.404C36.4507 33.7769 36.1261 33.2686 35.7258 33.2686C35.3255 33.2686 35.001 33.7769 35.001 34.404C35.001 35.0311 35.3255 35.5395 35.7258 35.5395Z" fill="white"/>
<path opacity="0.57" d="M33.9947 46.9564C35.8595 46.9564 37.3712 46.5579 37.3712 46.0664C37.3712 45.5748 35.8595 45.1763 33.9947 45.1763C32.1299 45.1763 30.6182 45.5748 30.6182 46.0664C30.6182 46.5579 32.1299 46.9564 33.9947 46.9564Z" fill="#F7B1C4"/>
<path d="M67.3689 31.8798C67.3689 31.8798 67.1056 33.0648 64.2114 34.1507C64.2114 34.1507 62.4358 34.9729 61.7109 31.3186C61.7109 31.3186 64.3757 31.517 67.2359 28.6196C67.2359 28.6196 67.3194 30.7444 63.3718 32.3731C63.3718 32.3731 63.1424 32.5715 63.3875 32.7177C63.3875 32.7177 65.6559 33.0309 67.3663 31.8772L67.3689 31.8798Z" fill="#60C8D4"/>
<path d="M62.7829 42.4148C62.7829 42.4148 61.8678 42.253 60.8691 42.4148L61.4297 41.9502C61.4297 41.9502 62.6161 42.0859 62.7803 42.4148H62.7829Z" fill="#60C8D4"/>
<path d="M60.6161 42.4123C62.6321 42.4123 64.2664 39.853 64.2664 36.6959C64.2664 33.5388 62.6321 30.9795 60.6161 30.9795C58.6001 30.9795 56.9658 33.5388 56.9658 36.6959C56.9658 39.853 58.6001 42.4123 60.6161 42.4123Z" fill="white"/>
<path d="M60.595 42.4148C62.1992 42.4148 63.4996 40.3673 63.4996 37.8417C63.4996 35.316 62.1992 33.2686 60.595 33.2686C58.9909 33.2686 57.6904 35.316 57.6904 37.8417C57.6904 40.3673 58.9909 42.4148 60.595 42.4148Z" fill="#231F20"/>
<path d="M59.0725 35.5395C59.4728 35.5395 59.7973 35.0311 59.7973 34.404C59.7973 33.7769 59.4728 33.2686 59.0725 33.2686C58.6722 33.2686 58.3477 33.7769 58.3477 34.404C58.3477 35.0311 58.6722 35.5395 59.0725 35.5395Z" fill="white"/>
<path opacity="0.57" d="M64.8345 46.9564C66.6993 46.9564 68.2111 46.5579 68.2111 46.0664C68.2111 45.5748 66.6993 45.1763 64.8345 45.1763C62.9697 45.1763 61.458 45.5748 61.458 46.0664C61.458 46.5579 62.9697 46.9564 64.8345 46.9564Z" fill="#F7B1C4"/>
<path d="M39.7539 49.5509C41.0315 48.8148 42.7367 48.0004 44.8408 47.4157C46.1758 47.0451 47.4012 46.8441 48.4624 46.7371V52.3647C47.0258 54.5756 44.6244 55.6849 42.515 55.1785C41.0289 54.8236 40.1189 53.769 39.7539 53.2861C39.7408 53.5028 39.7043 54.4921 40.4318 55.3717C41.1853 56.2853 42.2126 56.4158 42.4186 56.4393C41.9362 62.7848 45.7195 67.3004 48.6684 67.4022C51.6799 67.5067 55.896 63.0823 55.5988 56.4889C55.6874 56.4967 57.0797 56.6168 57.9245 55.5179C58.579 54.6669 58.4356 53.6985 58.4095 53.5289C57.7837 54.419 57.1084 54.8236 56.66 55.0193C54.5689 55.9355 51.6512 54.8993 49.4454 52.3647C49.4767 50.488 49.5106 48.6138 49.5419 46.7371C50.6109 46.8206 51.8807 47.0137 53.273 47.4157C55.7135 48.1205 57.5804 49.2011 58.8449 50.0834C58.3052 49.4856 54.6158 45.539 48.7206 45.6825C43.6675 45.8052 40.4526 48.854 39.7513 49.5483L39.7539 49.5509Z" fill="#818285"/>
<path d="M48.4857 44.2419C50.4673 44.1009 53.2077 44.8814 53.4293 46.3405C53.6222 47.6117 51.8988 49.3814 49.0489 50.1071C46.0687 49.3501 44.2748 47.6482 44.4548 46.3953C44.6425 45.085 46.9709 44.3515 48.4857 44.2445V44.2419Z" fill="#F7B1C4"/>
<path opacity="0.57" d="M44.8823 61.8715C44.9449 61.8114 45.8992 60.9266 47.1559 61.2424C48.1519 61.493 48.6108 62.3126 48.6864 62.4509C49.174 61.5217 50.11 60.9396 51.0982 60.9605C52.1959 60.9814 52.8843 61.7357 53.0042 61.8715C53.2258 64.3355 51.3094 66.4315 49.0567 66.4916C46.7257 66.5542 44.6554 64.4243 44.8823 61.8715Z" fill="#F7B1C4"/>
<path d="M64.8135 48.8593C68.1952 49.0055 71.0007 49.1986 72.9928 49.3526C84.6763 50.2584 87.8234 51.3703 89.9693 52.9704C90.8714 53.6438 91.4502 54.2912 91.7657 54.6801C91.6979 54.3382 91.5728 54.0223 91.4007 53.7248C88.2145 48.2616 68.044 48.7601 64.8135 48.8593Z" fill="#818285"/>
<path d="M63.8359 51.7412C67.1551 52.399 69.9006 53.015 71.8457 53.4692C83.2581 56.1394 86.1966 57.716 88.0791 59.6241C88.8692 60.4254 89.3437 61.1537 89.5966 61.587C89.581 61.2398 89.5054 60.9057 89.3802 60.5873C87.0597 54.7038 67.0456 52.1354 63.8385 51.7412H63.8359Z" fill="#818285"/>
<path d="M62.665 54.0405C65.7704 55.3874 68.3204 56.5725 70.1273 57.4312C80.7132 62.4637 83.2527 64.6302 84.6868 66.8933C85.2891 67.846 85.5967 68.6578 85.7532 69.1329C85.8106 68.7909 85.8079 68.449 85.7532 68.1097C84.7311 61.866 65.7183 55.1055 62.6676 54.0405H62.665Z" fill="#818285"/>
<path d="M33.1632 48.7548C29.7814 48.901 26.9759 49.0941 24.9839 49.2481C13.3003 50.1539 10.1533 51.2658 8.00741 52.8659C7.10526 53.5394 6.52643 54.1867 6.21094 54.5756C6.27873 54.2337 6.40388 53.9178 6.57597 53.6203C9.76216 48.1571 29.9327 48.6556 33.1632 48.7548Z" fill="#818285"/>
<path d="M34.1376 51.6392C30.8185 52.2969 28.0729 52.913 26.1278 53.3671C14.7154 56.0374 11.7769 57.614 9.89443 59.5221C9.10441 60.3234 8.62987 61.0516 8.37695 61.4849C8.3926 61.1378 8.46821 60.8037 8.59336 60.4852C10.9139 54.6018 30.928 52.0333 34.135 51.6392H34.1376Z" fill="#818285"/>
<path d="M35.3118 53.936C32.2065 55.2829 29.6565 56.468 27.8496 57.3267C17.2637 62.3592 14.7241 64.5257 13.2901 66.7888C12.6878 67.7415 12.3801 68.5533 12.2237 69.0284C12.1663 68.6864 12.1689 68.3445 12.2237 68.0052C13.2458 61.7615 32.2586 55.001 35.3092 53.936H35.3118Z" fill="#818285"/>
</svg>
