<svg width="116" height="129" viewBox="0 0 116 129" fill="none" xmlns="http://www.w3.org/2000/svg">
<path d="M41.452 74.2765C38.1224 68.1893 28.3774 68.5792 20.0874 68.9093C12.3166 69.2186 7.1255 69.4265 3.71985 73.5748C0.353531 77.6763 -0.343853 84.5017 2.78913 88.6889C5.20114 91.9119 9.03937 92.4447 13.8817 93.0426C19.5159 93.7391 34.5778 95.6001 40.343 86.581C42.5007 83.2047 43.5179 78.0531 41.452 74.2739V74.2765Z" fill="#464647"/>
<path d="M1.48134 77.7388C1.25849 77.9025 0.306798 78.6381 0.0577324 79.9871C-0.233281 81.5621 0.663355 82.7214 0.80493 82.8981C2.52742 82.8513 3.7675 81.4478 3.66263 80.0676C3.58136 79.002 2.70307 78.0325 1.48396 77.7388H1.48134Z" fill="white"/>
<path d="M0.896738 83.639C0.768273 83.9665 0.395985 85.0269 0.781381 86.2927C1.25854 87.8496 2.53271 88.5566 2.78702 88.6891C4.39152 87.7197 4.7743 85.7573 3.95107 84.5903C3.34545 83.7325 2.11061 83.3375 0.894116 83.639H0.896738Z" fill="white"/>
<path d="M4.93416 72.3013C4.59071 72.3948 3.5158 72.7275 2.71092 73.7828C1.78282 74.9992 1.86672 76.317 1.89556 76.6315C3.61804 77.4424 5.49259 76.6315 5.97237 75.3059C6.32368 74.3312 5.91731 73.0966 4.93678 72.3013H4.93416Z" fill="white"/>
<path d="M81.0483 91.8312C86.7715 95.8001 95.3132 91.1398 102.581 87.1735C109.395 83.4541 113.946 80.9719 115.123 75.7501C116.287 70.5908 113.836 64.1734 109.145 61.816C105.535 60.0018 101.862 61.2234 97.2585 62.8322C91.9023 64.7037 77.5902 69.7071 76.4943 80.3325C76.0853 84.3092 77.4958 89.3698 81.0483 91.8338V91.8312Z" fill="#464647"/>
<path d="M115.249 71.0327C115.375 70.7884 115.894 69.7071 115.511 68.3893C115.063 66.8506 113.736 66.2112 113.532 66.1177C112.014 66.9234 111.534 68.7272 112.25 69.9151C112.803 70.8326 114.027 71.3108 115.249 71.0327Z" fill="white"/>
<path d="M113.112 65.4939C113.08 65.143 112.936 64.0306 112.019 63.0689C110.889 61.8862 109.434 61.8187 109.143 61.8135C108.144 63.3912 108.684 65.3172 109.947 65.9955C110.875 66.4946 112.158 66.2996 113.112 65.4939Z" fill="white"/>
<path d="M114.609 77.4267C114.877 77.1901 115.687 76.4156 115.931 75.1186C116.214 73.6215 115.545 72.4778 115.378 72.2075C113.472 72.2439 112.158 73.8008 112.326 75.1966C112.449 76.2232 113.369 77.1485 114.607 77.4267H114.609Z" fill="white"/>
<path d="M56.5773 54.0214C83.0962 53.0337 106.469 91.9147 95.6596 109.069C84.3599 127.006 32.3759 126.486 21.3515 105.586C11.8791 87.6261 32.8033 54.9051 56.5773 54.0214Z" fill="#464646"/>
<path d="M75.3471 3.11392C77.5441 -0.244203 82.1505 -0.951178 85.0763 1.3101C87.7794 3.39983 88.3955 7.51952 86.2037 10.493C82.5359 15.8005 76.4954 16.588 74.1515 14.5841C71.9886 12.7335 71.7815 7.47273 75.3471 3.11392Z" fill="#464646"/>
<path opacity="0.57" d="M76.98 4.73851C78.4141 2.54481 81.4238 2.08476 83.3325 3.56109C85.0969 4.92565 85.5007 7.61579 84.0692 9.55737C81.6729 13.0221 77.7298 13.5367 76.1987 12.2293C74.7856 11.0207 74.6519 7.5846 76.98 4.73851Z" fill="#F7B1C4"/>
<path d="M41.7985 3.11392C39.6015 -0.244203 34.9951 -0.951178 32.0692 1.3101C29.3662 3.39983 28.7501 7.51952 30.9419 10.493C34.6097 15.8005 40.6502 16.588 42.9941 14.5841C45.157 12.7335 45.3641 7.47273 41.7985 3.11392Z" fill="#464646"/>
<path opacity="0.57" d="M40.1651 4.73851C38.731 2.54481 35.7213 2.08476 33.8127 3.56109C32.0482 4.92565 31.6445 7.61579 33.0759 9.55737C35.4722 13.0221 39.4153 13.5367 40.9464 12.2293C42.3595 11.0207 42.4932 7.5846 40.1651 4.73851Z" fill="#F7B1C4"/>
<path d="M75.4328 69.0469C75.7395 68.6726 77.2234 66.9416 79.7534 66.6791C83.1879 66.323 85.4007 68.9975 85.5527 69.1873C85.7546 72.1789 84.2287 74.7547 81.974 75.5448C80.1126 76.1998 78.4321 75.3967 78.2538 75.3057C76.1983 74.2843 75.0159 71.7735 75.4328 69.0443V69.0469Z" fill="white"/>
<path d="M30.6301 68.4283C30.9368 68.054 32.4207 66.3229 34.9507 66.0604C38.3852 65.7043 40.5979 68.3789 40.75 68.5686C40.9519 71.5603 39.426 74.136 37.1713 74.9262C35.3099 75.5812 33.6293 74.778 33.451 74.6871C31.3956 73.6656 30.2132 71.1548 30.6301 68.4257V68.4283Z" fill="white"/>
<path d="M27.1406 34.4471C25.9661 16.2763 39.9347 1.01136 56.5068 0.0496685C74.2822 -0.982202 90.7284 14.6856 89.6823 34.2548C90.8149 34.7382 98.3341 38.0859 100.576 46.042C102.885 54.232 98.2371 62.448 91.9973 66.5209C83.1122 72.3222 73.1916 68.3013 72.371 67.953C70.8949 75.4698 64.0653 80.6604 56.8083 80.1639C50.3195 79.7195 44.722 74.8096 43.3613 68.1505C42.6351 68.4209 33.0264 71.8258 24.7994 65.8243C18.6173 61.3147 15.4765 53.1429 17.663 45.6755C19.7578 38.5148 25.8297 35.1385 27.1406 34.4471Z" fill="#464646"/>
<path d="M46.3158 70.2478C46.4626 65.9227 53.3972 62.3801 59.1519 62.7959C64.128 63.1546 69.922 66.5959 69.8906 70.5831C69.8565 74.9107 62.9665 78.7263 57.1069 78.3208C51.9867 77.9673 46.1795 74.2869 46.3158 70.2504V70.2478Z" fill="#818285"/>
<path opacity="0.57" d="M51.2084 74.4506C50.9803 73.1796 52.493 71.1782 54.2968 71.4252C55.8358 71.6331 56.6852 73.3511 56.7508 73.4863C57.0994 73.125 58.1062 72.1841 59.6163 72.1581C61.7085 72.1217 63.9186 73.8528 63.8557 75.0224C63.7744 76.5039 60.0358 77.2993 57.186 77.0965C55.3035 76.9614 51.5256 76.2284 51.2084 74.4532V74.4506Z" fill="#F7B1C4"/>
<path d="M29.225 51.2221C30.8689 53.8967 34.3951 56.0436 36.0547 55.0039C37.5884 54.0422 37.2581 50.5178 36.0992 48.2097C34.5026 45.0257 30.5674 42.6319 28.8632 43.6897C27.2797 44.6722 27.631 48.6256 29.2276 51.2221H29.225Z" fill="#818285"/>
<path d="M88.7912 51.2221C87.1474 53.8967 83.6211 56.0436 81.9616 55.0039C80.4278 54.0422 80.7582 50.5178 81.917 48.2097C83.5136 45.0257 87.4489 42.6319 89.153 43.6897C90.7365 44.6722 90.3852 48.6256 88.7886 51.2221H88.7912Z" fill="#818285"/>
<path d="M43.2516 32.3101C43.2516 32.3101 44.5179 32.0892 45.8996 32.3101L45.1209 31.6733C45.1209 31.6733 43.4797 31.8605 43.249 32.3101H43.2516Z" fill="#60C8D4"/>
<path d="M36.6921 17.8667C36.6921 17.8667 37.0565 19.4911 41.0625 20.9831C41.0625 20.9831 43.5217 22.1111 44.5232 17.0999C44.5232 17.0999 40.8344 17.3702 36.873 13.3987C36.873 13.3987 36.7602 16.3098 42.224 18.545C42.224 18.545 42.5438 18.8154 42.2004 19.0181C42.2004 19.0181 39.0569 19.447 36.6895 17.8667H36.6921Z" fill="#60C8D4"/>
<path d="M46.0411 32.3103C48.8327 32.3103 51.0958 28.8006 51.0958 24.4712C51.0958 20.1418 48.8327 16.6321 46.0411 16.6321C43.2494 16.6321 40.9863 20.1418 40.9863 24.4712C40.9863 28.8006 43.2494 32.3103 46.0411 32.3103Z" fill="white"/>
<path d="M46.1464 32.3101C48.3371 32.3101 50.1131 29.5033 50.1131 26.0409C50.1131 22.5785 48.3371 19.7717 46.1464 19.7717C43.9556 19.7717 42.1797 22.5785 42.1797 26.0409C42.1797 29.5033 43.9556 32.3101 46.1464 32.3101Z" fill="#231F20"/>
<path d="M43.7629 22.8831C44.3175 22.8831 44.767 22.186 44.767 21.3262C44.767 20.4663 44.3175 19.7693 43.7629 19.7693C43.2084 19.7693 42.7588 20.4663 42.7588 21.3262C42.7588 22.186 43.2084 22.8831 43.7629 22.8831Z" fill="white"/>
<path d="M80.0577 17.8667C80.0577 17.8667 79.6933 19.4911 75.6873 20.9831C75.6873 20.9831 73.2281 22.1111 72.2266 17.0999C72.2266 17.0999 75.9154 17.3702 79.8768 13.3987C79.8768 13.3987 79.9896 16.3098 74.5258 18.545C74.5258 18.545 74.206 18.8154 74.5494 19.0181C74.5494 19.0181 77.6929 19.447 80.0603 17.8667H80.0577Z" fill="#60C8D4"/>
<path d="M73.7105 32.3101C73.7105 32.3101 72.4442 32.0892 71.0625 32.3101L71.8412 31.6733C71.8412 31.6733 73.4824 31.8605 73.7131 32.3101H73.7105Z" fill="#60C8D4"/>
<path d="M70.709 32.3103C73.5007 32.3103 75.7637 28.8006 75.7637 24.4712C75.7637 20.1418 73.5007 16.6321 70.709 16.6321C67.9174 16.6321 65.6543 20.1418 65.6543 24.4712C65.6543 28.8006 67.9174 32.3103 70.709 32.3103Z" fill="white"/>
<path d="M70.68 32.3101C72.9011 32.3101 74.7017 29.5033 74.7017 26.0409C74.7017 22.5785 72.9011 19.7717 70.68 19.7717C68.4588 19.7717 66.6582 22.5785 66.6582 26.0409C66.6582 29.5033 68.4588 32.3101 70.68 32.3101Z" fill="#231F20"/>
<path d="M68.5725 22.8831C69.127 22.8831 69.5766 22.186 69.5766 21.3262C69.5766 20.4663 69.127 19.7693 68.5725 19.7693C68.0179 19.7693 67.5684 20.4663 67.5684 21.3262C67.5684 22.186 68.0179 22.8831 68.5725 22.8831Z" fill="white"/>
<path d="M50.112 36.3365C51.7794 35.6503 54.666 34.7068 58.36 34.7042C62.0803 34.699 64.9852 35.6503 66.6552 36.3365C65.9578 35.7023 63.066 33.2175 58.6091 33.1343C53.8637 33.0486 50.7596 35.7465 50.1094 36.3365H50.112Z" fill="#818285"/>
<path d="M27.2432 34.4054C28.2394 34.2546 29.4481 34.1558 30.8166 34.2234C32.9507 34.3274 34.7125 34.7926 35.9841 35.2397C34.9694 34.7666 33.2968 34.1428 31.1496 34.0259C29.5398 33.9401 28.1922 34.1662 27.2458 34.4054H27.2432Z" fill="#818285"/>
<path d="M89.9235 34.3038C88.9272 34.153 87.7186 34.0543 86.3501 34.1219C84.216 34.2258 82.4542 34.6911 81.1826 35.1381C82.1972 34.6651 83.8699 34.0413 86.0171 33.9243C87.6269 33.8385 88.9744 34.0647 89.9209 34.3038H89.9235Z" fill="#818285"/>
<path d="M50.125 77.9624C51.5853 78.6538 54.346 79.7246 57.9483 79.7168C60.9948 79.709 63.391 78.9319 64.812 78.3497C63.6925 78.9813 61.1442 80.2211 57.6887 80.1977C53.9134 80.1717 51.2052 78.6512 50.125 77.965V77.9624Z" fill="#818285"/>
<path d="M72.2025 99.7794C76.2741 92.0937 87.1439 88.7044 96.5848 94.238C105.431 99.2206 108.716 110.67 104.83 118.985C100.677 127.869 90.0514 129.514 82.9202 126.46C73.5763 122.457 67.2579 109.113 72.1999 99.7794H72.2025Z" fill="#464646"/>
<path d="M92.4223 94.5654C100.825 94.724 107.02 103.624 107.146 111.733C107.264 119.2 102.262 127.874 94.3073 128.9C85.653 130.016 77.6724 121.547 77.1087 112.786C76.5345 103.863 83.6368 94.4017 92.4223 94.568V94.5654Z" fill="#464646"/>
<path d="M89.8444 94.7942C90.3662 94.5238 92.2774 93.6089 94.6947 94.1418C96.6819 94.581 97.9011 95.7559 98.3415 96.2263C98.0846 98.9398 95.4891 100.754 93.0797 100.237C90.8014 99.7482 89.2074 97.2868 89.8444 94.7942Z" fill="white"/>
<path d="M80.5615 101.279C80.6716 100.733 81.1724 98.589 83.22 97.0685C84.8533 95.8547 86.5548 95.7169 87.1945 95.6987C89.0769 97.6585 88.7807 100.775 86.8118 102.267C84.9661 103.665 82.0926 103.307 80.5615 101.279Z" fill="white"/>
<path d="M100.39 97.6768C100.893 97.7963 103.009 98.3551 104.422 100.424C105.646 102.215 105.599 104.042 105.56 104.617C103.554 106.293 100.526 105.877 99.0946 103.863C97.7051 101.908 98.2452 99.0387 100.387 97.6768H100.39Z" fill="white"/>
<path d="M78.4401 105.042C77.8764 106.896 77.0453 110.537 77.8843 114.997C78.5607 118.587 80.042 121.228 81.0618 122.751C80.1154 121.745 77.6483 118.857 76.9693 114.332C76.285 109.77 77.8292 106.274 78.4401 105.042Z" fill="#818285"/>
<path d="M38.7881 98.9635C34.7165 91.2778 23.8467 87.8885 14.4058 93.4221C5.56007 98.4047 2.27503 109.854 6.16045 118.169C10.3133 127.053 20.9392 128.698 28.0704 125.644C37.4143 121.641 43.7327 108.297 38.7907 98.9635H38.7881Z" fill="#464646"/>
<path d="M18.5695 93.7495C10.1668 93.9081 3.97164 102.808 3.84579 110.917C3.72781 118.384 8.7301 127.058 16.6845 128.085C25.3389 129.2 33.3194 120.732 33.8831 111.97C34.4573 103.047 27.355 93.5858 18.5695 93.7521V93.7495Z" fill="#464646"/>
<path d="M21.1494 93.9782C20.6277 93.7079 18.7164 92.793 16.2992 93.3259C14.3119 93.7651 13.0928 94.9399 12.6523 95.4104C12.9093 98.1239 15.5048 99.9381 17.9142 99.4209C20.1925 98.9323 21.7865 96.4708 21.1494 93.9782Z" fill="white"/>
<path d="M30.4303 100.461C30.3201 99.915 29.8194 97.7706 27.7718 96.2501C26.1385 95.0363 24.437 94.8986 23.7972 94.8804C21.9148 96.8401 22.2111 99.9565 24.18 101.448C26.0257 102.847 28.8992 102.488 30.4303 100.461Z" fill="white"/>
<path d="M10.6016 96.8608C10.0982 96.9804 7.98249 97.5392 6.56937 99.6082C5.34502 101.399 5.39221 103.226 5.43153 103.801C7.43717 105.477 10.4653 105.061 11.8968 103.047C13.2863 101.092 12.7462 98.2228 10.6042 96.8608H10.6016Z" fill="white"/>
<path d="M32.5544 104.224C33.118 106.077 33.9491 109.719 33.1102 114.179C32.4338 117.768 30.9525 120.409 29.9326 121.932C30.8791 120.926 33.3461 118.039 34.0252 113.514C34.7094 108.952 33.1652 105.456 32.5544 104.224Z" fill="#818285"/>
<path d="M26.9879 72.6807C25.5118 74.1752 23.3436 76.7406 21.7496 80.4626C20.3129 83.8103 19.8908 86.8124 19.7676 88.8085C20.2369 86.2431 21.1283 82.8902 22.9006 79.2436C24.2088 76.556 25.6717 74.3727 26.9879 72.6807Z" fill="#818285"/>
<path d="M88.7725 72.8105C90.0178 74.3934 91.3496 76.3064 92.6133 78.5625C94.3332 81.6373 95.4605 84.5198 96.2156 86.9292C95.041 84.3925 93.738 81.7621 92.2961 79.059C91.1294 76.8705 89.9496 74.7885 88.7751 72.8105H88.7725Z" fill="#818285"/>
<path d="M1.89049 75.9764C1.91146 75.6125 2.00323 74.8717 2.48301 74.0998C2.90248 73.4266 3.42421 73.0341 3.72571 72.8418C3.44256 72.9796 2.89724 73.2967 2.46465 73.9179C1.86165 74.7834 1.87214 75.6801 1.89049 75.9764Z" fill="#818285"/>
<path d="M0.595655 82.004C0.464568 81.6635 0.246963 80.9487 0.372807 80.0494C0.480299 79.2645 0.800151 78.6978 0.996782 78.3989C0.794908 78.638 0.425242 79.1449 0.283668 79.8882C0.087037 80.9227 0.459325 81.7363 0.598277 82.0014L0.595655 82.004Z" fill="#818285"/>
<path d="M1.872 88.0991C1.6072 87.8469 1.10121 87.2933 0.823302 86.4304C0.582101 85.6766 0.624049 85.0268 0.673862 84.6733C0.59521 84.9748 0.479853 85.5908 0.673862 86.3238C0.943902 87.3401 1.63342 87.9171 1.872 88.0991Z" fill="#818285"/>
<path d="M6.11663 102.288C6.12712 101.799 6.22674 100.804 6.92413 99.7409C7.53237 98.813 8.31627 98.2568 8.76984 97.9761C8.34249 98.1788 7.51926 98.6363 6.88742 99.4966C6.00914 100.692 6.07468 101.89 6.11663 102.288Z" fill="#818285"/>
<path d="M100.481 97.7368C101.1 97.9188 102.338 98.3632 103.486 99.4341C104.485 100.367 104.962 101.352 105.18 101.906C105.049 101.404 104.713 100.419 103.806 99.4835C102.545 98.1839 101.001 97.833 100.481 97.7368Z" fill="#818285"/>
<path d="M114.426 66.5439C114.675 66.8143 115.144 67.3939 115.367 68.275C115.561 69.0417 115.477 69.6889 115.406 70.0372C115.503 69.7409 115.658 69.1327 115.511 68.392C115.307 67.3601 114.654 66.7415 114.428 66.5439H114.426Z" fill="#818285"/>
<path d="M110.202 61.8472C110.564 61.9121 111.293 62.0941 112.006 62.6607C112.627 63.1572 112.955 63.7186 113.112 64.0409C113.01 63.7472 112.761 63.1701 112.192 62.6685C111.4 61.9693 110.504 61.868 110.202 61.8472Z" fill="#818285"/>
<path d="M115.609 73.2344C115.714 73.5853 115.879 74.3104 115.69 75.1993C115.525 75.9739 115.166 76.5171 114.948 76.8004C115.166 76.5769 115.572 76.0961 115.769 75.3657C116.042 74.3494 115.727 73.5099 115.609 73.2344Z" fill="#818285"/>
</svg>
