<svg width="162" height="138" viewBox="0 0 162 138" fill="none" xmlns="http://www.w3.org/2000/svg">
<path d="M16.8114 47.5447C21.8773 41.5221 27.3566 38.3346 28.8003 37.525C38.63 32.0103 44.7231 33.8549 61.1388 30.8452C67.0061 29.7689 70.7204 28.7085 73.3917 27.7815C75.9135 26.9052 76.9152 26.5243 80.8458 25.1146C88.5703 22.3399 92.4341 20.9525 93.2991 20.9239C103.463 20.5715 113.121 33.8105 119.688 42.8143C119.859 43.0492 119.942 43.1635 120.069 43.3444C122.505 46.7574 132.475 61.6282 126.378 72.5972C124.353 76.2419 120.492 79.5691 116.062 80.947C111.2 82.4614 108.055 80.8772 102.401 80.3914C94.021 79.6707 88.3827 82.0772 82.6076 83.7313C78.0919 85.0266 18.6113 102.069 6.77817 85.1219C0.313028 75.8673 8.62898 57.2819 16.8146 47.5479L16.8114 47.5447Z" fill="#464646"/>
<path d="M27.9609 35.4264C29.2965 35.855 30.3682 36.2836 31.0774 36.5821C28.8005 38.0107 26.5235 39.4394 24.2466 40.8649C24.1066 40.0871 23.8172 38.9346 23.1431 37.7028C21.9473 35.5153 20.5099 34.8391 20.7453 34.3343C21.1491 33.4676 25.738 34.7089 27.9641 35.4233L27.9609 35.4264Z" fill="#818285"/>
<path d="M38.5508 26.4322C40.939 27.6609 42.6435 29.0705 43.4099 29.734C44.7042 30.8579 45.6742 31.931 46.3547 32.7564C43.1428 33.2422 39.9309 33.7311 36.719 34.2169C37.1292 33.3977 37.6921 31.9373 37.1579 30.5404C36.8876 29.8324 36.3819 29.4737 35.9653 28.9784C33.6757 26.2544 31.6595 25.2543 31.7008 24.721C31.7517 24.0289 35.1798 24.6956 38.5539 26.4354L38.5508 26.4322Z" fill="#818285"/>
<path d="M58.0638 22.6606C61.2534 25.3528 63.295 28.2546 64.5544 30.4008C60.8432 30.9881 57.132 31.5787 53.424 32.166C53.4908 29.3055 53.1155 25.5179 51.0739 21.797C49.8432 19.5556 48.5108 18.2508 48.8828 17.7936C49.5029 17.0316 54.3494 19.5239 58.0606 22.6574L58.0638 22.6606Z" fill="#818285"/>
<path d="M72.3999 13.1708C74.114 14.0503 75.227 15.117 75.987 15.8948C77.6979 17.641 80.1752 20.5174 82.6557 24.8351C79.0177 26.1241 75.3796 27.4131 71.7416 28.6989C71.8974 23.489 70.6222 19.9269 69.2452 17.5108C67.6679 14.7424 65.7058 13.0502 66.2814 12.1739C66.9238 11.2024 70.1802 12.0343 72.3967 13.1677L72.3999 13.1708Z" fill="#818285"/>
<path d="M3.35344 72.47C4.0785 72.0256 4.70498 71.7049 5.12475 71.4985C4.93713 73.1907 4.7495 74.8829 4.56188 76.5751C4.12938 76.3052 3.4552 75.9433 2.5934 75.7306C1.06377 75.3496 0.176521 75.7369 0.0206961 75.4067C-0.246432 74.8416 2.13864 73.2129 3.35026 72.47H3.35344Z" fill="#818285"/>
<path d="M5.53827 62.3519C6.57498 62.1709 7.44315 62.1011 8.02192 62.0757C7.16966 64.4536 6.32057 66.8347 5.46831 69.2127C5.04853 68.5301 4.37435 67.5554 3.42032 66.676C1.72851 65.114 0.523253 65.1045 0.459651 64.5171C0.348348 63.5075 3.81147 62.6567 5.53827 62.3551V62.3519Z" fill="#818285"/>
<path d="M9.93604 52.872C11.313 52.6085 12.461 52.4688 13.2274 52.3926C11.9172 54.7356 10.6039 57.0818 9.29366 59.4248C8.79757 58.8089 7.98982 57.939 6.80365 57.1802C4.7016 55.8341 3.11791 55.9293 3.07975 55.3737C3.01615 54.4213 7.64001 53.3101 9.93604 52.872Z" fill="#818285"/>
<path d="M16.1155 43.2238C17.8996 43.5349 19.356 43.8365 20.3196 44.0493C18.6405 45.8525 16.9614 47.6527 15.2823 49.456C15.0152 48.7004 14.535 47.5638 13.6955 46.3415C12.204 44.1731 10.7253 43.4206 10.9542 42.9063C11.0528 42.6873 11.4948 42.4237 16.1155 43.2238Z" fill="#818285"/>
<path d="M160.352 41.5632C157.913 38.1662 154.217 39.3916 148.98 34.6929C144.315 30.5053 144.528 27.0956 141.198 22.7429C139.459 20.4697 137.36 18.7299 135.169 17.3902C130.157 14.3233 124.684 13.3518 122.044 12.8819C107.174 10.2436 85.222 17.2886 80.4455 34.3945C76.1397 49.8209 88.2336 64.7362 98.4003 71.4414C119.026 85.0455 144.954 74.2067 152.736 66.9141C154.396 65.3585 155.858 63.3774 155.858 63.3774C160.027 57.7326 164.492 47.3382 160.349 41.5664L160.352 41.5632Z" fill="#464646"/>
<path d="M156.148 49.2051C156.342 48.113 156.021 46.4049 154.71 45.8684C153.671 45.4429 152.453 45.9382 151.804 46.6557C151.158 47.3701 151.161 48.2368 151.171 49.9734C151.181 51.6878 151.187 52.9863 151.848 53.2689C152.64 53.6054 153.896 52.2974 154.653 51.5068C155.445 50.6814 155.983 50.1194 156.145 49.2051H156.148Z" fill="#818285"/>
<path opacity="0.57" d="M107.111 65.9364C111.031 65.9364 114.209 62.8704 114.209 59.0883C114.209 55.3062 111.031 52.2402 107.111 52.2402C103.191 52.2402 100.013 55.3062 100.013 59.0883C100.013 62.8704 103.191 65.9364 107.111 65.9364Z" fill="#F7B1C4"/>
<path opacity="0.57" d="M97.8945 54.1673C99.5244 54.1673 100.846 52.8923 100.846 51.3195C100.846 49.7467 99.5244 48.4717 97.8945 48.4717C96.2646 48.4717 94.9434 49.7467 94.9434 51.3195C94.9434 52.8923 96.2646 54.1673 97.8945 54.1673Z" fill="#F7B1C4"/>
<path d="M149.466 60.9995C149.466 60.9995 140.498 64.1426 126.658 60.9995C126.658 60.9995 131.928 69.5461 138.062 69.3937C138.062 69.3937 144.791 69.5874 149.466 60.9995Z" fill="white"/>
<path d="M140.467 15.0378C141.784 18.1364 141.504 21.0858 141.198 22.743C139.189 20.9588 137.179 19.1745 135.169 17.3903C135.449 16.8379 135.827 15.9775 136.072 14.879C136.664 12.2153 135.929 10.5835 136.444 10.3327C137.109 10.012 139.29 12.2693 140.467 15.0378Z" fill="#818285"/>
<path d="M128.338 6.95803C129.96 9.09786 130.888 11.1012 131.292 12.0314C131.973 13.6029 132.383 14.9903 132.641 16.0285C129.534 15.0824 126.427 14.1363 123.32 13.1902C124.045 12.6283 125.183 11.5552 125.304 10.063C125.364 9.3074 125.066 8.76768 124.903 8.13906C124.016 4.69439 122.633 2.92601 122.9 2.45931C123.247 1.85927 126.048 3.93878 128.338 6.96121V6.95803Z" fill="#818285"/>
<path d="M114.479 5.00532C117.668 7.69757 119.71 10.5994 120.969 12.7455C117.395 12.7455 113.82 12.7455 110.246 12.7455C109.957 10.4374 109.267 7.34834 107.489 4.14177C106.172 1.77018 104.948 0.570102 105.298 0.138326C105.918 -0.62363 110.764 1.8686 114.476 5.00215L114.479 5.00532Z" fill="#818285"/>
<path d="M91.3374 4.47211C92.8829 5.26264 93.9164 6.20238 94.9245 7.1961C96.6004 8.85336 98.8933 11.3551 101.317 14.8442C97.7707 16.5618 94.2249 18.2826 90.6791 20.0001C90.8349 14.7903 89.5597 11.2281 88.1827 8.81208C86.6054 6.04364 84.6433 4.35146 85.2189 3.47521C85.8613 2.50372 89.1177 3.33552 91.3342 4.46893L91.3374 4.47211Z" fill="#818285"/>
<path d="M51.5164 71.7973C52.8648 72.3942 62.8471 76.9945 63.0284 85.5633C63.1556 91.5923 58.3473 95.7323 57.4823 96.4498C49.5988 102.974 33.5234 102.736 28.1141 92.9734C24.9499 87.2619 25.6622 78.6962 31.0398 73.553C38.6052 66.3176 49.9264 71.0957 51.5164 71.8005V71.7973Z" fill="#464646"/>
<path d="M56.4742 115.349C50.7468 118.956 42.574 117.731 39.2063 113.714C38.1823 112.495 38.2554 111.797 37.7084 110.495C37.3523 109.647 37.0024 109.136 36.7576 108.746C32.4485 101.904 24.1326 88.7 26.9502 85.268C29.1635 82.5694 39.0186 84.9759 44.5743 90.2525C46.7971 92.3606 47.0961 93.7575 50.0695 95.7926C53.4626 98.1197 55.5202 97.98 58.7639 100.777C60.5447 102.314 61.9567 103.533 62.3764 105.46C63.2128 109.292 59.5748 113.397 56.4805 115.346L56.4742 115.349Z" fill="#464646"/>
<path d="M101.494 137.83C99.9647 139.367 91.9032 130.116 77.4528 124.579C62.3346 118.788 57.7903 123.791 41.1424 119.328C31.8311 116.832 15.3264 112.406 8.08533 98.5769C-0.367376 82.4266 7.10586 59.7299 13.5805 59.0314C20.4273 58.2917 18.621 82.9695 38.6365 98.0753C56.5437 111.591 73.6971 103.692 91.4739 121.575C98.1235 128.265 102.811 136.497 101.491 137.824L101.494 137.83Z" fill="#464646"/>
<path d="M28.7844 87.8394C31.1759 90.557 34.2415 93.6397 38.0735 96.7034C41.8228 99.7005 45.4227 101.977 48.5424 103.698C45.499 102.605 40.9229 100.545 36.3499 96.6209C32.7278 93.5159 30.3172 90.2808 28.7812 87.8394H28.7844Z" fill="#818285"/>
<path d="M71.5126 73.1339C71.8847 66.4636 76.9633 59.6409 83.8005 59.1139C87.9951 58.7901 92.7525 60.8442 94.7719 64.5174C99.4243 72.9815 88.7742 88.6778 80.8748 87.8809C75.8439 87.3729 71.1246 80.0963 71.5126 73.1307V73.1339Z" fill="#464646"/>
<path d="M99.7102 101.599C93.455 104.19 85.6065 101.599 82.967 97.0753C81.8699 95.1926 82.6299 94.6211 81.3897 91.767C78.9474 86.1412 74.8546 85.7634 74.6924 83.1156C74.4157 78.5851 85.9054 71.7053 92.2243 74.8579C95.2676 76.3754 94.3581 78.8486 99.1187 84.2966C103.774 89.6271 106.91 89.8526 107.196 92.8496C107.543 96.5197 103.218 100.148 99.7102 101.599Z" fill="#464646"/>
<path d="M87.1904 105.682C88.2748 104.349 89.3624 103.015 90.4468 101.679C90.6059 100.749 90.2783 99.9231 89.6518 99.6596C88.9935 99.3802 88.1508 99.7802 87.6356 100.628C87.4894 102.311 87.3399 103.996 87.1936 105.679L87.1904 105.682Z" fill="#818285"/>
<path d="M109.111 99.7387C108.306 98.2212 107.498 96.7004 106.694 95.1829C105.899 94.6717 105.011 94.6527 104.522 95.1257C104.007 95.621 104.048 96.5544 104.627 97.3576C106.121 98.1513 107.616 98.945 109.111 99.7387Z" fill="#818285"/>
<path d="M94.5267 107.028C95.22 105.457 95.9132 103.882 96.6065 102.31C96.5143 101.371 95.98 100.663 95.3058 100.574C94.5967 100.478 93.8907 101.088 93.6172 102.04C93.9193 103.704 94.2246 105.368 94.5267 107.028Z" fill="#818285"/>
<path d="M103.52 104.253C103.243 102.558 102.963 100.86 102.687 99.1642C102.095 98.4276 101.262 98.1228 100.648 98.4149C100.003 98.7197 99.7418 99.615 100.034 100.564C101.195 101.793 102.359 103.022 103.523 104.25L103.52 104.253Z" fill="#818285"/>
<path d="M75.9901 85.2488C74.9566 84.1439 73.2171 81.9882 72.2439 78.7817C70.9814 74.6227 71.7319 71.0923 72.1422 69.6001C71.7001 70.7811 70.5935 74.2163 71.7351 78.3816C72.7591 82.1184 75.0265 84.3852 75.9901 85.2488Z" fill="#818285"/>
<path d="M94.1838 76.5753L95.3891 73.1465C95.3732 73.6068 95.3191 74.1497 95.1919 74.7466C95.0361 75.4831 94.8135 76.1022 94.5973 76.5912C94.8739 77.2007 95.1474 77.8198 95.4209 78.4484C95.7071 79.1024 95.987 79.7533 96.2573 80.3978C95.564 79.1215 94.8739 77.8484 94.1807 76.5721L94.1838 76.5753Z" fill="#818285"/>
<path d="M66.3926 105.828C64.7612 105.279 63.1298 104.733 61.4984 104.184C60.5698 104.361 59.9115 104.955 59.8829 105.634C59.8511 106.349 60.5221 106.996 61.4984 107.181C63.1298 106.73 64.7612 106.279 66.3926 105.828Z" fill="#818285"/>
<path d="M59.6631 94.2622C60.4613 93.2621 61.9019 91.1763 62.452 88.1475C63.1421 84.3599 62.0259 81.3534 61.5171 80.1851C61.9877 81.0042 63.829 84.4234 62.8209 88.6999C62.134 91.6112 60.4645 93.4748 59.6631 94.2622Z" fill="#818285"/>
<path d="M122.034 47.0623C122.034 47.0623 123.653 46.7797 125.418 47.0623L124.426 46.2432C124.426 46.2432 122.33 46.4845 122.034 47.0623Z" fill="#60C8D4"/>
<path d="M113.658 28.4893C113.658 28.4893 114.122 30.5784 119.242 32.496C119.242 32.496 122.381 33.9469 123.663 27.502C123.663 27.502 118.953 27.8512 113.894 22.7397C113.894 22.7397 113.747 26.486 120.728 29.3592C120.728 29.3592 121.135 29.7085 120.699 29.9688C120.699 29.9688 116.686 30.5212 113.661 28.4893H113.658Z" fill="#60C8D4"/>
<path d="M132.052 36.9818C132.052 42.5504 129.162 47.0618 125.597 47.0618C122.032 47.0618 119.326 41.4551 119.141 36.9818C118.95 32.4323 121.45 27.6097 123.682 27.5049C124.156 27.4827 124.213 27.6923 126.831 28.8352C129.327 29.9242 129.54 29.8448 130.065 30.2226C132.405 31.8925 132.052 36.0928 132.052 36.985V36.9818Z" fill="white"/>
<path d="M125.733 47.0651C128.531 47.0651 130.799 43.4547 130.799 39.001C130.799 34.5474 128.531 30.937 125.733 30.937C122.935 30.937 120.667 34.5474 120.667 39.001C120.667 43.4547 122.935 47.0651 125.733 47.0651Z" fill="#231F20"/>
<path d="M122.687 34.9436C123.395 34.9436 123.968 34.0467 123.968 32.9403C123.968 31.8339 123.395 30.937 122.687 30.937C121.979 30.937 121.405 31.8339 121.405 32.9403C121.405 34.0467 121.979 34.9436 122.687 34.9436Z" fill="white"/>
</svg>
