<svg width="75" height="168" viewBox="0 0 75 168" fill="none" xmlns="http://www.w3.org/2000/svg">
<path d="M19.6044 0.557126C20.8031 1.58087 19.7184 3.42164 19.7086 7.07365C19.6826 14.3744 23.9662 19.27 22.2332 20.6908C21.9302 20.9401 21.4709 21.0583 21.0768 20.9697C18.8747 20.4742 20.6468 13.9445 17.2297 7.48709C15.5618 4.3371 13.7278 3.22477 14.3077 1.79743C14.9657 0.173222 18.2395 -0.607711 19.6044 0.557126Z" fill="#818285"/>
<path d="M41.8308 4.26826C42.4236 5.73497 40.6222 6.86372 38.9414 10.099C35.5796 16.5663 37.1432 22.8991 34.9542 23.3552C34.5698 23.4339 34.1105 23.3257 33.801 23.0664C32.0745 21.6063 36.6318 16.6319 36.5536 9.3148C36.5145 5.74482 35.3972 3.90733 36.5634 2.90983C37.8892 1.77453 41.1532 2.59812 41.8308 4.26826Z" fill="#818285"/>
<path d="M15.9824 17.557C13.2591 10.5286 3.9426 6.30565 1.12485 8.61564C-1.44207 10.7189 0.639481 18.8564 5.19022 23.5321C7.5454 25.9537 12.3405 29.2743 15.0637 27.5582C17.559 25.9865 17.256 20.8514 15.9791 17.5603L15.9824 17.557Z" fill="#464646"/>
<path opacity="0.57" d="M0.649404 9.15025C2.47687 9.83931 7.51949 12.0279 11.0897 17.5207C13.813 21.7141 14.3635 25.8156 14.5003 27.8303C14.0475 27.9353 13.3602 28.0436 12.5393 27.9648C11.3959 27.8566 10.5229 27.4333 9.61407 26.8952C8.50326 26.2356 6.76049 25.2053 4.90697 23.1808C4.2457 22.4622 2.71467 20.6805 1.51264 18.0129C1.51264 18.0129 0.675464 16.1524 0.206383 13.8687C0.14449 13.5668 -0.0151277 12.7399 0.00115981 11.6768C0.0141899 10.8926 0.11843 10.4332 0.225928 10.0985C0.356228 9.68838 0.522361 9.36682 0.649404 9.14697V9.15025Z" fill="#F7B1C4"/>
<path d="M56.167 18.7353C48.6845 19.1028 41.7492 26.6594 43.0294 30.0818C44.1956 33.2022 52.5153 33.7994 58.3625 30.9382C61.3888 29.4583 66.0372 25.931 65.2913 22.7843C64.6039 19.9001 59.6753 18.5614 56.1702 18.732L56.167 18.7353Z" fill="#464646"/>
<path opacity="0.57" d="M43.4697 30.7611C44.662 29.255 48.2778 25.0812 54.5778 23.398C59.4022 22.1084 63.4513 22.9058 65.3667 23.4144C65.3569 23.713 65.3113 24.1428 65.1647 24.635C64.9302 25.4159 64.5328 26.023 63.8976 26.7547C62.7281 28.1065 61.5717 28.9465 61.2916 29.1467C60.4902 29.7209 58.9429 30.8168 56.6203 31.6634C56.6203 31.6634 53.6397 32.7495 49.975 32.779C48.6752 32.7889 47.6817 32.6281 47.3918 32.5789C47.1507 32.5362 46.5774 32.4345 45.864 32.2114C44.5284 31.7979 44.0496 31.4009 43.7987 31.1482C43.6456 30.994 43.5349 30.8529 43.4697 30.7578V30.7611Z" fill="#F7B1C4"/>
<path d="M71.5785 129.756C72.8262 132.476 73.7187 136.587 72.3245 137.506C72.2268 137.568 71.9499 137.752 71.66 137.67C70.4905 137.335 71.9923 133.418 70.2983 130.094C68.751 127.059 65.272 125.959 65.6759 124.995C65.8258 124.637 66.3959 124.568 66.5424 124.552C69.0051 124.26 71.3668 129.3 71.5753 129.759L71.5785 129.756Z" fill="#464646"/>
<path d="M49.0792 164.222C52.0695 162.089 49.9652 157.269 50.7046 148.751C51.6135 138.277 55.7571 134.501 53.2423 131.321C51.2877 128.854 46.4536 128.178 43.9355 130.097C40.4337 132.768 44.3818 138.189 43.2906 152.321C42.8182 158.444 41.6683 162.719 43.9942 164.393C45.3526 165.37 47.623 165.259 49.0824 164.219L49.0792 164.222Z" fill="#464646"/>
<path d="M16.3897 165.098C19.3801 162.966 17.2757 158.145 18.0152 149.627C18.924 139.154 23.0676 135.377 20.5528 132.197C18.5983 129.73 13.7641 129.054 11.2461 130.974C7.74427 133.644 11.6924 139.065 10.6011 153.197C10.1288 159.32 8.97886 163.596 11.3047 165.269C12.6631 166.247 14.9336 166.135 16.393 165.095L16.3897 165.098Z" fill="#464646"/>
<path d="M22.9671 142.388C21.1168 142.306 17.8951 141.886 14.7093 139.846C10.1292 136.912 8.41251 132.414 7.53298 130.018C4.13866 120.742 6.51338 111.371 8.23986 104.9C12.2075 90.0069 15.566 77.4923 19.0678 64.7414C21.4165 60.3643 26.4005 58.4054 30.5375 59.8885C33.8048 61.0599 36.1502 64.2361 36.5379 67.9767C31.3226 94.3841 34.668 103.916 39.7172 107.03C45.0758 110.334 51.7113 106.006 59.5261 111.177C66.7415 115.952 68.5071 124.361 68.6895 125.28C69.0641 127.173 69.8459 132.404 67.52 137.89C66.1063 141.227 65.0932 141.001 63.3276 144.157C58.6075 152.596 59.7053 164.954 57.8876 166.141C56.4119 167.106 55.0992 166.912 55.0992 166.912C54.3239 166.903 53.2359 166.758 52.4247 166.01C50.1608 163.93 51.9589 158.959 52.9362 153.988C53.6528 150.355 54.2522 145.079 53.5258 138.307C52.2293 139.573 49.5256 141.87 45.4081 143.045C39.8475 144.633 35.199 143.183 33.5279 142.572C32.1923 147.445 31.9187 151.418 31.9154 154.139C31.9024 160.265 33.2413 164.937 30.7786 166.735C29.544 167.638 27.5276 167.687 27.2963 167.69C26.951 167.697 24.775 167.729 23.5795 166.735C21.2829 164.819 23.6381 159.94 23.9997 152.951C24.143 150.165 23.9932 146.595 22.9671 142.382V142.388Z" fill="#464646"/>
<path d="M10.6963 136.128C11.54 137.24 12.9798 138.835 15.1819 140.141C16.5142 140.932 17.7716 141.404 18.7847 141.696C17.8302 141.571 16.2764 141.243 14.6314 140.252C12.3674 138.891 11.1914 137.037 10.6963 136.128Z" fill="#818285"/>
<path d="M44.4502 143.298C45.7076 142.868 47.1018 142.31 48.5807 141.582C49.8707 140.945 51.0206 140.279 52.0207 139.636C51.216 140.318 50.1248 141.116 48.7306 141.818C47.092 142.645 45.5871 143.068 44.4502 143.298Z" fill="#818285"/>
<path d="M10.0869 163.313C10.4029 163.622 11.6375 164.757 13.5659 164.855C15.97 164.977 17.5271 163.385 17.7584 163.143C17.6183 163.609 17.3153 164.344 16.6443 164.964C15.2533 166.243 12.8167 166.506 11.3085 165.275C10.5658 164.668 10.24 163.861 10.0902 163.313H10.0869Z" fill="#818285"/>
<path d="M22.6084 164.609C22.8169 164.888 24.3447 166.88 27.0615 167.031C30.016 167.195 31.8239 165.039 32.0096 164.813C31.9021 165.279 31.6839 165.919 31.1887 166.486C29.1788 168.793 24.0385 168.317 22.869 166.053C22.615 165.558 22.5791 165.039 22.6117 164.609H22.6084Z" fill="#818285"/>
<path d="M42.6455 161.692C42.7726 161.873 44.17 163.766 46.6425 163.75C49.0791 163.733 50.444 161.883 50.5808 161.692C50.4863 162.135 50.1671 163.346 49.0791 164.219C47.7109 165.315 45.4698 165.607 43.9909 164.393C42.8735 163.474 42.6846 162.102 42.6455 161.689V161.692Z" fill="#818285"/>
<path d="M51.3857 163.789C52.3663 165.361 54.0602 166.253 55.7475 166.076C57.3763 165.905 58.3796 164.8 58.637 164.498C58.5881 164.918 58.4513 165.492 58.0506 165.994C56.8584 167.493 53.9136 167.628 52.4021 166.112C51.6333 165.341 51.4379 164.347 51.3857 163.786V163.789Z" fill="#818285"/>
<path d="M71.3539 143.905C71.9631 143.357 72.1553 142.858 72.2074 142.48C72.2661 142.074 72.1781 141.7 72.24 141.686C72.3051 141.673 72.4713 142.064 72.5364 142.48C72.5723 142.717 72.6439 143.225 72.3833 143.78C72.2172 144.131 71.9859 144.361 71.8133 144.502C74.0609 143.613 75.302 141.48 74.9372 139.6C74.6017 137.874 72.8491 136.072 71.2204 136.486C69.4711 136.929 68.6991 139.938 69.5102 140.991C69.9174 141.519 70.6145 141.421 71.0901 142.149C71.4582 142.717 71.4386 143.396 71.3539 143.905Z" fill="#818285"/>
<path d="M12.3735 66.2112C1.01779 56.1707 2.13837 34.3209 12.4158 23.2894C13.7319 21.8785 20.3218 14.8042 29.1431 15.6474C35.5735 16.261 39.7626 20.7596 41.6389 22.7677C51.2681 33.097 55.2651 53.3718 45.1571 64.4623C39.059 71.1528 30.2865 71.8024 29.2506 71.8648C28.3906 71.914 19.2859 72.3209 12.3735 66.2112Z" fill="#464646"/>
<path d="M13.3242 43.2886C16.2201 42.5307 20.2073 41.8154 24.96 41.9204C30.8431 42.0516 35.5926 43.3904 38.7426 44.5585C36.2799 43.3641 32.1982 41.7596 26.9178 41.3724C20.8426 40.9262 16.0182 42.2977 13.3242 43.2886Z" fill="#818285"/>
<path d="M15.9365 38.8851C15.9365 38.8851 16.8812 38.767 17.8943 38.9836L17.3438 38.4783C17.3438 38.4783 16.1255 38.557 15.9365 38.8851Z" fill="#60C8D4"/>
<path d="M11.6302 27.7979C11.6302 27.7979 11.8387 29.0316 14.7444 30.2982C14.7444 30.2982 16.5197 31.2366 17.4449 27.5124C17.4449 27.5124 14.7086 27.578 11.9299 24.4478C11.9299 24.4478 11.7377 26.6298 15.6923 28.5099C15.6923 28.5099 15.9171 28.7265 15.6565 28.8643C15.6565 28.8643 13.3176 29.0677 11.627 27.7946L11.6302 27.7979Z" fill="#60C8D4"/>
<path d="M22.0255 33.293C22.1873 30.0424 20.6462 27.3229 18.5835 27.2187C16.5207 27.1146 14.7174 29.6652 14.5556 32.9158C14.3938 36.1664 15.9349 38.886 17.9976 38.9901C20.0604 39.0943 21.8637 36.5436 22.0255 33.293Z" fill="white"/>
<path d="M43.6711 29.4155C43.6711 29.4155 43.3421 30.623 40.3256 31.591C40.3256 31.591 38.4656 32.3456 37.915 28.546C37.915 28.546 40.6318 28.8872 43.7069 26.0522C43.7069 26.0522 43.6808 28.2408 39.5601 29.7174C39.5601 29.7174 39.3158 29.9077 39.5601 30.075C39.5601 30.075 41.8664 30.5147 43.6743 29.4155H43.6711Z" fill="#60C8D4"/>
<path d="M38.4431 40.0204C38.4431 40.0204 37.5147 39.8071 36.4854 39.9219L37.0847 39.4724C37.0847 39.4724 38.29 39.6726 38.4431 40.0204Z" fill="#60C8D4"/>
<path d="M40.2569 34.2151C40.4187 30.9646 38.8777 28.245 36.8149 28.1408C34.7522 28.0367 32.9489 30.5874 32.7871 33.8379C32.6253 37.0885 34.1663 39.8081 36.2291 39.9122C38.2918 40.0164 40.0952 37.4657 40.2569 34.2151Z" fill="white"/>
<path d="M21.2444 34.437C21.3737 31.838 20.1662 29.6648 18.5472 29.5831C16.9283 29.5013 15.511 31.542 15.3817 34.141C15.2523 36.74 16.4599 38.9132 18.0788 38.995C19.6977 39.0767 21.115 37.0361 21.2444 34.437Z" fill="#231F20"/>
<path d="M17.4676 30.6977C17.4997 30.0516 17.1937 29.511 16.784 29.4903C16.3743 29.4696 16.0162 29.9767 15.984 30.6228C15.9519 31.2689 16.2579 31.8095 16.6676 31.8302C17.0772 31.8509 17.4354 31.3438 17.4676 30.6977Z" fill="white"/>
<path d="M39.4119 35.3512C39.5413 32.7522 38.3148 30.5781 36.6725 30.4951C35.0302 30.4122 33.594 32.4519 33.4647 35.0509C33.3353 37.6499 34.5618 39.8241 36.2041 39.907C37.8464 39.9899 39.2826 37.9502 39.4119 35.3512Z" fill="#231F20"/>
<path d="M35.7996 31.6235C35.8318 30.9774 35.5257 30.4368 35.116 30.4161C34.7064 30.3954 34.3482 30.9024 34.316 31.5486C34.2839 32.1947 34.5899 32.7353 34.9996 32.756C35.4093 32.7767 35.7674 32.2696 35.7996 31.6235Z" fill="white"/>
<path opacity="0.57" d="M20.569 55.6027C21.8265 55.6027 22.846 55.0606 22.846 54.3919C22.846 53.7232 21.8265 53.1812 20.569 53.1812C19.3114 53.1812 18.292 53.7232 18.292 54.3919C18.292 55.0606 19.3114 55.6027 20.569 55.6027Z" fill="#F7B1C4"/>
<path opacity="0.57" d="M33.9215 55.6027C35.1791 55.6027 36.1985 55.0606 36.1985 54.3919C36.1985 53.7232 35.1791 53.1812 33.9215 53.1812C32.664 53.1812 31.6445 53.7232 31.6445 54.3919C31.6445 55.0606 32.664 55.6027 33.9215 55.6027Z" fill="#F7B1C4"/>
<path d="M22.2139 71.1593C24.1879 71.343 26.4486 71.4349 28.9406 71.3299C31.2893 71.2314 33.4197 70.9755 35.2863 70.6572C33.8041 71.1757 31.7453 71.7203 29.2468 71.868C26.3053 72.0419 23.8687 71.5989 22.2139 71.1593Z" fill="#818285"/>
<path opacity="0.57" d="M42.453 108.116C42.9742 108.214 43.7657 108.342 44.7397 108.401C45.4368 108.441 45.7724 108.421 46.9842 108.404C48.5543 108.385 49.4859 108.372 50.4567 108.418C51.1375 108.45 52.1408 108.523 53.3656 108.719C54.9553 111.144 55.3267 114.029 54.1083 115.961C52.1082 119.131 46.2252 119.131 43.4563 116.001C41.7005 114.019 41.3422 110.947 42.4497 108.116H42.453Z" fill="#818285"/>
<path opacity="0.57" d="M24.895 115.627C27.0645 115.903 29.2112 117.806 28.9148 119.013C28.589 120.332 25.2534 121.225 23.2011 119.889C22.1815 119.226 21.1163 117.783 21.5691 116.71C22.0447 115.581 23.9341 115.502 24.895 115.624V115.627Z" fill="#818285"/>
<path opacity="0.57" d="M10.9072 94.7547L9.58789 99.5716C9.63675 99.7455 9.8322 100.333 10.6173 100.658C11.7476 101.124 13.448 100.773 14.2754 100.051C14.6403 99.7356 15.1485 99.1122 14.8488 98.7086C14.5719 98.3346 13.8031 98.4067 13.5425 97.9244C13.4122 97.6816 13.4904 97.4486 13.5132 97.3896C13.7184 96.8186 14.5719 96.7103 14.9302 96.2969C15.6534 95.4668 14.2494 93.5308 12.6923 93.6654C11.7965 93.7408 11.1385 94.4758 10.9072 94.7547Z" fill="#818285"/>
<path opacity="0.57" d="M36.0749 70.3882C35.71 70.5227 35.3289 70.6507 34.9347 70.7787C34.4266 70.9427 33.9314 71.0838 33.4558 71.2118C33.4037 71.3102 33.0323 72.0649 33.3841 72.8229C33.7197 73.548 34.5764 73.9713 35.4755 73.8138C35.6742 72.6719 35.8761 71.5333 36.0749 70.3915V70.3882Z" fill="#818285"/>
<path opacity="0.57" d="M10.1614 120.418C11.1842 118.518 14.2496 117.832 16.4842 118.652C18.8915 119.535 20.5268 122.232 20.4291 124.391C20.3834 125.382 19.9763 126.219 20.4909 126.849C21.0871 127.577 22.1132 127.052 22.8689 127.731C23.7908 128.558 23.8201 130.734 22.8689 131.577C21.6474 132.663 18.999 131.383 16.9207 130.379C15.6763 129.779 14.5036 129.211 13.2886 128.046C12.9042 127.676 8.54891 123.403 10.1581 120.418H10.1614Z" fill="#818285"/>
<path opacity="0.57" d="M9.77681 109.405C11.6075 108.201 14.4676 108.247 15.0181 109.363C15.6208 110.58 13.65 113.435 11.2297 113.76C10.0276 113.92 8.28812 113.514 7.94283 112.401C7.58125 111.233 8.96569 109.94 9.78007 109.405H9.77681Z" fill="#818285"/>
<path opacity="0.57" d="M41.7492 136.568C43.9089 136.223 46.4986 137.44 46.5507 138.687C46.6061 140.046 43.6515 141.84 41.3094 141.138C40.1465 140.79 38.7229 139.704 38.8597 138.546C39.0031 137.329 40.7947 136.722 41.7524 136.568H41.7492Z" fill="#818285"/>
<path opacity="0.57" d="M61.5353 127.751C63.695 127.406 66.2847 128.623 66.3369 129.87C66.3922 131.229 63.4377 133.024 61.0955 132.321C59.9326 131.974 58.5091 130.888 58.6459 129.729C58.7892 128.512 60.5808 127.905 61.5385 127.751H61.5353Z" fill="#818285"/>
<path opacity="0.57" d="M26.6669 94.7939C28.1068 93.2386 30.9245 93.5273 32.5272 94.7939C35.0257 96.7659 34.9475 101.415 32.9051 102.698C31.374 103.66 28.8723 102.639 27.5172 101.176C26.0317 99.5713 25.074 96.5198 26.6669 94.7971V94.7939Z" fill="#818285"/>
<path opacity="0.57" d="M19.299 77.5968C20.26 75.7036 23.0516 75.2081 24.9377 75.9825C27.876 77.1932 29.0618 81.6852 27.446 83.4801C26.2342 84.8254 23.55 84.5333 21.8496 83.4965C19.9863 82.3612 18.237 79.687 19.3022 77.5935L19.299 77.5968Z" fill="#818285"/>
<path opacity="0.57" d="M31.7813 125.313C32.7293 123.413 35.5177 122.895 37.4071 123.656C40.3551 124.844 41.5767 129.326 39.974 131.134C38.7719 132.489 36.0878 132.22 34.3776 131.196C32.5045 130.077 30.7357 127.416 31.7813 125.313Z" fill="#818285"/>
<path opacity="0.57" d="M48.167 161.689C47.5513 161.741 46.9715 161.147 46.8803 160.517C46.7826 159.838 47.2451 159.064 47.8022 158.762C48.0595 158.624 48.3234 158.591 48.4146 158.378C48.5188 158.135 48.2517 157.978 48.3201 157.705C48.4048 157.374 48.9488 157.039 49.2876 157.128C49.7241 157.243 49.7534 158.037 49.7762 158.657C49.7893 159.028 49.8023 159.382 49.672 159.831C49.6296 159.976 49.1345 161.603 48.167 161.685V161.689Z" fill="#818285"/>
<path opacity="0.57" d="M29.5499 145.771C29.5793 146.391 28.9701 146.953 28.3414 147.021C27.6638 147.094 26.9146 146.601 26.6345 146.027C26.5074 145.765 26.4846 145.496 26.2794 145.397C26.0416 145.282 25.8787 145.548 25.6084 145.466C25.2826 145.368 24.9731 144.807 25.0741 144.469C25.2044 144.036 25.9927 144.032 26.6084 144.032C26.9765 144.032 27.3283 144.032 27.7681 144.183C27.9082 144.232 29.5043 144.793 29.5499 145.768V145.771Z" fill="#818285"/>
<path opacity="0.57" d="M13.2067 141.076C13.9918 141.119 15.1971 142.644 15.4186 143.773C15.6596 145.007 14.7996 146.139 13.7735 145.122C13.2654 144.616 12.5357 143.406 12.3989 142.385C12.2588 141.312 12.8549 141.06 13.2035 141.076H13.2067Z" fill="#818285"/>
<path opacity="0.57" d="M57.3825 151.477C58.1676 151.52 59.3728 153.046 59.5944 154.174C59.8354 155.408 58.9754 156.54 57.9493 155.523C57.4411 155.018 56.7115 153.807 56.5746 152.787C56.4346 151.714 57.0307 151.461 57.3792 151.477H57.3825Z" fill="#818285"/>
<path opacity="0.57" d="M32.0288 157.059C32.0125 157.233 31.9995 157.498 32.0125 157.823C32.0223 158.056 32.0386 158.164 32.081 158.565C32.1363 159.083 32.1689 159.392 32.1852 159.713C32.1982 159.94 32.2047 160.274 32.1852 160.684C31.4718 161.285 30.576 161.495 29.9277 161.15C28.8658 160.586 28.6834 158.64 29.5792 157.63C30.1492 156.99 31.1037 156.777 32.0288 157.059Z" fill="#818285"/>
</svg>
