<svg width="79" height="96" viewBox="0 0 79 96" fill="none" xmlns="http://www.w3.org/2000/svg">
<path d="M20.7717 47.5056C27.6114 40.8282 37.2435 40.9762 40.5341 41.0275C43.8722 41.0787 52.4094 41.2096 58.8062 47.1584C68.3566 56.0407 69.0866 74.1221 59.7414 84.0633C52.877 91.3668 43.1137 91.5755 40.9409 91.623C37.7625 91.6913 27.427 91.3801 20.3041 83.5528C11.2935 73.6497 11.6756 56.3841 20.7717 47.5037V47.5056Z" fill="#464646"/>
<path d="M19.3897 1.44314C13.0234 -1.03502 4.69908 2.59304 2.70687 7.89471C2.3704 8.78845 2.26205 9.60628 2.22973 10.2192C2.47306 9.97819 2.84374 9.64992 3.3494 9.33304C3.62504 9.16036 3.87026 9.00666 4.17252 8.90609C4.43295 8.8207 5.11159 8.64993 6.08108 9.03702C5.1344 9.49053 4.01474 10.1869 2.98822 11.2704C-0.522861 14.9706 -0.0267097 20.0806 0.0930509 21.0901C0.165287 20.2324 0.511263 17.4506 2.79052 15.2761C3.85125 14.2647 4.97092 13.7258 5.75222 13.4374C5.26937 13.8245 1.01122 17.3349 1.50737 22.2741C1.65374 23.7409 2.18031 24.9326 2.69167 25.7921C2.46545 24.9914 1.9693 22.8244 2.92168 20.4335C3.40073 19.2305 4.08507 18.3747 4.60023 17.8377C4.03185 18.8624 2.72588 21.5588 3.23724 24.9876C3.36841 25.8718 3.98052 29.9857 7.32621 31.8737C9.70622 33.2171 12.2554 32.7731 13.069 32.5891C21.7697 30.6232 30.1054 17.6575 26.2674 8.30648C26.0659 7.81312 24.1098 3.27994 19.3916 1.44314H19.3897Z" fill="#464646"/>
<path opacity="0.57" d="M22.08 16.3767C21.9964 17.6348 21.4888 17.4716 19.4339 21.3368C17.6869 24.6233 17.358 26.0484 15.8011 26.6632C14.5693 27.1489 13.3793 26.8055 13.1151 26.7277C9.86063 25.7884 7.20308 20.7657 8.36267 16.3767C9.35307 12.6291 13.2824 8.74298 17.2212 9.74487C20.1372 10.4868 22.2587 13.7088 22.0819 16.3767H22.08Z" fill="#F7B1C4"/>
<path d="M59.6102 0.796168C65.9765 -1.682 74.3028 1.94607 76.2931 7.24774C76.6295 8.14147 76.7379 8.95931 76.7702 9.57221C76.5269 9.33122 76.1562 9.00295 75.6505 8.68606C75.3749 8.51339 75.1297 8.35969 74.8274 8.25912C74.567 8.17373 73.8883 8.00296 72.9189 8.39005C73.8655 8.84356 74.9852 9.53995 76.0117 10.6234C79.5228 14.3255 79.0266 19.4355 78.9069 20.445C78.8346 19.5873 78.4887 16.8056 76.2094 14.631C75.1487 13.6196 74.029 13.0807 73.2477 12.7923C73.7306 13.1794 77.9887 16.6898 77.4926 21.6291C77.3462 23.0958 76.8196 24.2875 76.3083 25.1471C76.5345 24.3463 77.0306 22.1793 76.0783 19.7885C75.5992 18.5854 74.9149 17.7297 74.3997 17.1927C74.9681 18.2173 76.274 20.9137 75.7627 24.3425C75.6315 25.2268 75.0194 29.3406 71.6737 31.2286C69.2937 32.5721 66.7445 32.128 65.9309 31.944C57.2302 29.9782 48.8945 17.0124 52.7325 7.6614C52.934 7.16805 54.8901 2.63487 59.6083 0.798065L59.6102 0.796168Z" fill="#464646"/>
<path opacity="0.57" d="M56.9204 15.7278C57.004 16.9858 57.5116 16.8227 59.5665 20.6879C61.3135 23.9744 61.6424 25.3995 63.1993 26.0142C64.4311 26.5 65.6211 26.1566 65.8853 26.0788C69.1398 25.1395 71.7973 20.1167 70.6377 15.7278C69.6473 11.9802 65.718 8.09405 61.7792 9.09594C58.8632 9.83787 56.7417 13.0599 56.9185 15.7278H56.9204Z" fill="#F7B1C4"/>
<path d="M13.793 30.2646C13.8557 29.257 14.9526 15.6613 27.2043 8.71826C28.0445 8.24198 40.5262 1.45834 52.9794 8.50953C61.2391 13.1869 66.269 22.128 66.077 31.7276C65.6854 34.7371 64.3453 41.6858 58.7431 47.1032C49.014 56.5092 31.105 56.7844 21.2314 47.2076C15.1084 41.2683 14.0363 33.4392 13.793 30.2646Z" fill="#464646"/>
<path d="M31.0537 52.9516C33.3235 53.4754 36.2357 53.9289 39.629 53.9308C43.8244 53.9327 47.3374 53.2439 49.8999 52.5342C47.7974 53.297 44.6 54.1869 40.6251 54.2913C36.5361 54.3975 33.217 53.631 31.0537 52.9535V52.9516Z" fill="#818285"/>
<path d="M26.0527 31.8302C26.0527 31.8302 26.9063 31.6802 27.8377 31.8302L27.315 31.3994C27.315 31.3994 26.2086 31.5265 26.0546 31.8302H26.0527Z" fill="#60C8D4"/>
<path d="M21.6328 22.0333C21.6328 22.0333 21.878 23.1357 24.5773 24.1471C24.5773 24.1471 26.2331 24.9118 26.9079 21.5134C26.9079 21.5134 24.4234 21.6974 21.7544 19.0029C21.7544 19.0029 21.6784 20.9783 25.3586 22.4944C25.3586 22.4944 25.5735 22.6784 25.3434 22.8151C25.3434 22.8151 23.2258 23.1054 21.6309 22.0333H21.6328Z" fill="#60C8D4"/>
<path d="M27.9309 31.828C29.8123 31.828 31.3375 29.4476 31.3375 26.5112C31.3375 23.5748 29.8123 21.1943 27.9309 21.1943C26.0496 21.1943 24.5244 23.5748 24.5244 26.5112C24.5244 29.4476 26.0496 31.828 27.9309 31.828Z" fill="white"/>
<path d="M28.0028 31.8284C29.479 31.8284 30.6756 29.9246 30.6756 27.5761C30.6756 25.2276 29.479 23.3237 28.0028 23.3237C26.5267 23.3237 25.3301 25.2276 25.3301 27.5761C25.3301 29.9246 26.5267 31.8284 28.0028 31.8284Z" fill="#231F20"/>
<path d="M26.3965 25.4376C26.7702 25.4376 27.0732 24.9644 27.0732 24.3807C27.0732 23.7969 26.7702 23.3237 26.3965 23.3237C26.0227 23.3237 25.7197 23.7969 25.7197 24.3807C25.7197 24.9644 26.0227 25.4376 26.3965 25.4376Z" fill="white"/>
<path opacity="0.57" d="M24.7828 36.0539C26.5213 36.0539 27.9308 35.6827 27.9308 35.2247C27.9308 34.7668 26.5213 34.3955 24.7828 34.3955C23.0442 34.3955 21.6348 34.7668 21.6348 35.2247C21.6348 35.6827 23.0442 36.0539 24.7828 36.0539Z" fill="#F7B1C4"/>
<path d="M57.6599 22.0333C57.6599 22.0333 57.4147 23.1357 54.7153 24.1471C54.7153 24.1471 53.0596 24.9118 52.3848 21.5134C52.3848 21.5134 54.8693 21.6974 57.5383 19.0029C57.5383 19.0029 57.6143 20.9783 53.934 22.4944C53.934 22.4944 53.7192 22.6784 53.9493 22.8151C53.9493 22.8151 56.0669 23.1054 57.6618 22.0333H57.6599Z" fill="#60C8D4"/>
<path d="M53.3827 31.8302C53.3827 31.8302 52.5291 31.6802 51.5977 31.8302L52.1204 31.3994C52.1204 31.3994 53.2268 31.5265 53.3808 31.8302H53.3827Z" fill="#60C8D4"/>
<path d="M51.3616 31.828C53.243 31.828 54.7681 29.4476 54.7681 26.5112C54.7681 23.5748 53.243 21.1943 51.3616 21.1943C49.4802 21.1943 47.9551 23.5748 47.9551 26.5112C47.9551 29.4476 49.4802 31.828 51.3616 31.828Z" fill="white"/>
<path d="M51.3426 31.8284C52.8397 31.8284 54.0534 29.9246 54.0534 27.5761C54.0534 25.2276 52.8397 23.3237 51.3426 23.3237C49.8455 23.3237 48.6318 25.2276 48.6318 27.5761C48.6318 29.9246 49.8455 31.8284 51.3426 31.8284Z" fill="#231F20"/>
<path d="M49.9228 25.4376C50.2966 25.4376 50.5996 24.9644 50.5996 24.3807C50.5996 23.7969 50.2966 23.3237 49.9228 23.3237C49.5491 23.3237 49.2461 23.7969 49.2461 24.3807C49.2461 24.9644 49.5491 25.4376 49.9228 25.4376Z" fill="white"/>
<path opacity="0.57" d="M55.2984 36.0539C57.037 36.0539 58.4464 35.6827 58.4464 35.2247C58.4464 34.7668 57.037 34.3955 55.2984 34.3955C53.5598 34.3955 52.1504 34.7668 52.1504 35.2247C52.1504 35.6827 53.5598 36.0539 55.2984 36.0539Z" fill="#F7B1C4"/>
<path d="M34.5987 39.1868C34.7032 39.3234 35.3685 40.1602 36.3038 40.147C37.3912 40.1299 38.5051 38.9686 38.5393 37.3216C38.4576 36.6973 38.95 36.1641 39.5012 36.1641C40.0525 36.1641 40.5449 36.6973 40.4631 37.3216C40.197 38.6536 40.9973 39.8756 42.077 40.1185C42.8754 40.2988 43.767 39.9268 44.3221 39.1868C44.6091 38.9572 44.9912 38.9003 45.303 39.0464C45.6965 39.2305 45.9132 39.7086 45.7839 40.1754C45.1642 41.3007 43.997 42.016 42.7272 42.0388C41.3547 42.0654 40.0791 41.2817 39.4594 40.0331C38.7732 41.3879 37.3589 42.1849 35.935 42.0388C34.1652 41.8566 33.2927 40.312 33.2186 40.1754C33.1254 39.8149 33.2604 39.4335 33.5588 39.2153C33.863 38.9914 34.2793 38.98 34.5987 39.1868Z" fill="#231F20"/>
<path d="M43.0639 37.0919C45.6074 34.7295 43.773 30.2628 42.1686 28.3102C41.7028 27.7448 40.8759 26.7675 39.6384 26.6783C38.1309 26.5702 36.9828 27.8472 36.6026 28.2723C34.7814 30.2988 33.4356 34.7618 36.0969 37.0919C37.9979 38.758 41.2789 38.7485 43.0639 37.0919Z" fill="#231F20"/>
<path d="M14.2243 27.2856C14.2434 27.2894 14.019 28.1756 13.9297 29.4564C13.8385 30.779 13.9487 31.6765 13.9297 31.6784C13.9107 31.6784 13.7434 30.6006 13.8632 29.2344C13.9601 28.13 14.2053 27.2837 14.2224 27.2875L14.2243 27.2856Z" fill="#818285"/>
<path d="M22.4199 12.2174L25.45 9.80566C24.9862 10.1188 24.5014 10.4698 24.0034 10.8607C23.4198 11.3199 22.8913 11.7772 22.418 12.2174H22.4199Z" fill="#818285"/>
<path d="M65.7314 26.8984L66.0831 31.4544C66.0603 30.6897 66.0185 29.8927 65.952 29.0635C65.893 28.3121 65.817 27.591 65.7314 26.8984Z" fill="#818285"/>
<path d="M53.4629 8.79053L56.6812 11.0619C56.1984 10.6539 55.6547 10.2288 55.0502 9.8057C54.5008 9.4205 53.9666 9.08464 53.4629 8.79053Z" fill="#818285"/>
<path d="M24.2903 95.7674C23.1554 95.4676 22.3608 94.7712 19.9238 91.9534C18.5665 90.3841 16.9336 88.3367 15.2379 85.8016C12.8712 85.2513 11.0235 83.7048 10.514 81.701C10.4209 81.3348 9.84868 79.092 11.3124 77.6688C12.2648 76.7428 13.5289 76.6973 13.9205 76.6973C13.3617 75.5151 13.394 74.1717 14.0764 73.2817C15.0744 71.9819 17.4183 71.6992 19.1805 73.1394C19.3915 72.9174 20.8286 71.4525 23.009 71.5835C24.4861 71.6726 25.486 72.4449 25.832 72.739C29.9285 76.2305 31.5349 82.0919 31.5349 82.0919C32.05 84.3766 33.6259 91.3632 29.7765 94.4846C28.3641 95.6289 26.2027 96.2721 24.2922 95.7674H24.2903Z" fill="#464646"/>
<path opacity="0.57" d="M23.8458 91.3214C25.3647 91.2739 26.7296 90.3233 27.469 89.1942C29.4726 86.1316 27.7104 80.4543 23.7793 79.4638C21.4734 78.8831 18.6372 79.9666 17.603 81.9723C15.761 85.5415 19.9355 91.4428 23.8458 91.3233V91.3214Z" fill="#F7B1C4"/>
<path d="M32.17 89.5508C32.265 87.9644 32.2232 85.8335 31.6871 83.399C30.961 80.0992 29.6265 77.6078 28.6133 76.0366C29.5333 77.1922 30.921 79.2358 31.7347 82.1163C32.6395 85.3193 32.4095 88.0441 32.17 89.5508Z" fill="#818285"/>
<path d="M19.1807 73.139C17.4508 71.8221 15.2077 72.1011 14.2001 73.3781C13.5139 74.2491 13.4398 75.5394 13.9207 76.6969C13.3238 75.4388 13.4455 74.0043 14.2325 73.0992C15.3179 71.8506 17.5972 71.6988 19.1807 73.139Z" fill="#818285"/>
<path d="M26.1384 73.035C26.1194 73.0672 24.7545 71.6896 22.8118 71.6574C20.715 71.6232 19.2037 73.1792 19.179 73.1412C19.1543 73.1033 20.6409 71.4429 22.7376 71.4581C24.7393 71.4714 26.1574 73.0046 26.1365 73.0369L26.1384 73.035Z" fill="#818285"/>
<path d="M27.3774 51.4373C26.2863 50.8719 19.0303 47.2704 15.2474 50.7258C12.8237 52.9402 12.51 57.4316 14.0194 60.4885C16.196 64.8965 21.0453 64.0654 23.26 68.83C24.7313 71.9951 23.1592 73.5871 24.7845 75.5036C27.4725 78.6725 35.4071 78.6042 38.0989 74.6592C39.9808 71.9002 38.5931 68.2817 36.907 63.8889C35.525 60.2836 33.3085 54.5075 27.3774 51.4373Z" fill="#464646"/>
<path d="M27.6401 77.103C27.9025 76.7975 28.5203 75.9911 28.6286 74.8014C28.7959 72.9532 27.5983 71.6837 27.4082 71.4883C28.5089 72.1391 29.1628 73.3232 29.0944 74.5528C29.0088 76.122 27.7922 76.9949 27.6401 77.103Z" fill="#818285"/>
<path d="M32.3354 77.5869C32.5978 77.2814 33.2156 76.475 33.3239 75.2852C33.4912 73.4371 32.2936 72.1676 32.1035 71.9722C33.2042 72.623 33.8581 73.8071 33.7897 75.0367C33.7041 76.6059 32.4875 77.4788 32.3354 77.5869Z" fill="#818285"/>
<path d="M36.0268 76.4165C36.2892 76.111 36.907 75.3046 37.0153 74.1148C37.1826 72.2666 35.985 70.9972 35.7949 70.8018C36.8956 71.4526 37.5495 72.6367 37.4811 73.8663C37.3955 75.4355 36.1789 76.3084 36.0268 76.4165Z" fill="#818285"/>
<path d="M31.4512 54.4468C32.2002 55.2912 33.0062 56.3063 33.7913 57.5037C34.7741 58.9989 35.4907 60.4202 36.0154 61.6498C35.6143 60.4126 34.9318 58.7731 33.7304 57.0673C32.9624 55.9762 32.1602 55.1128 31.4512 54.4468Z" fill="#818285"/>
<path d="M16.0762 62.9877C16.8993 63.3786 17.5893 63.7259 18.1159 63.9991C19.2451 64.5836 19.6044 64.8113 19.9332 65.0484C20.4788 65.4431 20.8856 65.8302 21.1555 66.1111C20.3647 65.5209 19.6823 65.1092 19.1976 64.8397C18.5151 64.4602 18.0456 64.261 17.2263 63.7562C16.7282 63.4488 16.3328 63.1737 16.0762 62.9858V62.9877Z" fill="#818285"/>
<path d="M23.7509 70.2056C23.8289 70.6135 23.8764 70.9684 23.9068 71.253C23.9372 71.5452 23.9638 71.7843 23.9657 72.1069C23.9695 72.6287 23.9106 72.7369 23.9201 73.1353C23.9258 73.3592 23.9543 73.6932 24.0684 74.1031C24.0418 73.8754 24.0076 73.5054 24.0019 73.05C23.9923 72.3099 24.0684 72.0253 24.0266 71.4826C24.0038 71.1866 23.9429 70.7445 23.749 70.2056H23.7509Z" fill="#818285"/>
<path d="M36.9814 64.0805C37.3293 64.9818 37.6715 65.9401 37.9985 66.9534C38.3083 67.9173 38.5783 68.8471 38.814 69.7408C38.6334 68.8509 38.3863 67.8623 38.0422 66.8072C37.7114 65.7921 37.3464 64.8813 36.9814 64.0786V64.0805Z" fill="#818285"/>
<path d="M55.0019 95.826C56.1368 95.5262 56.9314 94.8298 59.3684 92.0119C60.7257 90.4427 62.3586 88.3953 64.0543 85.8602C64.2957 85.7919 67.9893 84.6951 68.7269 81.5718C68.8371 81.1069 69.318 79.0633 67.9817 77.7274C67.035 76.7805 65.7404 76.7521 65.3736 76.7559C65.9324 75.5737 65.9001 74.2303 65.2177 73.3403C64.2197 72.0405 61.8758 71.7578 60.1136 73.198C59.9026 72.976 58.4655 71.5111 56.285 71.6421C54.808 71.7312 53.8081 72.5035 53.4621 72.7976C49.3655 76.2891 47.7592 82.1505 47.7592 82.1505C47.2441 84.4351 45.6682 91.4218 49.5176 94.5432C50.93 95.6874 53.0914 96.3307 55.0019 95.826Z" fill="#464646"/>
<path opacity="0.57" d="M55.447 91.3822C55.2931 91.3917 52.7211 91.5245 51.4094 89.756C49.0921 86.6308 52.147 79.5189 56.1713 79.2551C58.2966 79.1166 60.496 80.8984 61.226 82.9857C62.5224 86.6896 59.1102 91.1374 55.4452 91.3822H55.447Z" fill="#F7B1C4"/>
<path d="M47.1232 89.6099C47.0282 88.0235 47.07 85.8926 47.6061 83.4581C48.3323 80.1583 49.6667 77.6669 50.6799 76.0957C49.7599 77.2513 48.3722 79.2949 47.5586 82.1754C46.6537 85.3784 46.8837 88.1032 47.1232 89.6099Z" fill="#818285"/>
<path d="M60.1143 73.1981C61.8441 71.8812 64.0873 72.1601 65.0948 73.4372C65.781 74.3081 65.8552 75.5985 65.3742 76.7559C65.9711 75.4979 65.8495 74.0634 65.0625 73.1582C63.977 71.9097 61.6978 71.7579 60.1143 73.1981Z" fill="#818285"/>
<path d="M53.1543 73.0935C53.1733 73.1258 54.5382 71.7482 56.481 71.7159C58.5777 71.6818 60.089 73.2378 60.1137 73.1998C60.1384 73.1619 58.6519 71.5015 56.5551 71.5167C54.5534 71.53 53.1353 73.0632 53.1562 73.0954L53.1543 73.0935Z" fill="#818285"/>
<path d="M53.4754 50.9212C54.5666 50.3558 61.8226 46.7543 65.6055 50.2097C68.0292 52.4241 68.3429 56.9155 66.8335 59.9724C64.6569 64.3804 59.8076 63.5492 57.5929 68.3139C56.1216 71.479 57.6937 73.071 56.0684 74.9875C53.3804 78.1564 45.4458 78.0881 42.754 74.1431C40.8721 71.3841 42.2598 67.7655 43.9459 63.3728C45.3279 59.7675 47.5444 53.9914 53.4754 50.9212Z" fill="#464646"/>
<path d="M53.213 76.5869C52.9507 76.2814 52.3329 75.475 52.2245 74.2852C52.0573 72.4371 53.2549 71.1676 53.445 70.9722C52.3443 71.623 51.6904 72.8071 51.7588 74.0367C51.8443 75.6059 53.061 76.4788 53.213 76.5869Z" fill="#818285"/>
<path d="M48.5177 77.0708C48.2554 76.7653 47.6376 75.9589 47.5292 74.7691C47.3619 72.9209 48.5595 71.6515 48.7496 71.4561C47.649 72.1069 46.9951 73.291 47.0635 74.5206C47.149 76.0898 48.3656 76.9627 48.5177 77.0708Z" fill="#818285"/>
<path d="M44.8283 75.9004C44.5659 75.5949 43.9481 74.7885 43.8398 73.5987C43.6725 71.7505 44.8701 70.4811 45.0602 70.2856C43.9595 70.9365 43.3056 72.1205 43.374 73.3501C43.4596 74.9194 44.6762 75.7923 44.8283 75.9004Z" fill="#818285"/>
<path d="M49.4021 53.9307C48.6531 54.7751 47.8471 55.7902 47.062 56.9876C46.0792 58.4828 45.3626 59.9041 44.8379 61.1337C45.239 59.8965 45.9214 58.257 47.1228 56.5511C47.8908 55.4601 48.693 54.5967 49.4021 53.9307Z" fill="#818285"/>
<path d="M64.7766 62.4697C63.9535 62.8606 63.2635 63.2078 62.7369 63.481C61.6077 64.0655 61.2484 64.2932 60.9196 64.5304C60.374 64.9251 59.9672 65.3122 59.6973 65.593C60.4881 65.0029 61.1705 64.5911 61.6553 64.3217C62.3377 63.9422 62.8072 63.7429 63.6266 63.2382C64.1246 62.9308 64.52 62.6556 64.7766 62.4678V62.4697Z" fill="#818285"/>
<path d="M57.1026 69.6875C57.0247 70.0955 56.9772 70.4503 56.9467 70.7349C56.9163 71.0271 56.8897 71.2662 56.8878 71.5888C56.884 72.1106 56.9429 72.2188 56.9334 72.6173C56.9277 72.8412 56.8992 73.1751 56.7852 73.585C56.8118 73.3573 56.846 72.9873 56.8517 72.5319C56.8612 71.7918 56.7852 71.5072 56.827 70.9645C56.8498 70.6685 56.9106 70.2264 57.1045 69.6875H57.1026Z" fill="#818285"/>
<path d="M43.8745 63.5644C43.5266 64.4657 43.1845 65.424 42.8575 66.4372C42.5476 67.4012 42.2777 68.331 42.042 69.2247C42.2226 68.3348 42.4697 67.3462 42.8138 66.2911C43.1445 65.276 43.5095 64.3652 43.8745 63.5625V63.5644Z" fill="#818285"/>
</svg>
