<svg width="130" height="144" viewBox="0 0 130 144" fill="none" xmlns="http://www.w3.org/2000/svg">
<path d="M54.3635 110.848C43.5982 103.032 39.292 95.1491 37.3107 89.6521C32.0886 75.1491 36.4138 58.7343 28.7938 55.2159C26.5962 54.2011 22.9325 54.5542 20.2737 51.459C19.0048 49.9797 18.7536 48.6627 16.9408 47.4539C14.4506 45.7933 11.3434 45.8919 11.1621 46.4486C10.9268 47.1771 15.8499 48.1219 16.3683 50.9977C16.7849 53.3104 13.9322 54.5097 13.4011 57.1564C12.9368 59.4692 14.2629 62.8571 20.948 67.8706C18.9857 67.1262 16.3111 65.7742 14.053 63.2007C12.6569 61.6101 12.4025 60.6716 11.213 59.8254C9.64195 58.7089 6.79875 58.0058 1.21094 60.1277C4.68384 61.3047 8.50658 63.1561 8.86277 65.9428C9.25713 69.0126 5.06866 70.2374 3.30994 75.041C1.45582 80.099 2.98873 87.2566 7.04681 91.1472C12.0654 95.9571 18.9221 93.8289 21.2978 98.8679C22.2424 100.872 21.5427 102.027 21.9784 103.598C23.0406 107.406 30.0468 110.953 54.3572 110.855L54.3635 110.848Z" fill="#60C8D4"/>
<path d="M54.3574 110.861C46.2412 107.049 42.8383 102.182 41.3244 99.3733C38.4717 94.0735 38.4876 88.0229 38.5226 75.9186C38.548 66.9795 40.7393 63.9447 38.4113 58.8866C36.7003 55.1679 33.5358 51.939 34.6808 50.2657C35.514 49.0473 37.7688 49.9157 39.9537 48.1438C41.2386 47.1004 41.8174 45.6975 42.0941 44.7845C41.5057 45.1122 40.5484 45.5416 39.3526 45.5766C36.8338 45.6466 35.8225 43.8874 33.7521 43.8747C31.6563 43.862 29.8658 45.6466 29.1534 46.7664C27.1911 49.8553 28.6541 55.3905 33.4309 59.7487C33.8507 57.2229 33.9715 53.7395 32.1142 50.6729C30.9916 48.8214 29.9166 48.3856 29.1534 46.7632C28.2565 44.8609 27.9703 41.7052 30.963 36.2749C29.1915 36.6598 25.1494 37.8114 22.198 41.4411C18.1209 46.4546 17.8124 54.1212 21.4665 60.7762C26.043 69.1173 27.5473 71.096 26.7363 76.1286C25.6232 83.0444 18.1908 85.1472 19.199 89.2986C19.9241 92.2825 23.8581 91.5699 28.8258 96.2081C33.5168 100.589 32.8298 103.862 36.255 107.17C38.8883 109.715 43.8878 112.219 54.3542 110.857L54.3574 110.861Z" fill="#A92F62"/>
<path d="M54.5676 110.11C48.684 104.279 43.0166 101.648 38.0554 100.611C30.6134 99.0524 25.7698 102.8 20.9198 99.4341C17.5137 97.0705 17.7936 93.9943 13.4175 92.0029C10.4789 90.6668 9.01273 91.4398 6.32536 90.1451C2.81429 88.4527 1.03332 85.0648 0.0919457 82.5962C-0.0607093 84.3522 -0.852608 95.5054 7.3049 102.612C12.4665 107.107 19.3901 108.389 23.3687 109.143C27.1278 109.852 30.3208 109.945 32.5693 109.887C31.418 109.728 28.2409 109.429 24.927 111.029C22.0679 112.41 20.6145 114.478 20.0421 115.416C21.4128 114.691 23.8394 113.663 26.7207 114.039C32.4962 114.793 34.3121 120.652 38.6501 121.448C41.8495 122.033 46.9189 120.595 54.5644 110.11H54.5676Z" fill="#817DBB"/>
<path d="M45.6275 90.1958C41.5917 85.2618 41.0797 81.5716 41.4199 79.0617C42.0624 74.3281 45.8151 73.1606 46.4607 67.6858C46.9187 63.7953 45.1346 63.4453 44.7116 57.9801C44.3077 52.7343 45.3317 45.0391 49.1767 43.5853C51.4284 42.7328 52.5256 44.826 54.8918 44.1388C59.7036 42.7359 57.665 33.3515 62.8457 30.3167C67.2314 27.7495 70.9873 33.1288 79.7078 30.9306C84.0044 29.8459 84.2333 28.2521 87.42 28.3952C92.3463 28.6179 93.9174 33.0016 99.0918 33.2433C102.577 33.4088 105.5 32.3653 107.472 31.4269C106.626 34.4299 104.956 38.4064 101.394 40.1051C95.5584 42.8855 90.6671 35.995 81.6096 35.6419C71.7665 35.257 60.3047 42.5801 57.0321 51.675C53.4924 61.5048 61.1729 68.812 55.8808 75.2252C52.7896 78.9694 47.682 79.4943 45.9519 84.8069C45.249 86.9637 45.4144 88.9519 45.6275 90.2021V90.1958Z" fill="#60C8D4"/>
<path d="M99.7914 104.161C92.5308 102.59 85.5214 104.25 83.0216 108.341C79.6887 113.794 83.3428 125.24 95.3135 130.746C102.934 132.241 110.554 133.733 118.17 135.229C123.676 135.779 128.666 132.146 129.772 127.072C130.758 122.548 128.478 117.729 124.143 115.467C116.027 111.698 107.908 107.931 99.7914 104.161Z" fill="#464646"/>
<path d="M124.175 116.625C119.786 116.485 115.868 119.393 114.752 123.557C113.591 127.893 115.747 132.544 119.888 134.494C114.141 132.397 111.654 126.124 113.718 121.613C115.34 118.066 119.656 115.874 124.175 116.628V116.625Z" fill="#818285"/>
<path d="M99.791 104.161C102.268 105.338 104.765 106.515 107.284 107.689C110.645 109.254 113.985 110.788 117.305 112.292C115.6 111.207 113.734 110.119 111.708 109.07C107.44 106.856 103.391 105.287 99.791 104.161Z" fill="#818285"/>
<path d="M117.98 112.843C120.988 113.04 123.841 111.532 125.294 108.975C126.904 106.147 126.525 102.526 124.331 99.9941C121.93 97.8564 119.07 95.5596 115.731 93.2914C112.29 90.9564 109.008 89.1082 106.06 87.6448C103.703 86.4614 102.145 86.8177 101.566 87.0022C98.2839 88.0457 96.0259 93.2055 97.2566 99.6537C98.5669 101.82 101.483 105.978 106.794 109.13C111.301 111.806 115.543 112.582 117.976 112.843H117.98Z" fill="#464646"/>
<path d="M122.722 99.2404C119.678 98.356 116.371 99.9021 114.777 102.915C113.12 106.051 113.728 110.012 116.244 112.248C112.631 109.617 112.109 104.343 114.431 101.232C116.256 98.7855 119.701 97.8598 122.719 99.2372L122.722 99.2404Z" fill="#818285"/>
<path d="M106.06 87.6448C108.038 88.6278 110.137 89.7666 112.309 91.09C114.984 92.7187 117.366 94.3793 119.465 95.9794C116.513 94.2266 113.53 92.4006 110.518 90.4983C109.011 89.5471 107.526 88.596 106.06 87.6416V87.6448Z" fill="#818285"/>
<path d="M45.9264 111.274C45.5416 112.836 44.1041 119.425 47.806 126.29C51.1199 132.436 56.4755 134.942 58.1007 135.629C61.952 137.602 69.8074 140.961 80.0003 140.563C85.7026 140.341 97.4825 139.879 105.344 130.514C114.144 120.035 111.26 106.48 110.709 104.136C108.62 95.2191 103.22 90.0942 95.7524 83.0097C87.4454 75.1268 82.1343 70.0878 74.8196 70.4728C65.5076 70.9627 58.9689 79.9208 55.795 84.2663C51.6669 89.9224 49.7555 95.798 48.6011 99.3387C47.0523 104.101 46.3081 108.255 45.9201 111.274H45.9264Z" fill="#464646"/>
<path d="M70.2332 14.9073C70.1855 15.2699 70.1346 15.6357 70.0869 15.9984C70.5544 15.7471 70.9392 15.4449 71.2509 15.1936C75.1595 12.0537 75.5221 11.6434 76.403 11.4334C76.6225 11.3825 76.8832 11.338 77.1822 11.3284C76.985 10.2532 76.791 9.2575 76.6002 8.33496C74.5839 9.4261 72.9874 11.6879 70.459 12.5277C70.3827 13.2849 70.3064 14.0738 70.2332 14.9009V14.9073Z" fill="#818285"/>
<path d="M70.5002 12.1238C71.1554 11.8565 71.6833 11.4843 72.0936 11.1885C74.587 9.38478 75.7796 8.48133 76.5269 8.00097C76.2471 6.67442 75.9736 5.51012 75.7032 4.51123C74.1958 5.64373 72.8696 7.43472 70.9487 8.2332C70.7928 9.40386 70.6434 10.7018 70.4971 12.1238H70.5002Z" fill="#818285"/>
<path d="M68.8814 24.9885C68.6683 26.5759 68.4553 28.1633 68.2422 29.7539C69.4284 29.458 70.3285 28.8218 70.9868 28.3446C76.2884 24.5081 76.7782 24.0087 77.9708 23.7542C78.3429 23.6747 78.7977 23.6174 79.3383 23.6269C79.0457 22.0777 78.7531 20.5253 78.4605 18.9761C74.7714 19.0715 72.8759 23.8433 68.8783 24.9885H68.8814Z" fill="#818285"/>
<path d="M70.0267 16.4376C69.8518 17.7451 69.6769 19.0493 69.502 20.3568C70.1698 20.0864 70.7073 19.711 71.1207 19.4088C75.4587 16.269 75.8626 15.8586 76.8389 15.6487C77.1283 15.5851 77.4845 15.5373 77.9043 15.5437C77.6849 14.1853 77.4686 12.9161 77.2524 11.7358C74.4251 11.7995 72.8826 15.216 70.0235 16.4344L70.0267 16.4376Z" fill="#818285"/>
<path d="M68.1856 30.2055L67.8008 33.0845C68.9648 32.8395 69.8521 32.3242 70.5009 31.9361C75.7198 28.7963 76.2032 28.3859 77.3799 28.1759C78.0446 28.0582 78.9923 27.9946 80.2167 28.2396C79.9591 26.8685 79.6983 25.5006 79.4407 24.1295C79.3485 24.1263 79.2595 24.1231 79.1768 24.1263C74.9533 24.1804 72.8479 29.2003 68.1888 30.2087L68.1856 30.2055Z" fill="#818285"/>
<path d="M69.4478 20.7699L68.9453 24.5173C69.8803 24.196 70.6023 23.6266 71.1461 23.1939C75.9197 19.3574 76.3618 18.858 77.4368 18.6035C77.7007 18.5399 78.0124 18.489 78.3686 18.4763C78.3622 18.4413 78.3559 18.4095 78.3495 18.3745C78.2223 17.541 78.0951 16.7362 77.971 15.96C77.9202 15.96 77.8661 15.96 77.8216 15.96C74.5586 16.0013 72.838 19.6692 69.4478 20.7731V20.7699Z" fill="#818285"/>
<path d="M70.2656 40.5475C71.3374 41.1582 72.6795 41.6418 74.2855 41.6895C79.126 41.8327 81.8324 37.9007 81.9914 37.659C81.8642 36.9846 81.737 36.3101 81.6098 35.6357C77.7235 36.4788 75.3446 40.1339 70.2656 40.5475Z" fill="#818285"/>
<path d="M69.712 40.2069C69.8233 40.2069 69.9378 40.2069 70.0554 40.2006C71.9318 40.1274 73.2835 39.4148 74.1994 38.9154C79.5201 36.03 80.4074 35.4511 81.5268 35.2125C81.3805 34.4395 81.2343 33.6664 81.088 32.8934C80.3501 32.728 79.73 32.6866 79.2688 32.693C74.6287 32.7375 72.3262 36.889 67.1804 37.6874C67.1773 37.7129 67.1741 37.7351 67.1709 37.7606C67.3077 37.9642 68.1695 39.1794 69.712 40.2069Z" fill="#818285"/>
<path d="M77.9618 32.391C78.6806 32.2765 79.6951 32.2129 81.0054 32.4356C80.77 31.1917 80.5347 29.9479 80.3025 28.7072C79.5901 28.5164 78.9954 28.475 78.5565 28.4782C74.4031 28.5227 72.3295 32.6233 67.7498 33.4567C67.5781 34.7451 67.4064 36.0303 67.2314 37.3187C68.5704 37.0832 69.5912 36.552 70.3259 36.1543C76.1204 33.0145 76.6547 32.6042 77.9618 32.3942V32.391Z" fill="#818285"/>
<path d="M71.0127 7.79745C71.4993 7.54296 71.9 7.22802 72.2244 6.97035C73.9131 5.61517 74.9372 4.76898 75.6305 4.22818C75.4206 3.46788 75.2139 2.80938 75.0104 2.25586C73.9227 3.25475 72.8414 4.40951 71.4452 5.04892C71.2989 5.86648 71.1526 6.78266 71.0127 7.80063V7.79745Z" fill="#818285"/>
<path d="M72.5235 3.8654C73.5221 3.06375 74.2886 2.44024 74.8928 1.95034C74.384 0.636517 73.8974 -0.0156218 73.4363 0.000284043C72.7461 0.0257334 72.1101 1.55269 71.5312 4.57162C71.9224 4.34258 72.2532 4.0849 72.5235 3.8654Z" fill="#818285"/>
<path d="M56.2276 50.5839C56.8382 50.5235 60.4606 50.0972 62.814 46.9065C64.4519 44.6861 64.5759 42.3479 64.5791 41.4826C63.6123 40.0002 61.9521 37.9006 59.2616 36.2687C58.775 35.9729 58.263 35.6993 57.2357 35.2221C55.3307 34.3409 52.532 33.1734 48.827 32.0632C47.4435 31.8564 46.2159 32.2254 45.8343 32.9794C45.583 33.4725 45.6117 34.3059 45.6148 34.4014C45.6308 34.7895 45.7039 35.1076 45.7675 35.3271C46.5976 37.8338 48.0732 41.3108 50.7638 44.8897C52.6338 47.3742 54.5833 49.2383 56.2276 50.5871V50.5839Z" fill="#464646"/>
<path d="M50.3379 36.0112C50.8658 37.7959 51.9185 40.5126 54.097 43.2547C55.6045 45.1507 57.1915 46.4805 58.4477 47.3744C57.43 47.0085 54.7553 45.9015 52.6913 43.0798C50.5287 40.1213 50.3506 37.0801 50.3379 36.0112Z" fill="#818285"/>
<path d="M83.499 39.7045C84.011 40.0449 87.0864 42.0045 90.925 41.0215C93.5965 40.3375 95.1707 38.6038 95.7209 37.9357C95.9086 36.1766 95.9467 33.498 94.8972 30.5332C94.7064 29.9987 94.4838 29.4611 93.9877 28.44C93.0685 26.5535 91.6374 23.8782 89.4684 20.6747C88.5271 19.6409 87.344 19.1478 86.5712 19.4913C86.0655 19.7172 85.5598 20.3789 85.5026 20.4552C85.2704 20.767 85.1241 21.0597 85.0351 21.2664C84.0937 23.7318 83.0378 27.3615 82.8629 31.8343C82.7421 34.9423 83.076 37.6176 83.4958 39.7045H83.499Z" fill="#464646"/>
<path d="M88.1454 24.6895C87.4266 26.4041 86.5266 29.1781 86.4789 32.6774C86.4471 35.1014 86.8351 37.1342 87.2454 38.6198C86.6856 37.6941 85.3149 35.1459 85.4994 31.653C85.6934 27.9947 87.4775 25.5229 88.1422 24.6895H88.1454Z" fill="#818285"/>
<path d="M91.5732 95.919C97.0942 95.6867 110.359 95.1269 118.065 85.2684C122.451 79.6568 123.052 73.5681 123.163 72.1397C123.952 62.03 118.075 54.901 116.755 53.3772C115.53 51.7453 100.599 32.4801 78.1936 34.4747C74.6762 34.7865 57.6806 36.5202 50.5312 50.7114C43.8812 63.9101 51.0369 77.4173 51.6889 78.6007C61.904 97.1564 87.4038 96.0907 91.57 95.9158L91.5732 95.919Z" fill="#464646"/>
<path d="M77.4209 67.6957C79.4245 63.8147 81.8352 61.2538 83.8197 59.5805C97.0148 48.4624 116.796 55.3464 118.641 56.0176C105.408 49.6839 91.4715 50.352 83.4222 57.8659C81.6221 59.5455 79.0301 62.5836 77.4209 67.6957Z" fill="#818285"/>
<path d="M81.1611 57.9229C81.1611 57.9229 81.9117 57.5316 82.8213 57.398L82.2075 57.1499C82.2075 57.1499 81.2184 57.5921 81.1611 57.9229Z" fill="#60C8D4"/>
<path d="M74.1705 50.0913C74.1705 50.0913 74.7239 51.0457 77.5321 51.1952C77.5321 51.1952 79.2972 51.421 78.9251 48.0554C78.9251 48.0554 76.6703 48.9556 73.3945 47.2314C73.3945 47.2314 73.9034 49.0956 77.7738 49.4264C77.7738 49.4264 78.0282 49.5346 77.8533 49.7318C77.8533 49.7318 75.9706 50.6258 74.1737 50.0945L74.1705 50.0913Z" fill="#60C8D4"/>
<path d="M82.9099 57.3761C84.6584 56.8236 85.3756 54.1579 84.5116 51.4221C83.6477 48.6864 81.5299 46.9164 79.7813 47.4689C78.0327 48.0214 77.3156 50.687 78.1795 53.4228C79.0435 56.1586 81.1613 57.9286 82.9099 57.3761Z" fill="white"/>
<path d="M107.017 39.7618C107.017 39.7618 107.112 40.8625 104.902 42.5962C104.902 42.5962 103.588 43.7955 101.96 40.8275C101.96 40.8275 104.323 40.2676 106.012 36.9751C106.012 36.9751 106.664 38.7915 103.687 41.2856C103.687 41.2856 103.541 41.521 103.795 41.5814C103.795 41.5814 105.849 41.2315 107.017 39.7618Z" fill="#60C8D4"/>
<path d="M105.923 50.1482C105.923 50.1482 105.086 50.2595 104.263 50.6731L104.622 50.1164C104.622 50.1164 105.687 49.9096 105.92 50.1482H105.923Z" fill="#60C8D4"/>
<path d="M104.043 50.7472C105.791 50.1947 106.508 47.529 105.644 44.7932C104.781 42.0574 102.663 40.2875 100.914 40.84C99.1655 41.3925 98.4484 44.0581 99.3123 46.7939C100.176 49.5297 102.294 51.2996 104.043 50.7472Z" fill="white"/>
<path d="M82.9731 57.3544C84.3448 56.921 84.8967 54.7959 84.2058 52.608C83.5148 50.42 81.8427 48.9977 80.471 49.4311C79.0993 49.8645 78.5474 51.9895 79.2384 54.1775C79.9293 56.3655 81.6014 57.7878 82.9731 57.3544Z" fill="#231F20"/>
<path d="M79.6 51.8689C79.9467 51.7593 80.0888 51.2305 79.9174 50.6877C79.746 50.1449 79.326 49.7937 78.9793 49.9032C78.6326 50.0128 78.4905 50.5416 78.6619 51.0844C78.8333 51.6272 79.2534 51.9784 79.6 51.8689Z" fill="white"/>
<path d="M104.025 50.7526C105.417 50.3128 105.985 48.1826 105.294 45.9947C104.603 43.8067 102.915 42.3895 101.523 42.8292C100.131 43.269 99.563 45.3992 100.254 47.5872C100.945 49.7751 102.633 51.1923 104.025 50.7526Z" fill="#231F20"/>
<path d="M100.822 45.2117C101.168 45.1021 101.311 44.5733 101.139 44.0305C100.968 43.4877 100.548 43.1364 100.201 43.246C99.8543 43.3555 99.7122 43.8844 99.8836 44.4272C100.055 44.97 100.475 45.3212 100.822 45.2117Z" fill="white"/>
<path opacity="0.57" d="M97.275 73.8894C98.2376 73.8894 99.0178 73.1089 99.0178 72.1461C99.0178 71.1833 98.2376 70.4028 97.275 70.4028C96.3125 70.4028 95.5322 71.1833 95.5322 72.1461C95.5322 73.1089 96.3125 73.8894 97.275 73.8894Z" fill="#F7B1C4"/>
<path opacity="0.57" d="M110.754 69.4387C111.716 69.4387 112.496 68.6582 112.496 67.6954C112.496 66.7326 111.716 65.9521 110.754 65.9521C109.791 65.9521 109.011 66.7326 109.011 67.6954C109.011 68.6582 109.791 69.4387 110.754 69.4387Z" fill="#F7B1C4"/>
<path d="M58.4443 86.8049C63.4342 89.843 73.007 94.7229 85.8523 95.515C99.7789 96.3739 109.835 91.9489 109.835 91.9521C109.835 91.9521 93.9239 99.097 76.1491 94.7897C68.3033 92.8873 62.3466 89.5089 58.4443 86.8018V86.8049Z" fill="#818285"/>
<path d="M73.1596 112.878C65.8989 111.306 58.8895 112.967 56.3898 117.058C53.0568 122.51 56.711 133.956 68.6817 139.463C76.3017 140.958 83.9218 142.45 91.5386 143.945C97.0438 144.495 102.034 140.862 103.14 135.788C104.126 131.265 101.846 126.445 97.5113 124.183C89.3951 120.414 81.2758 116.647 73.1596 112.878Z" fill="#464646"/>
<path d="M97.5429 125.341C93.1541 125.201 89.236 128.109 88.1197 132.273C86.9589 136.609 89.1151 141.26 93.2559 143.21C87.509 141.114 85.022 134.84 87.0861 130.329C88.708 126.782 93.0237 124.591 97.5429 125.345V125.341Z" fill="#818285"/>
<path d="M73.1592 112.877C75.6366 114.054 78.1332 115.232 80.652 116.405C84.0136 117.97 87.3529 119.504 90.6732 121.009C88.9685 119.924 87.1017 118.836 85.0758 117.786C80.8078 115.572 76.7593 114.004 73.1592 112.877Z" fill="#818285"/>
<path d="M75.8819 118.534C78.8905 118.731 81.7432 117.223 83.1966 114.665C84.8059 111.837 84.4274 108.217 82.233 105.685C79.8319 103.547 76.9728 101.25 73.6334 98.9823C70.1923 96.6473 66.9102 94.7991 63.9621 93.3358C61.6055 92.1524 60.0471 92.5087 59.4683 92.6932C56.1862 93.7366 53.9282 98.8964 55.159 105.345C56.4693 107.511 59.3856 111.669 64.6967 114.821C69.2033 117.497 73.4458 118.273 75.8787 118.534H75.8819Z" fill="#464646"/>
<path d="M80.6242 104.934C77.5806 104.05 74.2731 105.596 72.6797 108.609C71.0228 111.745 71.6302 115.706 74.1459 117.942C70.533 115.311 70.0115 110.037 72.3331 106.926C74.1586 104.479 77.6029 103.554 80.621 104.931L80.6242 104.934Z" fill="#818285"/>
<path d="M63.9619 93.3391C65.9401 94.3221 68.0391 95.461 70.2112 96.7843C72.8859 98.4131 75.2679 100.074 77.3669 101.674C74.4156 99.9209 71.4325 98.095 68.4207 96.1926C66.9132 95.2415 65.428 94.2903 63.9619 93.3359V93.3391Z" fill="#818285"/>
<path d="M62.5086 38.8742C63.1383 42.5199 71.1559 44.7212 77.2239 44.6512C78.2861 44.6385 79.307 44.4826 80.4456 44.3395C81.6414 44.19 86.4436 43.5474 90.7879 42.0618C98.5511 39.4023 103.837 34.3856 103.621 34.0293C103.484 33.8066 101.254 35.4895 97.5938 35.6135C96.5125 35.6485 95.5838 35.5404 94.652 35.3622C87.5345 34.0166 83.8358 29.5248 77.0204 29.3403C75.3475 29.2958 74.0786 29.5184 73.6015 29.6202C67.702 30.9022 61.9234 35.4927 62.5054 38.8742H62.5086Z" fill="#A92F62"/>
<path d="M62.5088 38.8743C63.7491 42.8922 65.9403 44.7181 66.9867 45.4466C72.301 49.1463 81.3267 47.648 88.5905 40.9326C85.159 41.9092 80.8465 42.4595 77.6121 40.2168C76.1841 39.2275 75.8725 38.3208 74.5145 37.5033C72.495 36.2881 68.9966 35.7727 62.5088 38.8743Z" fill="#DB4E89"/>
<path d="M52.5165 47.4221C45.7551 56.4312 45.453 61.801 46.5248 65.0744C47.0527 66.6873 48.1753 68.5928 49.2566 72.6361C49.9913 75.3878 50.5415 78.5117 50.6083 80.449C50.8818 88.4783 43.5257 95.3973 41.3281 97.341C44.9696 96.2149 51.7405 93.4663 56.3106 86.8877C63.6189 76.3707 62.3055 60.3886 52.5165 47.4189V47.4221Z" fill="#817DBB"/>
<path d="M52.5166 47.4219C51.6897 48.6784 50.5638 50.6889 49.9278 53.3325C48.6143 58.8104 50.6911 61.6799 50.9169 66.9192C51.2699 75.0535 46.633 76.7777 46.9383 82.7137C47.1482 86.7761 49.6447 92.3813 60.1239 98.8104C58.0121 95.5307 56.7018 92.4863 55.8686 90.0781C54.7491 86.8493 53.8078 84.1294 54.0431 80.7001C54.2943 77.0035 55.6396 76.4818 57.1662 71.5987C58.0408 68.8025 59.5991 63.7667 58.5337 58.2633C57.5764 53.3134 54.7332 49.6869 52.5197 47.4219H52.5166Z" fill="#DB4E89"/>
</svg>
