<svg width="274" height="283" viewBox="0 0 274 283" fill="none" xmlns="http://www.w3.org/2000/svg">
<rect x="158.319" y="5.36426" width="115.681" height="88.5087" rx="10" fill="#51ABAF"/>
<path d="M203.527 93.2024H176.269V116L203.527 93.2024Z" fill="#51ABAF"/>
<rect x="153" width="115.681" height="88.5087" rx="10" fill="#5FC8D4"/>
<path d="M198.209 87.8381H170.951V110.636L198.209 87.8381Z" fill="#5FC8D4"/>
<path d="M213.211 13.6914H243.409C243.608 13.7048 244.598 13.7935 245.33 14.6263C245.904 15.2805 245.984 16.0099 246 16.2557V74.7649C245.963 75.0188 245.807 75.861 245.061 76.5488C244.409 77.1492 243.682 77.2903 243.41 77.3279H213.211C212.984 77.3051 212.079 77.1909 211.363 76.4212C210.75 75.7603 210.644 75.0134 210.62 74.7649V16.2557C210.615 16.1013 210.605 15.1153 211.408 14.367C212.145 13.6793 213.037 13.6873 213.211 13.6914Z" fill="white"/>
<path d="M212.298 13.0007H242.497C242.696 13.0141 243.686 13.1028 244.417 13.9356C244.992 14.5898 245.072 15.3192 245.088 15.565V74.0755C245.051 74.3294 244.895 75.1717 244.149 75.8594C243.497 76.4599 242.77 76.6009 242.498 76.6386H212.298C212.072 76.6157 211.167 76.5015 210.451 75.7318C209.838 75.0709 209.732 74.324 209.707 74.0755V15.565C209.703 15.4106 209.692 14.4246 210.496 13.6763C211.233 12.9899 212.125 12.9966 212.298 13.0007Z" fill="#464646"/>
<path d="M242.885 19.9673H211.91V69.1727H242.885V19.9673Z" fill="#C6C2C2"/>
<path d="M223.987 72.1105C223.987 72.0487 223.996 71.6927 224.29 71.42C224.556 71.1715 224.875 71.1621 224.946 71.1621H229.847C229.908 71.1621 230.306 71.1769 230.581 71.5033C230.79 71.7505 230.804 72.0272 230.805 72.1105V74.0314C230.805 74.0945 230.798 74.4304 230.524 74.7017C230.25 74.9731 229.911 74.9798 229.847 74.9798H224.946C224.877 74.9798 224.551 74.9704 224.282 74.7152C223.996 74.4425 223.987 74.0932 223.987 74.0314V72.1105Z" fill="white"/>
<path d="M181.698 74.5349V44.6476C181.712 44.4502 181.801 43.4709 182.643 42.7468C183.304 42.1786 184.041 42.0994 184.289 42.0833H243.408C243.664 42.1195 244.515 42.274 245.21 43.0128C245.817 43.6576 245.959 44.3776 245.997 44.6463V74.5336C245.974 74.7579 245.859 75.6539 245.081 76.3618C244.413 76.969 243.659 77.0737 243.408 77.0979H184.289C184.133 77.102 183.137 77.1127 182.381 76.3175C181.686 75.588 181.694 74.7055 181.698 74.5336V74.5349Z" fill="white"/>
<path d="M181.001 75.4363V45.549C181.014 45.3515 181.104 44.3723 181.945 43.6482C182.606 43.08 183.343 43.0007 183.592 42.9846H242.711C242.968 43.0209 243.819 43.1754 244.514 43.9142C245.12 44.559 245.263 45.279 245.301 45.5476V75.4349C245.278 75.6592 245.163 76.5552 244.385 77.2632C243.717 77.8703 242.962 77.9751 242.711 77.9993H183.592C183.436 78.0033 182.439 78.0141 181.683 77.2188C180.99 76.4907 180.997 75.6082 181.001 75.4363Z" fill="#464646"/>
<path d="M188.04 45.1647V75.8203H237.757V45.1647H188.04Z" fill="#C6C2C2"/>
<path d="M240.726 63.8676C240.663 63.8676 240.303 63.8595 240.028 63.568C239.777 63.3047 239.767 62.989 239.767 62.9192V58.0685C239.767 58.008 239.782 57.6145 240.112 57.3418C240.362 57.1349 240.641 57.1215 240.726 57.1201H242.667C242.73 57.1201 243.07 57.1268 243.344 57.3982C243.618 57.6695 243.625 58.0054 243.625 58.0685V62.9192C243.625 62.9877 243.615 63.3101 243.357 63.5761C243.082 63.8595 242.729 63.8676 242.667 63.8676H240.726Z" fill="white"/>
<path d="M205.473 29.4065C205.538 29.4119 206.07 29.4414 206.453 29.025C206.886 28.5548 206.729 27.9477 206.719 27.906C206.55 26.5372 206.383 25.167 206.215 23.7982C206.047 23.2864 205.56 22.9439 205.027 22.9586C204.467 22.9747 203.981 23.3831 203.872 23.9406C203.859 24.2791 203.844 24.6176 203.83 24.9575C203.582 24.6848 200.856 21.7886 196.791 22.2923C193.717 22.6738 191.1 24.8487 190.092 27.8617C190.024 28.0699 188.787 32.128 191.657 35.3762C194.565 38.6673 198.871 37.9338 199.062 37.8976C199.609 37.6464 199.944 37.0943 199.901 36.5234C199.852 35.8786 199.33 35.3345 198.647 35.2432C196.33 35.4205 194.191 34.3391 193.205 32.5055C192.22 30.6732 192.798 28.8571 192.899 28.5589C193.554 26.6084 195.516 24.8272 197.899 24.94C200.362 25.0569 201.748 27.1229 201.898 27.3526C201.541 27.4439 201.184 27.5353 200.828 27.6266C200.797 27.6427 200.163 27.9813 200.122 28.6529C200.088 29.2117 200.483 29.7558 201.089 29.9331C202.55 29.7585 204.011 29.5838 205.473 29.4092V29.4065Z" fill="white"/>
<path d="M205.733 28.9202C205.798 28.9256 206.33 28.9551 206.713 28.5387C207.146 28.0685 206.99 27.4613 206.979 27.4197C206.811 26.0509 206.644 24.6807 206.476 23.3119C206.307 22.8001 205.82 22.4575 205.288 22.4723C204.727 22.4884 204.242 22.8968 204.133 23.4543C204.119 23.7928 204.104 24.1313 204.091 24.4711C203.842 24.1985 201.117 21.3023 197.052 21.806C193.978 22.1875 191.361 24.3623 190.352 27.3754C190.285 27.5836 189.048 31.6417 191.917 34.8898C194.826 38.1809 199.131 37.4475 199.323 37.4112C199.87 37.16 200.205 36.6079 200.162 36.037C200.113 35.3922 199.59 34.8482 198.907 34.7569C196.59 34.9342 194.451 33.8528 193.466 32.0192C192.481 30.1869 193.059 28.3708 193.159 28.0726C193.815 26.1221 195.776 24.3408 198.16 24.4537C200.623 24.5705 202.009 26.6366 202.158 26.8663C201.801 26.9576 201.444 27.049 201.089 27.1403C201.057 27.1564 200.423 27.4949 200.383 28.1666C200.349 28.7254 200.744 29.2694 201.349 29.4468C202.811 29.2721 204.271 29.0975 205.733 28.9229V28.9202Z" fill="#464646"/>
<path d="M36.2225 136.915C35.1962 144.981 39.5428 152.238 40.1081 152.063C40.4758 151.954 39.4605 148.62 39.9489 143.2C40.3276 138.981 41.4197 135.62 41.7325 135.68C42.0838 135.751 40.5691 140.019 42.0344 145.008C42.7972 147.615 43.807 148.473 43.8015 150.975C43.8015 151.669 43.7906 154.456 42.199 155.861C40.0587 157.74 36.6506 155.735 36.4201 156.402C36.1841 157.09 39.4275 160.347 42.0344 159.478C45.5577 158.303 45.9858 150.243 46.4852 150.358C46.8584 150.445 47.1657 155.036 44.9211 159.292C43.2198 162.516 41.6502 162.527 40.1081 164.899C35.9865 171.238 40.0422 182.145 40.4264 182.085C40.6514 182.046 39.6306 178.32 40.9093 173.221C41.2606 171.817 42.9235 165.784 45.7224 165.626C46.606 165.576 47.6871 166.107 47.9835 166.997C48.5542 168.713 45.8321 170.637 44.279 173.227C40.1849 180.046 44.4876 191.046 45.0803 190.953C45.7059 190.855 43.6643 178.26 46.5346 177.139C47.056 176.937 47.8024 177.09 48.1591 177.566C48.9384 178.609 47.3907 180.544 47.1054 183.03C46.584 187.587 50.5464 191.899 51.1226 191.576C51.6605 191.276 49.1305 187.063 50.7549 183.959C51.7373 182.079 54.0478 180.986 54.8655 181.691C56.1607 182.817 53.8722 188.642 52.6758 191.68C50.5244 197.139 48.6146 199.533 49.2073 200.227C49.8439 200.97 53.0105 199.325 55.4198 196.724C59.9255 191.861 58.6303 187.052 61.325 184.063C61.6543 183.702 62.0055 183.412 62.3897 183.194C63.5037 182.549 65.441 181.932 66.5387 182.724C67.8723 183.691 67.6143 186.473 66.7746 188.314C65.216 191.751 61.3469 192.549 61.5829 193.276C61.7805 193.882 64.766 194.216 67.0655 192.691C70.8742 190.167 69.8315 184.511 72.0048 184.096C73.6677 183.779 76.1922 186.729 75.7202 188.604C75.2647 190.418 72.1749 190.571 72.2572 191.232C72.3835 192.188 79.046 193.385 81.4882 190.358C82.7559 188.784 82.4047 186.675 82.8986 186.642C83.6724 186.593 83.409 191.871 86.6799 195.32C89.144 197.921 92.832 198.658 93.315 197.948C93.7924 197.249 90.8179 195.62 90.7191 192.691C90.6148 189.724 93.5071 186.5 95.3346 186.855C97.0304 187.183 96.4761 190.347 99.083 194.156C102.272 198.822 107.793 200.932 108.314 200.287C108.588 199.942 107.315 199.003 106.009 196.494C105.438 195.396 102.431 189.637 104.856 186.276C105.855 184.899 107.381 184.462 108.226 184.221C110.888 183.462 114.23 184.106 115.816 185.986C119.136 189.921 114.131 198.473 114.949 198.833C115.635 199.134 120.492 193.713 120.141 187.156C119.916 182.959 118.571 179.161 118.846 179.074C119.109 178.986 119.795 182.828 122.951 185.385C124.795 186.882 126.836 187.418 126.946 187.227C127.061 187.025 124.959 186.227 123.697 184.057C123.494 183.713 121.655 180.451 123.302 178.566C124.388 177.325 126.672 177.046 127.698 177.992C129.289 179.451 127.511 183.489 127.906 183.609C128.252 183.719 130.343 180.811 130.601 176.893C130.766 174.462 130.184 172.254 131.292 171.587C131.781 171.292 132.352 171.407 133.422 170.817C134.037 170.478 134.366 170.27 134.443 169.981C134.777 168.724 129.509 167.729 128.186 164.593C126.425 160.413 132.319 153.926 133.093 154.298C133.504 154.495 132.418 156.62 133.597 158.205C134.119 158.904 134.695 158.981 135.26 159.352C138.032 161.167 136.989 167.56 136.978 167.56C136.973 167.56 138.531 162.276 136.303 156.15C134.508 151.221 131.166 147.85 131.342 147.708C131.77 147.358 138.625 154.238 138.904 153.965C139.009 153.861 137.982 152.992 138.191 152.025C138.4 151.063 139.618 150.97 139.837 150.09C140.073 149.139 138.948 148.101 138.614 147.779C135.617 144.877 132.89 138.019 134.262 136.462C135.173 135.424 138.158 136.462 139.87 137.708C142.543 139.659 143.525 143.15 143.031 145.68C142.801 146.877 142.23 147.904 142.334 147.954C142.461 148.014 143.531 146.697 143.975 145.046C144.705 142.358 144.157 139.855 143.289 137.429C140.962 130.894 138.625 131.287 138.246 127.73C137.746 123.063 141.275 120.675 139.991 117.413C139.261 115.56 137.362 115.063 136.671 114.828C129.317 112.314 125.387 94.0084 119.532 85.0795C111.393 72.6751 95.9108 72.8664 88.0355 72.9647C88.0355 72.9647 65.216 73.2489 49.2732 94.2051C47.1493 96.992 44.3064 100.828 43.2472 106.702C42.1496 112.79 44.1473 114.571 43.2472 120.588C41.996 128.959 37.1774 129.391 36.2225 136.915Z" fill="#3FBFB6" stroke="#1D733A" stroke-miterlimit="10"/>
<path d="M68.6077 87.085C66.7253 87.7298 58.2462 90.8664 53.6691 99.992C50.497 106.32 50.8318 112.26 51.1172 114.746" fill="#3FBFB6"/>
<path d="M68.6077 87.085C66.7253 87.7298 58.2462 90.8664 53.6691 99.992C50.497 106.32 50.8318 112.26 51.1172 114.746" stroke="#1D733A" stroke-miterlimit="10"/>
<path d="M44.2461 124.517C42.6216 126.276 39.7788 129.877 38.6099 135.211C38.0775 137.648 38.0281 139.817 38.1379 141.511" fill="#3FBFB6"/>
<path d="M44.2461 124.517C42.6216 126.276 39.7788 129.877 38.6099 135.211C38.0775 137.648 38.0281 139.817 38.1379 141.511" stroke="#1D733A" stroke-miterlimit="10"/>
<path d="M48.4719 129.861C47.7036 130.517 44.6028 133.309 44.0101 138.063C43.5656 141.62 44.7675 144.364 45.2998 145.429" fill="#3FBFB6"/>
<path d="M48.4719 129.861C47.7036 130.517 44.6028 133.309 44.0101 138.063C43.5656 141.62 44.7675 144.364 45.2998 145.429" stroke="#1D733A" stroke-miterlimit="10"/>
<path d="M49.5256 122.729C50.6561 125.724 52.2806 131.249 51.6385 138.178C51.1995 142.932 49.8439 146.713 48.7024 149.232" fill="#3FBFB6"/>
<path d="M49.5256 122.729C50.6561 125.724 52.2806 131.249 51.6385 138.178C51.1995 142.932 49.8439 146.713 48.7024 149.232" stroke="#1D733A" stroke-miterlimit="10"/>
<path d="M82.8438 80.2654C80.2369 82.1233 69.2114 90.4184 66.1984 105.79C64.102 116.473 66.9448 125.129 68.3827 128.763" fill="#3FBFB6"/>
<path d="M82.8438 80.2654C80.2369 82.1233 69.2114 90.4184 66.1984 105.79C64.102 116.473 66.9448 125.129 68.3827 128.763" stroke="#1D733A" stroke-miterlimit="10"/>
<path d="M58.2956 116.675C56.6327 121.473 54.4045 130.161 56.1113 140.67C56.8522 145.221 58.1584 149.057 59.4755 152.068" fill="#3FBFB6"/>
<path d="M58.2956 116.675C56.6327 121.473 54.4045 130.161 56.1113 140.67C56.8522 145.221 58.1584 149.057 59.4755 152.068" stroke="#1D733A" stroke-miterlimit="10"/>
<path d="M100.493 78.8992C102.535 79.6806 109.982 82.8227 114.45 91.1505C118.039 97.839 117.726 104.189 117.474 106.637" fill="#3FBFB6"/>
<path d="M100.493 78.8992C102.535 79.6806 109.982 82.8227 114.45 91.1505C118.039 97.839 117.726 104.189 117.474 106.637" stroke="#1D733A" stroke-miterlimit="10"/>
<path d="M92.2558 81.7954C94.4894 84.9375 102.919 97.5659 100.828 114.637C99.511 125.407 94.6102 132.997 91.9155 136.588" fill="#3FBFB6"/>
<path d="M92.2558 81.7954C94.4894 84.9375 102.919 97.5659 100.828 114.637C99.511 125.407 94.6102 132.997 91.9155 136.588" stroke="#1D733A" stroke-miterlimit="10"/>
<path d="M86.3725 89.4509C82.4211 97.2214 75.1878 114.178 76.9605 136.074C77.9264 148.014 81.2577 157.604 84.1883 164.15" fill="#3FBFB6"/>
<path d="M86.3725 89.4509C82.4211 97.2214 75.1878 114.178 76.9605 136.074C77.9264 148.014 81.2577 157.604 84.1883 164.15" stroke="#1D733A" stroke-miterlimit="10"/>
<path d="M128.236 112.085C128.971 113.839 130.261 116.069 132.604 117.189C134.602 118.14 136.254 117.763 136.808 118.888C137.318 119.932 136.347 121.178 134.958 123.823C133.976 125.686 133.065 127.724 132.269 129.948" fill="#3FBFB6"/>
<path d="M128.236 112.085C128.971 113.839 130.261 116.069 132.604 117.189C134.602 118.14 136.254 117.763 136.808 118.888C137.318 119.932 136.347 121.178 134.958 123.823C133.976 125.686 133.065 127.724 132.269 129.948" stroke="#1D733A" stroke-miterlimit="10"/>
<path d="M125.042 129.271C125.206 131.648 125.914 137.068 129.75 142.374C132.555 146.249 135.842 148.423 137.818 149.522" fill="#3FBFB6"/>
<path d="M125.042 129.271C125.206 131.648 125.914 137.068 129.75 142.374C132.555 146.249 135.842 148.423 137.818 149.522" stroke="#1D733A" stroke-miterlimit="10"/>
<path d="M105.707 133.014C107.447 136.724 109.576 142.44 110.246 149.691C111.195 159.975 108.725 168.145 107.052 172.494" fill="#3FBFB6"/>
<path d="M105.707 133.014C107.447 136.724 109.576 142.44 110.246 149.691C111.195 159.975 108.725 168.145 107.052 172.494" stroke="#1D733A" stroke-miterlimit="10"/>
<path d="M88.8971 130.97C87.5305 135.631 85.264 145.729 88.222 157.855C90.3734 166.653 94.4016 172.964 97.1347 176.571" fill="#3FBFB6"/>
<path d="M88.8971 130.97C87.5305 135.631 85.264 145.729 88.222 157.855C90.3734 166.653 94.4016 172.964 97.1347 176.571" stroke="#1D733A" stroke-miterlimit="10"/>
<path d="M97.4695 143.052C98.7482 148.238 99.8952 154.107 100.664 160.577C101.739 169.626 101.843 177.784 101.503 184.74" fill="#3FBFB6"/>
<path d="M97.4695 143.052C98.7482 148.238 99.8952 154.107 100.664 160.577C101.739 169.626 101.843 177.784 101.503 184.74" stroke="#1D733A" stroke-miterlimit="10"/>
<path d="M109.071 109.872C112.682 114.877 118.9 124.91 121.178 139.139C123.077 151.014 121.425 160.806 120.004 166.533" fill="#3FBFB6"/>
<path d="M109.071 109.872C112.682 114.877 118.9 124.91 121.178 139.139C123.077 151.014 121.425 160.806 120.004 166.533" stroke="#1D733A" stroke-miterlimit="10"/>
<path d="M54.0094 194.735C55.7711 191.877 57.9608 187.604 59.3603 182.063C60.5677 177.276 60.7927 173.074 60.7268 169.97" fill="#3FBFB6"/>
<path d="M54.0094 194.735C55.7711 191.877 57.9608 187.604 59.3603 182.063C60.5677 177.276 60.7927 173.074 60.7268 169.97" stroke="#1D733A" stroke-miterlimit="10"/>
<path d="M55.9412 166.516C54.8545 167.025 52.5276 168.314 50.8208 171.008C48.192 175.161 49.0262 179.516 49.2292 180.456" fill="#3FBFB6"/>
<path d="M55.9412 166.516C54.8545 167.025 52.5276 168.314 50.8208 171.008C48.192 175.161 49.0262 179.516 49.2292 180.456" stroke="#1D733A" stroke-miterlimit="10"/>
<path d="M52.7581 151.888C52.8788 152.456 53.6142 156.298 51.0513 159.719C48.2579 163.451 43.9168 163.522 43.4283 163.522" fill="#3FBFB6"/>
<path d="M52.7581 151.888C52.8788 152.456 53.6142 156.298 51.0513 159.719C48.2579 163.451 43.9168 163.522 43.4283 163.522" stroke="#1D733A" stroke-miterlimit="10"/>
<path d="M67.3234 140.254C68.9918 142.473 73.3932 148.932 73.6951 158.342C74.0298 168.664 69.2223 175.882 67.6637 178.041" fill="#3FBFB6"/>
<path d="M67.3234 140.254C68.9918 142.473 73.3932 148.932 73.6951 158.342C74.0298 168.664 69.2223 175.882 67.6637 178.041" stroke="#1D733A" stroke-miterlimit="10"/>
<path d="M77.7947 171.353C78.0526 171.822 81.9108 179.052 80.9833 184.139C80.5717 186.402 79.5015 187.943 79.5015 187.943C78.5685 189.287 77.4544 190.068 76.7684 190.478" fill="#3FBFB6"/>
<path d="M77.7947 171.353C78.0526 171.822 81.9108 179.052 80.9833 184.139C80.5717 186.402 79.5015 187.943 79.5015 187.943C78.5685 189.287 77.4544 190.068 76.7684 190.478" stroke="#1D733A" stroke-miterlimit="10"/>
<path d="M90.988 175.642C89.9947 176.872 87.108 180.779 87.0147 186.489C86.9433 190.533 88.3044 193.587 89.0892 195.063" fill="#3FBFB6"/>
<path d="M90.988 175.642C89.9947 176.872 87.108 180.779 87.0147 186.489C86.9433 190.533 88.3044 193.587 89.0892 195.063" stroke="#1D733A" stroke-miterlimit="10"/>
<path d="M110.767 175.292C111.261 175.281 113.561 175.292 115.372 177.074C117.045 178.719 117.655 181.249 116.996 183.648" fill="#3FBFB6"/>
<path d="M110.767 175.292C111.261 175.281 113.561 175.292 115.372 177.074C117.045 178.719 117.655 181.249 116.996 183.648" stroke="#1D733A" stroke-miterlimit="10"/>
<path d="M89.1057 101.528C87.086 104.26 84.1883 108.888 82.4706 115.276C80.5223 122.528 80.9888 128.697 81.5211 132.221" fill="#3FBFB6"/>
<path d="M89.1057 101.528C87.086 104.26 84.1883 108.888 82.4706 115.276C80.5223 122.528 80.9888 128.697 81.5211 132.221" stroke="#1D733A" stroke-miterlimit="10"/>
<path d="M101.739 88.1013C104.494 88.7898 106.503 90.9811 106.794 93.5385C107.085 96.1068 105.515 97.992 105.213 98.3363" fill="#3FBFB6"/>
<path d="M101.739 88.1013C104.494 88.7898 106.503 90.9811 106.794 93.5385C107.085 96.1068 105.515 97.992 105.213 98.3363" stroke="#1D733A" stroke-miterlimit="10"/>
<path d="M91.4216 210.543C92.3765 204.828 96.734 200.298 102.244 199.221C108.369 198.024 114.729 201.314 117.413 207.227C117.386 210.002 117.298 212.336 117.205 214.09C117.089 216.385 116.947 218.123 116.771 220.336C116.749 220.587 116.491 223.844 116.189 226.866C115.602 232.713 114.872 238.303 114.032 243.614C112.529 247.964 108.292 250.685 103.874 250.166C99.511 249.658 96.0041 246.112 95.4169 241.598C94.0833 231.248 92.7552 220.893 91.4216 210.543Z" fill="#595A5C"/>
<path d="M101.662 281.898C101.838 282.461 102.282 282.882 102.809 282.98C103.49 283.101 104.22 282.658 104.483 281.898C107.189 274.172 109.763 265.396 111.821 255.642C112.99 250.106 113.873 244.811 114.543 239.806C114.729 233.254 109.324 228.27 103.885 228.811C99.0555 229.292 94.9504 234.046 95.1809 239.806C97.3432 253.838 99.5055 267.866 101.668 281.898H101.662Z" fill="#595A5C"/>
<path d="M50.8428 267.09C50.6068 267.625 50.1183 267.991 49.586 268.03C48.8945 268.073 48.2194 267.56 48.0383 266.784C46.1943 258.871 44.5973 249.931 43.6204 240.084C43.0661 234.494 42.7643 229.177 42.6545 224.166C43.1869 217.686 49.103 213.363 54.4484 214.489C59.1956 215.489 62.7574 220.631 61.8957 226.287C58.2132 239.888 54.5253 253.489 50.8428 267.09Z" fill="#595A5C"/>
<path d="M72.3066 156.522C74.4469 156.538 76.3348 155.259 77.0098 153.38C77.855 151.019 76.3183 148.975 76.2141 148.839C69.7656 147.565 62.8726 146.407 55.5679 145.456C48.3346 144.516 41.4416 143.871 34.9437 143.451C32.2601 144.227 30.2514 146.429 29.8014 149.101C29.2965 152.085 30.8222 155.128 33.5991 156.598C37.0566 156.833 64.0635 156.451 72.312 156.516L72.3066 156.522Z" fill="#595A5C"/>
<path d="M30.9265 146.358C33.1328 144.363 36.3762 143.964 38.9776 145.369C41.6338 146.801 43.0772 149.811 42.5174 152.79C39.3672 160.407 36.2116 168.019 33.0614 175.637C32.8309 175.861 30.2405 178.27 26.6129 177.56C23.3091 176.915 21.8054 174.205 21.6133 173.844C22.1237 170.276 22.9579 166.199 24.3134 161.79C26.2233 155.576 28.6545 150.413 30.9211 146.358H30.9265Z" fill="#595A5C"/>
<path d="M21.701 173.582C22.5791 170.686 25.3451 168.844 28.1495 169.139C30.5314 169.391 32.5839 171.145 33.2919 173.566C32.8418 178.888 32.3973 184.21 31.9473 189.538C31.9199 189.844 31.8101 190.008 31.7168 190.106C31.2448 190.576 30.032 190.358 28.7258 189.473C28.1441 189.063 27.5788 188.604 27.0355 188.085C22.1895 183.473 21.7011 176.751 21.7065 173.587L21.701 173.582Z" fill="#595A5C"/>
<path d="M105.389 154.156C103.446 153.27 102.277 151.309 102.469 149.325C102.711 146.828 104.972 145.626 105.125 145.549C111.508 147.117 118.242 148.986 125.261 151.21C132.209 153.412 138.729 155.74 144.793 158.112C146.895 159.948 147.773 162.789 147.043 165.401C146.231 168.314 143.547 170.429 140.408 170.587C137.176 169.341 112.885 157.582 105.389 154.161V154.156Z" fill="#595A5C"/>
<path d="M146.84 161.03C144.98 158.713 141.835 157.817 139.042 158.795C136.188 159.795 134.294 162.544 134.377 165.571C136.292 173.587 138.202 181.598 140.117 189.615C140.309 189.872 142.488 192.653 146.182 192.522C149.546 192.402 151.461 189.959 151.708 189.631C151.763 186.03 151.582 181.872 150.94 177.303C150.029 170.872 148.448 165.391 146.846 161.03H146.84Z" fill="#595A5C"/>
<path d="M151.79 188.948C151.489 185.937 149.129 183.604 146.319 183.358C143.932 183.15 141.583 184.478 140.419 186.713C139.832 192.024 139.239 197.33 138.652 202.642C138.619 202.948 138.69 203.128 138.767 203.243C139.14 203.795 140.375 203.811 141.824 203.194C142.472 202.904 143.119 202.56 143.756 202.155C149.403 198.554 151.181 192.057 151.79 188.948Z" fill="#595A5C"/>
<path d="M70.7645 146.724C71.4725 145.801 77.8771 137.757 88.9794 137.784C100.016 137.812 106.366 145.79 107.085 146.724C110.372 156.15 113.615 167.937 115.536 181.702C117.216 193.74 117.501 204.533 117.177 213.587C116.442 214.265 109.648 220.303 100.779 218.44C95.7956 217.391 92.6455 214.369 91.3942 213.019C90.9771 213.238 90.0551 213.642 88.8367 213.598C87.783 213.56 86.9928 213.21 86.5866 212.992C85.2256 214.363 81.9712 217.254 76.9496 218.265C68.1302 220.035 61.3799 214.5 60.4634 213.718C60.0792 204.418 60.3426 193.041 62.2744 180.232C64.2721 166.975 67.5265 155.686 70.759 146.713L70.7645 146.724Z" fill="#595A5C"/>
<path d="M70.7645 146.724C70.5065 146.653 67.3564 156.019 64.9032 166.549C63.7836 171.347 62.933 175.926 62.2799 180.238C61.8244 183.259 61.0177 189.161 60.5896 196.779C60.1176 205.205 60.2219 213.718 60.4689 213.729C60.7872 213.74 60.2329 199.38 62.9989 180.729C65.9514 160.85 71.0883 146.817 70.7645 146.724Z" fill="#818285"/>
<path d="M107.167 146.932C107.425 146.861 110.323 155.877 112.776 166.407C113.895 171.205 114.746 175.784 115.399 180.095C115.855 183.117 116.661 189.019 117.089 196.636C117.561 205.063 117.457 213.576 117.21 213.587C116.892 213.598 117.446 199.237 114.68 180.587C111.728 160.707 106.849 147.024 107.167 146.932Z" fill="#818285"/>
<path d="M84.2103 214.975C88.0025 210.576 88.6995 204.352 85.9994 199.445C82.9974 193.997 76.3843 191.248 70.1059 192.986C67.982 194.784 66.2423 196.352 64.9471 197.543C63.2513 199.106 62 200.325 60.4085 201.877C60.2274 202.052 57.884 204.341 55.7436 206.511C51.6111 210.707 47.7749 214.849 44.2186 218.899C41.8313 222.838 42.446 227.817 45.684 230.866C48.8725 233.871 53.8557 234.276 57.7138 231.833C66.5496 226.216 75.38 220.593 84.2158 214.975H84.2103Z" fill="#595A5C"/>
<path d="M50.1787 123.609L34.1864 112.937C34.6694 111.03 33.9395 109.046 32.3809 107.986C31.0473 107.079 29.2911 106.97 27.7928 107.691C29.9661 104.811 29.5161 102.855 29.3899 102.391C28.3691 98.7241 21.8931 97.1776 17.3051 98.6749C15.6587 99.2104 14.4458 100.079 13.6555 100.768C12.7335 99.3361 11.3451 98.265 10.0554 98.4017C8.15648 98.5984 6.16979 101.407 6.88873 105.15C4.002 104.653 1.2415 105.221 0.352431 106.768C-0.811041 108.795 0.879287 113.117 5.82404 115.533C4.61667 117.205 4.34775 119.325 5.19292 120.992C6.34541 123.265 9.44069 124.407 12.311 123.254C12.7665 124.292 13.7598 126.074 15.73 127.183C18.9899 129.019 23.578 128.243 27.1288 125.145C28.5557 126.025 30.3448 126.068 31.7827 125.26C33.3468 124.385 34.2468 122.637 34.0712 120.828C39.444 121.757 44.8114 122.686 50.1842 123.609H50.1787Z" fill="#D1D3D8"/>
<path d="M6.81194 106.123C5.0832 106.167 3.54105 107.063 2.94834 108.412C2.11415 110.325 3.21176 113.046 5.81311 114.068C1.76291 112.298 0.182345 108.997 0.972629 107.429C1.62022 106.134 4.10632 105.576 6.81194 106.123Z" fill="white"/>
<path d="M47.5993 122.56C44.2955 121.779 40.8709 121.046 37.3311 120.363C35.4981 120.014 33.6925 119.686 31.9089 119.391C33.945 119.27 36.6561 119.309 39.7623 119.915C43.0606 120.56 45.7059 121.626 47.5993 122.56Z" fill="white"/>
<path d="M14.9781 100.429C21.6297 98.298 26.8763 99.3745 27.9684 101.894C28.1386 102.282 28.6654 103.762 26.9586 106.495C27.1123 105.965 27.4141 104.653 26.8269 103.287C26.8269 103.287 26.4318 102.364 25.5207 101.582C23.8908 100.189 19.89 99.6914 14.9781 100.424V100.429Z" fill="white"/>
<path d="M126.984 130.303L146.5 123.413C146.478 123.298 146.269 121.97 147.197 121.101C148.053 120.298 149.513 120.227 150.632 121.036C150.254 120.287 149.535 118.571 150.034 116.68C150.989 113.057 155.896 110.68 159.342 112.189C161.159 112.981 162.059 114.631 162.415 115.402C168.425 112.227 174.429 114.473 175.713 117.828C176.619 120.194 175.312 123.451 172.766 125.894C174.758 128.407 175.12 131.746 173.71 134.238C171.871 137.473 167.272 138.861 163.332 136.861C162.756 139.511 160.143 141.025 157.943 140.418C156.17 139.926 154.847 138.101 154.902 135.992C152.586 137.09 149.968 136.915 148.152 135.5C146.681 134.352 146.215 132.768 146.072 132.15C139.706 131.538 133.345 130.921 126.979 130.309L126.984 130.303Z" fill="#D1D3D8"/>
<path d="M130.705 129.757C133.965 128.812 137.307 127.773 140.727 126.626C142.494 126.03 144.228 125.424 145.924 124.812C144.211 125.915 141.835 127.21 138.828 128.21C135.639 129.271 132.807 129.642 130.7 129.757H130.705Z" fill="white"/>
<path d="M156.038 135.954C156.411 137.074 157.421 137.959 158.601 138.172C160.27 138.473 162.19 137.413 162.487 135.593C161.894 138.451 159.611 139.894 158.217 139.582C157.07 139.325 156.142 137.779 156.038 135.948V135.954Z" fill="white"/>
<path d="M162.706 115.899C168.518 113.342 173.781 115.15 174.934 118.03C175.933 120.527 173.732 123.56 173.381 124.035C173.512 123.746 173.682 123.325 173.825 122.806C174.379 120.828 174.187 118.828 173.831 117.959C172.92 115.719 168.227 114.325 162.706 115.899Z" fill="white"/>
<path d="M88.3099 151.762C108.099 151.762 124.142 135.789 124.142 116.085C124.142 96.3806 108.099 80.4072 88.3099 80.4072C68.5206 80.4072 52.4782 96.3806 52.4782 116.085C52.4782 135.789 68.5206 151.762 88.3099 151.762Z" fill="#595A5C"/>
<path d="M76.6202 149.822C76.6202 149.822 88.3099 155.172 99.9995 149.822C99.9995 149.822 88.3098 154.161 76.6202 149.822Z" fill="#818285"/>
<path d="M82.8492 133.855C84.4682 134.697 87.8269 136.128 91.9924 135.604C93.2711 135.44 94.3907 135.128 95.3182 134.779C95.6145 135.139 96.2895 136.074 96.4267 137.445C96.6024 139.221 95.7462 140.505 95.5047 140.85C95.1535 140.462 94.2699 139.587 92.8266 139.194C91.7509 138.904 90.8344 139.008 90.335 139.101C89.391 139.374 88.1013 139.866 86.7348 140.757C85.5384 141.538 84.6603 142.38 84.0566 143.057C83.8645 142.959 81.3235 141.593 81.0107 138.642C80.7144 135.855 82.6572 134.041 82.8602 133.861L82.8492 133.855Z" fill="#818285"/>
<path d="M74.0024 126.544C74.0024 126.544 75.2043 126.331 76.5215 126.544L75.7806 125.937C75.7806 125.937 74.222 126.118 74.0024 126.544Z" fill="#FFD600"/>
<path d="M67.768 112.751C67.768 112.751 68.1138 114.303 71.9225 115.724C71.9225 115.724 74.2604 116.801 75.2153 112.014C75.2153 112.014 71.7084 112.271 67.9436 108.478C67.9436 108.478 67.8339 111.26 73.0311 113.391C73.0311 113.391 73.3329 113.648 73.0091 113.844C73.0091 113.844 70.0236 114.254 67.768 112.746V112.751Z" fill="#FFD600"/>
<path d="M76.6532 126.544C79.3083 126.544 81.4608 123.192 81.4608 119.057C81.4608 114.923 79.3083 111.571 76.6532 111.571C73.9981 111.571 71.8456 114.923 71.8456 119.057C71.8456 123.192 73.9981 126.544 76.6532 126.544Z" fill="white"/>
<path d="M109 112.751C109 112.751 108.654 114.303 104.845 115.724C104.845 115.724 102.508 116.801 101.553 112.014C101.553 112.014 105.059 112.271 108.824 108.478C108.824 108.478 108.934 111.26 103.737 113.391C103.737 113.391 103.435 113.648 103.759 113.844C103.759 113.844 106.744 114.254 109 112.746V112.751Z" fill="#FFD600"/>
<path d="M102.963 126.544C102.963 126.544 101.761 126.331 100.444 126.544L101.185 125.937C101.185 125.937 102.744 126.118 102.963 126.544Z" fill="#FFD600"/>
<path d="M100.109 126.544C102.764 126.544 104.917 123.192 104.917 119.057C104.917 114.923 102.764 111.571 100.109 111.571C97.4541 111.571 95.3017 114.923 95.3017 119.057C95.3017 123.192 97.4541 126.544 100.109 126.544Z" fill="white"/>
<path d="M76.7575 126.544C78.8398 126.544 80.5278 123.862 80.5278 120.555C80.5278 117.247 78.8398 114.566 76.7575 114.566C74.6752 114.566 72.9872 117.247 72.9872 120.555C72.9872 123.862 74.6752 126.544 76.7575 126.544Z" fill="#231F20"/>
<path d="M74.4909 117.544C75.0183 117.544 75.4458 116.878 75.4458 116.057C75.4458 115.237 75.0183 114.571 74.4909 114.571C73.9635 114.571 73.5359 115.237 73.5359 116.057C73.5359 116.878 73.9635 117.544 74.4909 117.544Z" fill="white"/>
<path d="M100.082 126.544C102.194 126.544 103.907 123.862 103.907 120.555C103.907 117.247 102.194 114.566 100.082 114.566C97.9692 114.566 96.2566 117.247 96.2566 120.555C96.2566 123.862 97.9692 126.544 100.082 126.544Z" fill="#231F20"/>
<path d="M98.0786 117.544C98.606 117.544 99.0336 116.878 99.0336 116.057C99.0336 115.237 98.606 114.571 98.0786 114.571C97.5513 114.571 97.1237 115.237 97.1237 116.057C97.1237 116.878 97.5513 117.544 98.0786 117.544Z" fill="white"/>
<path opacity="0.57" d="M72.2079 132.495C74.6629 132.495 76.6532 131.971 76.6532 131.325C76.6532 130.679 74.6629 130.156 72.2079 130.156C69.7528 130.156 67.7625 130.679 67.7625 131.325C67.7625 131.971 69.7528 132.495 72.2079 132.495Z" fill="#F7B1C4"/>
<path opacity="0.57" d="M105.663 132.495C108.118 132.495 110.109 131.971 110.109 131.325C110.109 130.679 108.118 130.156 105.663 130.156C103.208 130.156 101.218 130.679 101.218 131.325C101.218 131.971 103.208 132.495 105.663 132.495Z" fill="#F7B1C4"/>
<path d="M101.143 103.785L88.5022 111.803L92.8811 118.647L105.522 110.629L101.143 103.785Z" fill="#595A5C"/>
<path d="M70.8509 109.932L83.4916 117.95L87.8705 111.106L75.2298 103.088L70.8509 109.932Z" fill="#595A5C"/>
<path d="M157.163 88.4783C155.95 88.8171 150.232 90.5493 148.47 95.4564C148.273 96.0083 146.923 99.8225 148.849 101.516C150.276 102.773 151.944 103.172 153.206 101.751C153.322 101.62 153.656 101.183 153.761 100.566C153.969 99.3088 153.064 97.97 151.922 97.4782C151.516 97.3034 151.022 97.205 150.342 97.2761C148.635 97.4455 145.419 98.6804 144.744 101.828C144.31 103.861 145.084 106.014 146.725 107.44" stroke="#78797B" stroke-miterlimit="10"/>
<path d="M33.1656 90.8334C33.3302 89.5875 33.9943 83.675 30.1581 80.1231C29.7301 79.7242 26.7391 76.9865 24.4176 78.0739C22.6943 78.8826 21.6681 80.2542 22.4803 81.9701C22.5517 82.1231 22.8261 82.6094 23.3584 82.9427C24.4341 83.6258 26.0256 83.3307 26.9366 82.4837C27.2604 82.1832 27.5403 81.7679 27.7489 81.1176C28.2647 79.4892 28.3965 76.0575 25.7622 74.1996C24.0554 72.9974 21.7669 72.8608 19.8021 73.7952" stroke="#78797B" stroke-miterlimit="10"/>
<path d="M51.8087 50.6587C51.3641 51.8336 49.3774 57.4456 52.3081 61.7679C52.6373 62.2543 54.9259 65.5931 57.4339 65.0521C59.2944 64.6477 60.606 63.5494 60.1999 61.6914C60.1615 61.522 60.0078 60.992 59.5688 60.5439C58.6742 59.6368 57.0553 59.5658 55.9796 60.1887C55.5954 60.4128 55.2277 60.7516 54.882 61.3363C54.0094 62.8062 53.1038 66.1177 55.2497 68.522C56.6382 70.0739 58.8389 70.7242 60.9628 70.2543" stroke="#78797B" stroke-miterlimit="10"/>
<path d="M126.101 81.6914C127.133 80.9646 131.929 77.4236 131.935 72.2105C131.935 71.6258 131.918 67.5821 129.536 66.6313C127.769 65.9264 126.062 66.1067 125.354 67.8717C125.289 68.0302 125.118 68.5603 125.234 69.1723C125.464 70.4236 126.765 71.3854 128.005 71.4674C128.45 71.5001 128.944 71.4236 129.558 71.1286C131.111 70.3963 133.724 68.1614 133.296 64.9701C133.016 62.91 131.561 61.1395 129.536 60.3472" stroke="#78797B" stroke-miterlimit="10"/>
<path d="M117.089 203.675C98.128 203.549 79.1667 203.423 60.2054 203.292C60.381 194.675 61.2097 184.505 63.3501 173.254C65.2764 163.134 67.8667 154.249 70.5285 146.74C70.7919 147.199 76.7245 157.128 88.4306 157.292C96.0316 157.396 103.122 153.342 106.909 146.74C109.691 154.757 112.408 164.369 114.34 175.374C116.189 185.91 116.925 195.467 117.084 203.669L117.089 203.675Z" fill="#E63E96"/>
<path d="M113.994 173.566C105.537 178.238 97.0798 182.91 88.6227 187.576C80.193 182.882 71.7633 178.194 63.3336 173.5C62.708 176.194 61.7531 180.363 60.6719 185.489C58.4931 195.779 58.2517 198.249 56.4845 201.565C53.3124 207.522 49.2128 208.724 45.4205 212.287C31.7003 225.156 33.9011 257.604 45.4205 263.199C48.2469 264.571 52.1709 264.587 54.9918 262.904C60.5786 259.56 58.3285 252.084 63.6629 237.598C68.3058 224.992 73.1573 222.259 74.5568 221.549C75.83 220.904 81.1973 218.183 85.4012 220.079C98.7208 226.074 83.6395 270.817 99.972 279.199C100.982 279.718 102.974 280.74 105.301 280.259C118.511 277.543 120.272 231.035 117.935 201.735C116.936 189.205 115.141 179.243 113.994 173.571V173.566Z" fill="#50BC81"/>
<path d="M63.9373 170.199C63.4434 172.926 62.9494 175.653 62.45 178.38C71.2474 182.97 80.0448 187.56 88.8477 192.155C88.8532 189.363 88.8641 186.576 88.8696 183.784C80.5607 179.254 72.2462 174.729 63.9373 170.199Z" fill="#595A5C"/>
<path d="M113.401 170.418C113.906 173.134 114.417 175.855 114.922 178.571C106.228 183.096 97.5353 187.626 88.8422 192.15C88.8477 189.358 88.8586 186.571 88.8641 183.779C97.0413 179.325 105.219 174.872 113.396 170.418H113.401Z" fill="#595A5C"/>
<path d="M119.263 127.424C118.231 127.648 114.34 128.626 111.59 132.32C109.384 135.281 109.132 138.342 109.093 139.516C109.258 140.883 109.351 143.123 108.424 145.522C106.75 149.872 103.457 150.287 102.387 153.331C100.318 159.194 109.071 167.5 109.719 167.096C110.229 166.779 106.228 160.811 107.562 159.713C108.901 158.609 114.642 163.183 114.894 162.833C115.053 162.615 112.545 161.178 111.299 158.292C110.498 156.429 110.196 153.904 111.014 153.467C111.629 153.134 113.149 153.855 117.199 158.719C118.802 156.309 121.76 151.156 122.374 143.959C123.055 136.057 120.541 130.025 119.263 127.424Z" fill="#3FBFB6" stroke="#1D733A" stroke-miterlimit="10"/>
<path d="M124.904 95.216C126.869 97.1395 132.527 102.67 131.803 109.708C131.314 114.478 128.252 116.473 125.991 125.085C125.744 126.019 125.118 128.571 126.534 131.15C126.721 131.484 128.236 134.249 130.348 134.254C132.615 134.26 133.844 131.079 134.525 131.298C135.326 131.555 134.964 136.44 132.346 137.21C129.13 138.161 124.806 132.221 122.544 133.216C121.43 133.708 121.244 135.691 122.001 137.063C123.379 139.56 127.747 139.801 127.632 140.314C127.517 140.828 122.89 141.505 119.279 139.724C114.076 137.156 113.72 130.839 113.648 129.669C113.198 121.784 119.422 120.424 120.547 111.331C120.909 108.413 121.65 102.385 117.281 98.0193C113.16 93.8991 106.673 93.44 106.931 91.5111C107.106 90.2051 110.246 89.2488 112.743 89.145C118.467 88.91 122.753 93.1012 124.904 95.2105V95.216Z" fill="#3FBFB6" stroke="#1D733A" stroke-miterlimit="10"/>
<path d="M84.2596 80.1231C87.4043 76.0302 93.2875 74.145 97.5298 75.6859C102.304 77.4236 101.553 82.2542 106.733 84.3471C111.738 86.369 115.097 82.9373 118.044 85.44C120.349 87.3963 120.228 91.1449 120.108 95.0301C120.014 98.0192 119.927 100.746 118.132 103.26C115.75 106.593 112.737 106.232 112.287 108.604C111.815 111.101 115.031 112.15 114.954 115.817C114.938 116.544 114.757 119.134 112.633 120.571C110.487 122.019 107.946 121.221 107.595 121.107C112.106 117.522 112.814 115.101 112.518 113.5C112.051 110.965 109.016 110.271 109.093 108.008C109.17 105.724 112.287 105.484 113.802 102.303C115.437 98.8607 114.29 93.8717 112.035 92.9919C109.763 92.1121 107.99 96.0247 104.555 95.6203C100.685 95.1667 100.449 89.9154 96.6791 88.9919C91.6081 87.7515 87.514 96.1777 84.2651 94.9045C81.4003 93.7842 80.149 85.4837 84.2651 80.1176L84.2596 80.1231Z" fill="#3FBFB6" stroke="#1D733A" stroke-miterlimit="10"/>
<path d="M66.3246 101.691C68.3168 99.959 69.7107 97.7185 69.1619 96.0956C68.421 93.9043 63.9922 92.3743 58.5535 94.2923C50.2006 97.9972 47.3578 102.216 46.359 105.511C45.0693 109.79 47.0175 112.123 45.0363 117.877C43.1704 123.298 40.3934 124.167 40.8928 127.134C41.6008 131.352 47.5279 131.489 49.6463 136.079C50.733 138.434 51.0842 142.533 46.4138 149.888C53.5703 143.434 54.9478 138.735 54.3551 135.369C53.5538 130.773 48.9823 127.942 50.1183 125.811C51.3696 123.473 57.3022 126.035 59.6237 123.156C61.5664 120.74 59.223 117.538 59.9035 112.511C60.5292 107.893 63.4214 104.303 66.3246 101.697V101.691Z" fill="#3FBFB6" stroke="#1D733A" stroke-miterlimit="10"/>
<path d="M84.2596 94.9099C85.1981 93.817 87.8873 90.4127 88.1287 85.3416C88.3044 81.6422 87.0915 78.8225 86.4055 77.4783C74.2439 73.5985 68.9644 75.3799 66.385 77.6914C63.3995 80.369 64.1349 83.6641 59.4974 88.1012C55.332 92.0848 52.4617 91.6094 51.5342 94.4782C50.2171 98.5492 55.4253 101.336 55.1948 106.38C55.0741 108.965 53.4935 112.768 45.9364 117.216C55.2881 114.697 58.6797 111.134 59.7115 107.866C61.1219 103.413 58.3559 98.8389 60.3591 97.4564C62.5488 95.9372 66.6484 100.888 70.0455 99.3689C73.5305 97.8115 72.1365 91.3034 75.2098 90.0192C76.5983 89.44 79.1502 89.817 84.2596 94.9099Z" fill="#3FBFB6" stroke="#1D733A" stroke-miterlimit="10"/>
<path d="M55.4966 147.232C54.3167 147.467 51.7867 148.139 49.4213 150.232C46.5017 152.817 45.6565 155.953 45.4095 157.085" fill="#3FBFB6"/>
<path d="M55.4966 147.232C54.3167 147.467 51.7867 148.139 49.4213 150.232C46.5017 152.817 45.6565 155.953 45.4095 157.085" stroke="#1D733A" stroke-miterlimit="10"/>
<path d="M58.2077 151.729C56.7424 152.068 53.4276 153.057 50.6177 156.014C46.1175 160.751 46.5181 166.757 46.6059 167.79" fill="#3FBFB6"/>
<path d="M58.2077 151.729C56.7424 152.068 53.4276 153.057 50.6177 156.014C46.1175 160.751 46.5181 166.757 46.6059 167.79" stroke="#1D733A" stroke-miterlimit="10"/>
<path d="M61.2426 153.975C57.0004 154.893 55.4747 156.549 54.8435 157.828C53.3179 160.926 55.9851 163.97 54.41 167.571C53.4551 169.746 51.4574 170.975 50.0744 171.636" fill="#3FBFB6"/>
<path d="M61.2426 153.975C57.0004 154.893 55.4747 156.549 54.8435 157.828C53.3179 160.926 55.9851 163.97 54.41 167.571C53.4551 169.746 51.4574 170.975 50.0744 171.636" stroke="#1D733A" stroke-miterlimit="10"/>
<path d="M113.209 137.636C114.06 138.511 116.376 141.123 116.963 145.238C117.49 148.937 116.337 151.8 115.811 152.932" fill="#3FBFB6"/>
<path d="M113.209 137.636C114.06 138.511 116.376 141.123 116.963 145.238C117.49 148.937 116.337 151.8 115.811 152.932" stroke="#1D733A" stroke-miterlimit="10"/>
<path d="M111.096 145.052C110.372 145.822 108.374 148.167 108.111 151.702C107.963 153.691 108.418 155.303 108.786 156.265" fill="#3FBFB6"/>
<path d="M111.096 145.052C110.372 145.822 108.374 148.167 108.111 151.702C107.963 153.691 108.418 155.303 108.786 156.265" stroke="#1D733A" stroke-miterlimit="10"/>
<path d="M104.45 154.079C104.231 154.724 103.869 156.085 104.159 157.784C104.456 159.5 105.274 160.669 105.702 161.205" fill="#3FBFB6"/>
<path d="M104.45 154.079C104.231 154.724 103.869 156.085 104.159 157.784C104.456 159.5 105.274 160.669 105.702 161.205" stroke="#1D733A" stroke-miterlimit="10"/>
<path d="M130.826 141.249C130.93 143.434 130.848 146.161 130.25 149.232C129.196 154.609 127.006 158.669 125.338 161.205" fill="#3FBFB6"/>
<path d="M130.826 141.249C130.93 143.434 130.848 146.161 130.25 149.232C129.196 154.609 127.006 158.669 125.338 161.205" stroke="#1D733A" stroke-miterlimit="10"/>
<path d="M124.762 150.085C123.445 151.675 121.688 154.178 120.432 157.593C118.856 161.855 118.769 165.604 118.889 167.855" fill="#3FBFB6"/>
<path d="M124.762 150.085C123.445 151.675 121.688 154.178 120.432 157.593C118.856 161.855 118.769 165.604 118.889 167.855" stroke="#1D733A" stroke-miterlimit="10"/>
<path d="M83.14 84.2978C82.8986 84.0793 78.6343 80.3853 73.2011 81.9372C69.2607 83.0629 66.3301 86.4891 65.7812 90.6312" fill="#3FBFB6"/>
<path d="M83.14 84.2978C82.8986 84.0793 78.6343 80.3853 73.2011 81.9372C69.2607 83.0629 66.3301 86.4891 65.7812 90.6312" stroke="#1D733A" stroke-miterlimit="10"/>
<path d="M60.37 92.2432C58.1474 92.2705 56.1991 93.5656 55.4637 95.4727C54.6021 97.7022 55.8149 99.7022 55.9686 99.9426" fill="#3FBFB6"/>
<path d="M60.37 92.2432C58.1474 92.2705 56.1991 93.5656 55.4637 95.4727C54.6021 97.7022 55.8149 99.7022 55.9686 99.9426" stroke="#1D733A" stroke-miterlimit="10"/>
<path d="M89.9343 88.1448C90.0221 87.7623 90.9551 84.0574 94.2095 82.806C97.5243 81.5328 101.953 83.2978 104.022 87.4016" fill="#3FBFB6"/>
<path d="M89.9343 88.1448C90.0221 87.7623 90.9551 84.0574 94.2095 82.806C97.5243 81.5328 101.953 83.2978 104.022 87.4016" stroke="#1D733A" stroke-miterlimit="10"/>
<path d="M106.667 92.4945C106.695 91.959 106.865 89.2377 108.682 88.1503C110.882 86.8279 115.125 88.123 117.616 92.3743" fill="#3FBFB6"/>
<path d="M106.667 92.4945C106.695 91.959 106.865 89.2377 108.682 88.1503C110.882 86.8279 115.125 88.123 117.616 92.3743" stroke="#1D733A" stroke-miterlimit="10"/>
<path d="M123.571 101.107C124.476 102.861 126.721 107.79 125.782 114.205C124.701 121.604 120.102 126.063 118.73 127.303" fill="#3FBFB6"/>
<path d="M123.571 101.107C124.476 102.861 126.721 107.79 125.782 114.205C124.701 121.604 120.102 126.063 118.73 127.303" stroke="#1D733A" stroke-miterlimit="10"/>
<path d="M54.4374 116.549C53.4221 116.833 50.5244 117.801 48.3621 120.648C46.831 122.664 46.37 124.708 46.2108 125.768" fill="#3FBFB6"/>
<path d="M54.4374 116.549C53.4221 116.833 50.5244 117.801 48.3621 120.648C46.831 122.664 46.37 124.708 46.2108 125.768" stroke="#1D733A" stroke-miterlimit="10"/>
<path d="M49.2512 130.669C49.4268 130.735 51.5781 131.593 52.0665 133.817C52.4013 135.352 51.7318 136.571 51.5452 136.888" fill="#3FBFB6"/>
<path d="M49.2512 130.669C49.4268 130.735 51.5781 131.593 52.0665 133.817C52.4013 135.352 51.7318 136.571 51.5452 136.888" stroke="#1D733A" stroke-miterlimit="10"/>
<path d="M42.5777 134.91C42.8631 135.118 45.19 136.904 45.2449 140.03C45.3053 143.358 42.7423 145.271 42.5009 145.445" fill="#3FBFB6"/>
<path d="M42.5777 134.91C42.8631 135.118 45.19 136.904 45.2449 140.03C45.3053 143.358 42.7423 145.271 42.5009 145.445" stroke="#1D733A" stroke-miterlimit="10"/>
<path d="M116.76 79.3253C115.053 69.6805 113.346 60.0357 111.64 50.3855C111.162 47.6751 110.679 44.8882 111.217 42.1888C111.755 39.4894 113.544 37.7134 116.211 36.1287C120.591 34.9429 123.307 39.4402 124.827 44.156C124.899 48.6751 122.265 52.7407 119.735 56.4893C122.654 52.7953 125.596 49.0631 127.577 44.7954C129.558 40.5331 130.519 35.626 129.273 31.0905C126.501 25.9757 121.584 21.4129 115.492 19.1233C109.516 18.473 104.105 20.4402 97.4036 23.9539C92.9473 27.3582 89.627 32.003 86.5866 36.7079C79.8637 47.1068 74.0244 59.8226 69.4199 71.4237C84.7536 76.5767 100.581 79.2543 116.76 79.3144V79.3253Z" fill="#50BC81"/>
<path d="M131.819 86.2269C130.755 85.7242 128.329 84.5111 127.423 84.0739C120.552 80.7734 114.482 77.8554 108.918 75.91C103.226 73.921 99.1104 73.3745 91.685 72.2379C83.5188 70.992 75.9123 70.5166 69.0138 70.5166C56.1826 70.9374 43.2857 75.5986 31.9089 83.9701C50.4696 83.3581 66.9612 97.2597 85.2255 100.429C96.8548 102.445 108.797 100.047 120.618 99.6586C132.434 99.2761 144.903 101.271 153.87 110.664C149.096 99.4455 141.16 90.6477 131.814 86.2215L131.819 86.2269Z" fill="#50BC81"/>
</svg>
