<svg width="276" height="370" viewBox="0 0 276 370" fill="none" xmlns="http://www.w3.org/2000/svg">
<rect x="105.824" y="7.86133" width="170.176" height="129.711" rx="10" fill="#51ABAF"/>
<path d="M172.33 136.59H132.231V170L172.33 136.59Z" fill="#51ABAF"/>
<rect x="98" width="170.176" height="129.711" rx="10" fill="#5FC8D4"/>
<path d="M164.506 128.728H124.407V162.139L164.506 128.728Z" fill="#5FC8D4"/>
<path d="M36.2226 223.915C35.1963 231.981 39.5429 239.238 40.1081 239.063C40.4758 238.954 39.4605 235.62 39.949 230.2C40.3277 225.981 41.4198 222.62 41.7326 222.68C42.0838 222.751 40.5691 227.019 42.0344 232.008C42.7973 234.615 43.8071 235.473 43.8016 237.975C43.8016 238.669 43.7906 241.456 42.1991 242.861C40.0587 244.74 36.6506 242.735 36.4201 243.402C36.1842 244.09 39.4276 247.347 42.0344 246.478C45.5578 245.303 45.9859 237.243 46.4853 237.358C46.8585 237.445 47.1658 242.036 44.9212 246.292C43.2199 249.516 41.6503 249.527 40.1081 251.899C35.9866 258.238 40.0423 269.145 40.4264 269.085C40.6514 269.046 39.6307 265.32 40.9094 260.221C41.2606 258.817 42.9235 252.784 45.7224 252.626C46.606 252.576 47.6872 253.107 47.9835 253.997C48.5543 255.713 45.8322 257.637 44.2791 260.227C40.185 267.046 44.4876 278.046 45.0803 277.953C45.706 277.855 43.6644 265.26 46.5347 264.139C47.056 263.937 47.8024 264.09 48.1591 264.566C48.9384 265.609 47.3908 267.544 47.1054 270.03C46.5841 274.587 50.5465 278.899 51.1227 278.576C51.6605 278.276 49.1305 274.063 50.755 270.959C51.7374 269.079 54.0479 267.986 54.8656 268.691C56.1608 269.817 53.8722 275.642 52.6758 278.68C50.5245 284.139 48.6147 286.533 49.2074 287.227C49.844 287.97 53.0106 286.325 55.4199 283.724C59.9256 278.861 58.6304 274.052 61.325 271.063C61.6543 270.702 62.0056 270.412 62.3897 270.194C63.5038 269.549 65.4411 268.932 66.5387 269.724C67.8723 270.691 67.6144 273.473 66.7747 275.314C65.2161 278.751 61.347 279.549 61.583 280.276C61.7806 280.882 64.7661 281.216 67.0656 279.691C70.8743 277.167 69.8316 271.511 72.0048 271.096C73.6677 270.779 76.1922 273.729 75.7203 275.604C75.2648 277.418 72.175 277.571 72.2573 278.232C72.3835 279.188 79.046 280.385 81.4882 277.358C82.756 275.784 82.4047 273.675 82.8987 273.642C83.6725 273.593 83.4091 278.871 86.68 282.32C89.1441 284.921 92.8321 285.658 93.315 284.948C93.7925 284.249 90.818 282.62 90.7192 279.691C90.6149 276.724 93.5071 273.5 95.3347 273.855C97.0305 274.183 96.4762 277.347 99.083 281.156C102.272 285.822 107.793 287.932 108.314 287.287C108.588 286.942 107.315 286.003 106.009 283.494C105.438 282.396 102.431 276.637 104.856 273.276C105.855 271.899 107.381 271.462 108.226 271.221C110.888 270.462 114.23 271.106 115.816 272.986C119.136 276.921 114.131 285.473 114.949 285.833C115.635 286.134 120.492 280.713 120.141 274.156C119.916 269.959 118.571 266.161 118.846 266.074C119.109 265.986 119.795 269.828 122.951 272.385C124.795 273.882 126.836 274.418 126.946 274.227C127.061 274.025 124.959 273.227 123.697 271.057C123.494 270.713 121.655 267.451 123.302 265.566C124.389 264.325 126.672 264.046 127.698 264.992C129.289 266.451 127.511 270.489 127.906 270.609C128.252 270.719 130.343 267.811 130.601 263.893C130.766 261.462 130.184 259.254 131.293 258.587C131.781 258.292 132.352 258.407 133.422 257.817C134.037 257.478 134.366 257.27 134.443 256.981C134.777 255.724 129.509 254.729 128.186 251.593C126.425 247.413 132.319 240.926 133.093 241.298C133.504 241.495 132.418 243.62 133.598 245.205C134.119 245.904 134.695 245.981 135.26 246.352C138.032 248.167 136.989 254.56 136.978 254.56C136.973 254.56 138.531 249.276 136.303 243.15C134.509 238.221 131.166 234.85 131.342 234.708C131.77 234.358 138.625 241.238 138.905 240.965C139.009 240.861 137.983 239.992 138.191 239.025C138.4 238.063 139.618 237.97 139.837 237.09C140.073 236.139 138.948 235.101 138.614 234.779C135.617 231.877 132.89 225.019 134.262 223.462C135.173 222.424 138.158 223.462 139.87 224.708C142.543 226.659 143.525 230.15 143.032 232.68C142.801 233.877 142.23 234.904 142.335 234.954C142.461 235.014 143.531 233.697 143.975 232.046C144.705 229.358 144.157 226.855 143.289 224.429C140.963 217.894 138.625 218.287 138.246 214.73C137.747 210.063 141.275 207.675 139.991 204.413C139.261 202.56 137.362 202.063 136.671 201.828C129.317 199.314 125.387 181.008 119.532 172.079C111.393 159.675 95.9109 159.866 88.0355 159.965C88.0355 159.965 65.2161 160.249 49.2732 181.205C47.1493 183.992 44.3065 187.828 43.2473 193.702C42.1497 199.79 44.1474 201.571 43.2473 207.588C41.996 215.959 37.1775 216.391 36.2226 223.915Z" fill="#3FBFB6" stroke="#1D733A" stroke-miterlimit="10"/>
<path d="M68.6077 174.085C66.7253 174.73 58.2462 177.866 53.6691 186.992C50.497 193.32 50.8318 199.26 51.1172 201.746" fill="#3FBFB6"/>
<path d="M68.6077 174.085C66.7253 174.73 58.2462 177.866 53.6691 186.992C50.497 193.32 50.8318 199.26 51.1172 201.746" stroke="#1D733A" stroke-miterlimit="10"/>
<path d="M44.2462 211.517C42.6217 213.276 39.7789 216.877 38.6099 222.211C38.0776 224.648 38.0282 226.817 38.1379 228.511" fill="#3FBFB6"/>
<path d="M44.2462 211.517C42.6217 213.276 39.7789 216.877 38.6099 222.211C38.0776 224.648 38.0282 226.817 38.1379 228.511" stroke="#1D733A" stroke-miterlimit="10"/>
<path d="M48.472 216.861C47.7037 217.517 44.6029 220.309 44.0102 225.063C43.5656 228.62 44.7675 231.364 45.2999 232.429" fill="#3FBFB6"/>
<path d="M48.472 216.861C47.7037 217.517 44.6029 220.309 44.0102 225.063C43.5656 228.62 44.7675 231.364 45.2999 232.429" stroke="#1D733A" stroke-miterlimit="10"/>
<path d="M49.5257 209.729C50.6563 212.724 52.2807 218.249 51.6386 225.178C51.1996 229.932 49.844 233.713 48.7025 236.232" fill="#3FBFB6"/>
<path d="M49.5257 209.729C50.6563 212.724 52.2807 218.249 51.6386 225.178C51.1996 229.932 49.844 233.713 48.7025 236.232" stroke="#1D733A" stroke-miterlimit="10"/>
<path d="M82.8438 167.265C80.237 169.123 69.2114 177.418 66.1985 192.79C64.102 203.473 66.9449 212.129 68.3827 215.763" fill="#3FBFB6"/>
<path d="M82.8438 167.265C80.237 169.123 69.2114 177.418 66.1985 192.79C64.102 203.473 66.9449 212.129 68.3827 215.763" stroke="#1D733A" stroke-miterlimit="10"/>
<path d="M58.2956 203.675C56.6327 208.473 54.4046 217.161 56.1114 227.67C56.8523 232.221 58.1584 236.057 59.4756 239.068" fill="#3FBFB6"/>
<path d="M58.2956 203.675C56.6327 208.473 54.4046 217.161 56.1114 227.67C56.8523 232.221 58.1584 236.057 59.4756 239.068" stroke="#1D733A" stroke-miterlimit="10"/>
<path d="M100.493 165.899C102.535 166.681 109.982 169.823 114.45 178.151C118.039 184.839 117.726 191.189 117.474 193.637" fill="#3FBFB6"/>
<path d="M100.493 165.899C102.535 166.681 109.982 169.823 114.45 178.151C118.039 184.839 117.726 191.189 117.474 193.637" stroke="#1D733A" stroke-miterlimit="10"/>
<path d="M92.2558 168.795C94.4895 171.937 102.919 184.566 100.828 201.637C99.5111 212.407 94.6102 219.997 91.9156 223.588" fill="#3FBFB6"/>
<path d="M92.2558 168.795C94.4895 171.937 102.919 184.566 100.828 201.637C99.5111 212.407 94.6102 219.997 91.9156 223.588" stroke="#1D733A" stroke-miterlimit="10"/>
<path d="M86.3726 176.451C82.4212 184.221 75.1879 201.178 76.9606 223.074C77.9265 235.014 81.2577 244.604 84.1884 251.15" fill="#3FBFB6"/>
<path d="M86.3726 176.451C82.4212 184.221 75.1879 201.178 76.9606 223.074C77.9265 235.014 81.2577 244.604 84.1884 251.15" stroke="#1D733A" stroke-miterlimit="10"/>
<path d="M128.236 199.085C128.971 200.839 130.261 203.069 132.604 204.189C134.602 205.14 136.254 204.763 136.808 205.888C137.318 206.932 136.347 208.178 134.959 210.823C133.976 212.686 133.065 214.724 132.269 216.948" fill="#3FBFB6"/>
<path d="M128.236 199.085C128.971 200.839 130.261 203.069 132.604 204.189C134.602 205.14 136.254 204.763 136.808 205.888C137.318 206.932 136.347 208.178 134.959 210.823C133.976 212.686 133.065 214.724 132.269 216.948" stroke="#1D733A" stroke-miterlimit="10"/>
<path d="M125.042 216.271C125.206 218.648 125.914 224.068 129.75 229.374C132.555 233.249 135.842 235.423 137.818 236.522" fill="#3FBFB6"/>
<path d="M125.042 216.271C125.206 218.648 125.914 224.068 129.75 229.374C132.555 233.249 135.842 235.423 137.818 236.522" stroke="#1D733A" stroke-miterlimit="10"/>
<path d="M105.707 220.014C107.447 223.724 109.576 229.44 110.246 236.691C111.195 246.975 108.726 255.145 107.052 259.494" fill="#3FBFB6"/>
<path d="M105.707 220.014C107.447 223.724 109.576 229.44 110.246 236.691C111.195 246.975 108.726 255.145 107.052 259.494" stroke="#1D733A" stroke-miterlimit="10"/>
<path d="M88.8971 217.97C87.5306 222.631 85.264 232.729 88.2221 244.855C90.3734 253.653 94.4017 259.964 97.1347 263.571" fill="#3FBFB6"/>
<path d="M88.8971 217.97C87.5306 222.631 85.264 232.729 88.2221 244.855C90.3734 253.653 94.4017 259.964 97.1347 263.571" stroke="#1D733A" stroke-miterlimit="10"/>
<path d="M97.4695 230.052C98.7483 235.238 99.8953 241.107 100.664 247.577C101.739 256.626 101.844 264.784 101.503 271.74" fill="#3FBFB6"/>
<path d="M97.4695 230.052C98.7483 235.238 99.8953 241.107 100.664 247.577C101.739 256.626 101.844 264.784 101.503 271.74" stroke="#1D733A" stroke-miterlimit="10"/>
<path d="M109.071 196.872C112.682 201.877 118.9 211.91 121.178 226.139C123.077 238.014 121.425 247.806 120.004 253.533" fill="#3FBFB6"/>
<path d="M109.071 196.872C112.682 201.877 118.9 211.91 121.178 226.139C123.077 238.014 121.425 247.806 120.004 253.533" stroke="#1D733A" stroke-miterlimit="10"/>
<path d="M54.0094 281.735C55.7711 278.877 57.9608 274.604 59.3603 269.063C60.5677 264.276 60.7927 260.074 60.7268 256.97" fill="#3FBFB6"/>
<path d="M54.0094 281.735C55.7711 278.877 57.9608 274.604 59.3603 269.063C60.5677 264.276 60.7927 260.074 60.7268 256.97" stroke="#1D733A" stroke-miterlimit="10"/>
<path d="M55.9413 253.516C54.8546 254.025 52.5277 255.314 50.8209 258.008C48.1921 262.161 49.0263 266.516 49.2294 267.456" fill="#3FBFB6"/>
<path d="M55.9413 253.516C54.8546 254.025 52.5277 255.314 50.8209 258.008C48.1921 262.161 49.0263 266.516 49.2294 267.456" stroke="#1D733A" stroke-miterlimit="10"/>
<path d="M52.7582 238.888C52.8789 239.456 53.6143 243.298 51.0514 246.719C48.258 250.451 43.9169 250.522 43.4285 250.522" fill="#3FBFB6"/>
<path d="M52.7582 238.888C52.8789 239.456 53.6143 243.298 51.0514 246.719C48.258 250.451 43.9169 250.522 43.4285 250.522" stroke="#1D733A" stroke-miterlimit="10"/>
<path d="M67.3235 227.254C68.9919 229.473 73.3933 235.932 73.6951 245.342C74.0299 255.664 69.2224 262.882 67.6637 265.041" fill="#3FBFB6"/>
<path d="M67.3235 227.254C68.9919 229.473 73.3933 235.932 73.6951 245.342C74.0299 255.664 69.2224 262.882 67.6637 265.041" stroke="#1D733A" stroke-miterlimit="10"/>
<path d="M77.7948 258.353C78.0527 258.822 81.9108 266.052 80.9833 271.139C80.5717 273.402 79.5016 274.943 79.5016 274.943C78.5686 276.287 77.4545 277.068 76.7685 277.478" fill="#3FBFB6"/>
<path d="M77.7948 258.353C78.0527 258.822 81.9108 266.052 80.9833 271.139C80.5717 273.402 79.5016 274.943 79.5016 274.943C78.5686 276.287 77.4545 277.068 76.7685 277.478" stroke="#1D733A" stroke-miterlimit="10"/>
<path d="M90.9881 262.642C89.9948 263.872 87.108 267.779 87.0147 273.489C86.9434 277.533 88.3044 280.587 89.0892 282.063" fill="#3FBFB6"/>
<path d="M90.9881 262.642C89.9948 263.872 87.108 267.779 87.0147 273.489C86.9434 277.533 88.3044 280.587 89.0892 282.063" stroke="#1D733A" stroke-miterlimit="10"/>
<path d="M110.767 262.292C111.261 262.281 113.561 262.292 115.372 264.074C117.046 265.719 117.655 268.249 116.996 270.648" fill="#3FBFB6"/>
<path d="M110.767 262.292C111.261 262.281 113.561 262.292 115.372 264.074C117.046 265.719 117.655 268.249 116.996 270.648" stroke="#1D733A" stroke-miterlimit="10"/>
<path d="M89.1057 188.528C87.0861 191.26 84.1884 195.888 82.4706 202.276C80.5224 209.528 80.9889 215.697 81.5212 219.221" fill="#3FBFB6"/>
<path d="M89.1057 188.528C87.0861 191.26 84.1884 195.888 82.4706 202.276C80.5224 209.528 80.9889 215.697 81.5212 219.221" stroke="#1D733A" stroke-miterlimit="10"/>
<path d="M101.739 175.101C104.494 175.79 106.503 177.981 106.794 180.538C107.085 183.107 105.515 184.992 105.213 185.336" fill="#3FBFB6"/>
<path d="M101.739 175.101C104.494 175.79 106.503 177.981 106.794 180.538C107.085 183.107 105.515 184.992 105.213 185.336" stroke="#1D733A" stroke-miterlimit="10"/>
<path d="M91.4216 297.543C92.3765 291.828 96.734 287.298 102.244 286.221C108.369 285.024 114.729 288.314 117.413 294.227C117.386 297.002 117.298 299.336 117.205 301.09C117.089 303.385 116.947 305.123 116.771 307.336C116.749 307.587 116.491 310.844 116.189 313.866C115.602 319.713 114.872 325.303 114.032 330.614C112.529 334.964 108.292 337.685 103.874 337.166C99.511 336.658 96.0041 333.112 95.4169 328.598C94.0833 318.248 92.7552 307.893 91.4216 297.543Z" fill="#595A5C"/>
<path d="M101.662 368.898C101.838 369.461 102.282 369.882 102.809 369.98C103.49 370.101 104.22 369.658 104.483 368.898C107.189 361.172 109.763 352.396 111.821 342.642C112.99 337.106 113.873 331.811 114.543 326.806C114.729 320.254 109.324 315.27 103.885 315.811C99.0555 316.292 94.9504 321.046 95.1809 326.806C97.3432 340.838 99.5055 354.866 101.668 368.898H101.662Z" fill="#595A5C"/>
<path d="M50.8428 354.09C50.6068 354.625 50.1183 354.991 49.586 355.03C48.8945 355.073 48.2194 354.56 48.0383 353.784C46.1943 345.871 44.5973 336.931 43.6204 327.084C43.0661 321.494 42.7643 316.177 42.6545 311.166C43.1869 304.686 49.103 300.363 54.4484 301.489C59.1956 302.489 62.7574 307.631 61.8957 313.287C58.2132 326.888 54.5253 340.489 50.8428 354.09Z" fill="#595A5C"/>
<path d="M72.3066 243.522C74.4469 243.538 76.3348 242.259 77.0098 240.38C77.855 238.019 76.3183 235.975 76.2141 235.839C69.7656 234.565 62.8726 233.407 55.5679 232.456C48.3346 231.516 41.4416 230.871 34.9437 230.451C32.2601 231.227 30.2514 233.429 29.8014 236.101C29.2965 239.085 30.8222 242.128 33.5991 243.598C37.0566 243.833 64.0635 243.451 72.312 243.516L72.3066 243.522Z" fill="#595A5C"/>
<path d="M30.9265 233.358C33.1328 231.363 36.3762 230.964 38.9776 232.369C41.6338 233.801 43.0772 236.811 42.5174 239.79C39.3672 247.407 36.2116 255.019 33.0614 262.637C32.8309 262.861 30.2405 265.27 26.6129 264.56C23.3091 263.915 21.8054 261.205 21.6133 260.844C22.1237 257.276 22.9579 253.199 24.3134 248.79C26.2233 242.576 28.6545 237.413 30.9211 233.358H30.9265Z" fill="#595A5C"/>
<path d="M21.701 260.582C22.5791 257.686 25.3451 255.844 28.1495 256.139C30.5314 256.391 32.5839 258.145 33.2919 260.566C32.8418 265.888 32.3973 271.21 31.9473 276.538C31.9199 276.844 31.8101 277.008 31.7168 277.106C31.2448 277.576 30.032 277.358 28.7258 276.473C28.1441 276.063 27.5788 275.604 27.0355 275.085C22.1895 270.473 21.7011 263.751 21.7065 260.587L21.701 260.582Z" fill="#595A5C"/>
<path d="M105.389 241.156C103.446 240.27 102.277 238.309 102.469 236.325C102.711 233.828 104.972 232.626 105.125 232.549C111.508 234.117 118.242 235.986 125.261 238.21C132.209 240.412 138.729 242.74 144.793 245.112C146.895 246.948 147.773 249.789 147.043 252.401C146.231 255.314 143.547 257.429 140.408 257.587C137.176 256.341 112.885 244.582 105.389 241.161V241.156Z" fill="#595A5C"/>
<path d="M146.84 248.03C144.98 245.713 141.835 244.817 139.042 245.795C136.188 246.795 134.294 249.544 134.377 252.571C136.292 260.587 138.202 268.598 140.117 276.615C140.309 276.872 142.488 279.653 146.182 279.522C149.546 279.402 151.461 276.959 151.708 276.631C151.763 273.03 151.582 268.872 150.94 264.303C150.029 257.872 148.448 252.391 146.846 248.03H146.84Z" fill="#595A5C"/>
<path d="M151.79 275.948C151.489 272.937 149.129 270.604 146.319 270.358C143.932 270.15 141.583 271.478 140.419 273.713C139.832 279.024 139.239 284.33 138.652 289.642C138.619 289.948 138.69 290.128 138.767 290.243C139.14 290.795 140.375 290.811 141.824 290.194C142.472 289.904 143.119 289.56 143.756 289.155C149.403 285.554 151.181 279.057 151.79 275.948Z" fill="#595A5C"/>
<path d="M70.7644 233.724C71.4723 232.801 77.8769 224.757 88.9793 224.784C100.016 224.812 106.366 232.79 107.084 233.724C110.372 243.15 113.615 254.937 115.536 268.702C117.215 280.74 117.501 291.533 117.177 300.587C116.442 301.265 109.647 307.303 100.779 305.44C95.7955 304.391 92.6453 301.369 91.3941 300.019C90.977 300.238 90.055 300.642 88.8366 300.598C87.7829 300.56 86.9926 300.21 86.5865 299.992C85.2255 301.363 81.971 304.254 76.9494 305.265C68.1301 307.035 61.3798 301.5 60.4633 300.718C60.0791 291.418 60.3425 280.041 62.2743 267.232C64.272 253.975 67.5264 242.686 70.7589 233.713L70.7644 233.724Z" fill="#595A5C"/>
<path d="M70.7644 233.724C70.5065 233.653 67.3563 243.019 64.9032 253.549C63.7836 258.347 62.9329 262.926 62.2799 267.238C61.8243 270.259 61.0176 276.161 60.5895 283.779C60.1176 292.205 60.2218 300.718 60.4688 300.729C60.7871 300.74 60.2328 286.38 62.9988 267.729C65.9514 247.85 71.0882 233.817 70.7644 233.724Z" fill="#818285"/>
<path d="M107.167 233.932C107.425 233.861 110.323 242.877 112.776 253.407C113.895 258.205 114.746 262.784 115.399 267.095C115.854 270.117 116.661 276.019 117.089 283.636C117.561 292.063 117.457 300.576 117.21 300.587C116.892 300.598 117.446 286.237 114.68 267.587C111.727 247.707 106.849 234.024 107.167 233.932Z" fill="#818285"/>
<path d="M84.2103 301.975C88.0025 297.576 88.6995 291.352 85.9994 286.445C82.9974 280.997 76.3843 278.248 70.1059 279.986C67.982 281.784 66.2423 283.352 64.9471 284.543C63.2513 286.106 62 287.325 60.4085 288.877C60.2274 289.052 57.884 291.341 55.7436 293.511C51.6111 297.707 47.7749 301.849 44.2186 305.899C41.8313 309.838 42.446 314.817 45.684 317.866C48.8725 320.871 53.8557 321.276 57.7138 318.833C66.5496 313.216 75.38 307.593 84.2158 301.975H84.2103Z" fill="#595A5C"/>
<path d="M50.1787 210.609L34.1864 199.937C34.6694 198.03 33.9395 196.046 32.3809 194.986C31.0473 194.079 29.2911 193.97 27.7928 194.691C29.9661 191.811 29.5161 189.855 29.3899 189.391C28.3691 185.724 21.8931 184.178 17.3051 185.675C15.6587 186.21 14.4458 187.079 13.6555 187.768C12.7335 186.336 11.3451 185.265 10.0554 185.402C8.15648 185.598 6.16979 188.407 6.88873 192.15C4.002 191.653 1.2415 192.221 0.352431 193.768C-0.811041 195.795 0.879287 200.117 5.82404 202.533C4.61667 204.205 4.34775 206.325 5.19292 207.992C6.34541 210.265 9.44069 211.407 12.311 210.254C12.7665 211.292 13.7598 213.074 15.73 214.183C18.9899 216.019 23.578 215.243 27.1288 212.145C28.5557 213.025 30.3448 213.068 31.7827 212.26C33.3468 211.385 34.2468 209.637 34.0712 207.828C39.444 208.757 44.8114 209.686 50.1842 210.609H50.1787Z" fill="#D1D3D8"/>
<path d="M6.81194 193.123C5.0832 193.167 3.54105 194.063 2.94834 195.412C2.11415 197.325 3.21176 200.046 5.81311 201.068C1.76291 199.298 0.182345 195.997 0.972629 194.429C1.62022 193.134 4.10632 192.576 6.81194 193.123Z" fill="white"/>
<path d="M47.5993 209.56C44.2955 208.779 40.871 208.046 37.3312 207.363C35.4981 207.014 33.6926 206.686 31.9089 206.391C33.945 206.27 36.6561 206.309 39.7624 206.915C43.0607 207.56 45.706 208.626 47.5993 209.56Z" fill="white"/>
<path d="M14.9781 187.429C21.6297 185.298 26.8763 186.374 27.9684 188.894C28.1386 189.282 28.6654 190.762 26.9586 193.495C27.1123 192.965 27.4141 191.653 26.8269 190.287C26.8269 190.287 26.4318 189.364 25.5207 188.582C23.8908 187.189 19.89 186.691 14.9781 187.424V187.429Z" fill="white"/>
<path d="M126.984 217.303L146.5 210.413C146.478 210.298 146.269 208.97 147.197 208.101C148.053 207.298 149.513 207.227 150.632 208.036C150.254 207.287 149.535 205.571 150.034 203.68C150.989 200.057 155.896 197.68 159.342 199.189C161.159 199.981 162.059 201.631 162.415 202.402C168.425 199.227 174.429 201.473 175.713 204.828C176.619 207.194 175.312 210.451 172.766 212.894C174.758 215.407 175.12 218.746 173.71 221.238C171.871 224.473 167.272 225.861 163.332 223.861C162.756 226.511 160.143 228.025 157.943 227.418C156.17 226.926 154.847 225.101 154.902 222.992C152.586 224.09 149.968 223.915 148.152 222.5C146.681 221.352 146.215 219.768 146.072 219.15C139.706 218.538 133.345 217.921 126.979 217.309L126.984 217.303Z" fill="#D1D3D8"/>
<path d="M130.705 216.757C133.965 215.812 137.307 214.773 140.727 213.626C142.494 213.03 144.228 212.424 145.924 211.812C144.211 212.915 141.835 214.21 138.828 215.21C135.639 216.271 132.807 216.642 130.7 216.757H130.705Z" fill="white"/>
<path d="M156.038 222.954C156.411 224.074 157.421 224.959 158.601 225.172C160.27 225.473 162.19 224.413 162.487 222.593C161.894 225.451 159.611 226.894 158.217 226.582C157.07 226.325 156.142 224.779 156.038 222.948V222.954Z" fill="white"/>
<path d="M162.706 202.899C168.518 200.342 173.781 202.15 174.934 205.03C175.933 207.527 173.732 210.56 173.381 211.035C173.512 210.746 173.682 210.325 173.825 209.806C174.379 207.828 174.187 205.828 173.831 204.959C172.92 202.719 168.227 201.325 162.706 202.899Z" fill="white"/>
<path d="M88.3098 238.762C108.099 238.762 124.141 222.789 124.141 203.085C124.141 183.381 108.099 167.407 88.3098 167.407C68.5205 167.407 52.4781 183.381 52.4781 203.085C52.4781 222.789 68.5205 238.762 88.3098 238.762Z" fill="#595A5C"/>
<path d="M76.6202 236.822C76.6202 236.822 88.3098 242.172 99.9994 236.822C99.9994 236.822 88.3098 241.161 76.6202 236.822Z" fill="#818285"/>
<path d="M82.8492 220.855C84.4682 221.697 87.8269 223.128 91.9923 222.604C93.271 222.44 94.3906 222.128 95.3181 221.779C95.6144 222.139 96.2895 223.074 96.4267 224.445C96.6023 226.221 95.7462 227.505 95.5047 227.85C95.1534 227.462 94.2699 226.587 92.8265 226.194C91.7508 225.904 90.8343 226.008 90.3349 226.101C89.391 226.374 88.1013 226.866 86.7347 227.757C85.5383 228.538 84.6602 229.38 84.0566 230.057C83.8645 229.959 81.3235 228.593 81.0107 225.642C80.7143 222.855 82.6571 221.041 82.8602 220.861L82.8492 220.855Z" fill="#818285"/>
<path d="M74.0024 213.544C74.0024 213.544 75.2043 213.331 76.5214 213.544L75.7805 212.937C75.7805 212.937 74.2219 213.118 74.0024 213.544Z" fill="#FFD600"/>
<path d="M67.7679 199.751C67.7679 199.751 68.1137 201.303 71.9224 202.724C71.9224 202.724 74.2603 203.801 75.2153 199.014C75.2153 199.014 71.7084 199.271 67.9436 195.478C67.9436 195.478 67.8338 198.26 73.031 200.391C73.031 200.391 73.3329 200.648 73.0091 200.844C73.0091 200.844 70.0235 201.254 67.7679 199.746V199.751Z" fill="#FFD600"/>
<path d="M76.6531 213.544C79.3083 213.544 81.4607 210.192 81.4607 206.057C81.4607 201.923 79.3083 198.571 76.6531 198.571C73.998 198.571 71.8456 201.923 71.8456 206.057C71.8456 210.192 73.998 213.544 76.6531 213.544Z" fill="white"/>
<path d="M109 199.751C109 199.751 108.654 201.303 104.845 202.724C104.845 202.724 102.507 203.801 101.553 199.014C101.553 199.014 105.059 199.271 108.824 195.478C108.824 195.478 108.934 198.26 103.737 200.391C103.737 200.391 103.435 200.648 103.759 200.844C103.759 200.844 106.744 201.254 109 199.746V199.751Z" fill="#FFD600"/>
<path d="M102.963 213.544C102.963 213.544 101.761 213.331 100.444 213.544L101.185 212.937C101.185 212.937 102.743 213.118 102.963 213.544Z" fill="#FFD600"/>
<path d="M100.109 213.544C102.764 213.544 104.917 210.192 104.917 206.057C104.917 201.923 102.764 198.571 100.109 198.571C97.4541 198.571 95.3016 201.923 95.3016 206.057C95.3016 210.192 97.4541 213.544 100.109 213.544Z" fill="white"/>
<path d="M76.7574 213.544C78.8397 213.544 80.5277 210.862 80.5277 207.555C80.5277 204.247 78.8397 201.566 76.7574 201.566C74.6751 201.566 72.9871 204.247 72.9871 207.555C72.9871 210.862 74.6751 213.544 76.7574 213.544Z" fill="#231F20"/>
<path d="M74.4908 204.544C75.0182 204.544 75.4457 203.878 75.4457 203.057C75.4457 202.237 75.0182 201.571 74.4908 201.571C73.9634 201.571 73.5359 202.237 73.5359 203.057C73.5359 203.878 73.9634 204.544 74.4908 204.544Z" fill="white"/>
<path d="M100.082 213.544C102.194 213.544 103.907 210.862 103.907 207.555C103.907 204.247 102.194 201.566 100.082 201.566C97.9691 201.566 96.2565 204.247 96.2565 207.555C96.2565 210.862 97.9691 213.544 100.082 213.544Z" fill="#231F20"/>
<path d="M98.0786 204.544C98.606 204.544 99.0335 203.878 99.0335 203.057C99.0335 202.237 98.606 201.571 98.0786 201.571C97.5512 201.571 97.1237 202.237 97.1237 203.057C97.1237 203.878 97.5512 204.544 98.0786 204.544Z" fill="white"/>
<path opacity="0.57" d="M72.2078 219.495C74.6629 219.495 76.6531 218.971 76.6531 218.325C76.6531 217.679 74.6629 217.156 72.2078 217.156C69.7527 217.156 67.7625 217.679 67.7625 218.325C67.7625 218.971 69.7527 219.495 72.2078 219.495Z" fill="#F7B1C4"/>
<path opacity="0.57" d="M105.663 219.495C108.118 219.495 110.108 218.971 110.108 218.325C110.108 217.679 108.118 217.156 105.663 217.156C103.208 217.156 101.218 217.679 101.218 218.325C101.218 218.971 103.208 219.495 105.663 219.495Z" fill="#F7B1C4"/>
<path d="M101.143 190.785L88.5021 198.803L92.881 205.647L105.522 197.629L101.143 190.785Z" fill="#595A5C"/>
<path d="M70.8508 196.932L83.4915 204.95L87.8704 198.106L75.2297 190.088L70.8508 196.932Z" fill="#595A5C"/>
<path d="M157.163 175.478C155.95 175.817 150.232 177.549 148.47 182.456C148.273 183.008 146.923 186.823 148.849 188.516C150.276 189.773 151.944 190.172 153.206 188.751C153.322 188.62 153.656 188.183 153.761 187.566C153.969 186.309 153.064 184.97 151.922 184.478C151.516 184.303 151.022 184.205 150.342 184.276C148.635 184.445 145.419 185.68 144.744 188.828C144.31 190.861 145.084 193.014 146.725 194.44" stroke="#78797B" stroke-miterlimit="10"/>
<path d="M33.1656 177.833C33.3302 176.588 33.9943 170.675 30.1581 167.123C29.7301 166.724 26.7391 163.986 24.4176 165.074C22.6943 165.883 21.6681 167.254 22.4803 168.97C22.5517 169.123 22.8261 169.609 23.3584 169.943C24.4341 170.626 26.0256 170.331 26.9366 169.484C27.2604 169.183 27.5403 168.768 27.7489 168.118C28.2647 166.489 28.3965 163.058 25.7622 161.2C24.0554 159.997 21.7669 159.861 19.8021 160.795" stroke="#78797B" stroke-miterlimit="10"/>
<path d="M51.8087 137.659C51.3641 138.834 49.3774 144.446 52.3081 148.768C52.6373 149.254 54.9259 152.593 57.4339 152.052C59.2944 151.648 60.606 150.549 60.1999 148.691C60.1615 148.522 60.0078 147.992 59.5688 147.544C58.6742 146.637 57.0553 146.566 55.9796 147.189C55.5954 147.413 55.2277 147.752 54.882 148.336C54.0094 149.806 53.1038 153.118 55.2497 155.522C56.6382 157.074 58.8389 157.724 60.9628 157.254" stroke="#78797B" stroke-miterlimit="10"/>
<path d="M126.101 168.691C127.133 167.965 131.929 164.424 131.935 159.211C131.935 158.626 131.918 154.582 129.536 153.631C127.769 152.926 126.062 153.107 125.354 154.872C125.289 155.03 125.118 155.56 125.234 156.172C125.464 157.424 126.765 158.385 128.005 158.467C128.45 158.5 128.944 158.424 129.558 158.129C131.111 157.396 133.724 155.161 133.296 151.97C133.016 149.91 131.561 148.14 129.536 147.347" stroke="#78797B" stroke-miterlimit="10"/>
<path d="M117.089 290.675C98.1281 290.549 79.1668 290.423 60.2054 290.292C60.3811 281.675 61.2098 271.505 63.3501 260.254C65.2764 250.134 67.8668 241.249 70.5285 233.74C70.7919 234.199 76.7246 244.128 88.4306 244.292C96.0316 244.396 103.122 240.342 106.909 233.74C109.691 241.757 112.408 251.369 114.34 262.374C116.189 272.91 116.925 282.467 117.084 290.669L117.089 290.675Z" fill="#E63E96"/>
<path d="M113.994 260.566C105.537 265.238 97.0798 269.91 88.6227 274.576C80.193 269.882 71.7633 265.194 63.3336 260.5C62.708 263.194 61.7531 267.363 60.6719 272.489C58.4931 282.779 58.2517 285.249 56.4845 288.565C53.3124 294.522 49.2128 295.724 45.4205 299.287C31.7003 312.156 33.9011 344.604 45.4205 350.199C48.2469 351.571 52.1709 351.587 54.9918 349.904C60.5786 346.56 58.3285 339.084 63.6629 324.598C68.3058 311.992 73.1573 309.259 74.5568 308.549C75.83 307.904 81.1973 305.183 85.4012 307.079C98.7208 313.074 83.6395 357.817 99.972 366.199C100.982 366.718 102.974 367.74 105.301 367.259C118.511 364.543 120.272 318.035 117.935 288.735C116.936 276.205 115.141 266.243 113.994 260.571V260.566Z" fill="#50BC81"/>
<path d="M63.9373 257.199C63.4434 259.926 62.9494 262.653 62.45 265.38C71.2474 269.97 80.0448 274.56 88.8477 279.155C88.8532 276.363 88.8641 273.576 88.8696 270.784C80.5607 266.254 72.2462 261.729 63.9373 257.199Z" fill="#595A5C"/>
<path d="M113.401 257.418C113.906 260.134 114.417 262.855 114.922 265.571C106.228 270.096 97.5353 274.626 88.8422 279.15C88.8477 276.358 88.8586 273.571 88.8641 270.779C97.0413 266.325 105.219 261.872 113.396 257.418H113.401Z" fill="#595A5C"/>
<path d="M119.263 214.424C118.231 214.648 114.34 215.626 111.59 219.32C109.384 222.281 109.132 225.342 109.093 226.516C109.258 227.883 109.351 230.123 108.424 232.522C106.75 236.872 103.457 237.287 102.387 240.331C100.318 246.194 109.071 254.5 109.719 254.096C110.229 253.779 106.228 247.811 107.562 246.713C108.901 245.609 114.642 250.183 114.894 249.833C115.053 249.615 112.545 248.178 111.299 245.292C110.498 243.429 110.196 240.904 111.014 240.467C111.629 240.134 113.149 240.855 117.199 245.719C118.802 243.309 121.76 238.156 122.374 230.959C123.055 223.057 120.541 217.025 119.263 214.424Z" fill="#3FBFB6" stroke="#1D733A" stroke-miterlimit="10"/>
<path d="M124.904 182.216C126.869 184.139 132.527 189.67 131.803 196.708C131.314 201.478 128.252 203.473 125.991 212.085C125.744 213.019 125.118 215.571 126.534 218.15C126.721 218.484 128.236 221.249 130.348 221.254C132.615 221.26 133.844 218.079 134.525 218.298C135.326 218.555 134.964 223.44 132.346 224.21C129.13 225.161 124.806 219.221 122.544 220.216C121.43 220.708 121.244 222.691 122.001 224.063C123.379 226.56 127.747 226.801 127.632 227.314C127.517 227.828 122.89 228.505 119.279 226.724C114.076 224.156 113.72 217.839 113.648 216.669C113.198 208.784 119.422 207.424 120.547 198.331C120.909 195.413 121.65 189.385 117.281 185.019C113.16 180.899 106.673 180.44 106.931 178.511C107.106 177.205 110.246 176.249 112.743 176.145C118.467 175.91 122.753 180.101 124.904 182.211V182.216Z" fill="#3FBFB6" stroke="#1D733A" stroke-miterlimit="10"/>
<path d="M84.2596 167.123C87.4043 163.03 93.2875 161.145 97.5298 162.686C102.304 164.424 101.553 169.254 106.733 171.347C111.738 173.369 115.097 169.937 118.044 172.44C120.349 174.396 120.228 178.145 120.108 182.03C120.014 185.019 119.927 187.746 118.132 190.26C115.75 193.593 112.737 193.232 112.287 195.604C111.815 198.101 115.031 199.15 114.954 202.817C114.938 203.544 114.757 206.134 112.633 207.571C110.487 209.019 107.946 208.221 107.595 208.107C112.106 204.522 112.814 202.101 112.518 200.5C112.051 197.965 109.016 197.271 109.093 195.008C109.17 192.724 112.287 192.484 113.802 189.303C115.437 185.861 114.29 180.872 112.035 179.992C109.763 179.112 107.99 183.025 104.555 182.62C100.685 182.167 100.449 176.915 96.6791 175.992C91.6081 174.751 87.514 183.178 84.2651 181.904C81.4003 180.784 80.149 172.484 84.2651 167.118L84.2596 167.123Z" fill="#3FBFB6" stroke="#1D733A" stroke-miterlimit="10"/>
<path d="M66.3246 188.691C68.3168 186.959 69.7107 184.719 69.1619 183.096C68.421 180.904 63.9922 179.374 58.5535 181.292C50.2006 184.997 47.3578 189.216 46.359 192.511C45.0693 196.79 47.0175 199.123 45.0363 204.877C43.1704 210.298 40.3934 211.167 40.8928 214.134C41.6008 218.352 47.5279 218.489 49.6463 223.079C50.733 225.434 51.0842 229.533 46.4138 236.888C53.5703 230.434 54.9478 225.735 54.3551 222.369C53.5538 217.773 48.9823 214.942 50.1183 212.811C51.3696 210.473 57.3022 213.035 59.6237 210.156C61.5664 207.74 59.223 204.538 59.9035 199.511C60.5292 194.893 63.4214 191.303 66.3246 188.697V188.691Z" fill="#3FBFB6" stroke="#1D733A" stroke-miterlimit="10"/>
<path d="M84.2596 181.91C85.1981 180.817 87.8873 177.413 88.1287 172.342C88.3044 168.642 87.0915 165.823 86.4055 164.478C74.2439 160.599 68.9644 162.38 66.385 164.691C63.3995 167.369 64.1349 170.664 59.4974 175.101C55.332 179.085 52.4617 178.609 51.5342 181.478C50.2171 185.549 55.4253 188.336 55.1948 193.38C55.0741 195.965 53.4935 199.768 45.9364 204.216C55.2881 201.697 58.6797 198.134 59.7115 194.866C61.1219 190.413 58.3559 185.839 60.3591 184.456C62.5488 182.937 66.6484 187.888 70.0455 186.369C73.5305 184.812 72.1365 178.303 75.2098 177.019C76.5983 176.44 79.1502 176.817 84.2596 181.91Z" fill="#3FBFB6" stroke="#1D733A" stroke-miterlimit="10"/>
<path d="M55.4966 234.232C54.3167 234.467 51.7867 235.139 49.4213 237.232C46.5017 239.817 45.6565 242.953 45.4095 244.085" fill="#3FBFB6"/>
<path d="M55.4966 234.232C54.3167 234.467 51.7867 235.139 49.4213 237.232C46.5017 239.817 45.6565 242.953 45.4095 244.085" stroke="#1D733A" stroke-miterlimit="10"/>
<path d="M58.2077 238.729C56.7424 239.068 53.4276 240.057 50.6177 243.014C46.1175 247.751 46.5181 253.757 46.6059 254.79" fill="#3FBFB6"/>
<path d="M58.2077 238.729C56.7424 239.068 53.4276 240.057 50.6177 243.014C46.1175 247.751 46.5181 253.757 46.6059 254.79" stroke="#1D733A" stroke-miterlimit="10"/>
<path d="M61.2426 240.975C57.0003 241.893 55.4746 243.549 54.8435 244.828C53.3178 247.926 55.985 250.97 54.4099 254.571C53.455 256.746 51.4573 257.975 50.0743 258.636" fill="#3FBFB6"/>
<path d="M61.2426 240.975C57.0003 241.893 55.4746 243.549 54.8435 244.828C53.3178 247.926 55.985 250.97 54.4099 254.571C53.455 256.746 51.4573 257.975 50.0743 258.636" stroke="#1D733A" stroke-miterlimit="10"/>
<path d="M113.209 224.636C114.06 225.511 116.376 228.123 116.963 232.238C117.49 235.937 116.337 238.8 115.811 239.932" fill="#3FBFB6"/>
<path d="M113.209 224.636C114.06 225.511 116.376 228.123 116.963 232.238C117.49 235.937 116.337 238.8 115.811 239.932" stroke="#1D733A" stroke-miterlimit="10"/>
<path d="M111.096 232.052C110.372 232.822 108.374 235.167 108.111 238.702C107.963 240.691 108.418 242.303 108.786 243.265" fill="#3FBFB6"/>
<path d="M111.096 232.052C110.372 232.822 108.374 235.167 108.111 238.702C107.963 240.691 108.418 242.303 108.786 243.265" stroke="#1D733A" stroke-miterlimit="10"/>
<path d="M104.45 241.079C104.231 241.724 103.869 243.085 104.159 244.784C104.456 246.5 105.274 247.669 105.702 248.205" fill="#3FBFB6"/>
<path d="M104.45 241.079C104.231 241.724 103.869 243.085 104.159 244.784C104.456 246.5 105.274 247.669 105.702 248.205" stroke="#1D733A" stroke-miterlimit="10"/>
<path d="M130.826 228.249C130.93 230.434 130.848 233.161 130.25 236.232C129.196 241.609 127.006 245.669 125.338 248.205" fill="#3FBFB6"/>
<path d="M130.826 228.249C130.93 230.434 130.848 233.161 130.25 236.232C129.196 241.609 127.006 245.669 125.338 248.205" stroke="#1D733A" stroke-miterlimit="10"/>
<path d="M124.762 237.085C123.445 238.675 121.688 241.178 120.432 244.593C118.856 248.855 118.769 252.604 118.889 254.855" fill="#3FBFB6"/>
<path d="M124.762 237.085C123.445 238.675 121.688 241.178 120.432 244.593C118.856 248.855 118.769 252.604 118.889 254.855" stroke="#1D733A" stroke-miterlimit="10"/>
<path d="M83.14 171.298C82.8986 171.079 78.6343 167.385 73.2011 168.937C69.2607 170.063 66.3301 173.489 65.7812 177.631" fill="#3FBFB6"/>
<path d="M83.14 171.298C82.8986 171.079 78.6343 167.385 73.2011 168.937C69.2607 170.063 66.3301 173.489 65.7812 177.631" stroke="#1D733A" stroke-miterlimit="10"/>
<path d="M60.37 179.243C58.1474 179.27 56.1991 180.566 55.4637 182.473C54.6021 184.702 55.8149 186.702 55.9686 186.943" fill="#3FBFB6"/>
<path d="M60.37 179.243C58.1474 179.27 56.1991 180.566 55.4637 182.473C54.6021 184.702 55.8149 186.702 55.9686 186.943" stroke="#1D733A" stroke-miterlimit="10"/>
<path d="M89.9343 175.145C90.0221 174.762 90.9551 171.057 94.2095 169.806C97.5243 168.533 101.953 170.298 104.022 174.402" fill="#3FBFB6"/>
<path d="M89.9343 175.145C90.0221 174.762 90.9551 171.057 94.2095 169.806C97.5243 168.533 101.953 170.298 104.022 174.402" stroke="#1D733A" stroke-miterlimit="10"/>
<path d="M106.667 179.495C106.695 178.959 106.865 176.238 108.682 175.15C110.882 173.828 115.125 175.123 117.616 179.374" fill="#3FBFB6"/>
<path d="M106.667 179.495C106.695 178.959 106.865 176.238 108.682 175.15C110.882 173.828 115.125 175.123 117.616 179.374" stroke="#1D733A" stroke-miterlimit="10"/>
<path d="M123.571 188.107C124.476 189.861 126.721 194.79 125.782 201.205C124.701 208.604 120.102 213.063 118.73 214.303" fill="#3FBFB6"/>
<path d="M123.571 188.107C124.476 189.861 126.721 194.79 125.782 201.205C124.701 208.604 120.102 213.063 118.73 214.303" stroke="#1D733A" stroke-miterlimit="10"/>
<path d="M54.4374 203.549C53.4221 203.833 50.5244 204.801 48.3621 207.648C46.831 209.664 46.37 211.708 46.2108 212.768" fill="#3FBFB6"/>
<path d="M54.4374 203.549C53.4221 203.833 50.5244 204.801 48.3621 207.648C46.831 209.664 46.37 211.708 46.2108 212.768" stroke="#1D733A" stroke-miterlimit="10"/>
<path d="M49.2512 217.669C49.4268 217.735 51.5782 218.593 52.0666 220.817C52.4014 222.352 51.7318 223.571 51.5452 223.888" fill="#3FBFB6"/>
<path d="M49.2512 217.669C49.4268 217.735 51.5782 218.593 52.0666 220.817C52.4014 222.352 51.7318 223.571 51.5452 223.888" stroke="#1D733A" stroke-miterlimit="10"/>
<path d="M42.5777 221.91C42.8631 222.118 45.19 223.904 45.2449 227.03C45.3053 230.358 42.7423 232.271 42.5009 232.445" fill="#3FBFB6"/>
<path d="M42.5777 221.91C42.8631 222.118 45.19 223.904 45.2449 227.03C45.3053 230.358 42.7423 232.271 42.5009 232.445" stroke="#1D733A" stroke-miterlimit="10"/>
<path d="M116.76 166.325C115.053 156.681 113.346 147.036 111.64 137.385C111.162 134.675 110.679 131.888 111.217 129.189C111.755 126.489 113.544 124.713 116.211 123.129C120.591 121.943 123.307 126.44 124.828 131.156C124.899 135.675 122.265 139.741 119.735 143.489C122.654 139.795 125.596 136.063 127.577 131.795C129.558 127.533 130.519 122.626 129.273 118.09C126.501 112.976 121.584 108.413 115.492 106.123C109.516 105.473 104.105 107.44 97.4036 110.954C92.9473 114.358 89.627 119.003 86.5866 123.708C79.8637 134.107 74.0244 146.823 69.4199 158.424C84.7536 163.577 100.581 166.254 116.76 166.314V166.325Z" fill="#50BC81"/>
<path d="M131.819 173.227C130.755 172.724 128.329 171.511 127.423 171.074C120.552 167.773 114.483 164.855 108.918 162.91C103.227 160.921 99.1104 160.375 91.6851 159.238C83.5188 157.992 75.9123 157.517 69.0138 157.517C56.1827 157.937 43.2857 162.599 31.9089 170.97C50.4696 170.358 66.9613 184.26 85.2256 187.429C96.8548 189.445 108.797 187.047 120.618 186.659C132.434 186.276 144.903 188.271 153.87 197.664C149.096 186.445 141.16 177.648 131.814 173.221L131.819 173.227Z" fill="#50BC81"/>
<path d="M232.022 64.5726V109.173C232.003 109.468 231.877 110.929 230.699 112.01C229.773 112.858 228.74 112.976 228.392 113H145.581C145.222 112.946 144.03 112.715 143.056 111.613C142.206 110.651 142.007 109.576 141.953 109.175V64.5726C141.986 64.2378 142.147 62.9007 143.237 61.8443C144.172 60.9382 145.229 60.7818 145.581 60.7458H228.392C228.611 60.7398 230.006 60.7237 231.065 61.9104C232.039 62.999 232.027 64.316 232.022 64.5726Z" fill="white"/>
<path d="M232.999 63.2254V107.826C232.98 108.121 232.855 109.582 231.676 110.663C230.75 111.511 229.717 111.629 229.37 111.653H146.558C146.199 111.599 145.007 111.368 144.033 110.266C143.184 109.303 142.984 108.229 142.931 107.828V63.2254C142.963 62.8906 143.125 61.5536 144.214 60.4971C145.149 59.591 146.207 59.4347 146.558 59.3986H229.37C229.588 59.3926 230.984 59.3765 232.043 60.5633C233.016 61.6518 233.005 62.9688 232.999 63.2254Z" fill="#464646"/>
<path d="M223.139 108.399V62.652L153.496 62.652V108.399H223.139Z" fill="#C6C2C2"/>
<path d="M149.34 80.4891C149.427 80.4891 149.931 80.5012 150.317 80.9362C150.669 81.3291 150.682 81.8002 150.682 81.9044V89.1431C150.682 89.2333 150.661 89.8206 150.199 90.2276C149.849 90.5363 149.458 90.5563 149.34 90.5583H146.621C146.532 90.5583 146.056 90.5483 145.672 90.1434C145.288 89.7384 145.279 89.2373 145.279 89.1431V81.9044C145.279 81.8022 145.292 81.3211 145.653 80.9241C146.039 80.5012 146.534 80.4891 146.621 80.4891H149.34Z" fill="white"/>
<path d="M145.908 18.0313H188.207C188.487 18.0513 189.873 18.1836 190.898 19.4265C191.702 20.4028 191.814 21.4913 191.837 21.8581V109.171C191.785 109.55 191.567 110.807 190.521 111.833C189.609 112.729 188.589 112.94 188.209 112.996H145.908C145.591 112.962 144.322 112.791 143.321 111.643C142.461 110.657 142.313 109.542 142.279 109.171V21.8581C142.273 21.6276 142.258 20.1562 143.383 19.0396C144.416 18.0133 145.665 18.0253 145.908 18.0313Z" fill="white"/>
<path d="M144.63 17.001H186.932C187.211 17.021 188.597 17.1533 189.622 18.3962C190.426 19.3724 190.538 20.461 190.561 20.8278V108.143C190.51 108.522 190.291 109.779 189.245 110.805C188.333 111.701 187.314 111.911 186.933 111.968H144.63C144.313 111.934 143.045 111.763 142.043 110.615C141.185 109.628 141.037 108.514 141.001 108.143V20.8278C140.995 20.5973 140.98 19.1259 142.106 18.0093C143.138 16.985 144.387 16.995 144.63 17.001Z" fill="#464646"/>
<path d="M187.475 27.3969H144.087V100.826H187.475V27.3969Z" fill="#C6C2C2"/>
<path d="M161.004 105.21C161.004 105.118 161.015 104.587 161.428 104.18C161.801 103.809 162.248 103.795 162.346 103.795H169.212C169.297 103.795 169.854 103.817 170.24 104.304C170.533 104.673 170.552 105.086 170.554 105.21V108.077C170.554 108.171 170.545 108.672 170.161 109.077C169.776 109.482 169.301 109.492 169.212 109.492H162.346C162.249 109.492 161.793 109.478 161.417 109.097C161.015 108.69 161.004 108.169 161.004 108.077V105.21Z" fill="white"/>
<path d="M209.779 53.1442C209.771 53.2404 209.73 54.0262 210.319 54.5915C210.984 55.231 211.844 55.0005 211.903 54.9844C213.84 54.7359 215.779 54.4893 217.717 54.2407C218.441 53.9921 218.926 53.2725 218.905 52.4867C218.882 51.6588 218.304 50.9411 217.515 50.7807C217.036 50.7607 216.557 50.7387 216.076 50.7186C216.462 50.3518 220.561 46.3265 219.848 40.3227C219.308 35.7822 216.23 31.9173 211.965 30.4279C211.671 30.3277 205.927 28.5015 201.33 32.7392C196.672 37.0351 197.71 43.3937 197.761 43.6764C198.117 44.4843 198.898 44.9794 199.706 44.9152C200.619 44.8431 201.389 44.0713 201.518 43.063C201.267 39.6411 202.798 36.4818 205.393 35.0265C207.986 33.5711 210.557 34.4251 210.979 34.5734C213.739 35.5417 216.26 38.4383 216.101 41.9584C215.935 45.5968 213.011 47.6435 212.686 47.864C212.557 47.3368 212.427 46.8096 212.298 46.2844C212.275 46.2383 211.796 45.3021 210.846 45.242C210.055 45.1919 209.285 45.7752 209.034 46.6693C209.281 48.8283 209.528 50.9852 209.775 53.1442H209.779Z" fill="white"/>
<path d="M210.469 53.529C210.462 53.6252 210.42 54.411 211.009 54.9763C211.675 55.6158 212.534 55.3852 212.593 55.3692C214.53 55.1206 216.47 54.8741 218.407 54.6255C219.131 54.3769 219.616 53.6573 219.595 52.8714C219.572 52.0435 218.994 51.3259 218.205 51.1655C217.726 51.1455 217.247 51.1234 216.766 51.1034C217.152 50.7365 221.251 46.7113 220.538 40.7074C219.998 36.167 216.92 32.3021 212.656 30.8127C212.361 30.7124 206.617 28.8862 202.02 33.124C197.362 37.4199 198.4 43.7785 198.451 44.0612C198.807 44.869 199.588 45.3642 200.396 45.3C201.309 45.2278 202.079 44.4561 202.208 43.4477C201.957 40.0259 203.488 36.8666 206.083 35.4112C208.676 33.9559 211.247 34.8099 211.669 34.9582C214.429 35.9264 216.951 38.8231 216.791 42.3432C216.625 45.9816 213.701 48.0283 213.376 48.2488C213.247 47.7216 213.118 47.1944 212.988 46.6692C212.965 46.6231 212.486 45.6869 211.536 45.6268C210.745 45.5766 209.975 46.16 209.724 47.0541C209.971 49.213 210.218 51.37 210.465 53.529H210.469Z" fill="#464646"/>
</svg>
