<svg width="180" height="181" viewBox="0 0 180 181" fill="none" xmlns="http://www.w3.org/2000/svg">
<path d="M89.91 179.82C139.566 179.82 179.82 139.566 179.82 89.91C179.82 40.2541 139.566 0 89.91 0C40.2541 0 0 40.2541 0 89.91C0 139.566 40.2541 179.82 89.91 179.82Z" fill="#595A5C"/>
<path d="M60.5801 174.93C60.5801 174.93 89.9101 188.41 119.24 174.93C119.24 174.93 89.9101 185.87 60.5801 174.93Z" fill="#818285"/>
<path d="M53.8198 116.34C53.8198 116.34 56.8598 115.81 60.1798 116.34L58.3098 114.8C58.3098 114.8 54.3698 115.25 53.8198 116.34Z" fill="#60C8D4"/>
<path d="M38.0796 81.3698C38.0796 81.3698 38.9496 85.2998 48.5696 88.9098C48.5696 88.9098 54.4696 91.6398 56.8796 79.5098C56.8796 79.5098 48.0296 80.1698 38.5196 70.5498C38.5196 70.5498 38.2496 77.5998 51.3596 83.0098C51.3596 83.0098 52.1296 83.6698 51.3096 84.1598C51.3096 84.1598 43.7696 85.1998 38.0896 81.3698H38.0796Z" fill="#60C8D4"/>
<path d="M60.5099 116.34C67.2091 116.34 72.6399 107.842 72.6399 97.3599C72.6399 86.8775 67.2091 78.3799 60.5099 78.3799C53.8107 78.3799 48.3799 86.8775 48.3799 97.3599C48.3799 107.842 53.8107 116.34 60.5099 116.34Z" fill="white"/>
<path d="M142.16 81.3698C142.16 81.3698 141.29 85.2998 131.67 88.9098C131.67 88.9098 125.77 91.6398 123.36 79.5098C123.36 79.5098 132.21 80.1698 141.72 70.5498C141.72 70.5498 141.99 77.5998 128.88 83.0098C128.88 83.0098 128.11 83.6698 128.93 84.1598C128.93 84.1598 136.47 85.1998 142.15 81.3698H142.16Z" fill="#60C8D4"/>
<path d="M126.92 116.34C126.92 116.34 123.88 115.81 120.56 116.34L122.43 114.8C122.43 114.8 126.37 115.25 126.92 116.34Z" fill="#60C8D4"/>
<path d="M119.72 116.34C126.419 116.34 131.85 107.842 131.85 97.3599C131.85 86.8775 126.419 78.3799 119.72 78.3799C113.021 78.3799 107.59 86.8775 107.59 97.3599C107.59 107.842 113.021 116.34 119.72 116.34Z" fill="white"/>
<path d="M60.77 116.34C66.0278 116.34 70.29 109.544 70.29 101.16C70.29 92.7763 66.0278 85.98 60.77 85.98C55.5122 85.98 51.25 92.7763 51.25 101.16C51.25 109.544 55.5122 116.34 60.77 116.34Z" fill="#231F20"/>
<path d="M55.0496 93.52C56.3807 93.52 57.4596 91.8321 57.4596 89.75C57.4596 87.6679 56.3807 85.98 55.0496 85.98C53.7186 85.98 52.6396 87.6679 52.6396 89.75C52.6396 91.8321 53.7186 93.52 55.0496 93.52Z" fill="white"/>
<path d="M119.65 116.34C124.985 116.34 129.31 109.544 129.31 101.16C129.31 92.7763 124.985 85.98 119.65 85.98C114.315 85.98 109.99 92.7763 109.99 101.16C109.99 109.544 114.315 116.34 119.65 116.34Z" fill="#231F20"/>
<path d="M114.59 93.52C115.921 93.52 117 91.8321 117 89.75C117 87.6679 115.921 85.98 114.59 85.98C113.259 85.98 112.18 87.6679 112.18 89.75C112.18 91.8321 113.259 93.52 114.59 93.52Z" fill="white"/>
<path opacity="0.57" d="M49.2898 131.42C55.4865 131.42 60.5098 130.095 60.5098 128.46C60.5098 126.825 55.4865 125.5 49.2898 125.5C43.0932 125.5 38.0698 126.825 38.0698 128.46C38.0698 130.095 43.0932 131.42 49.2898 131.42Z" fill="#F7B1C4"/>
<path opacity="0.57" d="M133.74 131.42C139.937 131.42 144.96 130.095 144.96 128.46C144.96 126.825 139.937 125.5 133.74 125.5C127.543 125.5 122.52 126.825 122.52 128.46C122.52 130.095 127.543 131.42 133.74 131.42Z" fill="#F7B1C4"/>
<path d="M78.23 137.9C78.16 150.2 85.35 158.31 90.36 158.15C95.36 157.99 102 149.5 101.23 137.3" stroke="#818285" stroke-width="2" stroke-miterlimit="10"/>
</svg>
