<svg width="181" height="182" viewBox="0 0 181 182" fill="none" xmlns="http://www.w3.org/2000/svg">
<g clip-path="url(#clip0_1049_8733)">
<path d="M90.06 180.12C139.799 180.12 180.12 139.799 180.12 90.06C180.12 40.3212 139.799 0 90.06 0C40.3212 0 0 40.3212 0 90.06C0 139.799 40.3212 180.12 90.06 180.12Z" fill="#595A5C"/>
<path d="M60.6802 175.21C60.6802 175.21 90.0602 188.72 119.43 175.21C119.43 175.21 90.0502 186.17 60.6802 175.21Z" fill="#818285"/>
<path d="M90.2599 163.32C115.61 163.32 136.16 144.064 136.16 120.31C136.16 96.556 115.61 77.2998 90.2599 77.2998C64.91 77.2998 44.3599 96.556 44.3599 120.31C44.3599 144.064 64.91 163.32 90.2599 163.32Z" fill="#818285"/>
<path d="M46.77 82.8505C47.41 81.4705 48.2 80.9005 48.75 80.6405C51.44 79.3605 56.04 81.7105 59.77 86.9005C59.42 86.1605 56.27 79.7605 52.4 79.0805C51.45 78.9105 50.62 79.1005 50.62 79.1005C48.16 79.6605 47.01 82.2805 46.77 82.8505Z" fill="#818285"/>
<path d="M62.5498 172.88C66.8198 171.91 71.3998 170.69 76.2398 169.13C81.8498 167.32 86.9498 165.33 91.4898 163.33C88.0898 165.64 83.0698 168.51 76.5198 170.51C71.0798 172.17 66.2398 172.73 62.5498 172.88Z" fill="#818285"/>
<path d="M122.15 85.4704C124.06 85.0204 125.96 85.7104 126.88 87.1304C127.7 88.4004 127.45 89.8004 127.37 90.1604C127.5 89.8904 128.2 88.4204 127.57 87.0704C126.83 85.4804 124.5 84.6004 122.15 85.4704Z" fill="#818285"/>
<path d="M46.7698 82.8496C46.5698 86.8696 46.4898 91.1096 46.5598 95.5496C46.5998 98.2896 46.7098 100.95 46.8598 103.52C45.7498 106.13 44.1198 110.04 42.2098 114.8C36.2698 129.63 35.6998 132.67 35.4198 134.57C34.1398 143.34 35.7898 150.03 36.1598 151.46C37.8398 157.94 40.8098 162.66 42.8698 165.43C40.9798 163.46 38.2298 160.15 36.1598 155.44C31.8998 145.75 33.4298 136.8 34.0198 133.61C34.6398 130.26 36.5598 125.95 40.1398 117.38C42.6598 111.34 44.9498 106.43 46.5498 103.09C46.1898 100.73 45.9298 98.0996 45.8498 95.2196C45.7298 90.4896 46.1598 86.3096 46.7598 82.8596L46.7698 82.8496Z" fill="#818285"/>
<path d="M53.5701 74.4699C53.5701 74.4699 56.6301 73.9299 59.9601 74.4699L58.0801 72.9199C58.0801 72.9199 54.1201 73.3799 53.5601 74.4699H53.5701Z" fill="#60C8D4"/>
<path d="M37.7402 39.2997C37.7402 39.2997 38.6202 43.2597 48.2902 46.8897C48.2902 46.8897 54.2302 49.6397 56.6402 37.4397C56.6402 37.4397 47.7402 38.0997 38.1702 28.4297C38.1702 28.4297 37.9002 35.5197 51.0902 40.9597C51.0902 40.9597 51.8602 41.6197 51.0402 42.1097C51.0402 42.1097 43.4502 43.1497 37.7402 39.3097V39.2997Z" fill="#60C8D4"/>
<path d="M60.3104 74.47C67.0482 74.47 72.5104 65.9232 72.5104 55.38C72.5104 44.8369 67.0482 36.29 60.3104 36.29C53.5725 36.29 48.1104 44.8369 48.1104 55.38C48.1104 65.9232 53.5725 74.47 60.3104 74.47Z" fill="white"/>
<path d="M142.42 39.2997C142.42 39.2997 141.54 43.2597 131.87 46.8897C131.87 46.8897 125.93 49.6397 123.52 37.4397C123.52 37.4397 132.42 38.0997 141.99 28.4297C141.99 28.4297 142.26 35.5197 129.07 40.9597C129.07 40.9597 128.3 41.6197 129.12 42.1097C129.12 42.1097 136.71 43.1497 142.42 39.3097V39.2997Z" fill="#60C8D4"/>
<path d="M127.1 74.4699C127.1 74.4699 124.04 73.9299 120.71 74.4699L122.59 72.9199C122.59 72.9199 126.55 73.3799 127.11 74.4699H127.1Z" fill="#60C8D4"/>
<path d="M119.86 74.47C126.598 74.47 132.06 65.9232 132.06 55.38C132.06 44.8369 126.598 36.29 119.86 36.29C113.122 36.29 107.66 44.8369 107.66 55.38C107.66 65.9232 113.122 74.47 119.86 74.47Z" fill="white"/>
<path d="M60.5602 74.4697C65.8456 74.4697 70.1302 67.6331 70.1302 59.1997C70.1302 50.7663 65.8456 43.9297 60.5602 43.9297C55.2749 43.9297 50.9902 50.7663 50.9902 59.1997C50.9902 67.6331 55.2749 74.4697 60.5602 74.4697Z" fill="#231F20"/>
<path d="M53.8101 54.5195C55.1467 54.5195 56.2301 52.8226 56.2301 50.7295C56.2301 48.6363 55.1467 46.9395 53.8101 46.9395C52.4736 46.9395 51.3901 48.6363 51.3901 50.7295C51.3901 52.8226 52.4736 54.5195 53.8101 54.5195Z" fill="white"/>
<path d="M119.79 74.4697C125.153 74.4697 129.5 67.6331 129.5 59.1997C129.5 50.7663 125.153 43.9297 119.79 43.9297C114.427 43.9297 110.08 50.7663 110.08 59.1997C110.08 67.6331 114.427 74.4697 119.79 74.4697Z" fill="#231F20"/>
<path d="M113.7 54.5195C115.037 54.5195 116.12 52.8226 116.12 50.7295C116.12 48.6363 115.037 46.9395 113.7 46.9395C112.364 46.9395 111.28 48.6363 111.28 50.7295C111.28 52.8226 112.364 54.5195 113.7 54.5195Z" fill="white"/>
<path opacity="0.57" d="M49.0202 89.6294C55.25 89.6294 60.3002 88.2997 60.3002 86.6595C60.3002 85.0192 55.25 83.6895 49.0202 83.6895C42.7905 83.6895 37.7402 85.0192 37.7402 86.6595C37.7402 88.2997 42.7905 89.6294 49.0202 89.6294Z" fill="#F7B1C4"/>
<path opacity="0.57" d="M133.96 89.6294C140.19 89.6294 145.24 88.2997 145.24 86.6595C145.24 85.0192 140.19 83.6895 133.96 83.6895C127.73 83.6895 122.68 85.0192 122.68 86.6595C122.68 88.2997 127.73 89.6294 133.96 89.6294Z" fill="#F7B1C4"/>
<path d="M48.1401 51.2798C46.9701 41.4898 54.1801 34.1798 60.2101 34.1398C66.3301 34.0998 73.7601 41.5398 72.4401 51.5198C64.3401 51.4398 56.2401 51.3598 48.1401 51.2798Z" fill="#818285"/>
<path d="M107.26 51.2798C106.05 41.4898 113.51 34.1798 119.76 34.1398C126.1 34.0998 133.79 41.5398 132.42 51.5198C124.03 51.4398 115.65 51.3598 107.26 51.2798Z" fill="#818285"/>
<path d="M44.8498 166.96C31.3898 155.83 34.6598 134.88 34.8898 133.55C38.7798 123.53 42.6598 113.52 46.5498 103.5V103.08L46.7398 85.7702L46.7698 82.8402C47.0698 82.2302 48.4298 79.6202 50.9498 79.0902C55.1598 78.2002 59.0398 85.5002 59.5098 86.3602C65.4898 97.3602 58.5998 108.43 61.5598 110.23C67.2198 113.69 93.4298 73.6802 104.98 78.6802C105.33 78.8302 107.07 79.5802 107.66 81.2402C110.48 89.1802 81.9598 104.17 84.6098 109.76C84.8998 110.37 85.4598 110.65 85.7698 110.81C89.4398 112.63 95.2798 105.76 107.42 95.5602C118.46 86.2902 123 84.1002 125.93 85.5502C126.27 85.7202 127.13 86.1402 127.56 87.0602C129.59 91.3802 119.34 100.15 113.82 104.87C102.07 114.93 92.6998 119.51 93.7998 122.68C94.0998 123.54 95.0398 123.92 95.4298 124.08C98.9898 125.51 103.02 120.26 110.8 114.53C114.37 111.9 125.73 103.54 130.12 106.73C131.32 107.6 131.57 109.02 131.59 109.12C132.1 112.32 127.93 115.45 114.76 124.07C105.04 130.43 99.8498 133.61 100.44 136.53C100.58 137.21 101.04 137.94 101.72 138.28C103.75 139.29 106.52 136.19 111.03 133.16C112.56 132.13 122.44 125.51 126.28 128.39C127.65 129.42 127.78 131.3 127.79 131.53C128 135.33 123.12 138.12 116.73 142.47C113.12 144.93 108.06 148.54 102.13 153.37C99.7598 156.38 96.0298 160.41 90.6198 163.9C80.4898 170.43 58.9498 178.63 44.8398 166.95L44.8498 166.96Z" fill="#595A5C"/>
</g>
<defs>
<clipPath id="clip0_1049_8733">
<rect width="180.11" height="181.21" fill="white"/>
</clipPath>
</defs>
</svg>
