<svg width="205" height="181" viewBox="0 0 205 181" fill="none" xmlns="http://www.w3.org/2000/svg">
<path d="M104.601 179.82C154.257 179.82 194.511 139.566 194.511 89.91C194.511 40.2541 154.257 0 104.601 0C54.945 0 14.6909 40.2541 14.6909 89.91C14.6909 139.566 54.945 179.82 104.601 179.82Z" fill="#595A5C"/>
<path d="M75.271 174.93C75.271 174.93 104.601 188.41 133.931 174.93C133.931 174.93 104.601 185.87 75.271 174.93Z" fill="#818285"/>
<path d="M71.5107 133.77C71.5107 133.77 97.7007 142.64 138.111 133.77C138.111 133.77 122.731 157.9 104.811 157.47C104.811 157.47 85.1607 158.01 71.5107 133.77Z" fill="white"/>
<path d="M90.0508 0.149875C89.8408 -1.01013 0.310778 9.27987 0.000778152 25.7299C-0.239222 38.7099 55.0808 53.4799 105.061 53.1799C151.951 52.8899 204.681 39.2599 204.521 26.7499C204.301 10.3499 113.131 0.0998748 113.131 0.149875C113.131 0.189875 184.851 8.73987 184.911 21.6699C184.961 31.7999 141.051 41.7099 104.131 42.5099C65.4008 43.3499 20.3008 34.4599 20.0808 24.2099C19.8108 11.3599 90.2508 1.17987 90.0508 0.149875Z" fill="#4DC6DE"/>
<path d="M68.2908 115.19C68.2908 115.19 71.3508 114.65 74.6808 115.19L72.8008 113.64C72.8008 113.64 68.8408 114.1 68.2808 115.19H68.2908Z" fill="#60C8D4"/>
<path d="M52.4609 80.0199C52.4609 80.0199 53.3409 83.9799 63.0109 87.6099C63.0109 87.6099 68.9509 90.3599 71.3609 78.1599C71.3609 78.1599 62.4609 78.8199 52.8909 69.1499C52.8909 69.1499 52.6209 76.2399 65.8109 81.6799C65.8109 81.6799 66.5809 82.3399 65.7609 82.8299C65.7609 82.8299 58.1709 83.8699 52.4609 80.0299V80.0199Z" fill="#60C8D4"/>
<path d="M75.0208 115.19C81.7587 115.19 87.2208 106.643 87.2208 96.0998C87.2208 85.5566 81.7587 77.0098 75.0208 77.0098C68.2829 77.0098 62.8208 85.5566 62.8208 96.0998C62.8208 106.643 68.2829 115.19 75.0208 115.19Z" fill="white"/>
<path d="M157.141 80.0199C157.141 80.0199 156.261 83.9799 146.591 87.6099C146.591 87.6099 140.651 90.3599 138.241 78.1599C138.241 78.1599 147.141 78.8199 156.711 69.1499C156.711 69.1499 156.981 76.2399 143.791 81.6799C143.791 81.6799 143.021 82.3399 143.841 82.8299C143.841 82.8299 151.431 83.8699 157.141 80.0299V80.0199Z" fill="#60C8D4"/>
<path d="M141.821 115.19C141.821 115.19 138.761 114.65 135.431 115.19L137.311 113.64C137.311 113.64 141.271 114.1 141.831 115.19H141.821Z" fill="#60C8D4"/>
<path d="M134.581 115.19C141.319 115.19 146.781 106.643 146.781 96.0998C146.781 85.5566 141.319 77.0098 134.581 77.0098C127.843 77.0098 122.381 85.5566 122.381 96.0998C122.381 106.643 127.843 115.19 134.581 115.19Z" fill="white"/>
<path d="M75.2809 115.19C80.5663 115.19 84.8509 108.353 84.8509 99.9199C84.8509 91.4865 80.5663 84.6499 75.2809 84.6499C69.9956 84.6499 65.7109 91.4865 65.7109 99.9199C65.7109 108.353 69.9956 115.19 75.2809 115.19Z" fill="#231F20"/>
<path d="M69.5308 92.2397C70.8674 92.2397 71.9508 90.5428 71.9508 88.4497C71.9508 86.3565 70.8674 84.6597 69.5308 84.6597C68.1943 84.6597 67.1108 86.3565 67.1108 88.4497C67.1108 90.5428 68.1943 92.2397 69.5308 92.2397Z" fill="white"/>
<path d="M134.511 115.19C139.873 115.19 144.221 108.353 144.221 99.9199C144.221 91.4865 139.873 84.6499 134.511 84.6499C129.148 84.6499 124.801 91.4865 124.801 99.9199C124.801 108.353 129.148 115.19 134.511 115.19Z" fill="#231F20"/>
<path d="M129.421 92.2397C130.758 92.2397 131.841 90.5428 131.841 88.4497C131.841 86.3565 130.758 84.6597 129.421 84.6597C128.084 84.6597 127.001 86.3565 127.001 88.4497C127.001 90.5428 128.084 92.2397 129.421 92.2397Z" fill="white"/>
<path opacity="0.57" d="M63.7409 130.35C69.9707 130.35 75.0209 129.02 75.0209 127.38C75.0209 125.739 69.9707 124.41 63.7409 124.41C57.5112 124.41 52.4609 125.739 52.4609 127.38C52.4609 129.02 57.5112 130.35 63.7409 130.35Z" fill="#F7B1C4"/>
<path opacity="0.57" d="M148.681 130.35C154.911 130.35 159.961 129.02 159.961 127.38C159.961 125.739 154.911 124.41 148.681 124.41C142.451 124.41 137.401 125.739 137.401 127.38C137.401 129.02 142.451 130.35 148.681 130.35Z" fill="#F7B1C4"/>
</svg>
