<svg width="181" height="182" viewBox="0 0 181 182" fill="none" xmlns="http://www.w3.org/2000/svg">
<path d="M90.42 180.84C140.358 180.84 180.84 140.358 180.84 90.42C180.84 40.4824 140.358 0 90.42 0C40.4824 0 0 40.4824 0 90.42C0 140.358 40.4824 180.84 90.42 180.84Z" fill="#595A5C"/>
<path d="M60.9199 175.92C60.9199 175.92 90.4199 189.48 119.91 175.92C119.91 175.92 90.4099 186.92 60.9199 175.92Z" fill="#818285"/>
<path d="M69.5 160.6C72.43 156.67 76.78 151.88 83 147.73C99.2 136.9 116.56 138.08 122.62 138.79" stroke="#818285" stroke-width="2" stroke-miterlimit="10"/>
<path d="M53.99 115.85C53.99 115.85 57.05 115.31 60.38 115.85L58.5 114.3C58.5 114.3 54.54 114.76 53.98 115.85H53.99Z" fill="#60C8D4"/>
<path d="M38.1602 80.6801C38.1602 80.6801 39.0402 84.6401 48.7102 88.2701C48.7102 88.2701 54.6502 91.0201 57.0602 78.8201C57.0602 78.8201 48.1602 79.4801 38.5902 69.8101C38.5902 69.8101 38.3202 76.9001 51.5102 82.3401C51.5102 82.3401 52.2802 83.0001 51.4602 83.4901C51.4602 83.4901 43.8702 84.5301 38.1602 80.6901V80.6801Z" fill="#60C8D4"/>
<path d="M60.7303 115.85C67.4681 115.85 72.9303 107.303 72.9303 96.7599C72.9303 86.2168 67.4681 77.6699 60.7303 77.6699C53.9924 77.6699 48.5303 86.2168 48.5303 96.7599C48.5303 107.303 53.9924 115.85 60.7303 115.85Z" fill="white"/>
<path d="M142.84 80.6801C142.84 80.6801 141.96 84.6401 132.29 88.2701C132.29 88.2701 126.35 91.0201 123.94 78.8201C123.94 78.8201 132.84 79.4801 142.41 69.8101C142.41 69.8101 142.68 76.9001 129.49 82.3401C129.49 82.3401 128.72 83.0001 129.54 83.4901C129.54 83.4901 137.13 84.5301 142.84 80.6901V80.6801Z" fill="#60C8D4"/>
<path d="M127.52 115.85C127.52 115.85 124.46 115.31 121.13 115.85L123.01 114.3C123.01 114.3 126.97 114.76 127.53 115.85H127.52Z" fill="#60C8D4"/>
<path d="M120.28 115.85C127.018 115.85 132.48 107.303 132.48 96.7599C132.48 86.2168 127.018 77.6699 120.28 77.6699C113.542 77.6699 108.08 86.2168 108.08 96.7599C108.08 107.303 113.542 115.85 120.28 115.85Z" fill="white"/>
<path d="M60.9802 115.85C66.2655 115.85 70.5502 109.013 70.5502 100.58C70.5502 92.1467 66.2655 85.3101 60.9802 85.3101C55.6948 85.3101 51.4102 92.1467 51.4102 100.58C51.4102 109.013 55.6948 115.85 60.9802 115.85Z" fill="#231F20"/>
<path d="M55.2301 92.8998C56.5666 92.8998 57.6501 91.203 57.6501 89.1098C57.6501 87.0167 56.5666 85.3198 55.2301 85.3198C53.8935 85.3198 52.8101 87.0167 52.8101 89.1098C52.8101 91.203 53.8935 92.8998 55.2301 92.8998Z" fill="white"/>
<path d="M120.21 115.85C125.573 115.85 129.92 109.013 129.92 100.58C129.92 92.1467 125.573 85.3101 120.21 85.3101C114.847 85.3101 110.5 92.1467 110.5 100.58C110.5 109.013 114.847 115.85 120.21 115.85Z" fill="#231F20"/>
<path d="M115.12 92.8998C116.457 92.8998 117.54 91.203 117.54 89.1098C117.54 87.0167 116.457 85.3198 115.12 85.3198C113.784 85.3198 112.7 87.0167 112.7 89.1098C112.7 91.203 113.784 92.8998 115.12 92.8998Z" fill="white"/>
<path opacity="0.57" d="M49.4402 131.01C55.6699 131.01 60.7202 129.68 60.7202 128.04C60.7202 126.4 55.6699 125.07 49.4402 125.07C43.2104 125.07 38.1602 126.4 38.1602 128.04C38.1602 129.68 43.2104 131.01 49.4402 131.01Z" fill="#F7B1C4"/>
<path opacity="0.57" d="M134.38 131.01C140.61 131.01 145.66 129.68 145.66 128.04C145.66 126.4 140.61 125.07 134.38 125.07C128.15 125.07 123.1 126.4 123.1 128.04C123.1 129.68 128.15 131.01 134.38 131.01Z" fill="#F7B1C4"/>
</svg>
