<svg width="180" height="181" viewBox="0 0 180 181" fill="none" xmlns="http://www.w3.org/2000/svg">
<path d="M89.91 179.82C139.566 179.82 179.82 139.566 179.82 89.91C179.82 40.2541 139.566 0 89.91 0C40.2541 0 0 40.2541 0 89.91C0 139.566 40.2541 179.82 89.91 179.82Z" fill="#595A5C"/>
<path d="M60.5801 174.93C60.5801 174.93 89.9101 188.41 119.24 174.93C119.24 174.93 89.9101 185.87 60.5801 174.93Z" fill="#818285"/>
<path d="M77.4202 139.12C74.4702 151.28 78.3702 161.74 85.3002 164.79C89.8202 166.78 94.3202 165.03 94.9302 164.79C102.26 161.82 106.73 151.69 104.85 139.7C102.28 131.86 94.7102 127.41 87.9702 128.82C83.0602 129.85 79.0402 133.88 77.4302 139.12H77.4202Z" fill="#818285"/>
<path d="M89.9704 152.9C86.3304 152.92 81.7204 154.99 81.6204 157.71C81.5304 160.11 84.9304 163.04 90.1204 163.66C95.2204 163.29 98.7204 160.53 98.7604 158.14C98.8104 155.28 93.9304 152.88 89.9804 152.9H89.9704Z" fill="#595A5C"/>
<path d="M54.4197 116.24C54.4197 116.24 57.4797 115.7 60.8097 116.24L58.9297 114.69C58.9297 114.69 54.9697 115.15 54.4097 116.24H54.4197Z" fill="#60C8D4"/>
<path d="M38.5898 81.0702C38.5898 81.0702 39.4698 85.0302 49.1398 88.6602C49.1398 88.6602 55.0798 91.4102 57.4898 79.2102C57.4898 79.2102 48.5898 79.8702 39.0198 70.2002C39.0198 70.2002 38.7498 77.2902 51.9398 82.7302C51.9398 82.7302 52.7098 83.3902 51.8898 83.8802C51.8898 83.8802 44.2998 84.9202 38.5898 81.0802V81.0702Z" fill="#60C8D4"/>
<path d="M61.1497 116.24C67.8876 116.24 73.3497 107.693 73.3497 97.1501C73.3497 86.6069 67.8876 78.0601 61.1497 78.0601C54.4118 78.0601 48.9497 86.6069 48.9497 97.1501C48.9497 107.693 54.4118 116.24 61.1497 116.24Z" fill="white"/>
<path d="M143.27 81.0702C143.27 81.0702 142.39 85.0302 132.72 88.6602C132.72 88.6602 126.78 91.4102 124.37 79.2102C124.37 79.2102 133.27 79.8702 142.84 70.2002C142.84 70.2002 143.11 77.2902 129.92 82.7302C129.92 82.7302 129.15 83.3902 129.97 83.8802C129.97 83.8802 137.56 84.9202 143.27 81.0802V81.0702Z" fill="#60C8D4"/>
<path d="M127.95 116.24C127.95 116.24 124.89 115.7 121.56 116.24L123.44 114.69C123.44 114.69 127.4 115.15 127.96 116.24H127.95Z" fill="#60C8D4"/>
<path d="M120.71 116.24C127.448 116.24 132.91 107.693 132.91 97.1501C132.91 86.6069 127.448 78.0601 120.71 78.0601C113.972 78.0601 108.51 86.6069 108.51 97.1501C108.51 107.693 113.972 116.24 120.71 116.24Z" fill="white"/>
<path d="M61.4098 116.24C66.6952 116.24 70.9798 109.404 70.9798 100.97C70.9798 92.5368 66.6952 85.7002 61.4098 85.7002C56.1245 85.7002 51.8398 92.5368 51.8398 100.97C51.8398 109.404 56.1245 116.24 61.4098 116.24Z" fill="#231F20"/>
<path d="M55.6597 93.29C56.9963 93.29 58.0797 91.5931 58.0797 89.5C58.0797 87.4068 56.9963 85.71 55.6597 85.71C54.3232 85.71 53.2397 87.4068 53.2397 89.5C53.2397 91.5931 54.3232 93.29 55.6597 93.29Z" fill="white"/>
<path d="M120.64 116.24C126.002 116.24 130.35 109.404 130.35 100.97C130.35 92.5368 126.002 85.7002 120.64 85.7002C115.277 85.7002 110.93 92.5368 110.93 100.97C110.93 109.404 115.277 116.24 120.64 116.24Z" fill="#231F20"/>
<path d="M115.55 93.29C116.886 93.29 117.97 91.5931 117.97 89.5C117.97 87.4068 116.886 85.71 115.55 85.71C114.213 85.71 113.13 87.4068 113.13 89.5C113.13 91.5931 114.213 93.29 115.55 93.29Z" fill="white"/>
<path opacity="0.57" d="M49.8698 131.4C56.0996 131.4 61.1498 130.07 61.1498 128.43C61.1498 126.79 56.0996 125.46 49.8698 125.46C43.6401 125.46 38.5898 126.79 38.5898 128.43C38.5898 130.07 43.6401 131.4 49.8698 131.4Z" fill="#F7B1C4"/>
<path opacity="0.57" d="M134.81 131.4C141.04 131.4 146.09 130.07 146.09 128.43C146.09 126.79 141.04 125.46 134.81 125.46C128.58 125.46 123.53 126.79 123.53 128.43C123.53 130.07 128.58 131.4 134.81 131.4Z" fill="#F7B1C4"/>
</svg>
