<svg width="180" height="181" viewBox="0 0 180 181" fill="none" xmlns="http://www.w3.org/2000/svg">
<path d="M89.91 179.82C139.566 179.82 179.82 139.566 179.82 89.91C179.82 40.2541 139.566 0 89.91 0C40.2541 0 0 40.2541 0 89.91C0 139.566 40.2541 179.82 89.91 179.82Z" fill="#595A5C"/>
<path d="M60.5801 174.93C60.5801 174.93 89.9101 188.41 119.24 174.93C119.24 174.93 89.9101 185.87 60.5801 174.93Z" fill="#818285"/>
<path d="M53.7898 116.06C53.7898 116.06 56.8498 115.52 60.1798 116.06L58.2998 114.51C58.2998 114.51 54.3398 114.97 53.7798 116.06H53.7898Z" fill="#60C8D4"/>
<path d="M37.96 80.89C37.96 80.89 38.84 84.85 48.51 88.48C48.51 88.48 54.45 91.23 56.86 79.03C56.86 79.03 47.96 79.69 38.39 70.02C38.39 70.02 38.12 77.11 51.31 82.55C51.31 82.55 52.08 83.21 51.26 83.7C51.26 83.7 43.67 84.74 37.96 80.9V80.89Z" fill="#60C8D4"/>
<path d="M60.5198 116.06C67.2577 116.06 72.7198 107.513 72.7198 96.9699C72.7198 86.4268 67.2577 77.8799 60.5198 77.8799C53.782 77.8799 48.3198 86.4268 48.3198 96.9699C48.3198 107.513 53.782 116.06 60.5198 116.06Z" fill="white"/>
<path d="M142.64 80.89C142.64 80.89 141.76 84.85 132.09 88.48C132.09 88.48 126.15 91.23 123.74 79.03C123.74 79.03 132.64 79.69 142.21 70.02C142.21 70.02 142.48 77.11 129.29 82.55C129.29 82.55 128.52 83.21 129.34 83.7C129.34 83.7 136.93 84.74 142.64 80.9V80.89Z" fill="#60C8D4"/>
<path d="M127.32 116.06C127.32 116.06 124.26 115.52 120.93 116.06L122.81 114.51C122.81 114.51 126.77 114.97 127.33 116.06H127.32Z" fill="#60C8D4"/>
<path d="M120.07 116.06C126.808 116.06 132.27 107.513 132.27 96.9699C132.27 86.4268 126.808 77.8799 120.07 77.8799C113.332 77.8799 107.87 86.4268 107.87 96.9699C107.87 107.513 113.332 116.06 120.07 116.06Z" fill="white"/>
<path d="M60.78 116.06C66.0653 116.06 70.35 109.223 70.35 100.79C70.35 92.3566 66.0653 85.52 60.78 85.52C55.4946 85.52 51.21 92.3566 51.21 100.79C51.21 109.223 55.4946 116.06 60.78 116.06Z" fill="#231F20"/>
<path d="M55.0201 93.1098C56.3566 93.1098 57.4401 91.4129 57.4401 89.3198C57.4401 87.2266 56.3566 85.5298 55.0201 85.5298C53.6836 85.5298 52.6001 87.2266 52.6001 89.3198C52.6001 91.4129 53.6836 93.1098 55.0201 93.1098Z" fill="white"/>
<path d="M120 116.06C125.363 116.06 129.71 109.223 129.71 100.79C129.71 92.3566 125.363 85.52 120 85.52C114.637 85.52 110.29 92.3566 110.29 100.79C110.29 109.223 114.637 116.06 120 116.06Z" fill="#231F20"/>
<path d="M114.92 93.1098C116.257 93.1098 117.34 91.4129 117.34 89.3198C117.34 87.2266 116.257 85.5298 114.92 85.5298C113.583 85.5298 112.5 87.2266 112.5 89.3198C112.5 91.4129 113.583 93.1098 114.92 93.1098Z" fill="white"/>
<path opacity="0.57" d="M49.24 131.22C55.4697 131.22 60.52 129.89 60.52 128.25C60.52 126.61 55.4697 125.28 49.24 125.28C43.0102 125.28 37.96 126.61 37.96 128.25C37.96 129.89 43.0102 131.22 49.24 131.22Z" fill="#F7B1C4"/>
<path opacity="0.57" d="M134.18 131.22C140.41 131.22 145.46 129.89 145.46 128.25C145.46 126.61 140.41 125.28 134.18 125.28C127.95 125.28 122.9 126.61 122.9 128.25C122.9 129.89 127.95 131.22 134.18 131.22Z" fill="#F7B1C4"/>
<path d="M64.56 156C63.17 154 67.7 148.5 71.24 145.5C79.09 138.84 88.73 138.83 92 138.97C95.55 139.13 104.45 140.01 111.57 146.67C112.37 147.42 117.83 152.52 116.58 154.6C114.99 157.24 105.18 150.62 90.81 150.87C75.83 151.12 66.4 158.65 64.56 156Z" fill="white"/>
</svg>
