<svg width="180" height="181" viewBox="0 0 180 181" fill="none" xmlns="http://www.w3.org/2000/svg">
<path d="M89.91 179.82C139.566 179.82 179.82 139.566 179.82 89.91C179.82 40.2541 139.566 0 89.91 0C40.2541 0 0 40.2541 0 89.91C0 139.566 40.2541 179.82 89.91 179.82Z" fill="#595A5C"/>
<path d="M60.5801 174.93C60.5801 174.93 89.9101 188.41 119.24 174.93C119.24 174.93 89.9101 185.87 60.5801 174.93Z" fill="#818285"/>
<path d="M69.3799 147.06C74.5099 146 80.7799 145.13 87.9399 145.03C96.9099 144.91 104.6 146.03 110.56 147.35C104.19 148.97 95.2399 150.45 84.5999 149.67C78.7599 149.24 73.6399 148.22 69.3799 147.06Z" fill="#818285"/>
<path d="M53.6999 115.81C53.6999 115.81 56.7599 115.27 60.0899 115.81L58.2099 114.26C58.2099 114.26 54.2499 114.72 53.6899 115.81H53.6999Z" fill="#60C8D4"/>
<path d="M37.8701 80.64C37.8701 80.64 38.7501 84.6 48.4201 88.23C48.4201 88.23 54.3601 90.98 56.7701 78.78C56.7701 78.78 47.8701 79.44 38.3001 69.77C38.3001 69.77 38.0301 76.86 51.2201 82.3C51.2201 82.3 51.9901 82.96 51.1701 83.45C51.1701 83.45 43.5801 84.49 37.8701 80.65V80.64Z" fill="#60C8D4"/>
<path d="M60.43 115.81C67.1679 115.81 72.63 107.263 72.63 96.7199C72.63 86.1768 67.1679 77.6299 60.43 77.6299C53.6921 77.6299 48.23 86.1768 48.23 96.7199C48.23 107.263 53.6921 115.81 60.43 115.81Z" fill="white"/>
<path d="M142.55 80.64C142.55 80.64 141.67 84.6 132 88.23C132 88.23 126.06 90.98 123.65 78.78C123.65 78.78 132.55 79.44 142.12 69.77C142.12 69.77 142.39 76.86 129.2 82.3C129.2 82.3 128.43 82.96 129.25 83.45C129.25 83.45 136.84 84.49 142.55 80.65V80.64Z" fill="#60C8D4"/>
<path d="M127.23 115.81C127.23 115.81 124.17 115.27 120.84 115.81L122.72 114.26C122.72 114.26 126.68 114.72 127.24 115.81H127.23Z" fill="#60C8D4"/>
<path d="M119.99 115.81C126.728 115.81 132.19 107.263 132.19 96.7199C132.19 86.1768 126.728 77.6299 119.99 77.6299C113.252 77.6299 107.79 86.1768 107.79 96.7199C107.79 107.263 113.252 115.81 119.99 115.81Z" fill="white"/>
<path d="M60.6901 115.81C65.9755 115.81 70.2601 108.973 70.2601 100.54C70.2601 92.1066 65.9755 85.27 60.6901 85.27C55.4048 85.27 51.1201 92.1066 51.1201 100.54C51.1201 108.973 55.4048 115.81 60.6901 115.81Z" fill="#231F20"/>
<path d="M54.9303 92.8598C56.2668 92.8598 57.3503 91.1629 57.3503 89.0698C57.3503 86.9766 56.2668 85.2798 54.9303 85.2798C53.5937 85.2798 52.5103 86.9766 52.5103 89.0698C52.5103 91.1629 53.5937 92.8598 54.9303 92.8598Z" fill="white"/>
<path d="M119.92 115.81C125.283 115.81 129.63 108.973 129.63 100.54C129.63 92.1066 125.283 85.27 119.92 85.27C114.557 85.27 110.21 92.1066 110.21 100.54C110.21 108.973 114.557 115.81 119.92 115.81Z" fill="#231F20"/>
<path d="M114.83 92.8598C116.167 92.8598 117.25 91.1629 117.25 89.0698C117.25 86.9766 116.167 85.2798 114.83 85.2798C113.494 85.2798 112.41 86.9766 112.41 89.0698C112.41 91.1629 113.494 92.8598 114.83 92.8598Z" fill="white"/>
<path d="M132.69 153.82C140.174 153.82 146.24 145.658 146.24 135.59C146.24 125.522 140.174 117.36 132.69 117.36C125.207 117.36 119.14 125.522 119.14 135.59C119.14 145.658 125.207 153.82 132.69 153.82Z" fill="#E72B5C"/>
<path d="M47.1301 153.83C54.6135 153.83 60.6801 145.668 60.6801 135.6C60.6801 125.532 54.6135 117.37 47.1301 117.37C39.6466 117.37 33.5801 125.532 33.5801 135.6C33.5801 145.668 39.6466 153.83 47.1301 153.83Z" fill="#E72B5C"/>
</svg>
