<svg width="180" height="181" viewBox="0 0 180 181" fill="none" xmlns="http://www.w3.org/2000/svg">
<g clip-path="url(#clip0_1049_8539)">
<path d="M89.8 179.6C139.395 179.6 179.6 139.395 179.6 89.8C179.6 40.2048 139.395 0 89.8 0C40.2048 0 0 40.2048 0 89.8C0 139.395 40.2048 179.6 89.8 179.6Z" fill="#595A5C"/>
<path d="M60.5098 174.72C60.5098 174.72 89.8098 188.19 119.1 174.72C119.1 174.72 89.8098 185.65 60.5098 174.72Z" fill="#818285"/>
<path d="M65.5601 138.93C66.4101 147.12 70.3101 150.72 71.5401 151.74C79.2401 158.13 94.3701 156.4 106.55 144.91" stroke="#818285" stroke-width="2" stroke-miterlimit="10"/>
<path d="M53.1101 116.18C53.1101 116.18 56.1701 115.64 59.5001 116.18L57.6201 114.63C57.6201 114.63 53.6601 115.09 53.1001 116.18H53.1101Z" fill="#60C8D4"/>
<path d="M37.27 81.0097C37.27 81.0097 38.15 84.9696 47.82 88.5996C47.82 88.5996 53.76 91.3497 56.17 79.1497C56.17 79.1497 47.27 79.8096 37.7 70.1396C37.7 70.1396 37.43 77.2296 50.62 82.6696C50.62 82.6696 51.39 83.3296 50.57 83.8196C50.57 83.8196 42.98 84.8596 37.27 81.0196V81.0097Z" fill="#60C8D4"/>
<path d="M59.8401 116.18C66.578 116.18 72.0401 107.633 72.0401 97.09C72.0401 86.5469 66.578 78 59.8401 78C53.1023 78 47.6401 86.5469 47.6401 97.09C47.6401 107.633 53.1023 116.18 59.8401 116.18Z" fill="white"/>
<path d="M141.96 81.0097C141.96 81.0097 141.08 84.9696 131.41 88.5996C131.41 88.5996 125.47 91.3497 123.06 79.1497C123.06 79.1497 131.96 79.8096 141.53 70.1396C141.53 70.1396 141.8 77.2296 128.61 82.6696C128.61 82.6696 127.84 83.3296 128.66 83.8196C128.66 83.8196 136.25 84.8596 141.96 81.0196V81.0097Z" fill="#60C8D4"/>
<path d="M126.63 116.18C126.63 116.18 123.57 115.64 120.24 116.18L122.12 114.63C122.12 114.63 126.08 115.09 126.64 116.18H126.63Z" fill="#60C8D4"/>
<path d="M119.39 116.18C126.128 116.18 131.59 107.633 131.59 97.09C131.59 86.5469 126.128 78 119.39 78C112.652 78 107.19 86.5469 107.19 97.09C107.19 107.633 112.652 116.18 119.39 116.18Z" fill="white"/>
<path d="M60.0998 116.18C65.3851 116.18 69.6698 109.343 69.6698 100.91C69.6698 92.4763 65.3851 85.6396 60.0998 85.6396C54.8144 85.6396 50.5298 92.4763 50.5298 100.91C50.5298 109.343 54.8144 116.18 60.0998 116.18Z" fill="#231F20"/>
<path d="M54.3399 93.2294C55.6765 93.2294 56.7599 91.5326 56.7599 89.4394C56.7599 87.3463 55.6765 85.6494 54.3399 85.6494C53.0034 85.6494 51.9199 87.3463 51.9199 89.4394C51.9199 91.5326 53.0034 93.2294 54.3399 93.2294Z" fill="white"/>
<path d="M119.32 116.18C124.683 116.18 129.03 109.343 129.03 100.91C129.03 92.4763 124.683 85.6396 119.32 85.6396C113.957 85.6396 109.61 92.4763 109.61 100.91C109.61 109.343 113.957 116.18 119.32 116.18Z" fill="#231F20"/>
<path d="M114.23 93.2294C115.567 93.2294 116.65 91.5326 116.65 89.4394C116.65 87.3463 115.567 85.6494 114.23 85.6494C112.894 85.6494 111.81 87.3463 111.81 89.4394C111.81 91.5326 112.894 93.2294 114.23 93.2294Z" fill="white"/>
<path opacity="0.57" d="M48.5598 131.339C54.7896 131.339 59.8398 130.01 59.8398 128.369C59.8398 126.729 54.7896 125.399 48.5598 125.399C42.33 125.399 37.2798 126.729 37.2798 128.369C37.2798 130.01 42.33 131.339 48.5598 131.339Z" fill="#F7B1C4"/>
<path opacity="0.57" d="M133.5 131.339C139.73 131.339 144.78 130.01 144.78 128.369C144.78 126.729 139.73 125.399 133.5 125.399C127.27 125.399 122.22 126.729 122.22 128.369C122.22 130.01 127.27 131.339 133.5 131.339Z" fill="#F7B1C4"/>
</g>
<defs>
<clipPath id="clip0_1049_8539">
<rect width="179.61" height="180.71" fill="white"/>
</clipPath>
</defs>
</svg>
