<svg width="180" height="181" viewBox="0 0 180 181" fill="none" xmlns="http://www.w3.org/2000/svg">
<g clip-path="url(#clip0_1048_20180)">
<path d="M89.91 179.82C139.566 179.82 179.82 139.566 179.82 89.91C179.82 40.2541 139.566 0 89.91 0C40.2541 0 0 40.2541 0 89.91C0 139.566 40.2541 179.82 89.91 179.82Z" fill="#595A5C"/>
<path d="M60.5801 174.93C60.5801 174.93 89.9101 188.41 119.24 174.93C119.24 174.93 89.9101 185.87 60.5801 174.93Z" fill="#818285"/>
<path d="M97.0101 149.18C103.73 147.82 111.11 146.24 117.25 140.26C124.75 132.95 125.89 123.44 127.2 123.8C128.34 124.11 128.56 131.67 125.14 138.55C120.85 147.2 112.72 150.94 109.7 152.27C104.69 154.49 100.41 154.78 91.8601 155.36C78.8201 156.24 71.5801 154.14 67.7801 152.75C66.7301 152.36 61.2101 150.34 61.4401 149.36C61.8201 147.7 77.7501 153.07 97.0001 149.19L97.0101 149.18Z" fill="white"/>
<path d="M51.9299 117.2C51.9299 117.2 54.9899 116.66 58.3199 117.2L56.4399 115.65C56.4399 115.65 52.4799 116.11 51.9199 117.2H51.9299Z" fill="#60C8D4"/>
<path d="M36.1001 85.0302C36.1001 85.0302 36.9801 88.9902 46.6501 92.6202C46.6501 92.6202 52.5901 95.3702 55.0001 83.1702C55.0001 83.1702 46.1001 83.8302 36.5301 74.1602C36.5301 74.1602 36.2601 81.2502 49.4501 86.6902C49.4501 86.6902 50.2201 87.3501 49.4001 87.8401C49.4001 87.8401 41.8101 88.8802 36.1001 85.0402V85.0302Z" fill="#60C8D4"/>
<path d="M58.6702 117.2C65.4081 117.2 70.8702 108.653 70.8702 98.11C70.8702 87.5669 65.4081 79.02 58.6702 79.02C51.9323 79.02 46.4702 87.5669 46.4702 98.11C46.4702 108.653 51.9323 117.2 58.6702 117.2Z" fill="white"/>
<path d="M140.79 85.0302C140.79 85.0302 139.91 88.9902 130.24 92.6202C130.24 92.6202 124.3 95.3702 121.89 83.1702C121.89 83.1702 130.79 83.8302 140.36 74.1602C140.36 74.1602 140.63 81.2502 127.44 86.6902C127.44 86.6902 126.67 87.3501 127.49 87.8401C127.49 87.8401 135.08 88.8802 140.79 85.0402V85.0302Z" fill="#60C8D4"/>
<path d="M125.46 117.2C125.46 117.2 122.4 116.66 119.07 117.2L120.95 115.65C120.95 115.65 124.91 116.11 125.47 117.2H125.46Z" fill="#60C8D4"/>
<path d="M118.22 117.2C124.958 117.2 130.42 108.653 130.42 98.11C130.42 87.5669 124.958 79.02 118.22 79.02C111.482 79.02 106.02 87.5669 106.02 98.11C106.02 108.653 111.482 117.2 118.22 117.2Z" fill="white"/>
<path d="M58.9299 117.21C64.2152 117.21 68.4999 110.373 68.4999 101.94C68.4999 93.5065 64.2152 86.6699 58.9299 86.6699C53.6445 86.6699 49.3599 93.5065 49.3599 101.94C49.3599 110.373 53.6445 117.21 58.9299 117.21Z" fill="#231F20"/>
<path d="M53.17 94.2499C54.5065 94.2499 55.59 92.5531 55.59 90.4599C55.59 88.3668 54.5065 86.6699 53.17 86.6699C51.8335 86.6699 50.75 88.3668 50.75 90.4599C50.75 92.5531 51.8335 94.2499 53.17 94.2499Z" fill="white"/>
<path d="M118.15 117.21C123.513 117.21 127.86 110.373 127.86 101.94C127.86 93.5065 123.513 86.6699 118.15 86.6699C112.787 86.6699 108.44 93.5065 108.44 101.94C108.44 110.373 112.787 117.21 118.15 117.21Z" fill="#231F20"/>
<path d="M113.06 94.2499C114.397 94.2499 115.48 92.5531 115.48 90.4599C115.48 88.3668 114.397 86.6699 113.06 86.6699C111.724 86.6699 110.64 88.3668 110.64 90.4599C110.64 92.5531 111.724 94.2499 113.06 94.2499Z" fill="white"/>
<path opacity="0.57" d="M47.3899 132.36C53.6196 132.36 58.6699 131.03 58.6699 129.39C58.6699 127.75 53.6196 126.42 47.3899 126.42C41.1601 126.42 36.1099 127.75 36.1099 129.39C36.1099 131.03 41.1601 132.36 47.3899 132.36Z" fill="#F7B1C4"/>
<path opacity="0.57" d="M141.32 132.36C147.55 132.36 152.6 131.03 152.6 129.39C152.6 127.75 147.55 126.42 141.32 126.42C135.09 126.42 130.04 127.75 130.04 129.39C130.04 131.03 135.09 132.36 141.32 132.36Z" fill="#F7B1C4"/>
<path d="M125.46 61.0498H51.4399V82.7198H125.46V61.0498Z" fill="#595A5C"/>
</g>
<defs>
<clipPath id="clip0_1048_20180">
<rect width="179.82" height="180.92" fill="white"/>
</clipPath>
</defs>
</svg>
