<svg width="179" height="220" viewBox="0 0 179 220" fill="none" xmlns="http://www.w3.org/2000/svg">
<g clip-path="url(#clip0_1048_20437)">
<path d="M89.27 178.54C138.572 178.54 178.54 138.572 178.54 89.27C178.54 39.9675 138.572 0 89.27 0C39.9675 0 0 39.9675 0 89.27C0 138.572 39.9675 178.54 89.27 178.54Z" fill="#595A5C"/>
<path d="M60.1499 173.69C60.1499 173.69 89.2699 187.08 118.39 173.69C118.39 173.69 89.2699 184.55 60.1499 173.69Z" fill="#818285"/>
<path d="M73.3198 138.51C73.3198 138.51 85.8698 142.76 105.23 138.51C105.23 138.51 97.8598 150.07 89.2798 149.86C89.2798 149.86 79.8698 150.12 73.3298 138.51H73.3198Z" fill="white"/>
<path d="M108.84 171.36C112.3 166.91 117.51 166.41 119.73 168.46C121.89 170.46 120.88 174.59 120.82 174.81C117.8 178.62 114.77 182.43 111.75 186.24C110.35 190.29 107.53 196.78 101.77 202.93C94.3602 210.84 79.4102 221.05 70.9302 216.54C58.6602 210.02 59.2902 172.35 77.1002 159.75C79.4002 158.12 81.5802 157.2 83.0902 156.67C83.5102 147.78 83.9402 138.89 84.3602 130C84.8202 127.16 87.3102 125.24 89.8002 125.46C91.7902 125.64 93.5502 127.16 94.1502 129.27C94.3902 138.46 94.6302 147.65 94.8802 156.85C94.9402 156.39 95.1602 155.2 96.1502 154.31C97.4602 153.13 99.5602 152.97 101.41 153.95C102.82 155.04 105.14 157.12 106.85 160.48C109.24 165.15 109.04 169.53 108.85 171.37L108.84 171.36Z" fill="#595A5C" stroke="#818285" stroke-width="3" stroke-miterlimit="10"/>
<path d="M68.0503 175.26C69.2503 174.24 71.0303 172.81 73.3203 171.28C79.8003 166.94 84.6203 163.71 89.2603 164.72C96.2903 166.24 99.1003 176.67 99.3403 177.61C99.2603 179.56 98.8003 183.85 95.7103 187.69C95.1203 188.42 91.8003 192.54 89.6203 191.79C86.4403 190.7 87.6703 179.95 87.8603 178.31" stroke="#818285" stroke-width="3" stroke-miterlimit="10"/>
<path d="M92.0701 191.08C94.4801 191.46 96.1301 191.02 97.2301 190.49C103.51 187.49 104.7 175.55 101.1 167.52C100.24 165.62 98.8101 162.42 95.4801 160.72C91.5601 158.72 87.3501 159.96 83.1801 161.19C80.6801 161.92 76.9101 163.36 72.8701 166.35" stroke="#818285" stroke-width="3" stroke-miterlimit="10"/>
<path d="M100.66 187.13C103.07 186.4 104.52 185.26 105.42 184.24C110.06 179.03 108.47 168.11 101.08 157.29C97.8801 156.57 92.9801 155.88 87.1401 156.7C83.2301 157.25 80.0001 158.33 77.5801 159.35" stroke="#818285" stroke-width="3" stroke-miterlimit="10"/>
<path d="M92.4404 206.43C93.3304 205.37 94.8904 203.24 95.5904 200.13C96.5304 195.93 95.3404 192.52 94.8204 191.24" stroke="#818285" stroke-width="3" stroke-miterlimit="10"/>
<path d="M52.99 115.82C52.99 115.82 56.05 115.28 59.38 115.82L57.5 114.27C57.5 114.27 53.54 114.73 52.98 115.82H52.99Z" fill="#60C8D4"/>
<path d="M37.1499 80.66C37.1499 80.66 38.0299 84.62 47.6999 88.25C47.6999 88.25 53.6399 91 56.0499 78.8C56.0499 78.8 47.1499 79.46 37.5799 69.79C37.5799 69.79 37.3099 76.88 50.4999 82.32C50.4999 82.32 51.2699 82.98 50.4499 83.47C50.4499 83.47 42.8599 84.51 37.1499 80.67V80.66Z" fill="#60C8D4"/>
<path d="M59.72 115.83C66.4579 115.83 71.92 107.283 71.92 96.7399C71.92 86.1968 66.4579 77.6499 59.72 77.6499C52.9821 77.6499 47.52 86.1968 47.52 96.7399C47.52 107.283 52.9821 115.83 59.72 115.83Z" fill="white"/>
<path d="M141.84 80.66C141.84 80.66 140.96 84.62 131.29 88.25C131.29 88.25 125.35 91 122.94 78.8C122.94 78.8 131.84 79.46 141.41 69.79C141.41 69.79 141.68 76.88 128.49 82.32C128.49 82.32 127.72 82.98 128.54 83.47C128.54 83.47 136.13 84.51 141.84 80.67V80.66Z" fill="#60C8D4"/>
<path d="M126.51 115.82C126.51 115.82 123.45 115.28 120.12 115.82L122 114.27C122 114.27 125.96 114.73 126.52 115.82H126.51Z" fill="#60C8D4"/>
<path d="M119.27 115.83C126.008 115.83 131.47 107.283 131.47 96.7399C131.47 86.1968 126.008 77.6499 119.27 77.6499C112.532 77.6499 107.07 86.1968 107.07 96.7399C107.07 107.283 112.532 115.83 119.27 115.83Z" fill="white"/>
<path d="M59.9797 115.83C65.265 115.83 69.5497 108.993 69.5497 100.56C69.5497 92.1266 65.265 85.29 59.9797 85.29C54.6943 85.29 50.4097 92.1266 50.4097 100.56C50.4097 108.993 54.6943 115.83 59.9797 115.83Z" fill="#231F20"/>
<path d="M54.2198 92.87C55.5563 92.87 56.6398 91.1732 56.6398 89.08C56.6398 86.9869 55.5563 85.29 54.2198 85.29C52.8833 85.29 51.7998 86.9869 51.7998 89.08C51.7998 91.1732 52.8833 92.87 54.2198 92.87Z" fill="white"/>
<path d="M119.2 115.83C124.562 115.83 128.91 108.993 128.91 100.56C128.91 92.1266 124.562 85.29 119.2 85.29C113.837 85.29 109.49 92.1266 109.49 100.56C109.49 108.993 113.837 115.83 119.2 115.83Z" fill="#231F20"/>
<path d="M114.11 92.87C115.446 92.87 116.53 91.1732 116.53 89.08C116.53 86.9869 115.446 85.29 114.11 85.29C112.773 85.29 111.69 86.9869 111.69 89.08C111.69 91.1732 112.773 92.87 114.11 92.87Z" fill="white"/>
<path opacity="0.57" d="M48.4397 130.99C54.6694 130.99 59.7197 129.66 59.7197 128.02C59.7197 126.38 54.6694 125.05 48.4397 125.05C42.2099 125.05 37.1597 126.38 37.1597 128.02C37.1597 129.66 42.2099 130.99 48.4397 130.99Z" fill="#F7B1C4"/>
<path opacity="0.57" d="M133.37 130.99C139.6 130.99 144.65 129.66 144.65 128.02C144.65 126.38 139.6 125.05 133.37 125.05C127.14 125.05 122.09 126.38 122.09 128.02C122.09 129.66 127.14 130.99 133.37 130.99Z" fill="#F7B1C4"/>
</g>
<defs>
<clipPath id="clip0_1048_20437">
<rect width="178.55" height="219.14" fill="white"/>
</clipPath>
</defs>
</svg>
