<svg width="180" height="181" viewBox="0 0 180 181" fill="none" xmlns="http://www.w3.org/2000/svg">
<g clip-path="url(#clip0_1048_20503)">
<path d="M89.91 179.82C139.566 179.82 179.82 139.566 179.82 89.91C179.82 40.2541 139.566 0 89.91 0C40.2541 0 0 40.2541 0 89.91C0 139.566 40.2541 179.82 89.91 179.82Z" fill="#595A5C"/>
<path d="M60.5801 174.93C60.5801 174.93 89.9101 188.41 119.24 174.93C119.24 174.93 89.9101 185.87 60.5801 174.93Z" fill="#818285"/>
<path d="M77.7798 150.19C78.7898 149.27 81.3498 147.21 85.0998 146.83C92.2698 146.12 96.9798 152.23 97.2698 152.62" stroke="#818285" stroke-width="2" stroke-miterlimit="10"/>
<path d="M55.5298 116.62C55.5298 116.62 58.4798 116.1 61.6998 116.62L59.8898 115.13C59.8898 115.13 56.0698 115.57 55.5298 116.62Z" fill="#128040"/>
<path d="M40.25 82.6802C40.25 82.6802 41.1 86.5002 50.43 90.0002C50.43 90.0002 56.16 92.6502 58.49 80.8802C58.49 80.8802 49.9 81.5202 40.67 72.1802C40.67 72.1802 40.4 79.0202 53.13 84.2702C53.13 84.2702 53.87 84.9102 53.08 85.3802C53.08 85.3802 45.76 86.3902 40.25 82.6802Z" fill="#60C8D4"/>
<path d="M62.0202 116.62C68.5261 116.62 73.8002 108.373 73.8002 98.2003C73.8002 88.0272 68.5261 79.7803 62.0202 79.7803C55.5143 79.7803 50.2402 88.0272 50.2402 98.2003C50.2402 108.373 55.5143 116.62 62.0202 116.62Z" fill="white"/>
<path d="M141.26 82.6802C141.26 82.6802 140.41 86.5002 131.08 90.0002C131.08 90.0002 125.35 92.6502 123.02 80.8802C123.02 80.8802 131.61 81.5202 140.84 72.1802C140.84 72.1802 141.11 79.0202 128.38 84.2702C128.38 84.2702 127.64 84.9102 128.43 85.3802C128.43 85.3802 135.75 86.3902 141.26 82.6802Z" fill="#60C8D4"/>
<path d="M126.48 116.62C126.48 116.62 123.53 116.1 120.31 116.62L122.12 115.13C122.12 115.13 125.94 115.57 126.48 116.62Z" fill="#128040"/>
<path d="M119.49 116.62C125.996 116.62 131.27 108.373 131.27 98.2003C131.27 88.0272 125.996 79.7803 119.49 79.7803C112.984 79.7803 107.71 88.0272 107.71 98.2003C107.71 108.373 112.984 116.62 119.49 116.62Z" fill="white"/>
<path d="M62.2698 116.62C67.3729 116.62 71.5098 110.025 71.5098 101.89C71.5098 93.755 67.3729 87.1602 62.2698 87.1602C57.1667 87.1602 53.0298 93.755 53.0298 101.89C53.0298 110.025 57.1667 116.62 62.2698 116.62Z" fill="#231F20"/>
<path d="M55.1398 99.0803C56.4322 99.0803 57.4798 97.4416 57.4798 95.4202C57.4798 93.3989 56.4322 91.7603 55.1398 91.7603C53.8475 91.7603 52.7998 93.3989 52.7998 95.4202C52.7998 97.4416 53.8475 99.0803 55.1398 99.0803Z" fill="white"/>
<path d="M119.42 116.62C124.595 116.62 128.79 110.025 128.79 101.89C128.79 93.755 124.595 87.1602 119.42 87.1602C114.245 87.1602 110.05 93.755 110.05 101.89C110.05 110.025 114.245 116.62 119.42 116.62Z" fill="#231F20"/>
<path d="M112.94 99.0803C114.232 99.0803 115.28 97.4416 115.28 95.4202C115.28 93.3989 114.232 91.7603 112.94 91.7603C111.648 91.7603 110.6 93.3989 110.6 95.4202C110.6 97.4416 111.648 99.0803 112.94 99.0803Z" fill="white"/>
<path opacity="0.57" d="M51.14 131.25C57.1544 131.25 62.03 129.965 62.03 128.38C62.03 126.795 57.1544 125.51 51.14 125.51C45.1256 125.51 40.25 126.795 40.25 128.38C40.25 129.965 45.1256 131.25 51.14 131.25Z" fill="#F7B1C4"/>
<path opacity="0.57" d="M133.1 131.25C139.114 131.25 143.99 129.965 143.99 128.38C143.99 126.795 139.114 125.51 133.1 125.51C127.086 125.51 122.21 126.795 122.21 128.38C122.21 129.965 127.086 131.25 133.1 131.25Z" fill="#F7B1C4"/>
<path d="M50.21 95.4098C58.02 95.4098 65.83 95.4098 73.65 95.3998C73.46 92.6198 72.8 90.4598 72.26 89.0398C71.4 86.8098 70.03 83.2498 66.52 81.1598C65.72 80.6798 64.17 79.7898 62.03 79.7698C59.76 79.7498 58.12 80.7398 57.29 81.2398C51.72 84.5998 50.3 94.7798 50.22 95.3998L50.21 95.4098Z" fill="#818285"/>
<path d="M131.23 95.4201C123.42 95.4201 115.61 95.4201 107.79 95.4101C107.98 92.6301 108.64 90.4701 109.18 89.0501C110.04 86.8201 111.41 83.2601 114.92 81.1701C115.72 80.6901 117.27 79.8001 119.41 79.7801C121.68 79.7601 123.32 80.7501 124.15 81.2501C129.72 84.6101 131.14 94.7901 131.22 95.4101L131.23 95.4201Z" fill="#818285"/>
</g>
<defs>
<clipPath id="clip0_1048_20503">
<rect width="179.82" height="180.92" fill="white"/>
</clipPath>
</defs>
</svg>
