<svg width="180" height="181" viewBox="0 0 180 181" fill="none" xmlns="http://www.w3.org/2000/svg">
<path d="M89.8 179.6C139.395 179.6 179.6 139.395 179.6 89.8C179.6 40.2048 139.395 0 89.8 0C40.2048 0 0 40.2048 0 89.8C0 139.395 40.2048 179.6 89.8 179.6Z" fill="#595A5C"/>
<path d="M60.5098 174.72C60.5098 174.72 89.8098 188.19 119.1 174.72C119.1 174.72 89.8098 185.65 60.5098 174.72Z" fill="#818285"/>
<path d="M97.0302 135.7C96.4102 139.29 95.1702 140.47 94.1602 140.9C91.4602 142.02 88.1302 138.65 86.1002 140.18C85.4102 140.7 85.2002 141.55 85.0302 142.24C84.5102 144.36 85.5402 146.17 86.0202 146.99C87.7502 150.01 90.9002 151.02 91.8402 151.29" stroke="#818285" stroke-width="2" stroke-miterlimit="10"/>
<path d="M88.7002 149.94C87.0702 151.6 86.4702 153.69 87.1802 155.22C87.7602 156.48 89.0602 157.03 89.5102 157.19C91.9702 158.08 93.5202 156.2 95.9602 156.92C96.7402 157.15 97.7002 157.67 98.6502 158.89" stroke="#818285" stroke-width="2" stroke-miterlimit="10"/>
<path d="M77.6601 146.76C77.4401 149.19 77.2301 151.62 77.0101 154.05C75.5001 152.87 73.9901 151.69 72.4801 150.51C70.1001 148.33 70.0501 145.51 71.5201 144.29C72.4201 143.54 74.1201 143.19 75.5901 143.82C76.8401 144.36 77.6401 145.5 77.6601 146.76Z" fill="#E72B5C"/>
<path d="M76.3501 146.76C76.5701 149.19 76.7801 151.62 77.0001 154.05C78.5101 152.87 80.0201 151.69 81.5301 150.51C83.9101 148.33 83.9601 145.51 82.4901 144.29C81.5901 143.54 79.8901 143.19 78.4201 143.82C77.1701 144.36 76.3701 145.5 76.3501 146.76Z" fill="#E72B5C"/>
<path d="M53.8899 116.71C53.8899 116.71 56.9499 116.17 60.2799 116.71L58.3999 115.16C58.3999 115.16 54.4399 115.62 53.8799 116.71H53.8899Z" fill="#60C8D4"/>
<path d="M38.0601 81.5399C38.0601 81.5399 38.9401 85.4999 48.6101 89.1299C48.6101 89.1299 54.5501 91.8799 56.9601 79.6799C56.9601 79.6799 48.0601 80.3399 38.4901 70.6699C38.4901 70.6699 38.2201 77.7599 51.4101 83.1999C51.4101 83.1999 52.1801 83.8599 51.3601 84.3499C51.3601 84.3499 43.7701 85.3899 38.0601 81.5499V81.5399Z" fill="#60C8D4"/>
<path d="M60.6199 116.71C67.3578 116.71 72.8199 108.163 72.8199 97.6198C72.8199 87.0767 67.3578 78.5298 60.6199 78.5298C53.882 78.5298 48.4199 87.0767 48.4199 97.6198C48.4199 108.163 53.882 116.71 60.6199 116.71Z" fill="white"/>
<path d="M142.74 81.5399C142.74 81.5399 141.86 85.4999 132.19 89.1299C132.19 89.1299 126.25 91.8799 123.84 79.6799C123.84 79.6799 132.74 80.3399 142.31 70.6699C142.31 70.6699 142.58 77.7599 129.39 83.1999C129.39 83.1999 128.62 83.8599 129.44 84.3499C129.44 84.3499 137.03 85.3899 142.74 81.5499V81.5399Z" fill="#60C8D4"/>
<path d="M127.42 116.71C127.42 116.71 124.36 116.17 121.03 116.71L122.91 115.16C122.91 115.16 126.87 115.62 127.43 116.71H127.42Z" fill="#60C8D4"/>
<path d="M120.17 116.71C126.908 116.71 132.37 108.163 132.37 97.6198C132.37 87.0767 126.908 78.5298 120.17 78.5298C113.432 78.5298 107.97 87.0767 107.97 97.6198C107.97 108.163 113.432 116.71 120.17 116.71Z" fill="white"/>
<path d="M60.8801 116.72C66.1654 116.72 70.4501 109.883 70.4501 101.45C70.4501 93.0163 66.1654 86.1797 60.8801 86.1797C55.5947 86.1797 51.3101 93.0163 51.3101 101.45C51.3101 109.883 55.5947 116.72 60.8801 116.72Z" fill="#231F20"/>
<path d="M55.1202 93.7597C56.4567 93.7597 57.5402 92.0628 57.5402 89.9697C57.5402 87.8765 56.4567 86.1797 55.1202 86.1797C53.7837 86.1797 52.7002 87.8765 52.7002 89.9697C52.7002 92.0628 53.7837 93.7597 55.1202 93.7597Z" fill="white"/>
<path d="M120.1 116.72C125.463 116.72 129.81 109.883 129.81 101.45C129.81 93.0163 125.463 86.1797 120.1 86.1797C114.737 86.1797 110.39 93.0163 110.39 101.45C110.39 109.883 114.737 116.72 120.1 116.72Z" fill="#231F20"/>
<path d="M115.02 93.7597C116.357 93.7597 117.44 92.0628 117.44 89.9697C117.44 87.8765 116.357 86.1797 115.02 86.1797C113.684 86.1797 112.6 87.8765 112.6 89.9697C112.6 92.0628 113.684 93.7597 115.02 93.7597Z" fill="white"/>
<path opacity="0.57" d="M49.3401 131.87C55.5698 131.87 60.6201 130.54 60.6201 128.9C60.6201 127.259 55.5698 125.93 49.3401 125.93C43.1103 125.93 38.0601 127.259 38.0601 128.9C38.0601 130.54 43.1103 131.87 49.3401 131.87Z" fill="#F7B1C4"/>
<path opacity="0.57" d="M134.28 131.87C140.51 131.87 145.56 130.54 145.56 128.9C145.56 127.259 140.51 125.93 134.28 125.93C128.05 125.93 123 127.259 123 128.9C123 130.54 128.05 131.87 134.28 131.87Z" fill="#F7B1C4"/>
</svg>
