<svg width="181" height="182" viewBox="0 0 181 182" fill="none" xmlns="http://www.w3.org/2000/svg">
<path d="M90.42 180.84C140.358 180.84 180.84 140.358 180.84 90.42C180.84 40.4824 140.358 0 90.42 0C40.4824 0 0 40.4824 0 90.42C0 140.358 40.4824 180.84 90.42 180.84Z" fill="#595A5C"/>
<path d="M60.9199 175.92C60.9199 175.92 90.4199 189.48 119.91 175.92C119.91 175.92 90.4099 186.92 60.9199 175.92Z" fill="#818285"/>
<path d="M59.9399 136.26C59.9399 136.26 83.6399 144.29 120.22 136.26C120.22 136.26 106.3 158.1 90.0799 157.71C90.0799 157.71 72.2899 158.2 59.9399 136.26Z" fill="white"/>
<path d="M13.0601 84.4999C13.0601 84.4999 13.9401 88.4599 23.6101 92.0899C23.6101 92.0899 29.5501 94.8399 31.9601 82.6399C31.9601 82.6399 23.0601 83.2999 13.4901 73.6299C13.4901 73.6299 13.2201 80.7199 26.4101 86.1599C26.4101 86.1599 27.1801 86.8199 26.3601 87.3099C26.3601 87.3099 18.7701 88.3499 13.0601 84.5099V84.4999Z" fill="#60C8D4"/>
<path d="M176.74 84.4999C176.74 84.4999 175.86 88.4599 166.19 92.0899C166.19 92.0899 160.25 94.8399 157.84 82.6399C157.84 82.6399 166.74 83.2999 176.31 73.6299C176.31 73.6299 176.58 80.7199 163.39 86.1599C163.39 86.1599 162.62 86.8199 163.44 87.3099C163.44 87.3099 171.03 88.3499 176.74 84.5099V84.4999Z" fill="#60C8D4"/>
<path opacity="0.57" d="M47.6101 131.54C53.8398 131.54 58.8901 130.21 58.8901 128.57C58.8901 126.93 53.8398 125.6 47.6101 125.6C41.3803 125.6 36.3301 126.93 36.3301 128.57C36.3301 130.21 41.3803 131.54 47.6101 131.54Z" fill="#F7B1C4"/>
<path opacity="0.57" d="M132.54 131.54C138.77 131.54 143.82 130.21 143.82 128.57C143.82 126.93 138.77 125.6 132.54 125.6C126.31 125.6 121.26 126.93 121.26 128.57C121.26 130.21 126.31 131.54 132.54 131.54Z" fill="#F7B1C4"/>
<path d="M109 82.3799H20.5V88.3499H109V82.3799Z" fill="black"/>
<path d="M90.0902 88.2998H20.4502V94.2698H90.0902V88.2998Z" fill="black"/>
<path d="M90.0703 94.0298H26.5703V99.9998H90.0703V94.0298Z" fill="black"/>
<path d="M85.1901 99.8999H31.8301V105.87H85.1901V99.8999Z" fill="black"/>
<path d="M79.07 105.9H36.27V111.87H79.07V105.9Z" fill="black"/>
<path d="M39.7102 89.3599H33.4902V95.3299H39.7102V89.3599Z" fill="white"/>
<path d="M46.2503 95.4497H40.0303V101.42H46.2503V95.4497Z" fill="white"/>
<path d="M52.7801 101.31H46.5601V107.28H52.7801V101.31Z" fill="white"/>
<path d="M52.3304 89.0298H46.1104V94.9998H52.3304V89.0298Z" fill="white"/>
<path d="M58.8704 95.1099H52.6504V101.08H58.8704V95.1099Z" fill="white"/>
<path d="M65.4002 100.97H59.1802V106.94H65.4002V100.97Z" fill="white"/>
<path d="M80.4502 88.2002L168.95 88.2002V82.2302L80.4502 82.2302V88.2002Z" fill="black"/>
<path d="M99.36 94.1201L169 94.1201V88.1501L99.36 88.1501V94.1201Z" fill="black"/>
<path d="M99.3804 99.8501L162.88 99.8501V93.8801L99.3804 93.8801V99.8501Z" fill="black"/>
<path d="M104.26 105.73H157.62V99.76H104.26V105.73Z" fill="black"/>
<path d="M110.39 111.72H153.19V105.75H110.39V111.72Z" fill="black"/>
<path d="M113.57 89.0698H107.35V95.0398H113.57V89.0698Z" fill="white"/>
<path d="M120.1 95.1499H113.88V101.12H120.1V95.1499Z" fill="white"/>
<path d="M126.64 101.01H120.42V106.98H126.64V101.01Z" fill="white"/>
<path d="M126.19 88.73H119.97V94.7H126.19V88.73Z" fill="white"/>
<path d="M132.72 94.8101H126.5V100.78H132.72V94.8101Z" fill="white"/>
<path d="M139.26 100.67H133.04V106.64H139.26V100.67Z" fill="white"/>
</svg>
