<svg width="180" height="181" viewBox="0 0 180 181" fill="none" xmlns="http://www.w3.org/2000/svg">
<g clip-path="url(#clip0_1048_20388)">
<path d="M89.91 179.82C139.566 179.82 179.82 139.566 179.82 89.91C179.82 40.2541 139.566 0 89.91 0C40.2541 0 0 40.2541 0 89.91C0 139.566 40.2541 179.82 89.91 179.82Z" fill="#595A5C"/>
<path d="M60.7202 174.93C60.7202 174.93 90.0502 188.41 119.38 174.93C119.38 174.93 90.0502 185.87 60.7202 174.93Z" fill="#818285"/>
<path d="M76.3799 146.53C77.3799 145.89 80.0499 144.36 83.9999 144.09C89.1199 143.74 92.7699 145.75 93.6699 146.28C93.9499 146.66 94.7099 147.79 94.3799 149.18C93.9699 150.84 92.1599 152.2 89.7599 152.63C89.3499 152.68 87.7699 152.85 86.1799 152.09C84.4899 151.28 83.9899 150 83.8799 149.72C83.7899 149.97 83.1599 151.61 80.9899 152.42C79.1499 153.11 77.4299 152.74 77.0299 152.64C75.4199 151.99 74.4099 150.71 74.4499 149.35C74.4999 147.65 76.1699 146.66 76.3799 146.55V146.53Z" fill="#818285"/>
<path d="M53.6301 115.79C53.6301 115.79 56.6901 115.25 60.0201 115.79L58.1401 114.24C58.1401 114.24 54.1801 114.7 53.6201 115.79H53.6301Z" fill="#60C8D4"/>
<path d="M37.79 80.62C37.79 80.62 38.67 84.58 48.34 88.21C48.34 88.21 54.28 90.96 56.69 78.76C56.69 78.76 47.79 79.42 38.22 69.75C38.22 69.75 37.95 76.84 51.14 82.28C51.14 82.28 51.91 82.94 51.09 83.43C51.09 83.43 43.5 84.47 37.79 80.63V80.62Z" fill="#60C8D4"/>
<path d="M60.3602 115.79C67.098 115.79 72.5602 107.243 72.5602 96.6999C72.5602 86.1567 67.098 77.6099 60.3602 77.6099C53.6223 77.6099 48.1602 86.1567 48.1602 96.6999C48.1602 107.243 53.6223 115.79 60.3602 115.79Z" fill="white"/>
<path d="M142.48 80.62C142.48 80.62 141.6 84.58 131.93 88.21C131.93 88.21 125.99 90.96 123.58 78.76C123.58 78.76 132.48 79.42 142.05 69.75C142.05 69.75 142.32 76.84 129.13 82.28C129.13 82.28 128.36 82.94 129.18 83.43C129.18 83.43 136.77 84.47 142.48 80.63V80.62Z" fill="#60C8D4"/>
<path d="M127.15 115.79C127.15 115.79 124.09 115.25 120.76 115.79L122.64 114.24C122.64 114.24 126.6 114.7 127.16 115.79H127.15Z" fill="#60C8D4"/>
<path d="M119.91 115.79C126.648 115.79 132.11 107.243 132.11 96.6999C132.11 86.1567 126.648 77.6099 119.91 77.6099C113.172 77.6099 107.71 86.1567 107.71 96.6999C107.71 107.243 113.172 115.79 119.91 115.79Z" fill="white"/>
<path d="M60.6198 115.8C65.9052 115.8 70.1898 108.963 70.1898 100.53C70.1898 92.0964 65.9052 85.2598 60.6198 85.2598C55.3344 85.2598 51.0498 92.0964 51.0498 100.53C51.0498 108.963 55.3344 115.8 60.6198 115.8Z" fill="#231F20"/>
<path d="M54.8599 92.8398C56.1965 92.8398 57.2799 91.1429 57.2799 89.0498C57.2799 86.9566 56.1965 85.2598 54.8599 85.2598C53.5234 85.2598 52.4399 86.9566 52.4399 89.0498C52.4399 91.1429 53.5234 92.8398 54.8599 92.8398Z" fill="white"/>
<path d="M119.84 115.8C125.203 115.8 129.55 108.963 129.55 100.53C129.55 92.0964 125.203 85.2598 119.84 85.2598C114.477 85.2598 110.13 92.0964 110.13 100.53C110.13 108.963 114.477 115.8 119.84 115.8Z" fill="#231F20"/>
<path d="M114.75 92.8398C116.087 92.8398 117.17 91.1429 117.17 89.0498C117.17 86.9566 116.087 85.2598 114.75 85.2598C113.414 85.2598 112.33 86.9566 112.33 89.0498C112.33 91.1429 113.414 92.8398 114.75 92.8398Z" fill="white"/>
<path opacity="0.57" d="M49.0798 130.95C55.3096 130.95 60.3598 129.62 60.3598 127.98C60.3598 126.339 55.3096 125.01 49.0798 125.01C42.85 125.01 37.7998 126.339 37.7998 127.98C37.7998 129.62 42.85 130.95 49.0798 130.95Z" fill="#F7B1C4"/>
<path opacity="0.57" d="M134.01 130.95C140.24 130.95 145.29 129.62 145.29 127.98C145.29 126.339 140.24 125.01 134.01 125.01C127.78 125.01 122.73 126.339 122.73 127.98C122.73 129.62 127.78 130.95 134.01 130.95Z" fill="#F7B1C4"/>
</g>
<defs>
<clipPath id="clip0_1048_20388">
<rect width="179.83" height="180.93" fill="white"/>
</clipPath>
</defs>
</svg>
