<svg width="180" height="181" viewBox="0 0 180 181" fill="none" xmlns="http://www.w3.org/2000/svg">
<g clip-path="url(#clip0_1048_20504)">
<path d="M89.91 179.82C139.566 179.82 179.82 139.566 179.82 89.91C179.82 40.2541 139.566 0 89.91 0C40.2541 0 0 40.2541 0 89.91C0 139.566 40.2541 179.82 89.91 179.82Z" fill="#595A5C"/>
<path d="M60.5801 174.93C60.5801 174.93 89.9101 188.41 119.24 174.93C119.24 174.93 89.9101 185.87 60.5801 174.93Z" fill="#818285"/>
<path d="M49.1201 121.93C52.9301 139.68 66.6301 153.23 83.0801 155.89C103.43 159.18 124.79 145.28 130.7 122.76" stroke="#818285" stroke-width="3" stroke-miterlimit="10"/>
<path d="M28.3901 89.5599C28.3901 89.5599 29.2701 93.5199 38.9401 97.1499C38.9401 97.1499 44.8801 99.8999 47.2901 87.6999C47.2901 87.6999 38.3901 88.3599 28.8201 78.6899C28.8201 78.6899 28.5501 85.7799 41.7401 91.2199C41.7401 91.2199 42.5101 91.8799 41.6901 92.3699C41.6901 92.3699 34.1001 93.4099 28.3901 89.5699V89.5599Z" fill="#60C8D4"/>
<path d="M152.08 89.5599C152.08 89.5599 151.2 93.5199 141.53 97.1499C141.53 97.1499 135.59 99.8999 133.18 87.6999C133.18 87.6999 142.08 88.3599 151.65 78.6899C151.65 78.6899 151.92 85.7799 138.73 91.2199C138.73 91.2199 137.96 91.8799 138.78 92.3699C138.78 92.3699 146.37 93.4099 152.08 89.5699V89.5599Z" fill="#60C8D4"/>
<path opacity="0.57" d="M47.4402 121.2C53.6699 121.2 58.7202 119.87 58.7202 118.23C58.7202 116.589 53.6699 115.26 47.4402 115.26C41.2104 115.26 36.1602 116.589 36.1602 118.23C36.1602 119.87 41.2104 121.2 47.4402 121.2Z" fill="#F7B1C4"/>
<path opacity="0.57" d="M132.38 121.2C138.61 121.2 143.66 119.87 143.66 118.23C143.66 116.589 138.61 115.26 132.38 115.26C126.15 115.26 121.1 116.589 121.1 118.23C121.1 119.87 126.15 121.2 132.38 121.2Z" fill="#F7B1C4"/>
<path d="M43.1401 99.6101C43.9201 91.2801 50.5601 84.7201 58.6501 84.0601C66.2201 83.4401 73.4401 88.1401 76.0401 95.5101" stroke="#818285" stroke-width="3" stroke-miterlimit="10"/>
<path d="M137.7 99.55C136.92 91.22 130.28 84.66 122.19 84C114.62 83.38 107.4 88.08 104.8 95.45" stroke="#818285" stroke-width="3" stroke-miterlimit="10"/>
</g>
<defs>
<clipPath id="clip0_1048_20504">
<rect width="179.82" height="180.92" fill="white"/>
</clipPath>
</defs>
</svg>
