<svg width="181" height="182" viewBox="0 0 181 182" fill="none" xmlns="http://www.w3.org/2000/svg">
<g clip-path="url(#clip0_1048_20365)">
<path d="M90.09 180.18C139.845 180.18 180.18 139.845 180.18 90.09C180.18 40.3347 139.845 0 90.09 0C40.3347 0 0 40.3347 0 90.09C0 139.845 40.3347 180.18 90.09 180.18Z" fill="#595A5C"/>
<path d="M60.7002 175.28C60.7002 175.28 90.0902 188.79 119.48 175.28C119.48 175.28 90.0902 186.24 60.7002 175.28Z" fill="#818285"/>
<path d="M53.97 115.95C53.97 115.95 57.03 115.41 60.36 115.95L58.48 114.4C58.48 114.4 54.52 114.86 53.96 115.95H53.97Z" fill="#60C8D4"/>
<path d="M38.1401 80.7802C38.1401 80.7802 39.0201 84.7402 48.6901 88.3702C48.6901 88.3702 54.6301 91.1202 57.0401 78.9202C57.0401 78.9202 48.1401 79.5802 38.5701 69.9102C38.5701 69.9102 38.3001 77.0002 51.4901 82.4402C51.4901 82.4402 52.2601 83.1001 51.4401 83.5901C51.4401 83.5901 43.8501 84.6302 38.1401 80.7902V80.7802Z" fill="#60C8D4"/>
<path d="M60.7103 115.95C67.4481 115.95 72.9103 107.403 72.9103 96.86C72.9103 86.3169 67.4481 77.77 60.7103 77.77C53.9724 77.77 48.5103 86.3169 48.5103 96.86C48.5103 107.403 53.9724 115.95 60.7103 115.95Z" fill="white"/>
<path d="M142.83 80.7802C142.83 80.7802 141.95 84.7402 132.28 88.3702C132.28 88.3702 126.34 91.1202 123.93 78.9202C123.93 78.9202 132.83 79.5802 142.4 69.9102C142.4 69.9102 142.67 77.0002 129.48 82.4402C129.48 82.4402 128.71 83.1001 129.53 83.5901C129.53 83.5901 137.12 84.6302 142.83 80.7902V80.7802Z" fill="#60C8D4"/>
<path d="M127.5 115.95C127.5 115.95 124.44 115.41 121.11 115.95L122.99 114.4C122.99 114.4 126.95 114.86 127.51 115.95H127.5Z" fill="#60C8D4"/>
<path d="M120.26 115.95C126.998 115.95 132.46 107.403 132.46 96.86C132.46 86.3169 126.998 77.77 120.26 77.77C113.522 77.77 108.06 86.3169 108.06 96.86C108.06 107.403 113.522 115.95 120.26 115.95Z" fill="white"/>
<path d="M60.9699 115.95C66.2553 115.95 70.5399 109.114 70.5399 100.68C70.5399 92.2468 66.2553 85.4102 60.9699 85.4102C55.6845 85.4102 51.3999 92.2468 51.3999 100.68C51.3999 109.114 55.6845 115.95 60.9699 115.95Z" fill="#231F20"/>
<path d="M55.21 92.9999C56.5466 92.9999 57.63 91.3031 57.63 89.2099C57.63 87.1168 56.5466 85.4199 55.21 85.4199C53.8735 85.4199 52.79 87.1168 52.79 89.2099C52.79 91.3031 53.8735 92.9999 55.21 92.9999Z" fill="white"/>
<path d="M120.19 115.95C125.553 115.95 129.9 109.114 129.9 100.68C129.9 92.2468 125.553 85.4102 120.19 85.4102C114.827 85.4102 110.48 92.2468 110.48 100.68C110.48 109.114 114.827 115.95 120.19 115.95Z" fill="#231F20"/>
<path d="M115.1 92.9999C116.437 92.9999 117.52 91.3031 117.52 89.2099C117.52 87.1168 116.437 85.4199 115.1 85.4199C113.764 85.4199 112.68 87.1168 112.68 89.2099C112.68 91.3031 113.764 92.9999 115.1 92.9999Z" fill="white"/>
<path opacity="0.57" d="M49.4299 131.11C55.6597 131.11 60.7099 129.78 60.7099 128.14C60.7099 126.5 55.6597 125.17 49.4299 125.17C43.2001 125.17 38.1499 126.5 38.1499 128.14C38.1499 129.78 43.2001 131.11 49.4299 131.11Z" fill="#F7B1C4"/>
<path opacity="0.57" d="M134.36 131.11C140.59 131.11 145.64 129.78 145.64 128.14C145.64 126.5 140.59 125.17 134.36 125.17C128.13 125.17 123.08 126.5 123.08 128.14C123.08 129.78 128.13 131.11 134.36 131.11Z" fill="#F7B1C4"/>
<path d="M62.3599 176.2C49.5799 179.4 38.7099 168.03 38.0299 167.3C33.8999 160.45 29.7699 153.6 25.6499 146.76L25.3999 146.57L15.2599 138.71L13.5399 137.38C13.3199 136.92 12.3999 134.93 13.2499 133.16C14.6599 130.21 20.7699 131.11 21.4899 131.21C30.7399 132.5 34.1099 141.64 36.5399 140.65C41.1899 138.76 29.6199 104.91 37.8999 100.12C38.1499 99.9799 39.3999 99.2599 40.6499 99.6399C46.6399 101.48 42.3599 125.53 46.8799 126.42C47.3799 126.52 47.7999 126.3 48.0399 126.18C50.8099 124.77 49.4399 118.13 48.9999 106.19C48.6099 95.3299 49.4099 91.5799 51.6099 90.4499C51.8699 90.3199 52.5099 89.9899 53.2599 90.1399C56.7499 90.8399 57.2099 101 57.4599 106.47C57.9899 118.12 56.3799 125.87 58.7599 126.62C59.4099 126.82 60.0699 126.42 60.3399 126.25C62.8199 124.73 61.5799 119.93 61.7799 112.63C61.8699 109.28 62.1599 98.6299 66.0699 97.3899C67.1399 97.0499 68.0899 97.5399 68.1599 97.5699C70.2799 98.6899 70.2199 102.63 69.2399 114.5C68.5199 123.26 67.9999 127.84 69.9999 128.78C70.4599 129 71.1099 129.04 71.6199 128.78C73.1599 128 72.5899 124.93 72.8799 120.82C72.9799 119.43 73.6099 110.46 77.0899 109.41C78.3299 109.04 79.4999 109.8 79.6399 109.9C81.9799 111.47 81.3799 115.69 81.0099 121.52C80.7999 124.82 80.5999 129.51 80.7299 135.28C81.4199 138.07 82.0799 142.14 81.6499 146.99C80.8399 156.07 75.7599 172.84 62.3599 176.19V176.2Z" fill="#595A5C" stroke="#818285" stroke-width="3" stroke-miterlimit="10"/>
<path d="M101.14 177.4C113.92 180.6 124.79 169.23 125.47 168.5C129.6 161.65 133.73 154.8 137.85 147.96L138.1 147.77L148.24 139.91L149.96 138.58C150.18 138.12 151.1 136.13 150.25 134.36C148.84 131.41 142.73 132.31 142.01 132.41C132.76 133.7 129.39 142.84 126.96 141.85C122.31 139.96 144.39 109.61 136.11 104.83C135.86 104.69 135.26 104.27 134.01 104.65C128.02 106.49 121.15 126.73 116.62 127.62C116.12 127.72 115.7 127.5 115.46 127.38C112.69 125.97 114.06 119.33 114.5 107.39C114.89 96.5301 114.09 92.7801 111.89 91.6501C111.63 91.5201 110.99 91.1901 110.24 91.3401C106.75 92.0401 106.29 102.2 106.04 107.67C105.51 119.32 107.12 127.07 104.74 127.82C104.09 128.02 103.43 127.62 103.16 127.45C100.68 125.93 101.92 121.13 101.72 113.83C101.63 110.48 101.34 99.8301 97.4302 98.5901C96.3602 98.2501 95.4102 98.7401 95.3402 98.7701C93.2202 99.8901 93.2802 103.83 94.2602 115.7C94.9802 124.46 95.5002 129.04 93.5002 129.98C93.0402 130.2 92.3902 130.24 91.8802 129.98C90.3402 129.2 90.9102 126.13 90.6202 122.02C90.5202 120.63 89.8902 111.66 86.4102 110.61C85.1702 110.24 84.0002 111 83.8602 111.1C81.5202 112.67 82.1202 116.89 82.4902 122.72C82.7002 126.02 82.9002 130.71 82.7702 136.48C82.0802 139.27 81.4202 143.34 81.8502 148.19C82.6602 157.27 87.7402 174.04 101.14 177.39V177.4Z" fill="#595A5C" stroke="#818285" stroke-width="3" stroke-miterlimit="10"/>
</g>
<defs>
<clipPath id="clip0_1048_20365">
<rect width="180.19" height="181.29" fill="white"/>
</clipPath>
</defs>
</svg>
