<svg width="181" height="182" viewBox="0 0 181 182" fill="none" xmlns="http://www.w3.org/2000/svg">
<g clip-path="url(#clip0_1048_20799)">
<path d="M90.43 180.86C140.373 180.86 180.86 140.373 180.86 90.43C180.86 40.4869 140.373 0 90.43 0C40.4869 0 0 40.4869 0 90.43C0 140.373 40.4869 180.86 90.43 180.86Z" fill="#595A5C"/>
<path d="M60.9302 175.94C60.9302 175.94 90.4302 189.5 119.93 175.94C119.93 175.94 90.4302 186.94 60.9302 175.94Z" fill="#818285"/>
<path d="M67.7002 153.42C71.9702 144.87 79.6302 136.53 87.1802 136.52C98.4202 136.5 112.89 141.78 110.85 161.1" stroke="#818285" stroke-width="2" stroke-miterlimit="10"/>
<path d="M53.5798 116.42C53.5798 116.42 56.6398 115.88 59.9698 116.42L58.0898 114.87C58.0898 114.87 54.1298 115.33 53.5698 116.42H53.5798Z" fill="#60C8D4"/>
<path d="M37.75 81.2499C37.75 81.2499 38.63 85.2099 48.3 88.8399C48.3 88.8399 54.24 91.5899 56.65 79.3899C56.65 79.3899 47.75 80.0499 38.18 70.3799C38.18 70.3799 37.91 77.4699 51.1 82.9099C51.1 82.9099 51.87 83.5699 51.05 84.0599C51.05 84.0599 43.46 85.0999 37.75 81.2599V81.2499Z" fill="#60C8D4"/>
<path d="M60.3201 116.42C67.058 116.42 72.5201 107.873 72.5201 97.3302C72.5201 86.7871 67.058 78.2402 60.3201 78.2402C53.5822 78.2402 48.1201 86.7871 48.1201 97.3302C48.1201 107.873 53.5822 116.42 60.3201 116.42Z" fill="white"/>
<path d="M142.43 81.2499C142.43 81.2499 141.55 85.2099 131.88 88.8399C131.88 88.8399 125.94 91.5899 123.53 79.3899C123.53 79.3899 132.43 80.0499 142 70.3799C142 70.3799 142.27 77.4699 129.08 82.9099C129.08 82.9099 128.31 83.5699 129.13 84.0599C129.13 84.0599 136.72 85.0999 142.43 81.2599V81.2499Z" fill="#60C8D4"/>
<path d="M127.11 116.42C127.11 116.42 124.05 115.88 120.72 116.42L122.6 114.87C122.6 114.87 126.56 115.33 127.12 116.42H127.11Z" fill="#60C8D4"/>
<path d="M119.87 116.42C126.608 116.42 132.07 107.873 132.07 97.3302C132.07 86.7871 126.608 78.2402 119.87 78.2402C113.132 78.2402 107.67 86.7871 107.67 97.3302C107.67 107.873 113.132 116.42 119.87 116.42Z" fill="white"/>
<path d="M60.57 116.42C65.8554 116.42 70.14 109.583 70.14 101.15C70.14 92.7165 65.8554 85.8799 60.57 85.8799C55.2846 85.8799 51 92.7165 51 101.15C51 109.583 55.2846 116.42 60.57 116.42Z" fill="#231F20"/>
<path d="M54.8199 93.4697C56.1564 93.4697 57.2399 91.7728 57.2399 89.6796C57.2399 87.5865 56.1564 85.8896 54.8199 85.8896C53.4834 85.8896 52.3999 87.5865 52.3999 89.6796C52.3999 91.7728 53.4834 93.4697 54.8199 93.4697Z" fill="white"/>
<path d="M119.8 116.42C125.163 116.42 129.51 109.583 129.51 101.15C129.51 92.7165 125.163 85.8799 119.8 85.8799C114.437 85.8799 110.09 92.7165 110.09 101.15C110.09 109.583 114.437 116.42 119.8 116.42Z" fill="#231F20"/>
<path d="M114.71 93.4697C116.047 93.4697 117.13 91.7728 117.13 89.6796C117.13 87.5865 116.047 85.8896 114.71 85.8896C113.374 85.8896 112.29 87.5865 112.29 89.6796C112.29 91.7728 113.374 93.4697 114.71 93.4697Z" fill="white"/>
<path opacity="0.57" d="M49.03 131.58C55.2598 131.58 60.31 130.25 60.31 128.61C60.31 126.969 55.2598 125.64 49.03 125.64C42.8002 125.64 37.75 126.969 37.75 128.61C37.75 130.25 42.8002 131.58 49.03 131.58Z" fill="#F7B1C4"/>
<path opacity="0.57" d="M133.97 131.58C140.2 131.58 145.25 130.25 145.25 128.61C145.25 126.969 140.2 125.64 133.97 125.64C127.74 125.64 122.69 126.969 122.69 128.61C122.69 130.25 127.74 131.58 133.97 131.58Z" fill="#F7B1C4"/>
</g>
<defs>
<clipPath id="clip0_1048_20799">
<rect width="180.86" height="181.97" fill="white"/>
</clipPath>
</defs>
</svg>
