<svg width="180" height="181" viewBox="0 0 180 181" fill="none" xmlns="http://www.w3.org/2000/svg">
<g clip-path="url(#clip0_1048_20760)">
<path d="M89.8 179.6C139.395 179.6 179.6 139.395 179.6 89.8C179.6 40.2048 139.395 0 89.8 0C40.2048 0 0 40.2048 0 89.8C0 139.395 40.2048 179.6 89.8 179.6Z" fill="#595A5C"/>
<path d="M60.5098 174.72C60.5098 174.72 89.8098 188.19 119.1 174.72C119.1 174.72 89.8098 185.65 60.5098 174.72Z" fill="#818285"/>
<path d="M74.8801 139.46C77.2501 134.24 83.5001 130.8 90.2901 130.94C96.6401 131.07 102.35 134.3 104.72 139.12C104.77 143.68 104.81 148.23 104.86 152.79C102.96 158.5 96.3801 162.41 89.1701 162.2C82.3501 162.01 76.3901 158.18 74.6001 152.79C74.6901 148.34 74.7901 143.9 74.8801 139.45V139.46Z" fill="#818285"/>
<path d="M89.8301 133.6C84.7301 133.63 80.1101 136.09 78.1001 139.85C80.6901 140.59 84.8101 141.49 89.9601 141.46C95.0501 141.43 99.1201 140.51 101.68 139.76C99.6301 136 94.9501 133.57 89.8301 133.6Z" fill="white"/>
<path opacity="0.57" d="M48.5202 139.26C54.75 139.26 59.8002 137.931 59.8002 136.29C59.8002 134.65 54.75 133.32 48.5202 133.32C42.2905 133.32 37.2402 134.65 37.2402 136.29C37.2402 137.931 42.2905 139.26 48.5202 139.26Z" fill="#F7B1C4"/>
<path opacity="0.57" d="M133.46 139.26C139.69 139.26 144.74 137.931 144.74 136.29C144.74 134.65 139.69 133.32 133.46 133.32C127.23 133.32 122.18 134.65 122.18 136.29C122.18 137.931 127.23 139.26 133.46 139.26Z" fill="#F7B1C4"/>
<path d="M136.38 166.6C133.83 168.14 130.93 169.73 127.68 171.25C124.51 172.73 121.5 173.92 118.74 174.88C118.73 150.17 118.71 125.46 118.7 100.76H136.75C136.63 122.71 136.5 144.65 136.38 166.6Z" fill="#3EA7B5"/>
<path d="M47.2202 168.89C49.6002 170.37 52.4902 171.94 55.8602 173.38C59.1702 174.79 62.2402 175.76 64.9202 176.45C64.9302 151.22 64.9502 126 64.9602 100.77H46.9102C47.0102 123.48 47.1102 146.19 47.2102 168.9L47.2202 168.89Z" fill="#3EA7B5"/>
<path d="M33.9902 93.7098C33.9902 93.7098 34.8702 97.6699 44.5402 101.3C44.5402 101.3 50.4802 104.05 52.8902 91.8498C52.8902 91.8498 43.9902 92.5098 34.4202 82.8398C34.4202 82.8398 34.1502 89.9299 47.3402 95.3699C47.3402 95.3699 48.1102 96.0298 47.2902 96.5198C47.2902 96.5198 39.7002 97.5598 33.9902 93.7198V93.7098Z" fill="#60C8D4"/>
<path d="M149.68 93.7098C149.68 93.7098 148.8 97.6699 139.13 101.3C139.13 101.3 133.19 104.05 130.78 91.8498C130.78 91.8498 139.68 92.5098 149.25 82.8398C149.25 82.8398 149.52 89.9299 136.33 95.3699C136.33 95.3699 135.56 96.0298 136.38 96.5198C136.38 96.5198 143.97 97.5598 149.68 93.7198V93.7098Z" fill="#60C8D4"/>
<path d="M46.6901 107.9C46.8601 107.65 50.1201 103.1 60.2201 102.13C60.9901 102.06 64.7401 101.72 69.2101 102.28C78.9501 103.5 81.9401 107.69 82.2301 108.11C86.3201 98.2298 81.3601 90.6498 70.8601 89.1098C66.5701 88.4798 62.4201 89.0198 61.0701 89.2198C49.6201 90.9398 43.6901 98.4598 46.7001 107.9H46.6901Z" fill="#818285"/>
<path d="M136.79 107.8C136.62 107.55 133.36 103 123.26 102.03C122.49 101.96 118.74 101.62 114.27 102.18C104.53 103.4 101.54 107.59 101.25 108.01C97.16 98.1302 102.12 90.5502 112.62 89.0102C116.91 88.3802 121.06 88.9202 122.41 89.1202C133.86 90.8402 139.79 98.3602 136.78 107.8H136.79Z" fill="#818285"/>
</g>
<defs>
<clipPath id="clip0_1048_20760">
<rect width="179.61" height="180.71" fill="white"/>
</clipPath>
</defs>
</svg>
