<svg width="181" height="186" viewBox="0 0 181 186" fill="none" xmlns="http://www.w3.org/2000/svg">
<g clip-path="url(#clip0_1048_20738)">
<path d="M90.42 180.84C140.358 180.84 180.84 140.358 180.84 90.42C180.84 40.4824 140.358 0 90.42 0C40.4824 0 0 40.4824 0 90.42C0 140.358 40.4824 180.84 90.42 180.84Z" fill="#595A5C"/>
<path d="M60.9199 175.92C60.9199 175.92 90.4199 189.48 119.91 175.92C119.91 175.92 90.4099 186.92 60.9199 175.92Z" fill="#818285"/>
<path d="M53.7297 116.8C53.7297 116.8 56.7897 116.26 60.1197 116.8L58.2397 115.25C58.2397 115.25 54.2797 115.71 53.7197 116.8H53.7297Z" fill="#60C8D4"/>
<path d="M37.8999 81.6298C37.8999 81.6298 38.7799 85.5898 48.4499 89.2198C48.4499 89.2198 54.3899 91.9698 56.7999 79.7698C56.7999 79.7698 47.8999 80.4298 38.3299 70.7598C38.3299 70.7598 38.0599 77.8498 51.2499 83.2898C51.2499 83.2898 52.0199 83.9498 51.1999 84.4398C51.1999 84.4398 43.6099 85.4798 37.8999 81.6398V81.6298Z" fill="#60C8D4"/>
<path d="M60.47 116.8C67.2079 116.8 72.67 108.253 72.67 97.7101C72.67 87.167 67.2079 78.6201 60.47 78.6201C53.7321 78.6201 48.27 87.167 48.27 97.7101C48.27 108.253 53.7321 116.8 60.47 116.8Z" fill="white"/>
<path d="M142.59 81.6298C142.59 81.6298 141.71 85.5898 132.04 89.2198C132.04 89.2198 126.1 91.9698 123.69 79.7698C123.69 79.7698 132.59 80.4298 142.16 70.7598C142.16 70.7598 142.43 77.8498 129.24 83.2898C129.24 83.2898 128.47 83.9498 129.29 84.4398C129.29 84.4398 136.88 85.4798 142.59 81.6398V81.6298Z" fill="#60C8D4"/>
<path d="M127.26 116.8C127.26 116.8 124.2 116.26 120.87 116.8L122.75 115.25C122.75 115.25 126.71 115.71 127.27 116.8H127.26Z" fill="#60C8D4"/>
<path d="M120.02 116.8C126.758 116.8 132.22 108.253 132.22 97.7101C132.22 87.167 126.758 78.6201 120.02 78.6201C113.282 78.6201 107.82 87.167 107.82 97.7101C107.82 108.253 113.282 116.8 120.02 116.8Z" fill="white"/>
<path d="M60.7297 116.8C66.015 116.8 70.2997 109.963 70.2997 101.53C70.2997 93.0964 66.015 86.2598 60.7297 86.2598C55.4443 86.2598 51.1597 93.0964 51.1597 101.53C51.1597 109.963 55.4443 116.8 60.7297 116.8Z" fill="#231F20"/>
<path d="M54.9698 93.8495C56.3063 93.8495 57.3898 92.1527 57.3898 90.0595C57.3898 87.9664 56.3063 86.2695 54.9698 86.2695C53.6333 86.2695 52.5498 87.9664 52.5498 90.0595C52.5498 92.1527 53.6333 93.8495 54.9698 93.8495Z" fill="white"/>
<path d="M119.95 116.8C125.312 116.8 129.66 109.963 129.66 101.53C129.66 93.0964 125.312 86.2598 119.95 86.2598C114.587 86.2598 110.24 93.0964 110.24 101.53C110.24 109.963 114.587 116.8 119.95 116.8Z" fill="#231F20"/>
<path d="M114.86 93.8495C116.196 93.8495 117.28 92.1527 117.28 90.0595C117.28 87.9664 116.196 86.2695 114.86 86.2695C113.523 86.2695 112.44 87.9664 112.44 90.0595C112.44 92.1527 113.523 93.8495 114.86 93.8495Z" fill="white"/>
<path opacity="0.57" d="M49.1799 131.96C55.4097 131.96 60.4599 130.63 60.4599 128.99C60.4599 127.349 55.4097 126.02 49.1799 126.02C42.9501 126.02 37.8999 127.349 37.8999 128.99C37.8999 130.63 42.9501 131.96 49.1799 131.96Z" fill="#F7B1C4"/>
<path opacity="0.57" d="M134.12 131.96C140.35 131.96 145.4 130.63 145.4 128.99C145.4 127.349 140.35 126.02 134.12 126.02C127.89 126.02 122.84 127.349 122.84 128.99C122.84 130.63 127.89 131.96 134.12 131.96Z" fill="#F7B1C4"/>
<path d="M66.2299 179.46C56.6899 171.79 59.0099 157.36 59.1699 156.44C61.9299 149.54 64.6799 142.64 67.4399 135.74V135.45L67.5699 123.53L67.5899 121.51C67.7999 121.09 68.7699 119.29 70.5599 118.92C73.5399 118.31 76.2999 123.34 76.6299 123.93C80.8699 131.51 75.9899 139.13 78.0799 140.38C82.0899 142.76 100.67 115.2 108.86 118.65C109.11 118.75 110.34 119.27 110.76 120.41C112.76 125.88 92.5399 136.21 94.4199 140.06C94.6299 140.48 95.0199 140.67 95.2499 140.78C97.8499 142.04 101.99 137.3 110.6 130.27C118.42 123.88 121.65 122.37 123.72 123.37C123.96 123.49 124.57 123.78 124.88 124.41C126.32 127.38 119.05 133.43 115.14 136.68C106.81 143.61 100.17 146.77 100.95 148.95C101.16 149.54 101.83 149.81 102.11 149.91C104.63 150.89 107.49 147.28 113 143.33C115.53 141.52 123.58 135.76 126.7 137.96C127.55 138.56 127.73 139.54 127.74 139.61C128.1 141.81 125.15 143.97 115.81 149.91C108.92 154.29 105.24 156.48 105.66 158.49C105.76 158.96 106.09 159.46 106.57 159.69C108.01 160.39 109.97 158.25 113.17 156.16C114.25 155.45 121.26 150.89 123.98 152.87C124.95 153.58 125.04 154.87 125.05 155.04C125.2 157.66 121.74 159.58 117.21 162.58C114.65 164.27 111.07 166.76 106.86 170.09C105.18 172.16 102.54 174.94 98.6999 177.34C91.5199 181.84 76.2499 187.49 66.2499 179.44L66.2299 179.46Z" fill="#595A5C" stroke="#818285" stroke-width="3" stroke-miterlimit="10"/>
</g>
<defs>
<clipPath id="clip0_1048_20738">
<rect width="180.84" height="185.02" fill="white"/>
</clipPath>
</defs>
</svg>
