<svg width="180" height="181" viewBox="0 0 180 181" fill="none" xmlns="http://www.w3.org/2000/svg">
<g clip-path="url(#clip0_1048_20717)">
<path d="M89.8 179.6C139.395 179.6 179.6 139.395 179.6 89.8C179.6 40.2048 139.395 0 89.8 0C40.2048 0 0 40.2048 0 89.8C0 139.395 40.2048 179.6 89.8 179.6Z" fill="#595A5C"/>
<path d="M60.5098 174.72C60.5098 174.72 89.8098 188.19 119.1 174.72C119.1 174.72 89.8098 185.65 60.5098 174.72Z" fill="#818285"/>
<path d="M95.1402 151.72C97.7304 151.72 99.8302 148.694 99.8302 144.96C99.8302 141.227 97.7304 138.2 95.1402 138.2C92.55 138.2 90.4502 141.227 90.4502 144.96C90.4502 148.694 92.55 151.72 95.1402 151.72Z" fill="#818285"/>
<path d="M53.47 116.28C53.47 116.28 56.53 115.74 59.86 116.28L57.98 114.73C57.98 114.73 54.02 115.19 53.46 116.28H53.47Z" fill="#60C8D4"/>
<path d="M37.6401 81.1102C37.6401 81.1102 38.5201 85.0702 48.1901 88.7002C48.1901 88.7002 54.1301 91.4502 56.5401 79.2502C56.5401 79.2502 47.6401 79.9102 38.0701 70.2402C38.0701 70.2402 37.8001 77.3302 50.9901 82.7702C50.9901 82.7702 51.7601 83.4302 50.9401 83.9202C50.9401 83.9202 43.3501 84.9602 37.6401 81.1202V81.1102Z" fill="#60C8D4"/>
<path d="M60.2 116.28C66.9379 116.28 72.4 107.733 72.4 97.1896C72.4 86.6465 66.9379 78.0996 60.2 78.0996C53.4621 78.0996 48 86.6465 48 97.1896C48 107.733 53.4621 116.28 60.2 116.28Z" fill="white"/>
<path d="M142.32 81.1102C142.32 81.1102 141.44 85.0702 131.77 88.7002C131.77 88.7002 125.83 91.4502 123.42 79.2502C123.42 79.2502 132.32 79.9102 141.89 70.2402C141.89 70.2402 142.16 77.3302 128.97 82.7702C128.97 82.7702 128.2 83.4302 129.02 83.9202C129.02 83.9202 136.61 84.9602 142.32 81.1202V81.1102Z" fill="#60C8D4"/>
<path d="M127 116.28C127 116.28 123.94 115.74 120.61 116.28L122.49 114.73C122.49 114.73 126.45 115.19 127.01 116.28H127Z" fill="#60C8D4"/>
<path d="M119.75 116.28C126.488 116.28 131.95 107.733 131.95 97.1896C131.95 86.6465 126.488 78.0996 119.75 78.0996C113.012 78.0996 107.55 86.6465 107.55 97.1896C107.55 107.733 113.012 116.28 119.75 116.28Z" fill="white"/>
<path d="M63.0402 110.13C68.3256 110.13 72.6102 103.293 72.6102 94.8598C72.6102 86.4265 68.3256 79.5898 63.0402 79.5898C57.7548 79.5898 53.4702 86.4265 53.4702 94.8598C53.4702 103.293 57.7548 110.13 63.0402 110.13Z" fill="#231F20"/>
<path d="M57.44 88.7997C58.7765 88.7997 59.86 87.1029 59.86 85.0097C59.86 82.9166 58.7765 81.2197 57.44 81.2197C56.1035 81.2197 55.02 82.9166 55.02 85.0097C55.02 87.1029 56.1035 88.7997 57.44 88.7997Z" fill="white"/>
<path d="M122.27 110.13C127.633 110.13 131.98 103.293 131.98 94.8598C131.98 86.4265 127.633 79.5898 122.27 79.5898C116.907 79.5898 112.56 86.4265 112.56 94.8598C112.56 103.293 116.907 110.13 122.27 110.13Z" fill="#231F20"/>
<path d="M117.33 88.7997C118.667 88.7997 119.75 87.1029 119.75 85.0097C119.75 82.9166 118.667 81.2197 117.33 81.2197C115.994 81.2197 114.91 82.9166 114.91 85.0097C114.91 87.1029 115.994 88.7997 117.33 88.7997Z" fill="white"/>
<path opacity="0.57" d="M48.9201 131.44C55.1499 131.44 60.2001 130.11 60.2001 128.47C60.2001 126.83 55.1499 125.5 48.9201 125.5C42.6904 125.5 37.6401 126.83 37.6401 128.47C37.6401 130.11 42.6904 131.44 48.9201 131.44Z" fill="#F7B1C4"/>
<path opacity="0.57" d="M133.86 131.44C140.09 131.44 145.14 130.11 145.14 128.47C145.14 126.83 140.09 125.5 133.86 125.5C127.63 125.5 122.58 126.83 122.58 128.47C122.58 130.11 127.63 131.44 133.86 131.44Z" fill="#F7B1C4"/>
</g>
<defs>
<clipPath id="clip0_1048_20717">
<rect width="179.61" height="180.71" fill="white"/>
</clipPath>
</defs>
</svg>
