<svg width="181" height="182" viewBox="0 0 181 182" fill="none" xmlns="http://www.w3.org/2000/svg">
<g clip-path="url(#clip0_1048_20897)">
<path d="M90.42 180.84C140.358 180.84 180.84 140.358 180.84 90.42C180.84 40.4824 140.358 0 90.42 0C40.4824 0 0 40.4824 0 90.42C0 140.358 40.4824 180.84 90.42 180.84Z" fill="#595A5C"/>
<path d="M60.9199 175.92C60.9199 175.92 90.4199 189.48 119.91 175.92C119.91 175.92 90.4099 186.92 60.9199 175.92Z" fill="#818285"/>
<path d="M60.3999 136.26C60.3999 136.26 84.0999 144.29 120.68 136.26C120.68 136.26 106.76 158.1 90.5399 157.71C90.5399 157.71 72.7499 158.2 60.3999 136.26Z" fill="white"/>
<path d="M26.1099 85.6698C26.1099 85.6698 26.9899 89.6298 36.6599 93.2598C36.6599 93.2598 42.5999 96.0098 45.0099 83.8098C45.0099 83.8098 36.1099 84.4698 26.5399 74.7998C26.5399 74.7998 26.2699 81.8898 39.4599 87.3298C39.4599 87.3298 40.2299 87.9898 39.4099 88.4798C39.4099 88.4798 31.8199 89.5198 26.1099 85.6798V85.6698Z" fill="#60C8D4"/>
<path d="M153.8 85.6698C153.8 85.6698 152.92 89.6298 143.25 93.2598C143.25 93.2598 137.31 96.0098 134.9 83.8098C134.9 83.8098 143.8 84.4698 153.37 74.7998C153.37 74.7998 153.64 81.8898 140.45 87.3298C140.45 87.3298 139.68 87.9898 140.5 88.4798C140.5 88.4798 148.09 89.5198 153.8 85.6798V85.6698Z" fill="#60C8D4"/>
<path opacity="0.57" d="M48.1399 128.11C54.3696 128.11 59.4199 126.78 59.4199 125.14C59.4199 123.5 54.3696 122.17 48.1399 122.17C41.9101 122.17 36.8599 123.5 36.8599 125.14C36.8599 126.78 41.9101 128.11 48.1399 128.11Z" fill="#F7B1C4"/>
<path opacity="0.57" d="M133.08 128.11C139.31 128.11 144.36 126.78 144.36 125.14C144.36 123.5 139.31 122.17 133.08 122.17C126.85 122.17 121.8 123.5 121.8 125.14C121.8 126.78 126.85 128.11 133.08 128.11Z" fill="#F7B1C4"/>
<path d="M59.7098 91.7598C59.0098 99.5798 58.3098 107.41 57.6098 115.23C52.7498 111.43 47.8898 107.62 43.0398 103.82C35.3598 96.7998 35.2298 87.7298 39.9498 83.7998C42.8398 81.3898 48.3298 80.2598 53.0398 82.2898C57.0598 84.0298 59.6398 87.6898 59.7098 91.7598Z" fill="#E72B5C"/>
<path d="M55.5098 91.7598C56.2098 99.5798 56.9098 107.41 57.6098 115.23C62.4698 111.43 67.3298 107.62 72.1798 103.82C79.8598 96.7998 79.9898 87.7298 75.2698 83.7998C72.3798 81.3898 66.8898 80.2598 62.1798 82.2898C58.1598 84.0298 55.5798 87.6898 55.5098 91.7598Z" fill="#E72B5C"/>
<path d="M124.99 91.7305C124.29 99.5505 123.59 107.38 122.89 115.2C118.03 111.4 113.17 107.59 108.32 103.79C100.64 96.7705 100.51 87.7005 105.23 83.7705C108.12 81.3605 113.61 80.2305 118.32 82.2605C122.34 84.0005 124.92 87.6605 124.99 91.7305Z" fill="#E72B5C"/>
<path d="M120.79 91.7305C121.49 99.5505 122.19 107.38 122.89 115.2C127.75 111.4 132.61 107.59 137.46 103.79C145.14 96.7705 145.27 87.7005 140.55 83.7705C137.66 81.3605 132.17 80.2305 127.46 82.2605C123.44 84.0005 120.86 87.6605 120.79 91.7305Z" fill="#E72B5C"/>
</g>
<defs>
<clipPath id="clip0_1048_20897">
<rect width="180.84" height="181.95" fill="white"/>
</clipPath>
</defs>
</svg>
