<svg width="180" height="181" viewBox="0 0 180 181" fill="none" xmlns="http://www.w3.org/2000/svg">
<g clip-path="url(#clip0_1048_20859)">
<path d="M89.8 179.6C139.395 179.6 179.6 139.395 179.6 89.8C179.6 40.2048 139.395 0 89.8 0C40.2048 0 0 40.2048 0 89.8C0 139.395 40.2048 179.6 89.8 179.6Z" fill="#595A5C"/>
<path d="M60.5098 174.72C60.5098 174.72 89.8098 188.19 119.1 174.72C119.1 174.72 89.8098 185.65 60.5098 174.72Z" fill="#818285"/>
<path d="M59.96 136.41C59.96 136.41 83.5 144.38 119.83 136.41C119.83 136.41 106 158.1 89.9 157.71C89.9 157.71 72.24 158.2 59.97 136.41H59.96Z" fill="white"/>
<path d="M36.27 84.5399C36.27 84.5399 37.15 88.4999 46.82 92.1299C46.82 92.1299 52.76 94.8799 55.17 82.6799C55.17 82.6799 46.27 83.3399 36.7 73.6699C36.7 73.6699 36.43 80.7599 49.62 86.1999C49.62 86.1999 50.39 86.8599 49.57 87.3499C49.57 87.3499 41.98 88.3899 36.27 84.5499V84.5399Z" fill="#60C8D4"/>
<path d="M141.95 85.5399C141.95 85.5399 141.07 89.4999 131.4 93.1299C131.4 93.1299 125.46 95.8799 123.05 83.6799C123.05 83.6799 131.95 84.3399 141.52 74.6699C141.52 74.6699 141.79 81.7599 128.6 87.1999C128.6 87.1999 127.83 87.8599 128.65 88.3499C128.65 88.3499 136.24 89.3899 141.95 85.5499V85.5399Z" fill="#60C8D4"/>
<path opacity="0.57" d="M47.1399 133.07C53.3696 133.07 58.4199 131.74 58.4199 130.1C58.4199 128.46 53.3696 127.13 47.1399 127.13C40.9101 127.13 35.8599 128.46 35.8599 130.1C35.8599 131.74 40.9101 133.07 47.1399 133.07Z" fill="#F7B1C4"/>
<path opacity="0.57" d="M132.08 133.07C138.31 133.07 143.36 131.74 143.36 130.1C143.36 128.46 138.31 127.13 132.08 127.13C125.85 127.13 120.8 128.46 120.8 130.1C120.8 131.74 125.85 133.07 132.08 133.07Z" fill="#F7B1C4"/>
<path d="M59.85 73.0898L66.9 87.3798L82.68 89.6698L71.26 100.8L73.96 116.51L59.85 109.09L45.74 116.51L48.43 100.8L37.02 89.6698L52.79 87.3798L59.85 73.0898Z" fill="#818285"/>
<path d="M119.32 74.6602L126.37 88.9501L142.14 91.2402L130.73 102.37L133.42 118.08L119.32 110.66L105.21 118.08L107.9 102.37L96.4902 91.2402L112.26 88.9501L119.32 74.6602Z" fill="#818285"/>
</g>
<defs>
<clipPath id="clip0_1048_20859">
<rect width="179.61" height="180.71" fill="white"/>
</clipPath>
</defs>
</svg>
