<svg width="181" height="190" viewBox="0 0 181 190" fill="none" xmlns="http://www.w3.org/2000/svg">
<g clip-path="url(#clip0_1048_21140)">
<path d="M90.42 180.84C140.358 180.84 180.84 140.358 180.84 90.42C180.84 40.4824 140.358 0 90.42 0C40.4824 0 0 40.4824 0 90.42C0 140.358 40.4824 180.84 90.42 180.84Z" fill="#595A5C"/>
<path d="M60.9199 175.92C60.9199 175.92 90.4199 189.48 119.91 175.92C119.91 175.92 90.4099 186.92 60.9199 175.92Z" fill="#818285"/>
<path d="M120.46 161.09C118.02 158.92 106.06 148.74 88.2302 149.56C73.0102 150.26 63.0302 158.54 60.1802 161.09C61.7602 157.72 66.5202 148.74 76.9602 143.42C82.1402 140.78 86.9902 139.93 90.3102 139.64C93.5502 139.79 99.8002 140.53 106.3 144.44C115.46 149.94 119.25 158.16 120.44 161.09H120.46Z" fill="#818285"/>
<path d="M78.7499 144.42C77.5399 147.96 75.8099 152.08 73.3299 156.5C71.0099 160.62 68.5399 164.1 66.2499 166.93C64.6799 165.06 62.1899 164.09 59.7699 164.46C57.1099 164.86 55.6699 166.7 55.3999 167.07C51.1399 164.26 45.7799 165.28 43.7999 168.17C42.4199 170.18 42.6999 173.07 44.3999 175.45C41.8799 179.21 43.5399 183.72 46.8099 185.06C49.2599 186.07 52.5999 185.29 54.7899 183C54.7299 186.5 57.9899 189.26 61.5699 189.04C64.9399 188.83 67.6899 186.02 67.4499 182.72C71.2799 183.79 75.1299 182.72 76.6399 180.52C78.6399 177.61 76.9399 172.17 71.3699 170.09C73.3499 167.49 76.1099 163.17 77.6999 157.32C79.1399 152 79.0699 147.44 78.7499 144.41V144.42Z" fill="white" stroke="#818285" stroke-miterlimit="10"/>
<path d="M101.7 144.83C102.91 148.37 104.64 152.49 107.12 156.91C109.44 161.03 111.91 164.51 114.2 167.34C115.77 165.47 118.26 164.5 120.68 164.87C123.34 165.27 124.78 167.11 125.05 167.48C129.31 164.67 134.67 165.69 136.65 168.58C138.03 170.59 137.75 173.48 136.05 175.86C138.57 179.62 136.91 184.13 133.64 185.47C131.19 186.48 127.85 185.7 125.66 183.41C125.72 186.91 122.46 189.67 118.88 189.45C115.51 189.24 112.76 186.43 113 183.13C109.17 184.2 105.32 183.13 103.81 180.93C101.81 178.02 103.51 172.58 109.08 170.5C107.1 167.9 104.34 163.58 102.75 157.73C101.31 152.41 101.38 147.85 101.7 144.82V144.83Z" fill="white" stroke="#818285" stroke-miterlimit="10"/>
<path d="M54.3401 116.611C54.3401 116.611 57.4001 116.071 60.7301 116.611L58.8501 115.061C58.8501 115.061 54.8901 115.521 54.3301 116.611H54.3401Z" fill="#60C8D4"/>
<path d="M38.5 81.4501C38.5 81.4501 39.38 85.4101 49.05 89.0401C49.05 89.0401 54.99 91.7901 57.4 79.5901C57.4 79.5901 48.5 80.2501 38.93 70.5801C38.93 70.5801 38.66 77.6701 51.85 83.1101C51.85 83.1101 52.62 83.7701 51.8 84.2601C51.8 84.2601 44.21 85.3001 38.5 81.4601V81.4501Z" fill="#60C8D4"/>
<path d="M61.0701 116.62C67.808 116.62 73.2701 108.074 73.2701 97.5304C73.2701 86.9873 67.808 78.4404 61.0701 78.4404C54.3322 78.4404 48.8701 86.9873 48.8701 97.5304C48.8701 108.074 54.3322 116.62 61.0701 116.62Z" fill="white"/>
<path d="M143.19 81.4501C143.19 81.4501 142.31 85.4101 132.64 89.0401C132.64 89.0401 126.7 91.7901 124.29 79.5901C124.29 79.5901 133.19 80.2501 142.76 70.5801C142.76 70.5801 143.03 77.6701 129.84 83.1101C129.84 83.1101 129.07 83.7701 129.89 84.2601C129.89 84.2601 137.48 85.3001 143.19 81.4601V81.4501Z" fill="#60C8D4"/>
<path d="M127.86 116.611C127.86 116.611 124.8 116.071 121.47 116.611L123.35 115.061C123.35 115.061 127.31 115.521 127.87 116.611H127.86Z" fill="#60C8D4"/>
<path d="M120.62 116.62C127.358 116.62 132.82 108.074 132.82 97.5304C132.82 86.9873 127.358 78.4404 120.62 78.4404C113.882 78.4404 108.42 86.9873 108.42 97.5304C108.42 108.074 113.882 116.62 120.62 116.62Z" fill="white"/>
<path d="M61.3298 116.62C66.6151 116.62 70.8998 109.783 70.8998 101.35C70.8998 92.9167 66.6151 86.0801 61.3298 86.0801C56.0444 86.0801 51.7598 92.9167 51.7598 101.35C51.7598 109.783 56.0444 116.62 61.3298 116.62Z" fill="#231F20"/>
<path d="M55.5699 93.6601C56.9064 93.6601 57.9899 91.9632 57.9899 89.8701C57.9899 87.7769 56.9064 86.0801 55.5699 86.0801C54.2334 86.0801 53.1499 87.7769 53.1499 89.8701C53.1499 91.9632 54.2334 93.6601 55.5699 93.6601Z" fill="white"/>
<path d="M120.55 116.62C125.913 116.62 130.26 109.783 130.26 101.35C130.26 92.9167 125.913 86.0801 120.55 86.0801C115.187 86.0801 110.84 92.9167 110.84 101.35C110.84 109.783 115.187 116.62 120.55 116.62Z" fill="#231F20"/>
<path d="M115.46 93.6601C116.797 93.6601 117.88 91.9632 117.88 89.8701C117.88 87.7769 116.797 86.0801 115.46 86.0801C114.124 86.0801 113.04 87.7769 113.04 89.8701C113.04 91.9632 114.124 93.6601 115.46 93.6601Z" fill="white"/>
<path opacity="0.57" d="M49.7898 131.78C56.0195 131.78 61.0698 130.45 61.0698 128.81C61.0698 127.17 56.0195 125.84 49.7898 125.84C43.56 125.84 38.5098 127.17 38.5098 128.81C38.5098 130.45 43.56 131.78 49.7898 131.78Z" fill="#F7B1C4"/>
<path opacity="0.57" d="M134.72 131.78C140.95 131.78 146 130.45 146 128.81C146 127.17 140.95 125.84 134.72 125.84C128.49 125.84 123.44 127.17 123.44 128.81C123.44 130.45 128.49 131.78 134.72 131.78Z" fill="#F7B1C4"/>
<path d="M121.267 58.2721L89.3701 78.5928L100.422 95.9413L132.319 75.6207L121.267 58.2721Z" fill="#595A5C"/>
<path d="M46.5624 72.8893L78.4595 93.21L89.5117 75.8614L57.6147 55.5407L46.5624 72.8893Z" fill="#595A5C"/>
</g>
<defs>
<clipPath id="clip0_1048_21140">
<rect width="180.84" height="189.97" fill="white"/>
</clipPath>
</defs>
</svg>
