<svg width="180" height="181" viewBox="0 0 180 181" fill="none" xmlns="http://www.w3.org/2000/svg">
<g clip-path="url(#clip0_1048_20874)">
<path d="M89.61 179.22C139.1 179.22 179.22 139.1 179.22 89.61C179.22 40.1198 139.1 0 89.61 0C40.1198 0 0 40.1198 0 89.61C0 139.1 40.1198 179.22 89.61 179.22Z" fill="#595A5C"/>
<path d="M60.3799 174.34C60.3799 174.34 89.6099 187.78 118.84 174.34C118.84 174.34 89.6099 185.24 60.3799 174.34Z" fill="#818285"/>
<path d="M44.3901 102.54C47.4401 103.51 52.8001 105.68 57.4701 110.61C65.2601 118.84 68.7801 132.29 63.7701 143.57C61.0401 149.71 56.5501 153.49 53.5501 155.53C54.9401 153.65 63.2101 142.03 60.1901 126.38C57.3401 111.57 46.4701 103.95 44.3901 102.55V102.54Z" fill="#818285"/>
<path d="M132.09 102.9C129.04 103.87 123.68 106.04 119.01 110.97C111.22 119.2 107.7 132.65 112.71 143.93C115.44 150.07 119.93 153.85 122.93 155.89C121.54 154.01 113.27 142.39 116.29 126.74C119.14 111.93 130.01 104.31 132.09 102.91V102.9Z" fill="#818285"/>
<path d="M68.2102 129.62C67.5902 128.62 66.6402 126.79 66.3702 124.32C66.1802 122.6 66.3702 121.16 66.6002 120.17C68.9902 118.39 76.4802 113.28 87.3302 113.26C98.5202 113.24 106.19 118.62 108.52 120.4C108.84 121.44 109.24 123.24 108.98 125.47C108.66 128.15 107.55 130.06 106.91 131C103.7 129.14 96.7702 125.72 87.3302 125.47C78.3402 125.24 71.5302 128 68.2102 129.62Z" fill="#818285"/>
<path d="M135.22 23.5303L125.75 55.3703C124.92 63.0503 130.64 69.2003 136.36 69.3903C142.4 69.5903 148.79 63.1403 147.73 54.9903C143.56 44.5003 139.39 34.0203 135.22 23.5303Z" fill="#4DC6DE"/>
<path d="M61.2202 94.9198C61.2202 94.9198 63.5202 94.5198 66.0302 94.9198L64.6202 93.7598C64.6202 93.7598 61.6402 94.0998 61.2202 94.9198Z" fill="#60C8D4"/>
<path d="M49.3101 68.47C49.3101 68.47 49.9701 71.45 57.2501 74.18C57.2501 74.18 61.7201 76.25 63.5301 67.07C63.5301 67.07 56.8301 67.57 49.6401 60.29C49.6401 60.29 49.4301 65.62 59.3601 69.72C59.3601 69.72 59.9401 70.22 59.3201 70.59C59.3201 70.59 53.6101 71.38 49.3101 68.48V68.47Z" fill="#60C8D4"/>
<path d="M66.2899 94.9202C71.3598 94.9202 75.4699 88.491 75.4699 80.5602C75.4699 72.6294 71.3598 66.2002 66.2899 66.2002C61.2199 66.2002 57.1099 72.6294 57.1099 80.5602C57.1099 88.491 61.2199 94.9202 66.2899 94.9202Z" fill="white"/>
<path d="M128.06 68.47C128.06 68.47 127.4 71.45 120.12 74.18C120.12 74.18 115.65 76.25 113.84 67.07C113.84 67.07 120.54 67.57 127.73 60.29C127.73 60.29 127.94 65.62 118.01 69.72C118.01 69.72 117.43 70.22 118.05 70.59C118.05 70.59 123.76 71.38 128.06 68.48V68.47Z" fill="#60C8D4"/>
<path d="M116.53 94.9198C116.53 94.9198 114.23 94.5198 111.72 94.9198L113.13 93.7598C113.13 93.7598 116.11 94.0998 116.53 94.9198Z" fill="#60C8D4"/>
<path d="M111.09 94.9202C116.16 94.9202 120.27 88.491 120.27 80.5602C120.27 72.6294 116.16 66.2002 111.09 66.2002C106.02 66.2002 101.91 72.6294 101.91 80.5602C101.91 88.491 106.02 94.9202 111.09 94.9202Z" fill="white"/>
<path d="M66.4803 94.92C70.4567 94.92 73.6803 89.7802 73.6803 83.44C73.6803 77.0997 70.4567 71.96 66.4803 71.96C62.5038 71.96 59.2803 77.0997 59.2803 83.44C59.2803 89.7802 62.5038 94.92 66.4803 94.92Z" fill="#231F20"/>
<path d="M62.1501 77.66C63.1552 77.66 63.9701 76.384 63.9701 74.81C63.9701 73.2359 63.1552 71.96 62.1501 71.96C61.1449 71.96 60.3301 73.2359 60.3301 74.81C60.3301 76.384 61.1449 77.66 62.1501 77.66Z" fill="white"/>
<path d="M111.03 94.92C115.067 94.92 118.34 89.7802 118.34 83.44C118.34 77.0997 115.067 71.96 111.03 71.96C106.993 71.96 103.72 77.0997 103.72 83.44C103.72 89.7802 106.993 94.92 111.03 94.92Z" fill="#231F20"/>
<path d="M107.21 77.66C108.215 77.66 109.03 76.384 109.03 74.81C109.03 73.2359 108.215 71.96 107.21 71.96C106.205 71.96 105.39 73.2359 105.39 74.81C105.39 76.384 106.205 77.66 107.21 77.66Z" fill="white"/>
</g>
<defs>
<clipPath id="clip0_1048_20874">
<rect width="179.22" height="180.31" fill="white"/>
</clipPath>
</defs>
</svg>
