<svg width="180" height="181" viewBox="0 0 180 181" fill="none" xmlns="http://www.w3.org/2000/svg">
<g clip-path="url(#clip0_1048_21075)">
<path d="M89.8 179.6C139.395 179.6 179.6 139.395 179.6 89.8C179.6 40.2048 139.395 0 89.8 0C40.2048 0 0 40.2048 0 89.8C0 139.395 40.2048 179.6 89.8 179.6Z" fill="#595A5C"/>
<path d="M60.5098 174.72C60.5098 174.72 89.8098 188.19 119.1 174.72C119.1 174.72 89.8098 185.65 60.5098 174.72Z" fill="#818285"/>
<path d="M66.38 154.69C65.13 152.89 69.21 147.95 72.39 145.25C79.44 139.27 88.11 139.25 91.05 139.38C94.24 139.52 102.24 140.32 108.64 146.3C109.36 146.97 114.27 151.56 113.14 153.43C111.71 155.81 102.9 149.86 89.98 150.07C76.52 150.3 68.04 157.07 66.39 154.68L66.38 154.69Z" fill="white"/>
<path d="M53.0798 115.84C53.0798 115.84 56.1398 115.3 59.4698 115.84L57.5898 114.29C57.5898 114.29 53.6298 114.75 53.0698 115.84H53.0798Z" fill="#60C8D4"/>
<path d="M38.1899 91.7196C38.1899 91.7196 39.0699 95.6796 48.7399 99.3096C48.7399 99.3096 54.6799 102.06 57.0899 89.8596C57.0899 89.8596 48.1899 90.5196 38.6199 80.8496C38.6199 80.8496 38.3499 87.9396 51.5399 93.3796C51.5399 93.3796 52.3099 94.0396 51.4899 94.5296C51.4899 94.5296 43.8999 95.5696 38.1899 91.7296V91.7196Z" fill="#60C8D4"/>
<path d="M59.8099 115.84C66.5477 115.84 72.0099 107.293 72.0099 96.7502C72.0099 86.207 66.5477 77.6602 59.8099 77.6602C53.072 77.6602 47.6099 86.207 47.6099 96.7502C47.6099 107.293 53.072 115.84 59.8099 115.84Z" fill="white"/>
<path d="M142.88 91.7196C142.88 91.7196 142 95.6796 132.33 99.3096C132.33 99.3096 126.39 102.06 123.98 89.8596C123.98 89.8596 132.88 90.5196 142.45 80.8496C142.45 80.8496 142.72 87.9396 129.53 93.3796C129.53 93.3796 128.76 94.0396 129.58 94.5296C129.58 94.5296 137.17 95.5696 142.88 91.7296V91.7196Z" fill="#60C8D4"/>
<path d="M126.6 115.84C126.6 115.84 123.54 115.3 120.21 115.84L122.09 114.29C122.09 114.29 126.05 114.75 126.61 115.84H126.6Z" fill="#60C8D4"/>
<path d="M119.36 115.84C126.098 115.84 131.56 107.293 131.56 96.7502C131.56 86.207 126.098 77.6602 119.36 77.6602C112.622 77.6602 107.16 86.207 107.16 96.7502C107.16 107.293 112.622 115.84 119.36 115.84Z" fill="white"/>
<path d="M60.07 115.84C65.3554 115.84 69.64 109.003 69.64 100.57C69.64 92.1364 65.3554 85.2998 60.07 85.2998C54.7846 85.2998 50.5 92.1364 50.5 100.57C50.5 109.003 54.7846 115.84 60.07 115.84Z" fill="#231F20"/>
<path d="M54.3101 92.8896C55.6467 92.8896 56.7301 91.1927 56.7301 89.0996C56.7301 87.0064 55.6467 85.3096 54.3101 85.3096C52.9736 85.3096 51.8901 87.0064 51.8901 89.0996C51.8901 91.1927 52.9736 92.8896 54.3101 92.8896Z" fill="white"/>
<path d="M119.29 115.84C124.653 115.84 129 109.003 129 100.57C129 92.1364 124.653 85.2998 119.29 85.2998C113.927 85.2998 109.58 92.1364 109.58 100.57C109.58 109.003 113.927 115.84 119.29 115.84Z" fill="#231F20"/>
<path d="M114.2 92.8896C115.536 92.8896 116.62 91.1927 116.62 89.0996C116.62 87.0064 115.536 85.3096 114.2 85.3096C112.863 85.3096 111.78 87.0064 111.78 89.0996C111.78 91.1927 112.863 92.8896 114.2 92.8896Z" fill="white"/>
<path opacity="0.57" d="M48.53 131C54.7598 131 59.81 129.67 59.81 128.03C59.81 126.389 54.7598 125.06 48.53 125.06C42.3002 125.06 37.25 126.389 37.25 128.03C37.25 129.67 42.3002 131 48.53 131Z" fill="#F7B1C4"/>
<path opacity="0.57" d="M133.46 131C139.69 131 144.74 129.67 144.74 128.03C144.74 126.389 139.69 125.06 133.46 125.06C127.23 125.06 122.18 126.389 122.18 128.03C122.18 129.67 127.23 131 133.46 131Z" fill="#F7B1C4"/>
<path d="M130.17 65.46H49.02V87.69H130.17V65.46Z" fill="#595A5C"/>
</g>
<defs>
<clipPath id="clip0_1048_21075">
<rect width="179.61" height="180.71" fill="white"/>
</clipPath>
</defs>
</svg>
