<svg width="180" height="181" viewBox="0 0 180 181" fill="none" xmlns="http://www.w3.org/2000/svg">
<g clip-path="url(#clip0_1048_21032)">
<path d="M89.91 179.82C139.566 179.82 179.82 139.566 179.82 89.91C179.82 40.2541 139.566 0 89.91 0C40.2541 0 0 40.2541 0 89.91C0 139.566 40.2541 179.82 89.91 179.82Z" fill="#595A5C"/>
<path d="M60.7202 174.93C60.7202 174.93 90.0502 188.41 119.38 174.93C119.38 174.93 90.0502 185.87 60.7202 174.93Z" fill="#818285"/>
<path d="M59.9902 134.94C59.9902 134.94 83.3702 142.86 119.45 134.94C119.45 134.94 105.71 156.48 89.7202 156.1C89.7202 156.1 72.1702 156.59 59.9902 134.94Z" fill="white"/>
<path d="M54.8398 115.05C54.8398 115.05 57.7998 114.53 61.0298 115.05L59.2098 113.55C59.2098 113.55 55.3798 113.99 54.8398 115.05Z" fill="#60C8D4"/>
<path d="M39.52 81.0202C39.52 81.0202 40.37 84.8502 49.73 88.3602C49.73 88.3602 55.47 91.0202 57.81 79.2102C57.81 79.2102 49.19 79.8502 39.94 70.4902C39.94 70.4902 39.67 77.3502 52.44 82.6202C52.44 82.6202 53.18 83.2602 52.39 83.7402C52.39 83.7402 45.05 84.7502 39.52 81.0302V81.0202Z" fill="#60C8D4"/>
<path d="M61.3598 115.05C67.8823 115.05 73.1698 106.781 73.1698 96.5804C73.1698 86.3797 67.8823 78.1104 61.3598 78.1104C54.8373 78.1104 49.5498 86.3797 49.5498 96.5804C49.5498 106.781 54.8373 115.05 61.3598 115.05Z" fill="white"/>
<path d="M140.82 81.0202C140.82 81.0202 139.97 84.8502 130.61 88.3602C130.61 88.3602 124.87 91.0202 122.53 79.2102C122.53 79.2102 131.15 79.8502 140.4 70.4902C140.4 70.4902 140.67 77.3502 127.9 82.6202C127.9 82.6202 127.16 83.2602 127.95 83.7402C127.95 83.7402 135.29 84.7502 140.82 81.0302V81.0202Z" fill="#60C8D4"/>
<path d="M126 115.05C126 115.05 123.04 114.53 119.81 115.05L121.63 113.55C121.63 113.55 125.46 113.99 126 115.05Z" fill="#60C8D4"/>
<path d="M118.99 115.05C125.513 115.05 130.8 106.781 130.8 96.5804C130.8 86.3797 125.513 78.1104 118.99 78.1104C112.468 78.1104 107.18 86.3797 107.18 96.5804C107.18 106.781 112.468 115.05 118.99 115.05Z" fill="white"/>
<path d="M61.6101 115.05C66.7243 115.05 70.8701 108.437 70.8701 100.28C70.8701 92.1225 66.7243 85.5098 61.6101 85.5098C56.4959 85.5098 52.3501 92.1225 52.3501 100.28C52.3501 108.437 56.4959 115.05 61.6101 115.05Z" fill="#231F20"/>
<path d="M56.0399 92.84C57.3378 92.84 58.3899 91.1969 58.3899 89.17C58.3899 87.1431 57.3378 85.5 56.0399 85.5C54.7421 85.5 53.6899 87.1431 53.6899 89.17C53.6899 91.1969 54.7421 92.84 56.0399 92.84Z" fill="white"/>
<path d="M118.92 115.05C124.111 115.05 128.32 108.437 128.32 100.28C128.32 92.1225 124.111 85.5098 118.92 85.5098C113.729 85.5098 109.52 92.1225 109.52 100.28C109.52 108.437 113.729 115.05 118.92 115.05Z" fill="#231F20"/>
<path d="M114 92.84C115.298 92.84 116.35 91.1969 116.35 89.17C116.35 87.1431 115.298 85.5 114 85.5C112.702 85.5 111.65 87.1431 111.65 89.17C111.65 91.1969 112.702 92.84 114 92.84Z" fill="white"/>
<path opacity="0.57" d="M50.44 129.731C56.471 129.731 61.36 128.441 61.36 126.851C61.36 125.26 56.471 123.971 50.44 123.971C44.4091 123.971 39.52 125.26 39.52 126.851C39.52 128.441 44.4091 129.731 50.44 129.731Z" fill="#F7B1C4"/>
<path opacity="0.57" d="M132.64 129.731C138.671 129.731 143.56 128.441 143.56 126.851C143.56 125.26 138.671 123.971 132.64 123.971C126.609 123.971 121.72 125.26 121.72 126.851C121.72 128.441 126.609 129.731 132.64 129.731Z" fill="#F7B1C4"/>
</g>
<defs>
<clipPath id="clip0_1048_21032">
<rect width="179.83" height="180.93" fill="white"/>
</clipPath>
</defs>
</svg>
