<svg width="181" height="182" viewBox="0 0 181 182" fill="none" xmlns="http://www.w3.org/2000/svg">
<g clip-path="url(#clip0_1048_21097)">
<path d="M90.42 180.84C140.358 180.84 180.84 140.358 180.84 90.42C180.84 40.4824 140.358 0 90.42 0C40.4824 0 0 40.4824 0 90.42C0 140.358 40.4824 180.84 90.42 180.84Z" fill="#595A5C"/>
<path d="M60.9199 175.92C60.9199 175.92 90.4199 189.48 119.91 175.92C119.91 175.92 90.4099 186.92 60.9199 175.92Z" fill="#818285"/>
<path d="M79.42 145.77C84.69 145.72 90.66 145.81 97.2 146.16C103.22 146.48 108.68 146.96 113.48 147.5C109.11 148.34 103.6 149.2 97.08 149.79C90.55 150.38 84.75 150.54 80.03 150.53C74.88 150.41 71.85 148.72 72.21 147.63C72.52 146.68 75.52 145.74 79.42 145.76V145.77Z" fill="#818285"/>
<path d="M144.46 19.4502L134.9 51.5702C134.07 59.3202 139.84 65.5302 145.61 65.7202C151.71 65.9202 158.15 59.4202 157.08 51.1902C152.87 40.6102 148.67 30.0302 144.46 19.4502Z" fill="#4DC6DE"/>
<path d="M53.4499 116.26C53.4499 116.26 56.5099 115.72 59.8399 116.26L57.9599 114.71C57.9599 114.71 53.9999 115.17 53.4399 116.26H53.4499Z" fill="#60C8D4"/>
<path d="M37.6201 81.1005C37.6201 81.1005 38.5001 85.0605 48.1701 88.6905C48.1701 88.6905 54.1101 91.4405 56.5201 79.2405C56.5201 79.2405 47.6201 79.9005 38.0501 70.2305C38.0501 70.2305 37.7801 77.3205 50.9701 82.7605C50.9701 82.7605 51.7401 83.4205 50.9201 83.9105C50.9201 83.9105 43.3301 84.9505 37.6201 81.1105V81.1005Z" fill="#60C8D4"/>
<path d="M60.1902 116.27C66.9281 116.27 72.3902 107.723 72.3902 97.1798C72.3902 86.6367 66.9281 78.0898 60.1902 78.0898C53.4524 78.0898 47.9902 86.6367 47.9902 97.1798C47.9902 107.723 53.4524 116.27 60.1902 116.27Z" fill="white"/>
<path d="M142.3 81.1005C142.3 81.1005 141.42 85.0605 131.75 88.6905C131.75 88.6905 125.81 91.4405 123.4 79.2405C123.4 79.2405 132.3 79.9005 141.87 70.2305C141.87 70.2305 142.14 77.3205 128.95 82.7605C128.95 82.7605 128.18 83.4205 129 83.9105C129 83.9105 136.59 84.9505 142.3 81.1105V81.1005Z" fill="#60C8D4"/>
<path d="M126.98 116.26C126.98 116.26 123.92 115.72 120.59 116.26L122.47 114.71C122.47 114.71 126.43 115.17 126.99 116.26H126.98Z" fill="#60C8D4"/>
<path d="M119.74 116.27C126.478 116.27 131.94 107.723 131.94 97.1798C131.94 86.6367 126.478 78.0898 119.74 78.0898C113.002 78.0898 107.54 86.6367 107.54 97.1798C107.54 107.723 113.002 116.27 119.74 116.27Z" fill="white"/>
<path d="M59.4401 108.67C64.7255 108.67 69.0101 101.833 69.0101 93.3999C69.0101 84.9665 64.7255 78.1299 59.4401 78.1299C54.1548 78.1299 49.8701 84.9665 49.8701 93.3999C49.8701 101.833 54.1548 108.67 59.4401 108.67Z" fill="#231F20"/>
<path d="M55.88 87.5995C57.2165 87.5995 58.3 85.9027 58.3 83.8095C58.3 81.7164 57.2165 80.0195 55.88 80.0195C54.5434 80.0195 53.46 81.7164 53.46 83.8095C53.46 85.9027 54.5434 87.5995 55.88 87.5995Z" fill="white"/>
<path d="M118.67 108.67C124.033 108.67 128.38 101.833 128.38 93.3999C128.38 84.9665 124.033 78.1299 118.67 78.1299C113.307 78.1299 108.96 84.9665 108.96 93.3999C108.96 101.833 113.307 108.67 118.67 108.67Z" fill="#231F20"/>
<path d="M115.19 87.5995C116.527 87.5995 117.61 85.9027 117.61 83.8095C117.61 81.7164 116.527 80.0195 115.19 80.0195C113.853 80.0195 112.77 81.7164 112.77 83.8095C112.77 85.9027 113.853 87.5995 115.19 87.5995Z" fill="white"/>
<path opacity="0.57" d="M48.9001 131.43C55.1299 131.43 60.1801 130.101 60.1801 128.46C60.1801 126.82 55.1299 125.49 48.9001 125.49C42.6703 125.49 37.6201 126.82 37.6201 128.46C37.6201 130.101 42.6703 131.43 48.9001 131.43Z" fill="#F7B1C4"/>
<path opacity="0.57" d="M133.84 131.43C140.07 131.43 145.12 130.101 145.12 128.46C145.12 126.82 140.07 125.49 133.84 125.49C127.61 125.49 122.56 126.82 122.56 128.46C122.56 130.101 127.61 131.43 133.84 131.43Z" fill="#F7B1C4"/>
</g>
<defs>
<clipPath id="clip0_1048_21097">
<rect width="180.84" height="181.95" fill="white"/>
</clipPath>
</defs>
</svg>
