<svg width="180" height="181" viewBox="0 0 180 181" fill="none" xmlns="http://www.w3.org/2000/svg">
<g clip-path="url(#clip0_1049_8413)">
<path d="M89.89 179.78C139.535 179.78 179.78 139.535 179.78 89.89C179.78 40.2451 139.535 0 89.89 0C40.2451 0 0 40.2451 0 89.89C0 139.535 40.2451 179.78 89.89 179.78Z" fill="#595A5C"/>
<path d="M60.5698 174.89C60.5698 174.89 89.8898 188.37 119.22 174.89C119.22 174.89 89.8998 185.83 60.5698 174.89Z" fill="#818285"/>
<path d="M96.9998 154.66C99.5955 154.66 101.7 151.629 101.7 147.89C101.7 144.151 99.5955 141.12 96.9998 141.12C94.4041 141.12 92.2998 144.151 92.2998 147.89C92.2998 151.629 94.4041 154.66 96.9998 154.66Z" fill="#818285" stroke="#818285" stroke-width="5" stroke-miterlimit="10"/>
<path d="M53.53 116.33C53.53 116.33 56.59 115.79 59.92 116.33L58.04 114.78C58.04 114.78 54.08 115.24 53.52 116.33H53.53Z" fill="#60C8D4"/>
<path d="M37.7002 81.16C37.7002 81.16 38.5802 85.12 48.2502 88.75C48.2502 88.75 54.1902 91.5 56.6002 79.3C56.6002 79.3 47.7002 79.96 38.1302 70.29C38.1302 70.29 37.8602 77.38 51.0502 82.82C51.0502 82.82 51.8202 83.48 51.0002 83.97C51.0002 83.97 43.4102 85.01 37.7002 81.17V81.16Z" fill="#60C8D4"/>
<path d="M60.2601 116.34C66.9979 116.34 72.4601 107.793 72.4601 97.2502C72.4601 86.707 66.9979 78.1602 60.2601 78.1602C53.5222 78.1602 48.0601 86.707 48.0601 97.2502C48.0601 107.793 53.5222 116.34 60.2601 116.34Z" fill="white"/>
<path d="M142.38 81.16C142.38 81.16 141.5 85.12 131.83 88.75C131.83 88.75 125.89 91.5 123.48 79.3C123.48 79.3 132.38 79.96 141.95 70.29C141.95 70.29 142.22 77.38 129.03 82.82C129.03 82.82 128.26 83.48 129.08 83.97C129.08 83.97 136.67 85.01 142.38 81.17V81.16Z" fill="#60C8D4"/>
<path d="M127.06 116.33C127.06 116.33 124 115.79 120.67 116.33L122.55 114.78C122.55 114.78 126.51 115.24 127.07 116.33H127.06Z" fill="#60C8D4"/>
<path d="M119.81 116.34C126.548 116.34 132.01 107.793 132.01 97.2502C132.01 86.707 126.548 78.1602 119.81 78.1602C113.072 78.1602 107.61 86.707 107.61 97.2502C107.61 107.793 113.072 116.34 119.81 116.34Z" fill="white"/>
<path d="M60.5202 116.34C65.8056 116.34 70.0902 109.503 70.0902 101.07C70.0902 92.6364 65.8056 85.7998 60.5202 85.7998C55.2348 85.7998 50.9502 92.6364 50.9502 101.07C50.9502 109.503 55.2348 116.34 60.5202 116.34Z" fill="#231F20"/>
<path d="M54.7603 93.3798C56.0969 93.3798 57.1803 91.683 57.1803 89.5898C57.1803 87.4966 56.0969 85.7998 54.7603 85.7998C53.4238 85.7998 52.3403 87.4966 52.3403 89.5898C52.3403 91.683 53.4238 93.3798 54.7603 93.3798Z" fill="white"/>
<path d="M119.74 116.34C125.103 116.34 129.45 109.503 129.45 101.07C129.45 92.6364 125.103 85.7998 119.74 85.7998C114.378 85.7998 110.03 92.6364 110.03 101.07C110.03 109.503 114.378 116.34 119.74 116.34Z" fill="#231F20"/>
<path d="M114.65 93.3798C115.987 93.3798 117.07 91.683 117.07 89.5898C117.07 87.4966 115.987 85.7998 114.65 85.7998C113.313 85.7998 112.23 87.4966 112.23 89.5898C112.23 91.683 113.313 93.3798 114.65 93.3798Z" fill="white"/>
<path opacity="0.57" d="M48.9802 131.5C55.21 131.5 60.2602 130.17 60.2602 128.53C60.2602 126.889 55.21 125.56 48.9802 125.56C42.7504 125.56 37.7002 126.889 37.7002 128.53C37.7002 130.17 42.7504 131.5 48.9802 131.5Z" fill="#F7B1C4"/>
<path opacity="0.57" d="M133.92 131.5C140.15 131.5 145.2 130.17 145.2 128.53C145.2 126.889 140.15 125.56 133.92 125.56C127.69 125.56 122.64 126.889 122.64 128.53C122.64 130.17 127.69 131.5 133.92 131.5Z" fill="#F7B1C4"/>
</g>
<defs>
<clipPath id="clip0_1049_8413">
<rect width="179.78" height="180.88" fill="white"/>
</clipPath>
</defs>
</svg>
