<svg width="180" height="181" viewBox="0 0 180 181" fill="none" xmlns="http://www.w3.org/2000/svg">
<g clip-path="url(#clip0_1049_8395)">
<path d="M89.79 179.58C139.38 179.58 179.58 139.38 179.58 89.79C179.58 40.2004 139.38 0 89.79 0C40.2004 0 0 40.2004 0 89.79C0 139.38 40.2004 179.58 89.79 179.58Z" fill="#595A5C"/>
<path d="M60.5 174.7C60.5 174.7 89.79 188.17 119.08 174.7C119.08 174.7 89.79 185.62 60.5 174.7Z" fill="#818285"/>
<path d="M59.5801 145.12C59.5801 145.12 83.1201 149.68 119.44 145.12C119.44 145.12 105.61 157.51 89.5101 157.29C89.5101 157.29 71.8501 157.57 59.5801 145.12Z" fill="white"/>
<path d="M136.81 14.6201L127.32 46.5201C126.49 54.2201 132.22 60.3801 137.95 60.5701C144.01 60.7701 150.41 54.3101 149.34 46.1401C145.16 35.6301 140.98 25.1301 136.81 14.6201Z" fill="#4DC6DE"/>
<path d="M45.1001 110.26C45.1001 110.26 47.1701 112.58 48.4701 115.69L48.8001 113.28C48.8001 113.28 46.3301 110.15 45.1001 110.26Z" fill="#60C8D4"/>
<path d="M41.71 78.5097C41.71 78.5097 42.59 82.4696 52.26 86.0996C52.26 86.0996 58.2 88.8497 60.61 76.6497C60.61 76.6497 51.71 77.3096 42.14 67.6396C42.14 67.6396 41.87 74.7296 55.06 80.1696C55.06 80.1696 55.83 80.8296 55.01 81.3196C55.01 81.3196 47.42 82.3596 41.71 78.5196V78.5097Z" fill="#60C8D4"/>
<path d="M138.35 78.5097C138.35 78.5097 137.47 82.4696 127.8 86.0996C127.8 86.0996 121.86 88.8497 119.45 76.6497C119.45 76.6497 128.35 77.3096 137.92 67.6396C137.92 67.6396 138.19 74.7296 125 80.1696C125 80.1696 124.23 80.8296 125.05 81.3196C125.05 81.3196 132.64 82.3596 138.35 78.5196V78.5097Z" fill="#60C8D4"/>
<path d="M133.76 111.83C133.76 111.83 131.51 113.97 129.96 116.97L129.83 114.54C129.83 114.54 132.55 111.63 133.76 111.83Z" fill="#60C8D4"/>
<path opacity="0.57" d="M48.28 130.48C54.5098 130.48 59.56 129.15 59.56 127.51C59.56 125.87 54.5098 124.54 48.28 124.54C42.0502 124.54 37 125.87 37 127.51C37 129.15 42.0502 130.48 48.28 130.48Z" fill="#F7B1C4"/>
<path opacity="0.57" d="M133.22 130.48C139.45 130.48 144.5 129.15 144.5 127.51C144.5 125.87 139.45 124.54 133.22 124.54C126.99 124.54 121.94 125.87 121.94 127.51C121.94 129.15 126.99 130.48 133.22 130.48Z" fill="#F7B1C4"/>
<path d="M48.43 116.08C48.53 115.57 50.53 106.06 56.7 104.03C57.17 103.87 59.46 103.17 62.19 104.34C68.14 106.89 69.98 115.65 70.15 116.53C72.65 95.8802 69.62 80.0402 63.2 76.8202C60.58 75.5102 58.04 76.6202 57.21 77.0502C50.21 80.6502 46.58 96.3602 48.42 116.09L48.43 116.08Z" fill="#818285"/>
<path d="M108.38 116.87C108.48 116.36 110.48 106.85 116.65 104.82C117.12 104.66 119.41 103.96 122.14 105.13C128.09 107.68 129.93 116.44 130.1 117.32C132.6 96.6703 129.57 80.8303 123.15 77.6103C120.53 76.3003 117.99 77.4103 117.16 77.8403C110.16 81.4403 106.53 97.1503 108.37 116.88L108.38 116.87Z" fill="#818285"/>
</g>
<defs>
<clipPath id="clip0_1049_8395">
<rect width="179.59" height="180.69" fill="white"/>
</clipPath>
</defs>
</svg>
