<svg width="180" height="181" viewBox="0 0 180 181" fill="none" xmlns="http://www.w3.org/2000/svg">
<g clip-path="url(#clip0_1049_8379)">
<path d="M89.8 179.6C139.395 179.6 179.6 139.395 179.6 89.8C179.6 40.2048 139.395 0 89.8 0C40.2048 0 0 40.2048 0 89.8C0 139.395 40.2048 179.6 89.8 179.6Z" fill="#595A5C"/>
<path d="M52.4598 74.4104C52.4598 74.4104 51.4298 76.0004 53.9998 81.5404C53.9998 81.5404 55.3998 85.0903 60.5898 82.5603C60.5898 82.5603 56.8398 78.6604 56.4098 71.3604C56.4098 71.3604 53.8398 73.3504 57.1698 81.0504C57.1698 81.0504 57.2498 81.6004 56.7498 81.3704C56.7498 81.3704 53.3798 78.1904 52.4598 74.4104Z" fill="#60C8D4"/>
<path d="M60.5098 174.72C60.5098 174.72 89.8098 188.19 119.1 174.72C119.1 174.72 89.8098 185.65 60.5098 174.72Z" fill="#818285"/>
<path d="M47.6602 77.4102C54.8202 80.0502 63.0202 83.8302 71.5002 89.3302C74.6902 91.4002 77.6202 93.5102 80.2802 95.6002C78.4702 98.0202 76.1502 100.68 73.2202 103.29C65.9902 109.73 58.4102 112.85 53.3002 114.43C56.4402 111.94 60.2402 108.33 63.6502 103.29C65.1302 101.1 66.3102 98.9801 67.2602 97.0201C66.4502 95.5401 65.5202 94.0102 64.4402 92.4702C59.2102 85.0102 52.7702 80.3102 47.6602 77.4102Z" fill="#818285" stroke="#818285" stroke-miterlimit="10"/>
<path d="M50.0601 138.93H124.62C116.87 153.03 101.92 161.65 86.0201 161.16C62.3201 160.43 50.5801 139.88 50.0601 138.93Z" fill="#818285" stroke="#818285" stroke-miterlimit="10"/>
<path d="M74.5201 142.07H103.26C104.46 157.94 100.06 170.02 94.9601 172.12C92.0201 173.33 88.7401 173.33 88.7401 173.33C88.7401 173.33 85.1101 173.33 81.8101 171.82C76.6701 169.47 72.5101 157.43 74.5201 142.07Z" fill="#595A5C" stroke="#818285" stroke-miterlimit="10"/>
<path d="M89.6001 143.91V159.74" stroke="#818285" stroke-miterlimit="10"/>
<path d="M126.89 73.7102C126.89 73.7102 127.92 75.3001 125.35 80.8401C125.35 80.8401 123.95 84.3902 118.76 81.8602C118.76 81.8602 122.51 77.9602 122.94 70.6602C122.94 70.6602 125.51 72.6502 122.18 80.3502C122.18 80.3502 122.1 80.9002 122.6 80.6702C122.6 80.6702 125.97 77.4902 126.89 73.7102Z" fill="#60C8D4"/>
<path opacity="0.57" d="M48.2199 131.37C54.4497 131.37 59.4999 130.04 59.4999 128.4C59.4999 126.759 54.4497 125.43 48.2199 125.43C41.9902 125.43 36.9399 126.759 36.9399 128.4C36.9399 130.04 41.9902 131.37 48.2199 131.37Z" fill="#F7B1C4"/>
<path opacity="0.57" d="M133.15 131.37C139.38 131.37 144.43 130.04 144.43 128.4C144.43 126.759 139.38 125.43 133.15 125.43C126.92 125.43 121.87 126.759 121.87 128.4C121.87 130.04 126.92 131.37 133.15 131.37Z" fill="#F7B1C4"/>
<path d="M130.64 77.4102C123.48 80.0502 115.28 83.8302 106.8 89.3302C103.61 91.4002 100.68 93.5102 98.02 95.6002C99.83 98.0202 102.15 100.68 105.08 103.29C112.31 109.73 119.89 112.85 125 114.43C121.86 111.94 118.06 108.33 114.65 103.29C113.17 101.1 111.99 98.9801 111.04 97.0201C111.85 95.5401 112.78 94.0102 113.86 92.4702C119.09 85.0102 125.53 80.3102 130.64 77.4102Z" fill="#818285" stroke="#818285" stroke-miterlimit="10"/>
</g>
<defs>
<clipPath id="clip0_1049_8379">
<rect width="179.61" height="180.71" fill="white"/>
</clipPath>
</defs>
</svg>
