<svg width="181" height="182" viewBox="0 0 181 182" fill="none" xmlns="http://www.w3.org/2000/svg">
<g clip-path="url(#clip0_1049_8458)">
<path d="M90.13 180.26C139.907 180.26 180.26 139.907 180.26 90.13C180.26 40.3526 139.907 0 90.13 0C40.3526 0 0 40.3526 0 90.13C0 139.907 40.3526 180.26 90.13 180.26Z" fill="#595A5C"/>
<path d="M60.73 175.36C60.73 175.36 90.13 188.88 119.54 175.36C119.54 175.36 90.14 186.33 60.73 175.36Z" fill="#818285"/>
<path d="M67.4702 152.52C71.7302 144 79.3602 135.69 86.8902 135.68C98.1002 135.66 112.51 140.92 110.48 160.18" stroke="#818285" stroke-width="2" stroke-miterlimit="10"/>
<path d="M53.1296 116.521C53.1296 116.521 56.1896 115.981 59.5196 116.521L57.6396 114.971C57.6396 114.971 53.6796 115.431 53.1196 116.521H53.1296Z" fill="#60C8D4"/>
<path d="M37.2998 81.3505C37.2998 81.3505 38.1798 85.3105 47.8498 88.9405C47.8498 88.9405 53.7898 91.6905 56.1998 79.4905C56.1998 79.4905 47.2998 80.1505 37.7298 70.4805C37.7298 70.4805 37.4598 77.5705 50.6498 83.0105C50.6498 83.0105 51.4198 83.6705 50.5998 84.1605C50.5998 84.1605 43.0098 85.2005 37.2998 81.3605V81.3505Z" fill="#60C8D4"/>
<path d="M59.8699 116.521C66.6078 116.521 72.0699 107.974 72.0699 97.4308C72.0699 86.8877 66.6078 78.3408 59.8699 78.3408C53.132 78.3408 47.6699 86.8877 47.6699 97.4308C47.6699 107.974 53.132 116.521 59.8699 116.521Z" fill="white"/>
<path d="M141.99 81.3505C141.99 81.3505 141.11 85.3105 131.44 88.9405C131.44 88.9405 125.5 91.6905 123.09 79.4905C123.09 79.4905 131.99 80.1505 141.56 70.4805C141.56 70.4805 141.83 77.5705 128.64 83.0105C128.64 83.0105 127.87 83.6705 128.69 84.1605C128.69 84.1605 136.28 85.2005 141.99 81.3605V81.3505Z" fill="#60C8D4"/>
<path d="M126.66 116.521C126.66 116.521 123.6 115.981 120.27 116.521L122.15 114.971C122.15 114.971 126.11 115.431 126.67 116.521H126.66Z" fill="#60C8D4"/>
<path d="M119.42 116.521C126.158 116.521 131.62 107.974 131.62 97.4308C131.62 86.8877 126.158 78.3408 119.42 78.3408C112.682 78.3408 107.22 86.8877 107.22 97.4308C107.22 107.974 112.682 116.521 119.42 116.521Z" fill="white"/>
<path d="M60.1296 116.52C65.4149 116.52 69.6996 109.684 69.6996 101.25C69.6996 92.8171 65.4149 85.9805 60.1296 85.9805C54.8442 85.9805 50.5596 92.8171 50.5596 101.25C50.5596 109.684 54.8442 116.52 60.1296 116.52Z" fill="#231F20"/>
<path d="M54.3697 93.5702C55.7062 93.5702 56.7897 91.8734 56.7897 89.7802C56.7897 87.6871 55.7062 85.9902 54.3697 85.9902C53.0332 85.9902 51.9497 87.6871 51.9497 89.7802C51.9497 91.8734 53.0332 93.5702 54.3697 93.5702Z" fill="white"/>
<path d="M119.35 116.52C124.712 116.52 129.06 109.684 129.06 101.25C129.06 92.8171 124.712 85.9805 119.35 85.9805C113.987 85.9805 109.64 92.8171 109.64 101.25C109.64 109.684 113.987 116.52 119.35 116.52Z" fill="#231F20"/>
<path d="M114.26 93.5702C115.596 93.5702 116.68 91.8734 116.68 89.7802C116.68 87.6871 115.596 85.9902 114.26 85.9902C112.923 85.9902 111.84 87.6871 111.84 89.7802C111.84 91.8734 112.923 93.5702 114.26 93.5702Z" fill="white"/>
<path opacity="0.57" d="M48.5798 131.68C54.8096 131.68 59.8598 130.351 59.8598 128.71C59.8598 127.07 54.8096 125.74 48.5798 125.74C42.35 125.74 37.2998 127.07 37.2998 128.71C37.2998 130.351 42.35 131.68 48.5798 131.68Z" fill="#F7B1C4"/>
<path opacity="0.57" d="M133.52 131.68C139.75 131.68 144.8 130.351 144.8 128.71C144.8 127.07 139.75 125.74 133.52 125.74C127.29 125.74 122.24 127.07 122.24 128.71C122.24 130.351 127.29 131.68 133.52 131.68Z" fill="#F7B1C4"/>
<path d="M125.96 119.99L122.72 130.88C122.44 133.51 124.39 135.61 126.35 135.68C128.42 135.75 130.6 133.54 130.24 130.75C128.81 127.16 127.39 123.58 125.96 119.99Z" fill="#4DC6DE"/>
</g>
<defs>
<clipPath id="clip0_1049_8458">
<rect width="180.27" height="181.37" fill="white"/>
</clipPath>
</defs>
</svg>
