<svg width="180" height="181" viewBox="0 0 180 181" fill="none" xmlns="http://www.w3.org/2000/svg">
<g clip-path="url(#clip0_1049_8435)">
<path d="M89.8 179.6C139.395 179.6 179.6 139.395 179.6 89.8C179.6 40.2048 139.395 0 89.8 0C40.2048 0 0 40.2048 0 89.8C0 139.395 40.2048 179.6 89.8 179.6Z" fill="#595A5C"/>
<path d="M60.5098 174.72C60.5098 174.72 89.8098 188.19 119.1 174.72C119.1 174.72 89.8098 185.65 60.5098 174.72Z" fill="#818285"/>
<path d="M60.8301 134.43L134.23 107.81C139.13 126.65 130.8 145.91 115.43 154.02C97.0001 163.74 71.4901 155.83 60.8301 134.44V134.43Z" fill="#818285"/>
<path d="M66.1699 135.22L130.51 111.33L132.4 116.36L68.4799 139.2L66.1699 135.22Z" fill="white"/>
<path d="M74.48 138.56C84.25 134.97 94.03 131.39 103.8 127.8C104.3 139.88 104.81 151.97 105.31 164.05C101.96 174.69 91.9 179.87 84.6 177.43C77.34 175.01 75.22 165.87 75.11 165.35L74.48 138.56Z" fill="#595A5C" stroke="#818285" stroke-miterlimit="10"/>
<path d="M89.52 135.4L90.38 156.1" stroke="#818285" stroke-miterlimit="10"/>
<path d="M54.7402 91.0603C54.7402 91.0603 57.1902 90.6303 59.8502 91.0603L58.3502 89.8203C58.3502 89.8203 55.1802 90.1803 54.7402 91.0603Z" fill="#60C8D4"/>
<path d="M42.0801 62.9305C42.0801 62.9305 42.7801 66.0905 50.5201 69.0005C50.5201 69.0005 55.2701 71.2005 57.2001 61.4405C57.2001 61.4405 50.0801 61.9705 42.4301 54.2305C42.4301 54.2305 42.2101 59.9005 52.7601 64.2505C52.7601 64.2505 53.3801 64.7805 52.7201 65.1705C52.7201 65.1705 46.6501 66.0105 42.0801 62.9305Z" fill="#60C8D4"/>
<path d="M60.1301 91.0503C65.5204 91.0503 69.8901 84.2181 69.8901 75.7903C69.8901 67.3624 65.5204 60.5303 60.1301 60.5303C54.7398 60.5303 50.3701 67.3624 50.3701 75.7903C50.3701 84.2181 54.7398 91.0503 60.1301 91.0503Z" fill="white"/>
<path d="M144.46 49.8198C144.46 49.8198 143.45 54.3598 132.36 58.5198C132.36 58.5198 125.55 61.6698 122.78 47.6798C122.78 47.6798 132.99 48.4398 143.96 37.3398C143.96 37.3398 144.28 45.4698 129.15 51.7098C129.15 51.7098 128.27 52.4698 129.21 53.0298C129.21 53.0298 137.91 54.2298 144.47 49.8098L144.46 49.8198Z" fill="#60C8D4"/>
<path d="M126.89 90.1501C126.89 90.1501 123.38 89.5301 119.56 90.1501L121.71 88.3701C121.71 88.3701 126.25 88.8901 126.89 90.1501Z" fill="#60C8D4"/>
<path d="M118.58 90.1501C126.312 90.1501 132.58 80.3496 132.58 68.2601C132.58 56.1706 126.312 46.3701 118.58 46.3701C110.848 46.3701 104.58 56.1706 104.58 68.2601C104.58 80.3496 110.848 90.1501 118.58 90.1501Z" fill="white"/>
<path d="M60.3402 91.0596C64.5707 91.0596 68.0002 85.593 68.0002 78.8496C68.0002 72.1063 64.5707 66.6396 60.3402 66.6396C56.1097 66.6396 52.6802 72.1063 52.6802 78.8496C52.6802 85.593 56.1097 91.0596 60.3402 91.0596Z" fill="#231F20"/>
<path d="M55.73 72.6996C56.8015 72.6996 57.67 71.3431 57.67 69.6696C57.67 67.9962 56.8015 66.6396 55.73 66.6396C54.6586 66.6396 53.79 67.9962 53.79 69.6696C53.79 71.3431 54.6586 72.6996 55.73 72.6996Z" fill="white"/>
<path d="M118.5 90.1499C124.652 90.1499 129.64 82.3104 129.64 72.6399C129.64 62.9694 124.652 55.1299 118.5 55.1299C112.347 55.1299 107.36 62.9694 107.36 72.6399C107.36 82.3104 112.347 90.1499 118.5 90.1499Z" fill="#231F20"/>
<path d="M112.66 63.8299C114.195 63.8299 115.44 61.8823 115.44 59.4799C115.44 57.0774 114.195 55.1299 112.66 55.1299C111.125 55.1299 109.88 57.0774 109.88 59.4799C109.88 61.8823 111.125 63.8299 112.66 63.8299Z" fill="white"/>
<path opacity="0.57" d="M54.9902 104.96C60.3971 104.96 64.7802 103.805 64.7802 102.38C64.7802 100.955 60.3971 99.7998 54.9902 99.7998C49.5833 99.7998 45.2002 100.955 45.2002 102.38C45.2002 103.805 49.5833 104.96 54.9902 104.96Z" fill="#F7B1C4"/>
<path opacity="0.57" d="M128.72 104.96C134.127 104.96 138.51 103.805 138.51 102.38C138.51 100.955 134.127 99.7998 128.72 99.7998C123.313 99.7998 118.93 100.955 118.93 102.38C118.93 103.805 123.313 104.96 128.72 104.96Z" fill="#F7B1C4"/>
</g>
<defs>
<clipPath id="clip0_1049_8435">
<rect width="179.61" height="180.71" fill="white"/>
</clipPath>
</defs>
</svg>
