<svg width="180" height="209" viewBox="0 0 180 209" fill="none" xmlns="http://www.w3.org/2000/svg">
<g clip-path="url(#clip0_1049_8481)">
<path d="M7.89019 82.8395C5.66019 74.3895 3.14019 60.5395 5.24019 43.6695C7.71019 23.7095 15.4602 9.08953 20.3802 1.26953C20.2102 2.58953 17.7102 25.6295 34.7002 38.6795C43.4102 45.3695 52.9402 46.1395 57.0002 46.2095C40.6302 58.4195 24.2602 70.6295 7.89019 82.8295V82.8395Z" fill="#818285"/>
<path d="M169.88 81.57C172.11 73.12 174.63 59.27 172.53 42.4C170.05 22.44 162.31 7.82 157.39 0C157.56 1.32 160.06 24.36 143.07 37.41C134.36 44.1 124.83 44.87 120.77 44.94C137.14 57.15 153.51 69.36 169.88 81.56V81.57Z" fill="#818285"/>
<path d="M89.51 207.79C138.945 207.79 179.02 167.715 179.02 118.28C179.02 68.8445 138.945 28.7695 89.51 28.7695C40.075 28.7695 0 68.8445 0 118.28C0 167.715 40.075 207.79 89.51 207.79Z" fill="#595A5C"/>
<path d="M60.3101 202.909C60.3101 202.909 89.5101 216.329 118.71 202.909C118.71 202.909 89.5101 213.799 60.3101 202.909Z" fill="#818285"/>
<path d="M59.2002 163.6C59.2002 163.6 82.6602 171.55 118.87 163.6C118.87 163.6 105.09 185.22 89.0402 184.83C89.0402 184.83 71.4302 185.32 59.2102 163.6H59.2002Z" fill="white"/>
<path d="M53.3298 143.25C53.3298 143.25 56.3898 142.71 59.7198 143.25L57.8398 141.7C57.8398 141.7 53.8798 142.16 53.3198 143.25H53.3298Z" fill="#60C8D4"/>
<path d="M37.5 108.08C37.5 108.08 38.38 112.04 48.05 115.67C48.05 115.67 53.99 118.42 56.4 106.22C56.4 106.22 47.5 106.88 37.93 97.21C37.93 97.21 37.66 104.3 50.85 109.74C50.85 109.74 51.62 110.4 50.8 110.89C50.8 110.89 43.21 111.93 37.5 108.09V108.08Z" fill="#60C8D4"/>
<path d="M60.0701 143.25C66.808 143.25 72.2701 134.703 72.2701 124.16C72.2701 113.617 66.808 105.07 60.0701 105.07C53.3322 105.07 47.8701 113.617 47.8701 124.16C47.8701 134.703 53.3322 143.25 60.0701 143.25Z" fill="white"/>
<path d="M142.19 108.08C142.19 108.08 141.31 112.04 131.64 115.67C131.64 115.67 125.7 118.42 123.29 106.22C123.29 106.22 132.19 106.88 141.76 97.21C141.76 97.21 142.03 104.3 128.84 109.74C128.84 109.74 128.07 110.4 128.89 110.89C128.89 110.89 136.48 111.93 142.19 108.09V108.08Z" fill="#60C8D4"/>
<path d="M126.86 143.25C126.86 143.25 123.8 142.71 120.47 143.25L122.35 141.7C122.35 141.7 126.31 142.16 126.87 143.25H126.86Z" fill="#60C8D4"/>
<path d="M119.62 143.25C126.358 143.25 131.82 134.703 131.82 124.16C131.82 113.617 126.358 105.07 119.62 105.07C112.882 105.07 107.42 113.617 107.42 124.16C107.42 134.703 112.882 143.25 119.62 143.25Z" fill="white"/>
<path d="M60.3298 143.25C65.6151 143.25 69.8998 136.413 69.8998 127.98C69.8998 119.547 65.6151 112.71 60.3298 112.71C55.0444 112.71 50.7598 119.547 50.7598 127.98C50.7598 136.413 55.0444 143.25 60.3298 143.25Z" fill="#231F20"/>
<path d="M54.5699 120.3C55.9064 120.3 56.9899 118.603 56.9899 116.51C56.9899 114.417 55.9064 112.72 54.5699 112.72C53.2334 112.72 52.1499 114.417 52.1499 116.51C52.1499 118.603 53.2334 120.3 54.5699 120.3Z" fill="white"/>
<path d="M119.55 143.25C124.913 143.25 129.26 136.413 129.26 127.98C129.26 119.547 124.913 112.71 119.55 112.71C114.187 112.71 109.84 119.547 109.84 127.98C109.84 136.413 114.187 143.25 119.55 143.25Z" fill="#231F20"/>
<path d="M114.46 120.3C115.797 120.3 116.88 118.603 116.88 116.51C116.88 114.417 115.797 112.72 114.46 112.72C113.124 112.72 112.04 114.417 112.04 116.51C112.04 118.603 113.124 120.3 114.46 120.3Z" fill="white"/>
<path opacity="0.57" d="M48.78 158.41C55.0098 158.41 60.06 157.08 60.06 155.44C60.06 153.799 55.0098 152.47 48.78 152.47C42.5502 152.47 37.5 153.799 37.5 155.44C37.5 157.08 42.5502 158.41 48.78 158.41Z" fill="#F7B1C4"/>
<path opacity="0.57" d="M133.72 158.41C139.95 158.41 145 157.08 145 155.44C145 153.799 139.95 152.47 133.72 152.47C127.49 152.47 122.44 153.799 122.44 155.44C122.44 157.08 127.49 158.41 133.72 158.41Z" fill="#F7B1C4"/>
<path d="M120.875 84.3547L89.3071 104.466L100.247 121.637L131.815 101.526L120.875 84.3547Z" fill="#595A5C"/>
<path d="M43.6106 101.506L75.1787 121.617L86.1181 104.446L54.55 84.3346L43.6106 101.506Z" fill="#595A5C"/>
</g>
<defs>
<clipPath id="clip0_1049_8481">
<rect width="179.01" height="208.88" fill="white"/>
</clipPath>
</defs>
</svg>
