<svg width="181" height="182" viewBox="0 0 181 182" fill="none" xmlns="http://www.w3.org/2000/svg">
<g clip-path="url(#clip0_1049_8507)">
<path d="M90.11 180.22C139.876 180.22 180.22 139.876 180.22 90.11C180.22 40.3436 139.876 0 90.11 0C40.3436 0 0 40.3436 0 90.11C0 139.876 40.3436 180.22 90.11 180.22Z" fill="#595A5C"/>
<path d="M60.71 175.31C60.71 175.31 90.1 188.82 119.5 175.31C119.5 175.31 90.11 186.27 60.71 175.31Z" fill="#818285"/>
<path d="M51.52 143.6H122.54" stroke="#818285" stroke-miterlimit="10"/>
<path d="M65.0498 144.39H57.3198V149.19H65.0498V144.39Z" fill="#818285" stroke="#818285" stroke-miterlimit="10"/>
<path d="M73.73 138.12H66V142.85H73.73V138.12Z" fill="#818285" stroke="#818285" stroke-miterlimit="10"/>
<path d="M82.0401 144.42H74.3101V149.22H82.0401V144.42Z" fill="#818285" stroke="#818285" stroke-miterlimit="10"/>
<path d="M90.6299 138.22H82.8999V142.95H90.6299V138.22Z" fill="#818285" stroke="#818285" stroke-miterlimit="10"/>
<path d="M98.7202 144.35H90.9902V149.15H98.7202V144.35Z" fill="#818285" stroke="#818285" stroke-miterlimit="10"/>
<path d="M107.41 138.08H99.6802V142.81H107.41V138.08Z" fill="#818285" stroke="#818285" stroke-miterlimit="10"/>
<path d="M115.72 144.37H107.99V149.17H115.72V144.37Z" fill="#818285" stroke="#818285" stroke-miterlimit="10"/>
<path d="M124.54 141.41C122.4 140.75 120.18 141.41 119.04 142.98C117.98 144.44 118.24 146.14 118.31 146.52C119.08 148.6 120.13 150.99 121.57 153.54C123.01 156.08 124.51 158.21 125.89 159.94C129.1 161.3 132.8 160.55 135.1 158.09C137.14 155.91 137.78 152.72 136.78 149.83C135.09 148.25 133 146.52 130.49 144.83C128.38 143.41 126.36 142.29 124.54 141.4V141.41Z" fill="#818285" stroke="#818285" stroke-miterlimit="10"/>
<path d="M126.161 148.85C127.669 147.343 127.697 144.927 126.225 143.455C124.752 141.983 122.337 142.011 120.83 143.519C119.322 145.026 119.294 147.442 120.766 148.914C122.238 150.386 124.654 150.358 126.161 148.85Z" fill="#595A5C"/>
<path d="M133.661 156.622C135.808 154.474 136.011 151.194 134.113 149.296C132.215 147.398 128.935 147.601 126.788 149.749C124.64 151.896 124.437 155.176 126.335 157.074C128.233 158.972 131.513 158.77 133.661 156.622Z" fill="#595A5C"/>
<path d="M53.0701 116.33C53.0701 116.33 56.1301 115.79 59.4601 116.33L57.5801 114.78C57.5801 114.78 53.6201 115.24 53.0601 116.33H53.0701Z" fill="#60C8D4"/>
<path d="M37.2402 81.16C37.2402 81.16 38.1202 85.12 47.7902 88.75C47.7902 88.75 53.7302 91.5 56.1402 79.3C56.1402 79.3 47.2402 79.96 37.6702 70.29C37.6702 70.29 37.4002 77.38 50.5902 82.82C50.5902 82.82 51.3602 83.48 50.5402 83.97C50.5402 83.97 42.9502 85.01 37.2402 81.17V81.16Z" fill="#60C8D4"/>
<path d="M59.8104 116.33C66.5482 116.33 72.0104 107.784 72.0104 97.2404C72.0104 86.6973 66.5482 78.1504 59.8104 78.1504C53.0725 78.1504 47.6104 86.6973 47.6104 97.2404C47.6104 107.784 53.0725 116.33 59.8104 116.33Z" fill="white"/>
<path d="M141.93 81.16C141.93 81.16 141.05 85.12 131.38 88.75C131.38 88.75 125.44 91.5 123.03 79.3C123.03 79.3 131.93 79.96 141.5 70.29C141.5 70.29 141.77 77.38 128.58 82.82C128.58 82.82 127.81 83.48 128.63 83.97C128.63 83.97 136.22 85.01 141.93 81.17V81.16Z" fill="#60C8D4"/>
<path d="M126.6 116.33C126.6 116.33 123.54 115.79 120.21 116.33L122.09 114.78C122.09 114.78 126.05 115.24 126.61 116.33H126.6Z" fill="#60C8D4"/>
<path d="M119.36 116.33C126.098 116.33 131.56 107.784 131.56 97.2404C131.56 86.6973 126.098 78.1504 119.36 78.1504C112.622 78.1504 107.16 86.6973 107.16 97.2404C107.16 107.784 112.622 116.33 119.36 116.33Z" fill="white"/>
<path d="M60.07 116.34C65.3554 116.34 69.64 109.503 69.64 101.07C69.64 92.6364 65.3554 85.7998 60.07 85.7998C54.7846 85.7998 50.5 92.6364 50.5 101.07C50.5 109.503 54.7846 116.34 60.07 116.34Z" fill="#231F20"/>
<path d="M54.3101 93.3798C55.6467 93.3798 56.7301 91.683 56.7301 89.5898C56.7301 87.4966 55.6467 85.7998 54.3101 85.7998C52.9736 85.7998 51.8901 87.4966 51.8901 89.5898C51.8901 91.683 52.9736 93.3798 54.3101 93.3798Z" fill="white"/>
<path d="M119.29 116.34C124.653 116.34 129 109.503 129 101.07C129 92.6364 124.653 85.7998 119.29 85.7998C113.927 85.7998 109.58 92.6364 109.58 101.07C109.58 109.503 113.927 116.34 119.29 116.34Z" fill="#231F20"/>
<path d="M114.2 93.3798C115.537 93.3798 116.62 91.683 116.62 89.5898C116.62 87.4966 115.537 85.7998 114.2 85.7998C112.864 85.7998 111.78 87.4966 111.78 89.5898C111.78 91.683 112.864 93.3798 114.2 93.3798Z" fill="white"/>
<path opacity="0.57" d="M48.5202 131.49C54.75 131.49 59.8002 130.16 59.8002 128.52C59.8002 126.88 54.75 125.55 48.5202 125.55C42.2905 125.55 37.2402 126.88 37.2402 128.52C37.2402 130.16 42.2905 131.49 48.5202 131.49Z" fill="#F7B1C4"/>
<path opacity="0.57" d="M133.46 131.49C139.69 131.49 144.74 130.16 144.74 128.52C144.74 126.88 139.69 125.55 133.46 125.55C127.23 125.55 122.18 126.88 122.18 128.52C122.18 130.16 127.23 131.49 133.46 131.49Z" fill="#F7B1C4"/>
</g>
<defs>
<clipPath id="clip0_1049_8507">
<rect width="180.21" height="181.32" fill="white"/>
</clipPath>
</defs>
</svg>
