<svg width="178" height="187" viewBox="0 0 178 187" fill="none" xmlns="http://www.w3.org/2000/svg">
<g clip-path="url(#clip0_1049_8583)">
<path d="M88.59 177.18C137.517 177.18 177.18 137.517 177.18 88.59C177.18 39.6631 137.517 0 88.59 0C39.6631 0 0 39.6631 0 88.59C0 137.517 39.6631 177.18 88.59 177.18Z" fill="#595A5C"/>
<path d="M59.6899 172.37C59.6899 172.37 88.5899 185.66 117.49 172.37C117.49 172.37 88.5899 183.15 59.6899 172.37Z" fill="#818285"/>
<path d="M30.4398 133.17C28.0098 144.95 24.5598 145.88 24.4298 155.01C24.3798 158.09 24.2398 167.86 29.9698 175.11C43.5298 192.27 80.2798 182.97 81.2698 176.49C81.5198 174.86 79.4998 173.52 80.1398 170.84C80.9698 167.32 85.1098 166.87 85.1998 164.19C85.2898 161.63 81.5398 160.98 81.3998 158.02C81.2698 155.26 84.4598 154.39 84.4098 151.53C84.3598 148.54 80.8398 147.77 80.9298 145.99C81.1798 141.12 107.86 141.98 110.37 133.01C110.78 131.54 110.69 129.3 109.42 127.79C103.84 121.15 78.9598 132.95 54.1898 134.28C51.8198 134.41 49.7698 134.42 47.8598 133.17C40.8898 128.62 47.6898 113.71 39.6298 106.9C38.8898 106.27 36.3598 104.14 34.2998 104.9C30.1598 106.42 33.7098 117.42 30.4498 133.18L30.4398 133.17Z" fill="#595A5C" stroke="#818285" stroke-width="3" stroke-miterlimit="10"/>
<path d="M64.6099 112.11C71.6699 111.9 79.7199 112.11 88.5299 113.13C101.26 114.6 112.23 117.36 121.1 120.25" stroke="#818285" stroke-width="3" stroke-miterlimit="10"/>
<path d="M50.9597 82.9104C50.9597 82.9104 54.0197 82.3704 57.3497 82.9104L55.4697 81.3604C55.4697 81.3604 51.5097 81.8204 50.9497 82.9104H50.9597Z" fill="#60C8D4"/>
<path d="M35.1299 47.7499C35.1299 47.7499 36.0099 51.7099 45.6799 55.3399C45.6799 55.3399 51.6199 58.0899 54.0299 45.8899C54.0299 45.8899 45.1299 46.5499 35.5599 36.8799C35.5599 36.8799 35.2899 43.9699 48.4799 49.4099C48.4799 49.4099 49.2499 50.0699 48.4299 50.5599C48.4299 50.5599 40.8399 51.5999 35.1299 47.7599V47.7499Z" fill="#60C8D4"/>
<path d="M57.6897 82.9202C64.4276 82.9202 69.8897 74.3734 69.8897 63.8302C69.8897 53.2871 64.4276 44.7402 57.6897 44.7402C50.9519 44.7402 45.4897 53.2871 45.4897 63.8302C45.4897 74.3734 50.9519 82.9202 57.6897 82.9202Z" fill="white"/>
<path d="M139.81 47.7499C139.81 47.7499 138.93 51.7099 129.26 55.3399C129.26 55.3399 123.32 58.0899 120.91 45.8899C120.91 45.8899 129.81 46.5499 139.38 36.8799C139.38 36.8799 139.65 43.9699 126.46 49.4099C126.46 49.4099 125.69 50.0699 126.51 50.5599C126.51 50.5599 134.1 51.5999 139.81 47.7599V47.7499Z" fill="#60C8D4"/>
<path d="M124.49 82.9104C124.49 82.9104 121.43 82.3704 118.1 82.9104L119.98 81.3604C119.98 81.3604 123.94 81.8204 124.5 82.9104H124.49Z" fill="#60C8D4"/>
<path d="M117.24 82.9202C123.978 82.9202 129.44 74.3734 129.44 63.8302C129.44 53.2871 123.978 44.7402 117.24 44.7402C110.502 44.7402 105.04 53.2871 105.04 63.8302C105.04 74.3734 110.502 82.9202 117.24 82.9202Z" fill="white"/>
<path d="M57.9499 82.9199C63.2352 82.9199 67.5199 76.0833 67.5199 67.6499C67.5199 59.2165 63.2352 52.3799 57.9499 52.3799C52.6645 52.3799 48.3799 59.2165 48.3799 67.6499C48.3799 76.0833 52.6645 82.9199 57.9499 82.9199Z" fill="#231F20"/>
<path d="M52.19 59.9599C53.5265 59.9599 54.61 58.263 54.61 56.1699C54.61 54.0767 53.5265 52.3799 52.19 52.3799C50.8535 52.3799 49.77 54.0767 49.77 56.1699C49.77 58.263 50.8535 59.9599 52.19 59.9599Z" fill="white"/>
<path d="M117.17 82.9199C122.533 82.9199 126.88 76.0833 126.88 67.6499C126.88 59.2165 122.533 52.3799 117.17 52.3799C111.807 52.3799 107.46 59.2165 107.46 67.6499C107.46 76.0833 111.807 82.9199 117.17 82.9199Z" fill="#231F20"/>
<path d="M112.09 59.9599C113.426 59.9599 114.51 58.263 114.51 56.1699C114.51 54.0767 113.426 52.3799 112.09 52.3799C110.753 52.3799 109.67 54.0767 109.67 56.1699C109.67 58.263 110.753 59.9599 112.09 59.9599Z" fill="white"/>
<path opacity="0.57" d="M46.4099 98.0797C52.6397 98.0797 57.6899 96.7499 57.6899 95.1096C57.6899 93.4694 52.6397 92.1396 46.4099 92.1396C40.1801 92.1396 35.1299 93.4694 35.1299 95.1096C35.1299 96.7499 40.1801 98.0797 46.4099 98.0797Z" fill="#F7B1C4"/>
<path opacity="0.57" d="M131.35 98.0797C137.58 98.0797 142.63 96.7499 142.63 95.1096C142.63 93.4694 137.58 92.1396 131.35 92.1396C125.12 92.1396 120.07 93.4694 120.07 95.1096C120.07 96.7499 125.12 98.0797 131.35 98.0797Z" fill="#F7B1C4"/>
</g>
<defs>
<clipPath id="clip0_1049_8583">
<rect width="177.19" height="186.4" fill="white"/>
</clipPath>
</defs>
</svg>
