<svg width="181" height="182" viewBox="0 0 181 182" fill="none" xmlns="http://www.w3.org/2000/svg">
<g clip-path="url(#clip0_1049_8606)">
<path d="M90.42 180.84C140.358 180.84 180.84 140.358 180.84 90.42C180.84 40.4824 140.358 0 90.42 0C40.4824 0 0 40.4824 0 90.42C0 140.358 40.4824 180.84 90.42 180.84Z" fill="#595A5C"/>
<path d="M60.9199 175.92C60.9199 175.92 90.4199 189.48 119.91 175.92C119.91 175.92 90.4099 186.92 60.9199 175.92Z" fill="#818285"/>
<path d="M60.3999 136.8C60.3999 136.8 84.0999 144.83 120.68 136.8C120.68 136.8 106.76 158.64 90.5399 158.25C90.5399 158.25 72.7499 158.74 60.3999 136.8Z" fill="white"/>
<path d="M129.8 77.1202C129.8 77.1202 131.49 78.4102 131.1 83.8102C131.1 83.8102 131.1 87.2402 124.77 85.7202C124.77 85.7202 127.04 81.6202 124.53 74.9502C124.53 74.9502 127.97 76.3702 127.67 83.8502C127.67 83.8502 127.82 84.3602 128.23 84.0802C128.23 84.0802 130.39 80.7002 129.81 77.1302L129.8 77.1202Z" fill="#60C8D4"/>
<path d="M131.17 84.8096C127.63 85.0696 122.3 85.8796 116.37 88.4796C110.83 90.9096 106.83 93.9996 104.28 96.2996C108.53 95.3396 114.26 94.5196 120.99 94.8796C125.52 95.1196 129.48 95.8396 132.72 96.6596" stroke="#818285" stroke-width="2" stroke-miterlimit="10"/>
<path d="M54.8899 116.64C54.8899 116.64 57.9499 116.1 61.2799 116.64L59.3999 115.09C59.3999 115.09 55.4399 115.55 54.8799 116.64H54.8899Z" fill="#60C8D4"/>
<path d="M39.0498 81.4696C39.0498 81.4696 39.9298 85.4296 49.5998 89.0596C49.5998 89.0596 55.5398 91.8096 57.9498 79.6096C57.9498 79.6096 49.0498 80.2696 39.4798 70.5996C39.4798 70.5996 39.2098 77.6896 52.3998 83.1296C52.3998 83.1296 53.1698 83.7896 52.3498 84.2796C52.3498 84.2796 44.7598 85.3196 39.0498 81.4796V81.4696Z" fill="#60C8D4"/>
<path d="M61.6199 116.64C68.3578 116.64 73.8199 108.093 73.8199 97.55C73.8199 87.0068 68.3578 78.46 61.6199 78.46C54.882 78.46 49.4199 87.0068 49.4199 97.55C49.4199 108.093 54.882 116.64 61.6199 116.64Z" fill="white"/>
<path d="M61.8801 116.64C67.1654 116.64 71.4501 109.803 71.4501 101.37C71.4501 92.9362 67.1654 86.0996 61.8801 86.0996C56.5947 86.0996 52.3101 92.9362 52.3101 101.37C52.3101 109.803 56.5947 116.64 61.8801 116.64Z" fill="#231F20"/>
<path d="M56.1202 93.6904C57.4567 93.6904 58.5402 91.9935 58.5402 89.9004C58.5402 87.8072 57.4567 86.1104 56.1202 86.1104C54.7837 86.1104 53.7002 87.8072 53.7002 89.9004C53.7002 91.9935 54.7837 93.6904 56.1202 93.6904Z" fill="white"/>
<path opacity="0.57" d="M50.3401 131.8C56.5698 131.8 61.6201 130.471 61.6201 128.83C61.6201 127.19 56.5698 125.86 50.3401 125.86C44.1103 125.86 39.0601 127.19 39.0601 128.83C39.0601 130.471 44.1103 131.8 50.3401 131.8Z" fill="#F7B1C4"/>
<path opacity="0.57" d="M135.27 131.8C141.5 131.8 146.55 130.471 146.55 128.83C146.55 127.19 141.5 125.86 135.27 125.86C129.04 125.86 123.99 127.19 123.99 128.83C123.99 130.471 129.04 131.8 135.27 131.8Z" fill="#F7B1C4"/>
</g>
<defs>
<clipPath id="clip0_1049_8606">
<rect width="180.84" height="181.95" fill="white"/>
</clipPath>
</defs>
</svg>
