<svg width="180" height="181" viewBox="0 0 180 181" fill="none" xmlns="http://www.w3.org/2000/svg">
<g clip-path="url(#clip0_1049_8687)">
<path d="M89.82 179.64C139.426 179.64 179.64 139.426 179.64 89.82C179.64 40.2138 139.426 0 89.82 0C40.2138 0 0 40.2138 0 89.82C0 139.426 40.2138 179.64 89.82 179.64Z" fill="#595A5C"/>
<path d="M60.52 174.76C60.52 174.76 89.82 188.23 119.12 174.76C119.12 174.76 89.82 185.69 60.52 174.76Z" fill="#818285"/>
<path d="M91.8999 159.68C97.1687 159.68 101.44 152.991 101.44 144.74C101.44 136.489 97.1687 129.8 91.8999 129.8C86.6311 129.8 82.3599 136.489 82.3599 144.74C82.3599 152.991 86.6311 159.68 91.8999 159.68Z" fill="#818285" stroke="#818285" stroke-width="5" stroke-miterlimit="10"/>
<path d="M51.8997 118.481C51.8997 118.481 54.9597 117.941 58.2896 118.481L56.4096 116.931C56.4096 116.931 52.4496 117.391 51.8896 118.481H51.8997Z" fill="#60C8D4"/>
<path d="M36.0698 83.3104C36.0698 83.3104 36.9498 87.2704 46.6198 90.9004C46.6198 90.9004 52.5598 93.6504 54.9698 81.4504C54.9698 81.4504 46.0698 82.1104 36.4998 72.4404C36.4998 72.4404 36.2298 79.5304 49.4198 84.9704C49.4198 84.9704 50.1898 85.6304 49.3698 86.1204C49.3698 86.1204 41.7798 87.1604 36.0698 83.3204V83.3104Z" fill="#60C8D4"/>
<path d="M58.6399 118.481C65.3778 118.481 70.8399 109.934 70.8399 99.3908C70.8399 88.8477 65.3778 80.3008 58.6399 80.3008C51.9021 80.3008 46.4399 88.8477 46.4399 99.3908C46.4399 109.934 51.9021 118.481 58.6399 118.481Z" fill="white"/>
<path d="M140.75 83.3104C140.75 83.3104 139.87 87.2704 130.2 90.9004C130.2 90.9004 124.26 93.6504 121.85 81.4504C121.85 81.4504 130.75 82.1104 140.32 72.4404C140.32 72.4404 140.59 79.5304 127.4 84.9704C127.4 84.9704 126.63 85.6304 127.45 86.1204C127.45 86.1204 135.04 87.1604 140.75 83.3204V83.3104Z" fill="#60C8D4"/>
<path d="M125.43 118.481C125.43 118.481 122.37 117.941 119.04 118.481L120.92 116.931C120.92 116.931 124.88 117.391 125.44 118.481H125.43Z" fill="#60C8D4"/>
<path d="M118.19 118.481C124.928 118.481 130.39 109.934 130.39 99.3908C130.39 88.8477 124.928 80.3008 118.19 80.3008C111.452 80.3008 105.99 88.8477 105.99 99.3908C105.99 109.934 111.452 118.481 118.19 118.481Z" fill="white"/>
<path d="M58.8898 118.48C64.1752 118.48 68.4598 111.644 68.4598 103.21C68.4598 94.777 64.1752 87.9404 58.8898 87.9404C53.6045 87.9404 49.3198 94.777 49.3198 103.21C49.3198 111.644 53.6045 118.48 58.8898 118.48Z" fill="#231F20"/>
<path d="M53.1397 95.5204C54.4763 95.5204 55.5597 93.8236 55.5597 91.7304C55.5597 89.6373 54.4763 87.9404 53.1397 87.9404C51.8032 87.9404 50.7197 89.6373 50.7197 91.7304C50.7197 93.8236 51.8032 95.5204 53.1397 95.5204Z" fill="white"/>
<path d="M118.12 118.48C123.482 118.48 127.83 111.644 127.83 103.21C127.83 94.777 123.482 87.9404 118.12 87.9404C112.757 87.9404 108.41 94.777 108.41 103.21C108.41 111.644 112.757 118.48 118.12 118.48Z" fill="#231F20"/>
<path d="M113.03 95.5204C114.366 95.5204 115.45 93.8236 115.45 91.7304C115.45 89.6373 114.366 87.9404 113.03 87.9404C111.693 87.9404 110.61 89.6373 110.61 91.7304C110.61 93.8236 111.693 95.5204 113.03 95.5204Z" fill="white"/>
<path opacity="0.57" d="M47.3498 133.64C53.5796 133.64 58.6298 132.31 58.6298 130.67C58.6298 129.03 53.5796 127.7 47.3498 127.7C41.1201 127.7 36.0698 129.03 36.0698 130.67C36.0698 132.31 41.1201 133.64 47.3498 133.64Z" fill="#F7B1C4"/>
<path opacity="0.57" d="M132.29 133.64C138.52 133.64 143.57 132.31 143.57 130.67C143.57 129.03 138.52 127.7 132.29 127.7C126.06 127.7 121.01 129.03 121.01 130.67C121.01 132.31 126.06 133.64 132.29 133.64Z" fill="#F7B1C4"/>
</g>
<defs>
<clipPath id="clip0_1049_8687">
<rect width="179.64" height="180.74" fill="white"/>
</clipPath>
</defs>
</svg>
