<svg width="180" height="181" viewBox="0 0 180 181" fill="none" xmlns="http://www.w3.org/2000/svg">
<g clip-path="url(#clip0_1049_8709)">
<path d="M89.55 179.1C139.007 179.1 179.1 139.007 179.1 89.55C179.1 40.0929 139.007 0 89.55 0C40.0929 0 0 40.0929 0 89.55C0 139.007 40.0929 179.1 89.55 179.1Z" fill="#595A5C"/>
<path d="M60.3398 174.23C60.3398 174.23 89.5498 187.66 118.76 174.23C118.76 174.23 89.5498 185.12 60.3398 174.23Z" fill="#818285"/>
<path d="M57.6499 145.1C57.6499 145.1 81.1199 149 117.35 145.1C117.35 145.1 103.56 155.72 87.4999 155.53C87.4999 155.53 69.8899 155.77 57.6499 145.1Z" fill="white"/>
<path d="M46.4399 78.0096C50.1199 73.3796 53.2199 72.3496 55.3899 72.2796C59.4799 72.1596 61.5199 75.4096 67.9199 77.2896C71.4099 78.3096 74.4699 78.4296 76.5099 78.3596" stroke="#818285" stroke-width="3" stroke-miterlimit="10"/>
<path d="M101.91 65.8405C104.77 64.3705 108.84 62.0605 113.36 58.6805C118.84 54.5805 120.77 52.0505 123.74 52.2405C125.97 52.3805 129.17 54.0905 132.69 61.9005" stroke="#818285" stroke-width="3" stroke-miterlimit="10"/>
<path d="M51.6296 121.38C51.6296 121.38 54.6896 120.84 58.0196 121.38L56.1396 119.83C56.1396 119.83 52.1796 120.29 51.6196 121.38H51.6296Z" fill="#60C8D4"/>
<path d="M35.7998 86.2098C35.7998 86.2098 36.6798 90.1699 46.3498 93.7999C46.3498 93.7999 52.2898 96.5498 54.6998 84.3498C54.6998 84.3498 45.7998 85.0098 36.2298 75.3398C36.2298 75.3398 35.9598 82.4299 49.1498 87.8699C49.1498 87.8699 49.9198 88.5298 49.0998 89.0198C49.0998 89.0198 41.5098 90.0598 35.7998 86.2198V86.2098Z" fill="#60C8D4"/>
<path d="M58.3699 121.38C65.1078 121.38 70.5699 112.833 70.5699 102.29C70.5699 91.7471 65.1078 83.2002 58.3699 83.2002C51.632 83.2002 46.1699 91.7471 46.1699 102.29C46.1699 112.833 51.632 121.38 58.3699 121.38Z" fill="white"/>
<path d="M140.48 86.2098C140.48 86.2098 139.6 90.1699 129.93 93.7999C129.93 93.7999 123.99 96.5498 121.58 84.3498C121.58 84.3498 130.48 85.0098 140.05 75.3398C140.05 75.3398 140.32 82.4299 127.13 87.8699C127.13 87.8699 126.36 88.5298 127.18 89.0198C127.18 89.0198 134.77 90.0598 140.48 86.2198V86.2098Z" fill="#60C8D4"/>
<path d="M125.16 121.38C125.16 121.38 122.1 120.84 118.77 121.38L120.65 119.83C120.65 119.83 124.61 120.29 125.17 121.38H125.16Z" fill="#60C8D4"/>
<path d="M117.92 121.38C124.658 121.38 130.12 112.833 130.12 102.29C130.12 91.7471 124.658 83.2002 117.92 83.2002C111.182 83.2002 105.72 91.7471 105.72 102.29C105.72 112.833 111.182 121.38 117.92 121.38Z" fill="white"/>
<path d="M58.6198 121.39C63.9052 121.39 68.1898 114.553 68.1898 106.12C68.1898 97.6862 63.9052 90.8496 58.6198 90.8496C53.3344 90.8496 49.0498 97.6862 49.0498 106.12C49.0498 114.553 53.3344 121.39 58.6198 121.39Z" fill="#231F20"/>
<path d="M52.8697 98.4296C54.2062 98.4296 55.2897 96.7328 55.2897 94.6396C55.2897 92.5465 54.2062 90.8496 52.8697 90.8496C51.5332 90.8496 50.4497 92.5465 50.4497 94.6396C50.4497 96.7328 51.5332 98.4296 52.8697 98.4296Z" fill="white"/>
<path d="M117.85 121.39C123.212 121.39 127.56 114.553 127.56 106.12C127.56 97.6862 123.212 90.8496 117.85 90.8496C112.487 90.8496 108.14 97.6862 108.14 106.12C108.14 114.553 112.487 121.39 117.85 121.39Z" fill="#231F20"/>
<path d="M112.76 98.4296C114.096 98.4296 115.18 96.7328 115.18 94.6396C115.18 92.5465 114.096 90.8496 112.76 90.8496C111.423 90.8496 110.34 92.5465 110.34 94.6396C110.34 96.7328 111.423 98.4296 112.76 98.4296Z" fill="white"/>
<path opacity="0.57" d="M47.0798 136.54C53.3096 136.54 58.3598 135.21 58.3598 133.57C58.3598 131.929 53.3096 130.6 47.0798 130.6C40.85 130.6 35.7998 131.929 35.7998 133.57C35.7998 135.21 40.85 136.54 47.0798 136.54Z" fill="#F7B1C4"/>
<path opacity="0.57" d="M132.02 136.54C138.25 136.54 143.3 135.21 143.3 133.57C143.3 131.929 138.25 130.6 132.02 130.6C125.79 130.6 120.74 131.929 120.74 133.57C120.74 135.21 125.79 136.54 132.02 136.54Z" fill="#F7B1C4"/>
</g>
<defs>
<clipPath id="clip0_1049_8709">
<rect width="179.1" height="180.2" fill="white"/>
</clipPath>
</defs>
</svg>
