<svg width="177" height="187" viewBox="0 0 177 187" fill="none" xmlns="http://www.w3.org/2000/svg">
<g clip-path="url(#clip0_1049_8762)">
<path d="M88.35 176.7C137.144 176.7 176.7 137.144 176.7 88.35C176.7 39.5556 137.144 0 88.35 0C39.5556 0 0 39.5556 0 88.35C0 137.144 39.5556 176.7 88.35 176.7Z" fill="#595A5C"/>
<path d="M59.5298 171.89C59.5298 171.89 88.3498 185.14 117.17 171.89C117.17 171.89 88.3498 182.64 59.5298 171.89Z" fill="#818285"/>
<path d="M58.52 138.32C59.49 140 67.32 153.12 82.95 155.31C96.16 157.16 109.6 150.47 116.94 138.32" stroke="#818285" stroke-width="3" stroke-miterlimit="10"/>
<path d="M52.97 112.49C52.97 112.49 56.03 111.95 59.36 112.49L57.48 110.94C57.48 110.94 53.52 111.4 52.96 112.49H52.97Z" fill="#60C8D4"/>
<path d="M37.1401 77.3202C37.1401 77.3202 38.0201 81.2802 47.6901 84.9102C47.6901 84.9102 53.6301 87.6602 56.0401 75.4602C56.0401 75.4602 47.1401 76.1202 37.5701 66.4502C37.5701 66.4502 37.3001 73.5402 50.4901 78.9802C50.4901 78.9802 51.2601 79.6402 50.4401 80.1302C50.4401 80.1302 42.8501 81.1702 37.1401 77.3302V77.3202Z" fill="#60C8D4"/>
<path d="M59.7103 112.491C66.4481 112.491 71.9103 103.944 71.9103 93.4006C71.9103 82.8574 66.4481 74.3105 59.7103 74.3105C52.9724 74.3105 47.5103 82.8574 47.5103 93.4006C47.5103 103.944 52.9724 112.491 59.7103 112.491Z" fill="white"/>
<path d="M141.83 77.3202C141.83 77.3202 140.95 81.2802 131.28 84.9102C131.28 84.9102 125.34 87.6602 122.93 75.4602C122.93 75.4602 131.83 76.1202 141.4 66.4502C141.4 66.4502 141.67 73.5402 128.48 78.9802C128.48 78.9802 127.71 79.6402 128.53 80.1302C128.53 80.1302 136.12 81.1702 141.83 77.3302V77.3202Z" fill="#60C8D4"/>
<path d="M126.5 112.49C126.5 112.49 123.44 111.95 120.11 112.49L121.99 110.94C121.99 110.94 125.95 111.4 126.51 112.49H126.5Z" fill="#60C8D4"/>
<path d="M119.26 112.491C125.998 112.491 131.46 103.944 131.46 93.4006C131.46 82.8574 125.998 74.3105 119.26 74.3105C112.522 74.3105 107.06 82.8574 107.06 93.4006C107.06 103.944 112.522 112.491 119.26 112.491Z" fill="white"/>
<path d="M59.9699 112.5C65.2553 112.5 69.5399 105.663 69.5399 97.23C69.5399 88.7966 65.2553 81.96 59.9699 81.96C54.6845 81.96 50.3999 88.7966 50.3999 97.23C50.3999 105.663 54.6845 112.5 59.9699 112.5Z" fill="#231F20"/>
<path d="M54.21 89.54C55.5466 89.54 56.63 87.8431 56.63 85.75C56.63 83.6568 55.5466 81.96 54.21 81.96C52.8735 81.96 51.79 83.6568 51.79 85.75C51.79 87.8431 52.8735 89.54 54.21 89.54Z" fill="white"/>
<path d="M119.19 112.5C124.553 112.5 128.9 105.663 128.9 97.23C128.9 88.7966 124.553 81.96 119.19 81.96C113.827 81.96 109.48 88.7966 109.48 97.23C109.48 105.663 113.827 112.5 119.19 112.5Z" fill="#231F20"/>
<path d="M114.1 89.54C115.437 89.54 116.52 87.8431 116.52 85.75C116.52 83.6568 115.437 81.96 114.1 81.96C112.764 81.96 111.68 83.6568 111.68 85.75C111.68 87.8431 112.764 89.54 114.1 89.54Z" fill="white"/>
<path opacity="0.57" d="M48.4201 127.65C54.6499 127.65 59.7001 126.32 59.7001 124.68C59.7001 123.04 54.6499 121.71 48.4201 121.71C42.1904 121.71 37.1401 123.04 37.1401 124.68C37.1401 126.32 42.1904 127.65 48.4201 127.65Z" fill="#F7B1C4"/>
<path opacity="0.57" d="M133.36 127.65C139.59 127.65 144.64 126.32 144.64 124.68C144.64 123.04 139.59 121.71 133.36 121.71C127.13 121.71 122.08 123.04 122.08 124.68C122.08 126.32 127.13 127.65 133.36 127.65Z" fill="#F7B1C4"/>
<path d="M40.2099 181.16C30.8899 173.67 33.1499 159.57 33.3099 158.67C35.9999 151.93 38.6899 145.19 41.3899 138.45V138.17L41.5199 126.52L41.5399 124.55C41.7499 124.14 42.6899 122.38 44.4399 122.02C47.3499 121.42 50.0499 126.34 50.3699 126.91C54.5099 134.31 49.7399 141.76 51.7899 142.98C55.7099 145.31 73.8599 118.38 81.8599 121.75C82.0999 121.85 83.3099 122.36 83.7099 123.47C85.6599 128.82 65.9099 138.9 67.7499 142.67C67.9499 143.08 68.3399 143.27 68.5599 143.38C71.0999 144.61 75.1499 139.98 83.5599 133.12C91.1999 126.88 94.3499 125.4 96.3799 126.38C96.6199 126.49 97.2099 126.78 97.5099 127.4C98.9199 130.31 91.8099 136.21 87.9999 139.39C79.8599 146.16 73.3699 149.24 74.1299 151.38C74.3399 151.96 74.9899 152.22 75.2599 152.32C77.7199 153.28 80.5099 149.75 85.8999 145.89C88.3699 144.12 96.2399 138.49 99.2799 140.64C100.11 141.23 100.28 142.18 100.3 142.25C100.65 144.4 97.7699 146.51 88.6399 152.32C81.8999 156.6 78.3099 158.74 78.7199 160.7C78.8199 161.16 79.1399 161.65 79.6099 161.88C81.0199 162.56 82.9299 160.47 86.0599 158.43C87.1199 157.74 93.9599 153.28 96.6199 155.22C97.5699 155.91 97.6599 157.18 97.6699 157.34C97.8199 159.9 94.4299 161.78 90.0099 164.71C87.5099 166.37 84.0099 168.8 79.8999 172.05C78.2599 174.08 75.6799 176.79 71.9299 179.14C64.9099 183.54 49.9999 189.05 40.2199 181.19L40.2099 181.16Z" fill="#595A5C" stroke="#818285" stroke-width="2" stroke-miterlimit="10"/>
</g>
<defs>
<clipPath id="clip0_1049_8762">
<rect width="176.69" height="186.12" fill="white"/>
</clipPath>
</defs>
</svg>
