<svg width="181" height="182" viewBox="0 0 181 182" fill="none" xmlns="http://www.w3.org/2000/svg">
<g clip-path="url(#clip0_1049_8785)">
<path d="M90.42 180.84C140.358 180.84 180.84 140.358 180.84 90.42C180.84 40.4824 140.358 0 90.42 0C40.4824 0 0 40.4824 0 90.42C0 140.358 40.4824 180.84 90.42 180.84Z" fill="#595A5C"/>
<path d="M60.9199 175.92C60.9199 175.92 90.4199 189.48 119.91 175.92C119.91 175.92 90.4099 186.92 60.9199 175.92Z" fill="#818285"/>
<path d="M52.3501 133.69C56.4601 136.87 69.9601 146.48 89.7501 146.6C109.99 146.72 123.83 136.83 127.89 133.69" stroke="#818285" stroke-width="2" stroke-miterlimit="10"/>
<path d="M96.2498 146.1C93.9798 157.61 99.7798 167.57 107.7 169.77C112.44 171.08 118.14 169.66 121.59 166.05C127.22 160.15 126.91 148.37 118.55 139.59C111.11 141.76 103.68 143.93 96.2398 146.1H96.2498Z" fill="#818285"/>
<path d="M54.76 115.85C54.76 115.85 57.82 115.31 61.15 115.85L59.27 114.3C59.27 114.3 55.31 114.76 54.75 115.85H54.76Z" fill="#60C8D4"/>
<path d="M38.9302 80.6796C38.9302 80.6796 39.8102 84.6396 49.4802 88.2696C49.4802 88.2696 55.4202 91.0196 57.8302 78.8196C57.8302 78.8196 48.9302 79.4796 39.3602 69.8096C39.3602 69.8096 39.0902 76.8996 52.2802 82.3396C52.2802 82.3396 53.0502 82.9996 52.2302 83.4896C52.2302 83.4896 44.6402 84.5296 38.9302 80.6896V80.6796Z" fill="#60C8D4"/>
<path d="M61.5003 115.85C68.2382 115.85 73.7003 107.303 73.7003 96.7599C73.7003 86.2168 68.2382 77.6699 61.5003 77.6699C54.7624 77.6699 49.3003 86.2168 49.3003 96.7599C49.3003 107.303 54.7624 115.85 61.5003 115.85Z" fill="white"/>
<path d="M143.62 80.6796C143.62 80.6796 142.74 84.6396 133.07 88.2696C133.07 88.2696 127.13 91.0196 124.72 78.8196C124.72 78.8196 133.62 79.4796 143.19 69.8096C143.19 69.8096 143.46 76.8996 130.27 82.3396C130.27 82.3396 129.5 82.9996 130.32 83.4896C130.32 83.4896 137.91 84.5296 143.62 80.6896V80.6796Z" fill="#60C8D4"/>
<path d="M128.29 115.85C128.29 115.85 125.23 115.31 121.9 115.85L123.78 114.3C123.78 114.3 127.74 114.76 128.3 115.85H128.29Z" fill="#60C8D4"/>
<path d="M121.05 115.85C127.788 115.85 133.25 107.303 133.25 96.7599C133.25 86.2168 127.788 77.6699 121.05 77.6699C114.312 77.6699 108.85 86.2168 108.85 96.7599C108.85 107.303 114.312 115.85 121.05 115.85Z" fill="white"/>
<path d="M61.7599 115.85C67.0453 115.85 71.3299 109.013 71.3299 100.58C71.3299 92.1462 67.0453 85.3096 61.7599 85.3096C56.4746 85.3096 52.1899 92.1462 52.1899 100.58C52.1899 109.013 56.4746 115.85 61.7599 115.85Z" fill="#231F20"/>
<path d="M56.0001 92.8993C57.3366 92.8993 58.4201 91.2025 58.4201 89.1093C58.4201 87.0162 57.3366 85.3193 56.0001 85.3193C54.6635 85.3193 53.5801 87.0162 53.5801 89.1093C53.5801 91.2025 54.6635 92.8993 56.0001 92.8993Z" fill="white"/>
<path d="M120.98 115.85C126.343 115.85 130.69 109.013 130.69 100.58C130.69 92.1462 126.343 85.3096 120.98 85.3096C115.617 85.3096 111.27 92.1462 111.27 100.58C111.27 109.013 115.617 115.85 120.98 115.85Z" fill="#231F20"/>
<path d="M115.89 92.8993C117.227 92.8993 118.31 91.2025 118.31 89.1093C118.31 87.0162 117.227 85.3193 115.89 85.3193C114.554 85.3193 113.47 87.0162 113.47 89.1093C113.47 91.2025 114.554 92.8993 115.89 92.8993Z" fill="white"/>
<path opacity="0.57" d="M50.2102 131.009C56.4399 131.009 61.4902 129.68 61.4902 128.039C61.4902 126.399 56.4399 125.069 50.2102 125.069C43.9804 125.069 38.9302 126.399 38.9302 128.039C38.9302 129.68 43.9804 131.009 50.2102 131.009Z" fill="#F7B1C4"/>
<path opacity="0.57" d="M135.15 131.009C141.38 131.009 146.43 129.68 146.43 128.039C146.43 126.399 141.38 125.069 135.15 125.069C128.92 125.069 123.87 126.399 123.87 128.039C123.87 129.68 128.92 131.009 135.15 131.009Z" fill="#F7B1C4"/>
</g>
<defs>
<clipPath id="clip0_1049_8785">
<rect width="180.84" height="181.95" fill="white"/>
</clipPath>
</defs>
</svg>
